<svg xmlns="http://www.w3.org/2000/svg" xmlns:xlink="http://www.w3.org/1999/xlink" version="1.1" width="60" height="200" viewBox="0 0 60 200" xml:space="preserve">
<rect x="0" y="0" width="100%" height="100%" fill="transparent"></rect>
<g transform="matrix(0 0 0 0 0 0)" id="f8fc9200-9dee-40cc-a87e-bc923e588dcc"  >
</g>
<g transform="matrix(1 0 0 1 30 100)" id="d17953f2-9bf1-4691-8990-e9a33ba63f39"  >
<rect style="stroke: none; stroke-width: 1; stroke-dasharray: none; stroke-linecap: butt; stroke-dashoffset: 0; stroke-linejoin: miter; stroke-miterlimit: 4; fill: rgb(255,255,255); fill-rule: nonzero; opacity: 1; visibility: hidden;" vector-effect="non-scaling-stroke"  x="-30" y="-100" rx="0" ry="0" width="60" height="200" />
</g>
<g transform="matrix(0.66 0 0 0.91 30.04 101.36)"  >
<path style="stroke: rgb(0,0,0); stroke-width: 0; stroke-dasharray: none; stroke-linecap: butt; stroke-dashoffset: 0; stroke-linejoin: miter; stroke-miterlimit: 4; fill: rgb(77,76,81); fill-rule: nonzero; opacity: 1;" vector-effect="non-scaling-stroke"  transform=" translate(-56.08, -125.1)" d="M 85.628 124.005 C 85.736 123.83399999999999 85.573 123.604 85.38 123.61999999999999 C 85.295 123.54299999999999 85.199 123.47999999999999 85.094 123.42999999999999 C 85.059 123.38999999999999 85.009 123.36699999999999 84.945 123.371 C 84.827 123.33099999999999 84.70599999999999 123.301 84.583 123.286 C 84.101 123.23 83.608 123.32300000000001 83.132 123.388 C 82.56700000000001 123.465 82.004 123.552 81.44200000000001 123.65 C 77.00800000000001 124.42500000000001 72.69600000000001 125.854 68.635 127.786 C 66.601 128.75300000000001 64.628 129.847 62.724000000000004 131.049 C 61.784000000000006 131.642 60.855000000000004 132.256 59.956 132.91 C 59.122 133.516 58.311 134.184 57.683 135.008 C 57.651 135.05 57.622 135.095 57.591 135.138 C 57.574 131.27100000000002 57.559000000000005 127.40400000000001 57.542 123.53800000000001 C 58.586 123.51800000000001 59.627 123.406 60.662 123.263 C 61.842999999999996 123.10000000000001 63.015 122.88300000000001 64.175 122.607 C 66.508 122.05199999999999 68.78999999999999 121.271 70.952 120.231 C 74.858 118.351 78.341 115.591 80.889 112.068 C 82.276 110.14999999999999 83.36999999999999 108.018 84.067 105.75399999999999 C 84.128 105.55699999999999 83.991 105.30099999999999 83.752 105.35099999999998 C 79.29299999999999 106.30299999999998 74.896 107.67899999999999 70.83099999999999 109.76599999999999 C 67.10199999999999 111.681 63.67199999999999 114.19699999999999 60.889999999999986 117.34599999999999 C 59.603999999999985 118.80099999999999 58.472999999999985 120.38499999999999 57.536999999999985 122.08399999999999 C 57.521999999999984 118.65099999999998 57.508999999999986 115.21799999999999 57.49299999999999 111.78399999999999 C 57.51899999999999 111.74199999999999 57.53299999999999 111.69 57.52099999999999 111.624 C 57.506999999999984 111.548 57.50199999999999 111.472 57.49499999999998 111.39699999999999 C 59.13299999999998 111.201 60.76399999999998 110.704 62.31299999999998 110.175 C 64.02799999999998 109.59 65.69299999999998 108.865 67.29299999999998 108.015 C 70.51699999999998 106.303 73.48299999999998 104.115 76.04499999999997 101.513 C 76.60899999999997 100.94000000000001 77.14699999999998 100.343 77.66999999999997 99.732 C 78.04599999999998 99.376 78.37999999999997 98.981 78.64399999999998 98.538 C 78.77999999999997 98.36399999999999 78.92099999999998 98.193 79.05299999999998 98.01599999999999 C 79.36499999999998 97.59899999999999 79.69899999999998 97.18499999999999 79.91799999999998 96.71099999999998 C 80.05399999999997 96.41799999999998 79.69599999999998 96.23899999999999 79.47599999999998 96.38799999999999 C 77.43299999999998 96.576 75.38199999999999 96.96399999999998 73.39199999999998 97.45599999999999 C 71.39799999999998 97.94899999999998 69.43799999999999 98.59499999999998 67.57299999999998 99.45899999999999 C 64.34999999999998 100.95299999999999 61.37699999999998 103.12899999999999 59.24599999999998 105.996 C 58.66699999999998 106.77499999999999 58.15299999999998 107.604 57.71799999999998 108.472 C 57.63599999999998 108.63499999999999 57.55699999999998 108.80399999999999 57.478999999999985 108.975 C 57.46299999999999 105.262 57.44999999999998 101.55 57.43199999999999 97.83699999999999 C 58.28599999999999 98.17799999999998 59.22699999999999 98.30799999999999 60.139999999999986 98.341 C 61.12599999999998 98.377 62.11699999999998 98.315 63.09099999999999 98.15599999999999 C 65.08299999999998 97.833 67.00999999999999 97.12499999999999 68.78499999999998 96.17299999999999 C 72.44799999999998 94.21 75.41899999999998 91.21999999999998 77.98099999999998 87.98899999999999 C 78.63699999999999 87.16099999999999 79.26899999999998 86.31499999999998 79.88299999999998 85.45499999999998 C 80.19399999999999 85.01999999999998 80.50099999999998 84.58199999999998 80.80599999999998 84.14199999999998 C 80.95499999999998 83.92699999999998 81.13099999999999 83.70099999999998 81.26599999999998 83.45899999999997 C 81.27699999999997 83.44899999999997 81.28899999999997 83.43799999999997 81.29999999999998 83.42799999999997 C 81.36999999999998 83.36599999999997 81.39099999999998 83.28799999999997 81.38399999999999 83.21399999999997 C 81.42899999999999 83.09699999999997 81.46099999999998 82.97699999999998 81.47199999999998 82.85199999999998 C 81.56999999999998 81.67399999999998 79.92399999999998 81.82299999999998 79.17599999999997 81.84199999999997 C 78.03599999999997 81.87099999999997 76.90699999999997 82.04699999999997 75.79499999999997 82.29099999999997 C 71.70299999999997 83.18899999999996 67.65699999999997 84.69399999999997 64.22999999999998 87.13999999999997 C 61.28099999999998 89.24399999999997 58.781999999999975 92.11399999999998 57.45999999999998 95.51199999999997 C 57.48399999999998 95.16899999999997 57.494999999999976 94.82499999999997 57.51599999999998 94.49299999999997 C 57.56799999999998 93.66999999999997 57.607999999999976 92.84499999999997 57.62799999999998 92.01999999999997 C 57.64699999999998 91.19499999999996 57.65199999999998 90.36899999999997 57.64299999999998 89.54299999999996 C 57.63899999999998 89.14499999999997 57.63499999999998 88.74699999999996 57.61799999999998 88.34999999999997 C 57.60999999999998 88.16099999999997 57.60299999999998 87.97099999999996 57.58199999999998 87.78199999999997 C 57.57199999999998 87.68899999999996 57.56399999999998 87.59299999999998 57.54799999999998 87.49999999999997 C 57.54399999999998 87.47799999999997 57.53299999999998 87.45599999999997 57.52499999999998 87.43299999999998 C 60.21699999999998 85.67999999999998 62.66999999999997 83.58299999999998 64.89999999999998 81.27399999999997 C 67.22399999999998 78.86799999999997 69.27399999999997 76.22299999999997 70.98499999999997 73.34699999999998 C 71.94799999999996 71.72799999999998 72.80599999999997 70.04999999999998 73.54799999999997 68.31899999999997 C 73.58699999999997 68.22799999999998 73.56699999999998 68.14899999999997 73.52099999999997 68.08899999999997 C 73.50699999999998 68.05399999999997 73.48099999999997 68.02599999999997 73.43799999999997 68.01099999999997 C 73.43099999999997 68.00899999999997 73.42399999999998 68.00699999999996 73.41699999999997 68.00499999999997 C 73.40799999999997 68.00099999999996 73.39799999999997 67.99899999999997 73.38799999999998 67.99699999999997 C 73.35299999999998 67.98599999999998 73.31799999999998 67.97899999999997 73.28299999999997 67.96899999999997 C 73.27699999999997 67.90299999999996 73.21499999999997 67.84299999999996 73.13499999999998 67.87199999999997 C 73.10699999999997 67.88199999999998 73.07899999999998 67.89499999999997 73.05199999999998 67.90599999999998 C 71.93499999999997 67.63299999999998 70.78299999999997 67.78999999999998 69.71299999999998 68.19199999999998 C 71.52599999999998 66.41599999999998 73.10899999999998 64.40399999999998 74.25099999999998 62.13399999999998 C 74.64199999999998 61.35699999999998 75.01599999999998 60.53999999999998 75.25599999999997 59.70199999999998 C 75.43899999999998 59.06399999999998 75.54499999999997 58.226999999999975 75.04299999999998 57.70099999999998 C 74.36399999999998 56.98799999999998 73.32599999999998 57.46999999999998 72.57199999999997 57.76999999999998 C 71.60599999999998 58.15399999999998 70.65099999999997 58.56399999999998 69.70599999999997 58.99699999999998 C 69.50599999999997 59.08799999999998 69.30899999999997 59.18499999999998 69.11099999999998 59.27799999999998 C 71.41399999999997 57.394999999999975 73.46299999999998 55.180999999999976 74.74499999999998 52.47299999999998 C 75.13599999999998 51.647999999999975 75.44399999999997 50.787999999999975 75.66299999999998 49.90199999999998 C 75.84099999999998 49.18099999999998 75.98599999999998 48.37999999999998 75.70899999999999 47.66299999999998 C 75.621 47.43499999999998 75.48799999999999 47.256999999999984 75.32999999999998 47.11499999999998 C 75.30499999999998 47.07799999999998 75.27299999999998 47.04899999999998 75.23299999999999 47.03399999999998 C 74.85 46.74899999999998 74.33399999999999 46.66799999999998 73.82099999999998 46.75999999999998 C 72.92999999999998 46.91999999999997 72.05399999999999 47.318999999999974 71.26299999999998 47.747999999999976 C 69.62199999999997 48.63799999999998 68.18099999999998 49.851999999999975 66.77999999999997 51.07299999999998 C 65.31299999999997 52.351999999999975 63.89899999999997 53.69899999999998 62.59999999999997 55.14999999999998 C 60.17999999999997 57.85299999999998 58.14399999999997 60.98499999999998 57.071999999999974 64.47299999999998 C 57.03299999999997 63.36699999999998 56.995999999999974 62.26099999999998 56.94499999999997 61.15499999999999 C 56.91999999999997 60.609999999999985 56.891999999999975 60.063999999999986 56.86399999999997 59.51799999999999 C 58.22599999999997 58.511999999999986 59.55199999999997 57.447999999999986 60.840999999999966 56.35299999999999 C 62.23999999999997 55.164999999999985 63.593999999999966 53.92299999999999 64.85299999999997 52.585999999999984 C 67.17199999999997 50.12399999999998 69.17399999999996 47.29999999999998 70.37799999999997 44.12099999999998 C 70.52599999999997 43.72999999999998 70.66099999999997 43.33399999999998 70.78199999999997 42.93399999999998 C 70.88999999999997 42.575999999999986 71.01599999999996 42.20599999999998 71.05699999999997 41.83199999999999 C 71.08199999999998 41.60799999999999 71.07199999999997 41.36799999999999 70.99199999999998 41.15399999999999 C 70.99399999999997 41.08699999999999 70.95999999999998 41.03199999999999 70.90999999999998 40.99499999999999 C 70.89099999999998 40.96499999999999 70.87899999999998 40.93199999999999 70.85599999999998 40.90399999999999 C 70.63099999999999 40.624999999999986 70.25799999999998 40.55199999999999 69.92099999999998 40.630999999999986 C 69.55399999999997 40.71799999999999 69.22299999999998 40.92199999999998 68.89699999999998 41.10499999999998 C 68.57499999999997 41.28499999999998 68.25699999999998 41.472999999999985 67.94399999999997 41.66699999999998 C 67.30099999999997 42.06599999999998 66.67699999999998 42.49699999999998 66.07599999999998 42.95599999999998 C 63.69799999999998 44.77099999999998 61.65699999999998 47.027999999999984 60.08599999999998 49.57299999999998 C 58.504999999999974 52.13299999999998 57.376999999999974 54.96599999999998 56.81699999999998 57.92399999999998 C 56.805999999999976 57.98099999999998 56.79899999999998 58.03999999999998 56.78899999999998 58.09699999999998 C 56.66999999999998 55.93899999999998 56.52799999999998 53.77699999999998 56.33799999999998 51.61899999999998 C 57.375999999999976 50.70999999999998 58.30499999999998 49.67599999999998 59.14799999999998 48.586999999999975 C 60.094999999999985 47.363999999999976 60.93499999999998 46.059999999999974 61.65699999999998 44.69199999999997 C 62.38399999999998 43.31499999999997 62.990999999999985 41.873999999999974 63.466999999999985 40.39099999999997 C 63.98899999999998 38.76199999999997 64.39799999999998 37.06399999999997 64.44899999999998 35.34699999999997 C 64.47299999999998 34.52399999999997 64.43899999999998 33.67399999999997 64.23599999999999 32.872999999999976 C 64.088 32.28599999999997 63.82799999999999 31.668999999999976 63.32199999999999 31.301999999999975 C 61.96399999999999 30.319999999999975 60.633999999999986 31.887999999999973 59.91399999999999 32.89299999999997 C 58.10899999999999 35.41699999999997 56.90999999999999 38.31399999999997 56.222999999999985 41.330999999999975 C 55.92599999999999 42.635999999999974 55.731999999999985 43.961999999999975 55.61999999999998 45.29499999999997 C 55.57799999999998 45.001999999999974 55.530999999999985 44.70999999999997 55.487999999999985 44.41799999999997 C 55.42899999999999 43.14099999999997 55.21299999999999 41.86399999999997 54.929999999999986 40.62499999999997 C 54.566999999999986 39.03499999999997 54.07799999999999 37.473999999999975 53.45599999999999 35.96599999999997 C 52.82799999999999 34.443999999999974 52.07399999999999 32.97499999999997 51.20899999999999 31.573999999999973 C 50.78299999999999 30.883999999999972 50.32799999999999 30.211999999999975 49.84399999999999 29.56099999999997 C 49.35199999999999 28.898999999999972 48.847999999999985 28.22099999999997 48.24899999999999 27.651999999999973 C 47.661999999999985 27.093999999999973 46.886999999999986 26.684999999999974 46.05599999999999 26.76399999999997 C 45.392999999999994 26.82699999999997 44.84499999999999 27.24899999999997 44.517999999999994 27.81299999999997 C 44.184999999999995 28.38599999999997 44.04599999999999 29.05999999999997 43.995999999999995 29.71499999999997 C 43.934999999999995 30.51899999999997 43.964999999999996 31.33999999999997 44.03099999999999 32.14299999999997 C 44.31099999999999 35.525999999999975 45.54099999999999 38.81199999999997 47.44699999999999 41.61199999999997 C 49.22799999999999 44.22799999999997 51.61199999999999 46.437999999999974 54.31199999999999 48.080999999999975 C 54.648999999999994 48.28599999999997 54.99199999999999 48.482999999999976 55.337999999999994 48.67299999999997 C 55.34499999999999 48.67699999999997 55.35099999999999 48.67599999999997 55.358 48.678999999999974 C 55.65 51.53299999999997 55.900999999999996 54.38999999999997 56.084999999999994 57.25599999999997 C 56.065999999999995 57.22699999999997 56.047 57.196999999999974 56.02799999999999 57.16699999999997 C 55.858999999999995 56.53299999999997 55.66799999999999 55.903999999999975 55.44699999999999 55.28599999999997 C 54.929999999999986 53.84099999999997 54.26699999999999 52.446999999999974 53.49599999999999 51.120999999999974 C 51.96299999999999 48.482999999999976 49.97499999999999 46.11299999999997 47.636999999999986 44.15299999999998 C 47.05399999999999 43.66399999999998 46.447999999999986 43.20099999999998 45.822999999999986 42.766999999999975 C 45.18799999999999 42.32599999999997 44.503999999999984 41.79599999999998 43.74199999999998 41.60899999999997 C 43.01999999999998 41.431999999999974 42.32499999999998 41.76199999999997 42.06899999999998 42.470999999999975 C 41.81899999999998 43.16499999999998 41.94999999999998 43.94599999999998 42.12699999999998 44.64099999999998 C 42.55199999999998 46.312999999999974 43.472999999999985 47.80499999999998 44.46599999999998 49.19599999999998 C 45.40599999999998 50.51299999999998 46.45699999999998 51.751999999999974 47.59699999999998 52.900999999999975 C 49.86799999999998 55.189999999999976 52.494999999999976 57.10299999999997 55.37499999999998 58.552999999999976 C 55.622999999999976 58.677999999999976 55.87399999999998 58.793999999999976 56.12499999999998 58.91099999999997 C 56.14999999999998 59.010999999999974 56.17599999999998 59.110999999999976 56.20199999999998 59.20999999999997 C 56.363999999999976 62.27399999999997 56.47199999999998 65.34099999999998 56.546999999999976 68.40799999999997 C 56.54299999999998 68.40199999999997 56.537999999999975 68.39599999999997 56.53299999999997 68.38899999999997 C 56.47599999999997 68.22399999999996 56.41799999999997 68.05999999999997 56.354999999999976 67.89799999999997 C 56.037999999999975 67.07799999999997 55.64699999999998 66.28699999999996 55.20999999999997 65.52399999999997 C 54.315999999999974 63.961999999999975 53.229999999999976 62.525999999999975 52.07099999999997 61.15299999999997 C 50.91099999999997 59.77999999999997 49.69899999999997 58.44199999999997 48.45699999999997 57.14199999999997 C 47.223999999999975 55.85099999999997 45.94499999999997 54.59599999999997 44.537999999999975 53.49499999999997 C 42.979999999999976 52.27499999999997 41.251999999999974 51.25699999999997 39.360999999999976 50.65199999999997 C 39.15299999999998 50.58599999999997 38.949999999999974 50.729999999999976 38.97299999999998 50.95499999999997 C 39.17599999999998 52.94999999999997 39.94199999999998 54.86299999999997 40.85099999999998 56.63499999999997 C 41.63699999999998 58.16599999999997 42.58199999999998 59.61699999999997 43.66099999999998 60.95699999999997 C 45.82299999999998 63.64299999999997 48.51699999999998 65.88999999999997 51.54399999999998 67.54099999999997 C 53.12599999999998 68.40299999999996 54.798999999999985 69.08099999999997 56.52999999999998 69.57599999999996 C 56.54399999999998 69.61599999999997 56.55799999999998 69.65499999999996 56.57199999999998 69.69499999999996 C 56.582999999999984 70.22099999999996 56.59099999999998 70.74699999999997 56.600999999999985 71.27299999999997 C 56.405999999999985 72.43299999999996 56.384999999999984 73.62499999999997 56.56199999999998 74.80599999999997 C 56.58999999999998 74.99099999999997 56.624999999999986 75.17399999999996 56.661999999999985 75.35599999999997 C 56.667999999999985 75.87099999999997 56.67599999999999 76.38599999999997 56.679999999999986 76.90099999999997 C 56.68699999999998 77.75799999999997 56.691999999999986 78.61499999999997 56.69699999999999 79.47199999999997 C 55.71299999999999 77.14999999999996 54.38899999999999 74.98099999999997 52.75499999999999 73.05199999999996 C 50.72099999999999 70.64999999999996 48.26299999999999 68.62399999999997 45.508999999999986 67.10099999999997 C 44.74299999999999 66.67799999999997 43.953999999999986 66.29799999999997 43.14599999999999 65.96199999999997 C 42.731999999999985 65.78899999999997 42.31199999999998 65.62199999999997 41.886999999999986 65.47799999999998 C 41.60599999999999 65.38299999999998 41.313999999999986 65.27699999999999 41.018999999999984 65.23399999999998 C 40.953999999999986 65.19799999999998 40.890999999999984 65.15699999999998 40.82499999999998 65.12299999999998 C 40.74799999999998 65.08299999999997 40.69199999999998 65.14899999999997 40.68799999999998 65.21799999999998 C 40.67599999999998 65.21899999999998 40.66399999999998 65.21599999999998 40.65199999999998 65.21699999999997 C 40.61899999999998 65.21999999999997 40.59999999999998 65.24399999999997 40.59399999999998 65.27299999999997 C 40.57199999999998 65.29999999999997 40.55799999999998 65.33299999999997 40.57299999999998 65.37599999999996 C 41.06999999999998 66.83299999999996 41.79599999999998 68.21099999999996 42.58799999999998 69.52799999999996 C 43.38099999999998 70.84799999999996 44.28299999999998 72.09799999999996 45.27199999999998 73.27799999999996 C 47.251999999999974 75.64199999999997 49.613999999999976 77.69199999999996 52.24299999999998 79.30599999999997 C 53.51799999999998 80.08899999999997 54.85799999999998 80.77399999999997 56.24299999999998 81.34399999999997 C 56.25099999999998 81.34999999999997 56.25799999999998 81.35599999999997 56.265999999999984 81.36299999999997 C 56.301999999999985 81.39099999999998 56.338999999999984 81.39899999999997 56.374999999999986 81.39899999999997 C 56.48699999999999 81.44499999999998 56.597999999999985 81.49499999999998 56.710999999999984 81.53899999999997 C 56.72499999999999 83.71099999999997 56.731999999999985 85.88199999999998 56.74199999999998 88.05399999999997 C 56.48999999999998 87.65699999999997 56.23099999999998 87.26399999999997 55.963999999999984 86.87699999999997 C 55.423999999999985 86.09499999999997 54.853999999999985 85.33499999999997 54.255999999999986 84.59799999999997 C 53.07499999999999 83.14399999999998 51.78299999999999 81.77999999999997 50.40099999999999 80.51499999999997 C 47.618999999999986 77.96999999999997 44.450999999999986 75.82999999999997 41.03999999999999 74.22099999999998 C 39.12899999999999 73.31899999999997 37.14399999999999 72.53999999999998 35.07399999999999 72.10099999999997 C 34.91199999999999 72.06699999999996 34.83299999999999 72.29199999999997 34.93499999999999 72.38999999999997 C 34.93399999999999 72.40499999999997 34.92799999999999 72.41899999999997 34.935999999999986 72.43699999999997 C 36.442999999999984 75.87699999999997 38.77599999999998 78.98199999999997 41.469999999999985 81.58299999999997 C 44.19699999999998 84.21499999999997 47.411999999999985 86.34299999999998 50.90199999999999 87.82199999999997 C 51.86699999999999 88.23099999999998 52.85799999999999 88.57999999999997 53.86199999999999 88.87899999999998 C 54.80899999999999 89.16099999999997 55.77399999999999 89.41199999999998 56.75099999999999 89.57099999999997 C 56.767999999999994 93.35999999999997 56.78199999999999 97.14999999999996 56.79599999999999 100.93899999999996 C 55.55599999999999 97.68299999999996 53.382999999999996 94.85399999999997 50.77799999999999 92.56499999999997 C 47.901999999999994 90.03699999999996 44.49099999999999 88.18999999999997 40.94499999999999 86.78299999999997 C 39.90299999999999 86.36999999999998 38.84499999999999 85.99799999999998 37.778999999999996 85.65399999999997 C 36.787 85.33399999999997 35.766999999999996 84.99899999999997 34.736999999999995 84.81699999999996 C 34.733999999999995 84.81099999999996 34.73 84.80399999999996 34.727 84.79799999999996 C 34.693 84.73099999999997 34.619 84.74199999999996 34.586 84.78799999999995 C 34.568 84.78499999999995 34.55 84.77999999999996 34.531 84.77699999999996 C 34.417 84.75899999999996 34.365 84.88199999999996 34.406 84.96599999999995 C 34.335 84.96999999999996 34.272 85.04499999999994 34.332 85.11299999999996 C 34.525 85.33499999999995 34.725 85.55099999999996 34.923 85.76899999999996 C 35.483000000000004 87.09699999999997 36.260000000000005 88.34499999999996 37.105000000000004 89.49999999999996 C 38.148 90.92699999999996 39.357000000000006 92.22699999999996 40.67400000000001 93.40399999999995 C 43.528000000000006 95.95599999999996 46.915000000000006 97.86499999999995 50.43600000000001 99.33299999999996 C 52.36300000000001 100.13699999999996 54.339000000000006 100.81999999999995 56.34700000000001 101.39299999999996 C 56.39300000000001 101.44599999999996 56.44000000000001 101.49699999999996 56.48600000000001 101.54999999999995 C 56.53900000000001 101.61099999999996 56.60500000000001 101.62599999999995 56.66700000000001 101.61499999999995 C 56.71200000000001 101.66099999999996 56.75600000000001 101.70599999999995 56.80000000000001 101.75199999999995 C 56.81200000000001 104.93599999999995 56.82400000000001 108.11899999999996 56.83800000000001 111.30299999999995 C 55.25300000000001 108.84899999999996 53.13700000000001 106.71899999999995 50.73000000000001 105.07299999999995 C 47.936000000000014 103.16299999999995 44.71600000000001 101.90199999999994 41.369000000000014 101.40299999999995 C 40.411000000000016 101.25999999999995 39.44300000000001 101.17999999999995 38.47400000000001 101.16299999999995 C 37.52300000000001 101.14599999999996 36.48300000000001 101.11399999999995 35.57100000000001 101.41099999999996 C 35.46100000000001 101.44699999999996 35.47300000000001 101.58699999999996 35.55000000000001 101.64699999999996 C 35.46900000000001 101.72599999999996 35.43700000000001 101.84799999999996 35.53200000000001 101.96499999999996 C 37.54200000000001 104.43999999999996 40.122000000000014 106.52199999999996 42.84700000000001 108.15799999999996 C 45.59900000000001 109.81099999999996 48.601000000000006 111.02499999999996 51.729000000000006 111.74599999999995 C 53.39300000000001 112.12999999999995 55.129000000000005 112.40099999999995 56.842000000000006 112.40899999999995 C 56.842000000000006 112.41099999999994 56.842000000000006 112.41299999999995 56.842000000000006 112.41499999999995 C 56.861000000000004 116.80999999999995 56.883 121.20599999999995 56.903000000000006 125.60099999999994 C 54.99700000000001 122.52999999999994 51.81700000000001 120.48999999999994 48.459 119.24699999999994 C 44.448 117.76299999999995 40.072 117.15599999999995 35.81700000000001 117.65199999999994 C 34.623000000000005 117.79099999999994 33.44800000000001 118.02999999999994 32.290000000000006 118.35299999999994 C 31.284000000000006 118.63299999999994 30.309000000000005 119.02399999999994 29.571000000000005 119.78799999999994 C 29.472000000000005 119.88999999999994 29.524000000000004 120.00899999999994 29.616000000000007 120.07599999999994 C 29.617000000000008 120.10799999999993 29.628000000000007 120.13999999999993 29.654000000000007 120.16399999999993 C 30.342000000000006 120.81999999999994 31.19300000000001 121.32899999999994 31.98700000000001 121.84599999999993 C 32.78600000000001 122.36599999999993 33.60500000000001 122.85699999999993 34.43200000000001 123.33199999999994 C 36.09400000000001 124.28699999999994 37.80600000000001 125.15799999999993 39.58000000000001 125.88799999999993 C 43.125000000000014 127.34599999999993 46.92200000000001 128.22699999999995 50.76900000000001 128.14599999999993 C 52.85500000000001 128.10199999999992 54.94000000000001 127.76199999999993 56.91000000000001 127.06699999999994 C 56.924000000000014 130.14599999999993 56.93800000000001 133.22499999999994 56.95200000000001 136.30299999999994 C 56.951000000000015 136.30599999999993 56.95000000000001 136.30799999999994 56.94900000000001 136.31099999999995 C 56.92000000000001 136.38299999999995 56.92600000000001 136.44699999999995 56.95300000000001 136.49999999999994 C 56.95600000000001 137.09099999999995 56.95800000000001 137.68099999999995 56.96100000000001 138.27199999999993 C 56.78800000000001 138.09699999999992 56.60700000000001 137.93099999999993 56.41800000000001 137.77399999999994 C 55.81200000000001 136.93999999999994 55.055000000000014 136.21099999999996 54.243000000000016 135.56499999999994 C 52.667000000000016 134.31199999999995 50.91200000000001 133.25299999999993 49.180000000000014 132.23199999999994 C 45.45900000000002 130.03799999999995 41.44300000000001 128.22199999999995 37.128000000000014 127.63799999999995 C 36.067000000000014 127.49399999999994 34.996000000000016 127.42899999999995 33.92500000000001 127.44799999999995 C 33.378000000000014 127.45799999999996 32.83200000000001 127.49099999999996 32.28900000000001 127.54899999999995 C 31.791000000000007 127.60199999999995 31.274000000000008 127.65399999999995 30.78900000000001 127.78599999999994 C 30.53400000000001 127.85599999999994 30.26900000000001 127.96199999999995 30.073000000000008 128.14399999999995 C 30.07100000000001 128.14399999999995 30.070000000000007 128.14399999999995 30.06800000000001 128.14499999999995 C 30.00100000000001 128.15499999999994 29.97600000000001 128.20699999999997 29.98100000000001 128.25699999999995 C 29.95300000000001 128.29099999999994 29.92100000000001 128.32099999999994 29.899000000000008 128.35999999999996 C 29.873000000000008 128.40399999999997 29.854000000000006 128.44899999999996 29.838000000000008 128.49399999999994 C 29.79000000000001 128.52899999999994 29.76600000000001 128.59299999999993 29.800000000000008 128.64699999999993 C 29.758000000000006 128.94899999999993 29.898000000000007 129.25299999999993 30.09200000000001 129.50299999999993 C 30.66900000000001 130.24799999999993 31.38500000000001 130.91499999999994 32.08800000000001 131.53799999999993 C 35.00500000000001 134.12399999999994 38.55500000000001 135.92999999999992 42.24700000000001 137.12799999999993 C 46.51100000000001 138.51099999999994 50.97800000000001 139.12099999999992 55.428000000000004 139.52499999999992 C 55.941 139.5709999999999 56.45400000000001 139.61499999999992 56.967000000000006 139.65699999999993 C 56.986000000000004 143.81099999999992 57.005 147.96499999999992 57.02400000000001 152.11899999999991 C 56.87700000000001 151.7549999999999 56.68900000000001 151.40699999999993 56.473000000000006 151.07399999999993 C 56.297000000000004 150.62999999999994 55.986000000000004 150.26399999999992 55.61000000000001 149.95399999999992 C 55.153000000000006 149.4339999999999 54.657000000000004 148.94899999999993 54.17900000000001 148.4929999999999 C 52.74200000000001 147.1219999999999 51.15500000000001 145.91699999999992 49.46400000000001 144.8769999999999 C 46.07500000000001 142.7929999999999 42.30600000000001 141.3719999999999 38.41300000000001 140.5759999999999 C 36.21100000000001 140.12599999999992 33.97000000000001 139.8799999999999 31.72400000000001 139.8299999999999 C 31.65200000000001 139.8279999999999 31.59600000000001 139.8499999999999 31.54900000000001 139.8819999999999 C 31.51900000000001 139.8879999999999 31.49900000000001 139.9109999999999 31.48600000000001 139.93999999999988 C 31.43900000000001 139.9239999999999 31.379000000000012 139.97499999999988 31.40700000000001 140.02299999999988 C 31.41600000000001 140.03899999999987 31.42800000000001 140.0539999999999 31.43800000000001 140.06999999999988 C 31.434000000000008 140.0899999999999 31.43000000000001 140.10899999999987 31.43000000000001 140.1309999999999 C 31.44900000000001 141.08299999999988 32.16700000000001 141.79599999999988 32.80700000000001 142.41599999999988 C 33.50300000000001 143.0899999999999 34.21900000000001 143.74299999999988 34.95400000000001 144.37399999999988 C 36.44500000000001 145.65399999999988 38.01500000000001 146.8399999999999 39.65100000000001 147.92799999999988 C 41.28300000000001 149.0129999999999 42.98100000000001 150.0019999999999 44.73100000000001 150.88599999999988 C 46.54200000000001 151.80099999999987 48.412000000000006 152.6429999999999 50.35900000000001 153.2269999999999 C 52.51700000000001 153.87399999999988 54.80500000000001 154.1859999999999 57.03200000000001 153.73699999999988 C 57.04500000000001 156.69499999999988 57.05900000000001 159.65399999999988 57.07300000000001 162.61199999999988 C 56.437000000000005 162.39199999999988 55.79900000000001 162.1789999999999 55.16000000000001 161.96699999999987 C 54.241000000000014 161.37099999999987 53.28800000000001 160.82699999999988 52.31900000000001 160.33299999999988 C 50.47600000000001 159.3949999999999 48.55500000000001 158.6149999999999 46.59400000000001 157.9649999999999 C 42.62700000000001 156.6489999999999 38.483000000000004 155.8159999999999 34.33600000000001 155.3239999999999 C 31.813000000000013 155.0249999999999 29.223000000000013 154.9259999999999 26.73900000000001 155.5449999999999 C 26.711000000000013 155.5369999999999 26.68400000000001 155.5279999999999 26.656000000000013 155.5199999999999 C 26.544000000000015 155.4879999999999 26.465000000000014 155.60699999999989 26.509000000000015 155.6859999999999 C 26.456000000000014 155.77899999999988 26.463000000000015 155.89799999999988 26.559000000000015 155.9899999999999 C 29.533000000000015 158.8039999999999 33.054000000000016 161.03499999999988 36.869000000000014 162.52299999999988 C 40.969000000000015 164.12199999999987 45.387000000000015 164.8279999999999 49.78100000000001 164.6249999999999 C 52.12100000000001 164.51699999999988 54.439000000000014 164.14199999999988 56.69700000000002 163.5239999999999 C 56.82400000000002 163.61199999999988 56.95300000000002 163.6979999999999 57.08000000000002 163.7869999999999 C 57.11000000000002 170.4179999999999 57.14000000000002 177.0479999999999 57.17100000000002 183.6789999999999 C 57.23400000000002 196.8989999999999 57.09400000000002 210.14799999999988 57.56200000000002 223.3599999999999 C 57.56600000000002 223.4639999999999 57.743000000000016 223.4629999999999 57.746000000000016 223.3579999999999 C 58.067000000000014 211.3789999999999 57.85400000000001 199.37299999999988 57.807000000000016 187.3909999999999 C 57.77600000000002 179.4089999999999 57.744000000000014 171.4259999999999 57.713000000000015 163.4429999999999 C 59.253000000000014 164.1569999999999 60.96800000000002 164.3959999999999 62.658000000000015 164.3549999999999 C 64.48600000000002 164.3109999999999 66.30100000000002 163.9079999999999 67.99800000000002 163.2319999999999 C 71.38800000000002 161.88099999999991 74.20300000000002 159.39499999999992 76.37300000000002 156.4989999999999 C 77.40000000000002 155.1289999999999 78.27900000000002 153.65599999999992 79.06400000000002 152.1359999999999 C 79.30200000000002 151.7839999999999 79.53000000000002 151.4259999999999 79.75200000000002 151.0619999999999 C 79.88900000000002 150.96399999999988 80.02900000000002 150.8689999999999 80.16600000000003 150.7699999999999 C 80.37200000000003 150.6209999999999 80.21900000000002 150.3439999999999 80.01800000000003 150.3319999999999 C 79.92700000000004 150.24499999999992 79.75400000000003 150.2249999999999 79.64800000000002 150.3349999999999 C 79.57600000000002 150.30899999999988 79.49300000000002 150.3129999999999 79.41500000000002 150.3789999999999 C 76.86300000000001 152.51199999999992 73.92500000000003 154.0819999999999 70.93800000000002 155.5109999999999 C 67.95000000000002 156.9399999999999 64.90000000000002 158.24999999999991 62.03500000000002 159.9199999999999 C 61.11700000000002 160.4549999999999 60.23200000000002 161.0319999999999 59.38300000000002 161.6579999999999 C 59.29300000000001 161.6479999999999 59.173000000000016 161.7009999999999 59.112000000000016 161.7339999999999 C 58.966000000000015 161.8119999999999 58.832000000000015 161.91599999999988 58.695000000000014 162.0079999999999 C 58.554000000000016 162.1029999999999 58.414000000000016 162.1979999999999 58.274000000000015 162.2939999999999 C 58.12300000000001 162.3959999999999 57.97400000000002 162.4999999999999 57.82400000000001 162.6039999999999 C 57.78700000000001 162.6289999999999 57.74800000000001 162.6549999999999 57.710000000000015 162.6829999999999 C 57.69700000000002 159.4799999999999 57.68500000000002 156.2769999999999 57.67200000000002 153.0749999999999 C 58.63400000000002 153.1389999999999 59.61000000000002 153.0789999999999 60.57000000000002 153.0189999999999 C 61.633000000000024 152.9529999999999 62.69500000000002 152.8349999999999 63.74700000000002 152.6639999999999 C 65.66600000000003 152.3509999999999 67.56100000000002 151.8379999999999 69.32900000000002 151.0209999999999 C 70.94200000000002 150.2749999999999 72.44600000000003 149.2809999999999 73.69600000000003 148.01199999999992 C 74.98200000000003 146.7069999999999 75.93500000000003 145.1239999999999 76.65300000000002 143.4449999999999 C 77.48700000000002 141.4959999999999 78.03500000000003 139.4429999999999 78.57200000000002 137.3959999999999 C 78.66700000000002 137.0329999999999 78.16400000000002 136.8949999999999 78.07200000000002 137.2649999999999 C 78.07000000000002 137.2719999999999 78.06800000000001 137.2799999999999 78.06600000000002 137.2869999999999 C 78.06400000000002 137.28999999999988 78.06100000000002 137.28999999999988 78.05800000000002 137.2929999999999 C 76.93000000000002 138.60099999999989 75.34400000000002 139.4559999999999 73.89800000000002 140.3639999999999 C 72.44900000000003 141.2749999999999 70.98600000000002 142.1639999999999 69.53100000000002 143.0669999999999 C 66.65000000000002 144.8549999999999 63.78700000000002 146.6919999999999 61.17700000000002 148.8659999999999 C 60.46100000000002 149.4619999999999 59.764000000000024 150.0829999999999 59.09400000000002 150.7309999999999 C 58.75700000000002 151.0569999999999 58.43300000000002 151.3949999999999 58.11600000000002 151.7399999999999 C 57.96500000000002 151.90399999999988 57.81100000000002 152.0659999999999 57.66800000000002 152.2359999999999 C 57.66700000000002 152.0789999999999 57.66700000000002 151.9219999999999 57.66600000000002 151.7649999999999 C 57.646000000000015 146.7369999999999 57.62400000000002 141.7089999999999 57.60200000000002 136.6809999999999 C 61.875000000000014 137.8289999999999 66.48500000000001 137.6099999999999 70.71800000000002 136.3929999999999 C 74.77400000000002 135.2269999999999 78.50500000000002 133.01099999999988 81.51000000000002 130.05099999999987 C 82.96700000000001 128.61599999999987 84.29900000000002 127.00699999999988 85.35300000000002 125.24999999999987 C 85.571 124.877 85.768 124.43 85.628 124.005 z M 76.779 115.7 C 73.38199999999999 118.69800000000001 69.24499999999999 120.73 64.88 121.88900000000001 C 63.605 122.22800000000001 62.31099999999999 122.49600000000001 61.00899999999999 122.70400000000001 C 60.23899999999999 122.82700000000001 59.464999999999996 122.917 58.690999999999995 123.00500000000001 C 59.273999999999994 122.819 59.85099999999999 122.60400000000001 60.416 122.394 C 61.372 122.03800000000001 62.318999999999996 121.656 63.254999999999995 121.248 C 65.14999999999999 120.42200000000001 67 119.49300000000001 68.794 118.465 C 72.35 116.429 75.692 114.017 78.735 111.273 C 80.219 109.935 81.627 108.52799999999999 82.973 107.05499999999999 C 81.643 110.378 79.462 113.331 76.779 115.7 z M 58.002 122.896 C 59.52 121.986 61.006 121.023 62.492000000000004 120.062 C 64.214 118.949 65.935 117.836 67.66300000000001 116.733 C 71.10500000000002 114.537 74.52300000000001 112.302 77.93800000000002 110.062 C 79.35000000000002 109.136 80.76200000000001 108.212 82.17000000000002 107.28 C 79.80000000000001 109.911 77.15600000000002 112.296 74.32000000000002 114.413 C 71.05000000000003 116.854 67.51500000000001 118.939 63.79800000000002 120.62299999999999 C 62.761000000000024 121.09199999999998 61.71000000000002 121.53099999999999 60.64600000000002 121.93699999999998 C 60.108000000000025 122.14199999999998 59.569000000000024 122.34299999999999 59.026000000000025 122.53499999999998 C 58.686 122.657 58.343 122.774 58.002 122.896 z M 73.151 112.574 C 69.753 114.806 66.371 117.06 62.964 119.277 C 61.442 120.268 59.913 121.25 58.414 122.274 C 58.871 121.766 59.333 121.26 59.792 120.754 C 60.491 119.983 61.215 119.23700000000001 61.96 118.51100000000001 C 63.433 117.07400000000001 64.996 115.74000000000001 66.638 114.501 C 69.927 112.018 73.513 109.94200000000001 77.29700000000001 108.309 C 79.01200000000001 107.569 80.77000000000001 106.92999999999999 82.55700000000002 106.38799999999999 C 79.412 108.437 76.287 110.514 73.151 112.574 z M 65.207 114.048 C 68.585 111.361 72.473 109.387 76.53299999999999 107.952 C 77.16099999999999 107.73 77.79499999999999 107.526 78.43099999999998 107.33 C 76.30699999999999 108.178 74.23899999999998 109.167 72.24999999999999 110.304 C 68.62699999999998 112.374 65.27699999999999 114.893 62.258999999999986 117.773 C 61.43099999999998 118.563 60.63299999999999 119.383 59.862999999999985 120.229 C 59.16899999999998 120.991 58.53599999999999 121.785 57.923999999999985 122.609 C 57.90699999999998 122.621 57.889999999999986 122.63199999999999 57.87299999999998 122.64399999999999 C 59.698 119.312 62.237 116.411 65.207 114.048 z M 57.628 96.939 C 59.71 94.33099999999999 62.241 92.131 65.023 90.29499999999999 C 68.16199999999999 88.22299999999998 71.55199999999999 86.59899999999999 75.03099999999999 85.18399999999998 C 76.404 84.62599999999998 77.78899999999999 84.09599999999999 79.17599999999999 83.57299999999998 C 78.93699999999998 83.69799999999998 78.69999999999999 83.82299999999998 78.463 83.94299999999998 C 77.64 84.36099999999999 76.82199999999999 84.78799999999998 76.00699999999999 85.22199999999998 C 74.39099999999999 86.08199999999998 72.791 86.97499999999998 71.20799999999998 87.89399999999998 C 68.04199999999999 89.73399999999998 64.94899999999998 91.69999999999997 61.942999999999984 93.78999999999998 C 61.088999999999984 94.38299999999998 60.240999999999985 94.98399999999998 59.40499999999999 95.60299999999998 C 58.811 96.042 58.209 96.479 57.628 96.939 z M 59.325 96.073 C 60.074000000000005 95.53399999999999 60.824000000000005 94.997 61.580000000000005 94.46799999999999 C 63.068000000000005 93.42699999999999 64.577 92.41599999999998 66.10600000000001 91.43599999999999 C 69.21100000000001 89.445 72.397 87.58 75.662 85.863 C 76.569 85.386 77.482 84.921 78.4 84.466 C 78.543 84.395 78.69000000000001 84.32799999999999 78.83500000000001 84.259 C 76.671 85.93900000000001 74.44800000000001 87.547 72.17 89.064 C 69.159 91.07 66.046 92.92299999999999 62.856 94.62899999999999 C 61.174 95.52799999999999 59.461 96.362 57.758 97.21999999999998 C 58.284 96.841 58.801 96.45 59.325 96.073 z M 78.245 86.812 C 75.87100000000001 89.993 73.159 92.99 69.765 95.10499999999999 C 68.121 96.12899999999999 66.326 96.94699999999999 64.447 97.43199999999999 C 62.563 97.91899999999998 60.525000000000006 98.12299999999999 58.595 97.79499999999999 C 58.394 97.76099999999998 58.193999999999996 97.716 57.995 97.66499999999999 C 59.486 97.43499999999999 60.967 96.976 62.37 96.467 C 64.081 95.846 65.733 95.071 67.322 94.18599999999999 C 70.58500000000001 92.36999999999999 73.598 90.12799999999999 76.43900000000001 87.714 C 77.504 86.809 78.549 85.881 79.59100000000001 84.951 C 79.151 85.576 78.703 86.198 78.245 86.812 z M 72.385 90.425 C 69.479 92.618 66.38600000000001 94.535 62.98800000000001 95.874 C 62.047000000000004 96.24499999999999 61.087 96.57 60.11200000000001 96.841 C 59.42700000000001 97.03099999999999 58.73400000000001 97.17999999999999 58.03900000000001 97.324 C 59.51500000000001 96.667 60.95900000000001 95.937 62.39000000000001 95.188 C 63.992000000000004 94.35000000000001 65.57400000000001 93.474 67.135 92.562 C 70.253 90.74 73.31200000000001 88.789 76.251 86.689 C 77.662 85.681 79.04400000000001 84.633 80.409 83.564 C 77.833 85.959 75.194 88.305 72.385 90.425 z M 63.292 88.506 C 66.339 86 70.054 84.398 73.834 83.357 C 75.891 82.791 78.048 82.284 80.196 82.392 C 80.371 82.401 80.583 82.404 80.749 82.484 C 77.146 83.84899999999999 73.54899999999999 85.247 70.094 86.961 C 66.881 88.55499999999999 63.815 90.452 61.12799999999999 92.84 C 59.81099999999999 94.01 58.602999999999994 95.298 57.538999999999994 96.702 C 58.585 93.479 60.684 90.65 63.292 88.506 z M 70.393 41.362 C 70.433 41.329 70.472 41.295 70.512 41.263000000000005 C 69.446 43.865 67.94800000000001 46.267 66.238 48.49400000000001 C 64.468 50.79900000000001 62.481 52.94500000000001 60.428 54.99900000000001 C 59.843999999999994 55.58300000000001 59.254999999999995 56.16100000000001 58.662 56.73500000000001 C 58.356 57.032000000000004 58.035 57.32300000000001 57.726 57.62500000000001 C 57.839 57.477000000000004 57.951 57.32900000000001 58.064 57.181000000000004 C 58.509 56.598000000000006 58.952 56.01200000000001 59.397 55.429 C 60.297 54.25 61.204 53.076 62.107 51.899 C 63.894 49.57 65.699 47.255 67.523 44.954 C 68.474 43.754 69.457 42.574 70.393 41.362 z M 59.909 51.018 C 61.278 48.512 63.091 46.230000000000004 65.227 44.334 C 66.296 43.385000000000005 67.44800000000001 42.531000000000006 68.671 41.790000000000006 C 68.983 41.601000000000006 69.298 41.410000000000004 69.625 41.248000000000005 C 69.737 41.19200000000001 69.881 41.13100000000001 70.023 41.101000000000006 C 69.94 41.2 69.862 41.30200000000001 69.78 41.40200000000001 C 67.808 43.141000000000005 65.921 45.00000000000001 64.215 46.99900000000001 C 62.346000000000004 49.19000000000001 60.629000000000005 51.528000000000006 59.112 53.97600000000001 C 58.671 54.68800000000002 58.242000000000004 55.40900000000001 57.838 56.14400000000001 C 58.328 54.363 59.022 52.641 59.909 51.018 z M 57.562 57.229 C 58.763999999999996 55.082 59.992999999999995 52.958 61.439 50.958 C 63.113 48.641999999999996 64.979 46.464 66.997 44.440999999999995 C 67.478 43.958999999999996 67.971 43.49099999999999 68.471 43.032999999999994 C 68.144 43.449999999999996 67.818 43.867999999999995 67.491 44.282999999999994 C 66.572 45.44799999999999 65.658 46.61599999999999 64.75 47.788 C 62.952 50.108999999999995 61.18 52.449 59.428 54.805 C 58.943 55.457 58.461999999999996 56.111 57.983999999999995 56.767 C 57.82899999999999 56.980000000000004 57.675 57.193000000000005 57.520999999999994 57.407000000000004 C 57.533 57.347 57.549 57.288 57.562 57.229 z M 57.339 58.33 C 57.817 57.954 58.251999999999995 57.513999999999996 58.692 57.099 C 59.232 56.589 59.77 56.077 60.304 55.559999999999995 C 61.354 54.54299999999999 62.393 53.513999999999996 63.393 52.44799999999999 C 65.378 50.330999999999996 67.228 48.062999999999995 68.746 45.58599999999999 C 69.344 44.60999999999999 69.89 43.599999999999994 70.381 42.56499999999999 C 70.297 42.84699999999999 70.214 43.12899999999999 70.118 43.40799999999999 C 69.059 46.463999999999984 67.238 49.198999999999984 65.103 51.60899999999999 C 62.770999999999994 54.240999999999985 60.05 56.49299999999999 57.34199999999999 58.722999999999985 C 57.31299999999999 58.746999999999986 57.28499999999999 58.77099999999999 57.25699999999999 58.79499999999999 C 57.28 58.639 57.31 58.485 57.339 58.33 z M 45.171 27.894 C 45.226 27.825 45.278 27.752 45.344 27.692999999999998 C 45.346000000000004 27.715999999999998 45.346000000000004 27.74 45.354 27.764 C 45.461 28.108999999999998 45.668 28.413 45.846 28.727 C 46.038999999999994 29.068 46.232 29.41 46.422 29.752 C 46.788999999999994 30.410999999999998 47.151999999999994 31.070999999999998 47.51 31.735 C 48.226 33.062 48.922999999999995 34.399 49.599999999999994 35.747 C 50.940999999999995 38.415 52.18899999999999 41.126 53.395999999999994 43.857 C 53.71699999999999 44.582 54.035999999999994 45.308 54.355999999999995 46.034 C 53.833999999999996 45.486 53.321999999999996 44.928 52.831999999999994 44.347 C 51.87599999999999 43.212 50.97299999999999 42.034 50.13999999999999 40.806000000000004 C 48.446999999999996 38.309000000000005 46.93999999999999 35.6 45.928999999999995 32.751000000000005 C 45.369 31.174 45.053 29.554 45.171 27.894 z M 48.715 42.316 C 46.743 39.821000000000005 45.374 36.870000000000005 44.819 33.734 C 44.68 32.946000000000005 44.591 32.148 44.557 31.348000000000003 C 44.526 30.627000000000002 44.515 29.887000000000004 44.645 29.174000000000003 C 44.689 28.933000000000003 44.756 28.682000000000002 44.851000000000006 28.444000000000003 C 44.79900000000001 29.666000000000004 45.035000000000004 30.904000000000003 45.38000000000001 32.068000000000005 C 45.83200000000001 33.595000000000006 46.48900000000001 35.062000000000005 47.18000000000001 36.49400000000001 C 48.501000000000005 39.23100000000001 50.14500000000001 41.812000000000005 52.05400000000001 44.17600000000001 C 52.94600000000001 45.28000000000001 53.90400000000001 46.36600000000001 54.93700000000001 47.35200000000001 C 55.00400000000001 47.50400000000001 55.07100000000001 47.65600000000001 55.13800000000001 47.80700000000001 C 52.685 46.391 50.473 44.54 48.715 42.316 z M 55.136 46.843 C 54.281000000000006 44.524 53.312000000000005 42.252 52.283 40.002 C 51.03 37.260000000000005 49.69 34.557 48.276 31.895000000000003 C 47.88 31.150000000000002 47.478 30.407000000000004 47.069 29.669000000000004 C 46.864000000000004 29.300000000000004 46.658 28.931000000000004 46.451 28.564000000000004 C 46.248 28.205000000000005 46.069 27.811000000000003 45.789 27.507000000000005 C 45.768 27.484000000000005 45.746 27.469000000000005 45.723 27.455000000000005 C 46.248 27.235000000000007 46.869 27.369000000000007 47.352 27.681000000000004 C 48.020999999999994 28.112000000000005 48.513 28.789000000000005 48.994 29.409000000000006 C 49.466 30.018000000000008 49.914 30.645000000000007 50.339 31.288000000000007 C 51.198 32.58700000000001 51.949999999999996 33.955000000000005 52.592999999999996 35.37400000000001 C 53.236 36.79200000000001 53.776999999999994 38.26300000000001 54.199999999999996 39.76200000000001 C 54.336 40.24300000000001 54.452999999999996 40.72700000000001 54.56399999999999 41.21300000000001 C 54.54899999999999 41.24600000000001 54.53999999999999 41.28200000000001 54.544999999999995 41.327000000000005 C 54.75899999999999 43.17700000000001 54.96699999999999 45.025000000000006 55.16499999999999 46.874 C 55.156 46.863 55.146 46.853 55.136 46.843 z M 43.025 42.101 C 43.745999999999995 41.830999999999996 44.601 42.536 45.161 42.909 C 45.764 43.311 46.349000000000004 43.739 46.915 44.192 C 49.195 46.016 51.138999999999996 48.232 52.695 50.7 C 53.74 52.358000000000004 54.587 54.14 55.244 55.988 C 54.89 55.466 54.525999999999996 54.951 54.157 54.44 C 53.348 53.321999999999996 52.507 52.226 51.635 51.156 C 49.9 49.025999999999996 48.035 47 46.07 45.080999999999996 C 45.506 44.529999999999994 44.932 43.989 44.349000000000004 43.458 C 43.86900000000001 43.021 43.389 42.580999999999996 42.87500000000001 42.186 C 42.922 42.155 42.968 42.122 43.025 42.101 z M 48.969 53.503 C 47.832 52.475 46.778 51.358 45.82 50.162 C 44.818 48.911 43.856 47.576 43.179 46.118 C 42.831 45.368 42.562000000000005 44.576 42.453 43.754000000000005 C 42.398 43.34 42.393 42.758 42.654 42.39000000000001 C 43.271 43.54400000000001 44.063 44.62500000000001 44.81100000000001 45.69400000000001 C 45.611000000000004 46.83800000000001 46.43800000000001 47.96200000000001 47.29200000000001 49.06600000000001 C 48.98100000000001 51.24900000000001 50.75100000000001 53.37700000000001 52.644000000000005 55.38600000000001 C 53.17700000000001 55.95200000000001 53.717000000000006 56.51000000000001 54.26500000000001 57.06100000000001 C 54.467000000000006 57.26500000000001 54.672000000000004 57.46500000000001 54.87700000000001 57.666000000000004 C 52.749 56.524 50.762 55.124 48.969 53.503 z M 55.452 57.656 C 55.208 57.412 54.967 57.166 54.724 56.92 C 54.239 56.429 53.76 55.932 53.285999999999994 55.43 C 52.337999999999994 54.425 51.403999999999996 53.407 50.495999999999995 52.366 C 48.699 50.305 47.001 48.162 45.401999999999994 45.943 C 44.94799999999999 45.312999999999995 44.501999999999995 44.677 44.06399999999999 44.036 C 43.830999999999996 43.694 43.60199999999999 43.349000000000004 43.36899999999999 43.007000000000005 C 44.04699999999999 43.64300000000001 44.748999999999995 44.257000000000005 45.413999999999994 44.904 C 46.42399999999999 45.885000000000005 47.407 46.894000000000005 48.355999999999995 47.935 C 50.214999999999996 49.975 51.961999999999996 52.120000000000005 53.58 54.355000000000004 C 54.025999999999996 54.971000000000004 54.463 55.594 54.888999999999996 56.224000000000004 C 55.10999999999999 56.550000000000004 55.331999999999994 56.876000000000005 55.55 57.205000000000005 C 55.608 57.293000000000006 55.665 57.379000000000005 55.721999999999994 57.464000000000006 C 55.788 57.687000000000005 55.855 57.910000000000004 55.91499999999999 58.135000000000005 C 55.769 57.968 55.607 57.811 55.452 57.656 z M 63.402 32.246 C 63.419000000000004 32.2 63.434 32.153 63.451 32.107 C 63.458 32.088 63.456 32.071 63.459 32.052 C 63.547000000000004 32.177 63.622 32.313 63.683 32.452 C 63.985 33.141 64.054 33.936 64.081 34.678999999999995 C 64.14200000000001 36.376 63.782000000000004 38.077 63.304 39.696999999999996 C 62.889 41.102999999999994 62.357 42.474 61.716 43.791999999999994 C 60.418 46.461999999999996 58.675000000000004 48.910999999999994 56.595 51.028999999999996 C 56.527 51.098 56.461 51.168 56.394 51.236999999999995 C 56.402 51.218999999999994 56.409 51.20099999999999 56.417 51.18299999999999 C 58.347 49.254999999999995 59.849000000000004 46.87299999999999 60.983000000000004 44.400999999999996 C 62.139 41.879999999999995 62.89 39.157 63.213 36.403 C 63.374 35.032 63.445 33.631 63.402 32.246 z M 62.273 39.93 C 61.571000000000005 42.573 60.46 45.124 58.989000000000004 47.43 C 58.297000000000004 48.515 57.51200000000001 49.539 56.690000000000005 50.53 C 57.580000000000005 48.409 58.38100000000001 46.252 59.176 44.093 C 60.11 41.557 61.008 39.008 61.917 36.463 C 62.307 35.370000000000005 62.684000000000005 34.272 63.071 33.178 C 63.12 35.453 62.86 37.718 62.273 39.93 z M 56.131 49.508 C 56.122 49.423 56.115 49.339000000000006 56.106 49.254000000000005 C 56.02 47.107000000000006 56.139 44.95400000000001 56.498000000000005 42.83200000000001 C 56.987 39.946000000000005 57.938 37.114000000000004 59.423 34.58400000000001 C 59.799 33.94400000000001 60.209 33.32200000000001 60.651 32.72500000000001 C 61.045 32.19400000000001 61.582 31.56900000000001 62.276 31.465000000000007 C 59.586000000000006 36.11600000000001 57.665000000000006 41.21900000000001 56.624 46.489000000000004 C 56.475 47.245000000000005 56.346000000000004 48.004000000000005 56.235 48.767 C 56.201 49.013 56.165 49.26 56.131 49.508 z M 56.251 50.715 C 56.332 50.192 56.385 49.664 56.46 49.14 C 56.556 48.462 56.668 47.786 56.793 47.113 C 57.047 45.751 57.354 44.399 57.723 43.063 C 58.446 40.447 59.396 37.905 60.558 35.452000000000005 C 61.2 34.09700000000001 61.908 32.773 62.675 31.484000000000005 C 62.803999999999995 31.514000000000006 62.921 31.572000000000006 63.031 31.642000000000007 C 63.013999999999996 31.673000000000005 63.003 31.707000000000008 63.006 31.750000000000007 C 63.008 31.774000000000008 63.008 31.797000000000008 63.01 31.82100000000001 C 62.991 31.84400000000001 62.974 31.87100000000001 62.963 31.90600000000001 C 62.18 34.49100000000001 61.277 37.04900000000001 60.376 39.59500000000001 C 59.474999999999994 42.143000000000015 58.543 44.68100000000001 57.589999999999996 47.210000000000015 C 57.13399999999999 48.421000000000014 56.69 49.634000000000015 56.263 50.85400000000001 C 56.26 50.808 56.255 50.761 56.251 50.715 z M 47.582 57.076 C 50.025 59.589 52.508 62.169 54.415 65.125 C 54.778999999999996 65.69 55.115 66.273 55.419 66.872 C 53.925 64.883 52.337999999999994 62.963 50.663 61.124 C 48.51 58.761 46.223 56.52 43.81699999999999 54.417 C 43.138999999999996 53.824 42.45199999999999 53.243 41.754999999999995 52.673 C 41.398999999999994 52.382000000000005 41.041999999999994 52.077000000000005 40.672999999999995 51.789 C 43.319 53.011 45.559 54.995 47.582 57.076 z M 55.381 67.587 C 55.196 67.47200000000001 55.012 67.35600000000001 54.827 67.242 C 53.190999999999995 65.48700000000001 51.553999999999995 63.732000000000006 49.912 61.983000000000004 C 47.708 59.636 45.489 57.30200000000001 43.282 54.95700000000001 C 42.424 54.04500000000001 41.56699999999999 53.13100000000001 40.69799999999999 52.229000000000006 C 40.89999999999999 52.39000000000001 41.102 52.55100000000001 41.29899999999999 52.714000000000006 C 41.916999999999994 53.22500000000001 42.52799999999999 53.745000000000005 43.13199999999999 54.27400000000001 C 44.32799999999999 55.32200000000001 45.49499999999999 56.40400000000001 46.62999999999999 57.519000000000005 C 48.91699999999999 59.764 51.07099999999999 62.145 53.091999999999985 64.631 C 53.878 65.597 54.636 66.587 55.381 67.587 z M 45.832 58.282 C 47.999 60.659 50.199 63.009 52.397 65.35799999999999 C 52.678999999999995 65.66 52.961999999999996 65.96199999999999 53.244 66.26299999999999 C 52.846 66.014 52.449 65.764 52.056 65.50699999999999 C 50.638999999999996 64.58299999999998 49.245999999999995 63.62799999999999 47.919999999999995 62.57699999999999 C 45.452999999999996 60.62299999999999 43.21399999999999 58.37099999999999 41.56099999999999 55.67699999999999 C 41.11099999999999 54.94299999999999 40.708999999999996 54.17999999999999 40.36099999999999 53.392999999999994 C 40.09499999999999 52.791 39.88099999999999 52.172 39.65899999999999 51.55499999999999 C 41.661 53.845 43.783 56.034 45.832 58.282 z M 48.177 64.646 C 45.532 62.558 43.287 59.947 41.67 56.988 C 41.137 56.014 40.648 54.989 40.267 53.93 C 40.478 54.384 40.7 54.832 40.946000000000005 55.267 C 41.7 56.605000000000004 42.602000000000004 57.857 43.601000000000006 59.023 C 45.769000000000005 61.55500000000001 48.388000000000005 63.622 51.12800000000001 65.5 C 52.28900000000001 66.296 53.47800000000001 67.064 54.68200000000001 67.801 C 54.95000000000001 68.087 55.217000000000006 68.373 55.48500000000001 68.659 C 52.848 67.735 50.371 66.377 48.177 64.646 z M 49.297 76.59 C 46.934 74.667 44.864 72.38600000000001 43.20399999999999 69.831 C 42.349 68.515 41.647999999999996 67.123 40.97299999999999 65.711 C 41.69799999999999 66.819 42.559999999999995 67.855 43.39499999999999 68.877 C 44.31499999999999 70.003 45.264999999999986 71.106 46.24899999999999 72.178 C 48.20799999999999 74.314 50.28199999999999 76.344 52.46599999999999 78.25 C 53.128999999999984 78.828 53.80299999999999 79.394 54.48399999999999 79.95 C 52.643 79.017 50.905 77.898 49.297 76.59 z M 55.984 80.657 C 53.889 79.011 51.876000000000005 77.264 49.951 75.422 C 47.85 73.41199999999999 45.859 71.28399999999999 43.986000000000004 69.06 C 43.467000000000006 68.444 42.958000000000006 67.82000000000001 42.458000000000006 67.18900000000001 C 42.105000000000004 66.74300000000001 41.757000000000005 66.292 41.401 65.84800000000001 C 41.762 66.11700000000002 42.131 66.37700000000001 42.48800000000001 66.64600000000002 C 43.07900000000001 67.09100000000001 43.665000000000006 67.54000000000002 44.242000000000004 68.00200000000001 C 45.385000000000005 68.918 46.49700000000001 69.87400000000001 47.572 70.86900000000001 C 49.741 72.87600000000002 51.758 75.04100000000001 53.641000000000005 77.31800000000001 C 54.569 78.44000000000001 55.446000000000005 79.60200000000002 56.285000000000004 80.79200000000002 C 56.184 80.748 56.085 80.701 55.984 80.657 z M 51.367 74.098 C 49.358 71.928 47.175 69.91 44.873 68.054 C 44.223 67.53 43.564 67.017 42.891 66.522 C 42.696999999999996 66.379 42.501999999999995 66.23400000000001 42.306 66.089 C 42.443999999999996 66.143 42.583 66.197 42.72 66.255 C 43.418 66.54899999999999 44.101 66.87599999999999 44.769999999999996 67.232 C 46.142999999999994 67.961 47.443 68.818 48.663 69.781 C 51.089 71.69800000000001 53.129 74.04 54.742 76.67500000000001 C 55.526999999999994 77.95600000000002 56.178999999999995 79.31200000000001 56.705999999999996 80.71800000000002 C 56.705999999999996 80.73000000000002 56.705999999999996 80.74200000000002 56.705999999999996 80.75300000000001 C 55.076 78.419 53.301 76.187 51.367 74.098 z M 40.199 74.419 C 41.896 75.191 43.536 76.088 45.099999999999994 77.103 C 48.205999999999996 79.119 51.017999999999994 81.589 53.401999999999994 84.423 C 54.068999999999996 85.21600000000001 54.702999999999996 86.036 55.300999999999995 86.883 C 55.327 86.919 55.349999999999994 86.957 55.37499999999999 86.993 C 55.30899999999999 86.916 55.24399999999999 86.838 55.17799999999999 86.761 C 54.58299999999999 86.065 53.96499999999999 85.389 53.32599999999999 84.734 C 52.06999999999999 83.446 50.73299999999999 82.24 49.32399999999999 81.121 C 47.90099999999999 79.991 46.404999999999994 78.952 44.84799999999999 78.015 C 43.32999999999999 77.101 41.748999999999995 76.336 40.154999999999994 75.56700000000001 C 39.279999999999994 75.14500000000001 38.410999999999994 74.70100000000001 37.60099999999999 74.162 C 36.974999999999994 73.74600000000001 36.40599999999999 73.272 35.88399999999999 72.741 C 37.341 73.25 38.793 73.779 40.199 74.419 z M 55.02 87.398 C 52.572 85.72699999999999 50.120000000000005 84.06 47.67400000000001 82.38499999999999 C 44.81700000000001 80.428 41.95400000000001 78.45799999999998 39.29500000000001 76.234 C 38.55100000000001 75.612 37.82100000000001 74.97399999999999 37.11400000000001 74.30999999999999 C 36.83600000000001 74.04999999999998 36.56900000000001 73.77599999999998 36.30100000000001 73.50399999999999 C 37.14900000000001 74.291 38.17400000000001 74.90799999999999 39.17500000000001 75.44599999999998 C 40.735000000000014 76.28599999999999 42.34300000000001 77.02699999999999 43.87400000000001 77.92199999999998 C 47.00400000000001 79.75099999999998 49.897000000000006 81.98899999999998 52.45300000000001 84.56099999999998 C 53.16300000000001 85.27599999999998 53.84800000000001 86.01599999999998 54.50500000000001 86.77999999999997 C 54.681 86.984 54.851 87.19 55.02 87.398 z M 51.709 87.548 C 49.974000000000004 86.87 48.300000000000004 86.05 46.712 85.07600000000001 C 43.544000000000004 83.13300000000001 40.711000000000006 80.638 38.431000000000004 77.7 C 37.304 76.247 36.344 74.68900000000001 35.489000000000004 73.066 C 35.86000000000001 73.48 36.26200000000001 73.87100000000001 36.651 74.257 C 37.264 74.864 37.895 75.453 38.540000000000006 76.025 C 39.845000000000006 77.18100000000001 41.214000000000006 78.27300000000001 42.61200000000001 79.31400000000001 C 45.52400000000001 81.48200000000001 48.54400000000001 83.50500000000001 51.522000000000006 85.58000000000001 C 53.05500000000001 86.647 54.587 87.71500000000002 56.12100000000001 88.77900000000001 C 56.15100000000001 88.81600000000002 56.18200000000001 88.85300000000001 56.21200000000001 88.891 C 54.684 88.533 53.18 88.123 51.709 87.548 z M 35.092 85.511 C 35.656 85.877 36.251 86.19999999999999 36.83 86.535 C 37.638 87.002 38.443999999999996 87.472 39.247 87.948 C 40.852 88.89999999999999 42.446 89.872 44.009 90.89099999999999 C 46.961 92.815 49.814 94.90799999999999 52.41 97.29499999999999 C 52.991 97.82999999999998 53.552 98.38199999999999 54.099 98.94699999999999 C 52.251999999999995 97.814 50.224 96.93999999999998 48.337999999999994 95.87799999999999 C 45.05499999999999 94.02999999999999 41.95499999999999 91.84599999999999 39.09599999999999 89.39399999999999 C 37.74899999999999 88.23899999999999 36.47199999999999 87.014 35.22499999999999 85.755 C 35.182 85.673 35.135 85.593 35.092 85.511 z M 46.145 96.657 C 43.013000000000005 94.89699999999999 40.138000000000005 92.628 37.863 89.83699999999999 C 37.028999999999996 88.814 36.322 87.72299999999998 35.68 86.588 C 37.803 88.812 40.158 90.841 42.626 92.654 C 44.135 93.762 45.698 94.797 47.309 95.75099999999999 C 48.884 96.684 50.524 97.49699999999999 52.116 98.401 C 53.291 99.068 54.464 99.755 55.519999999999996 100.591 C 52.29 99.533 49.116 98.326 46.145 96.657 z M 55.815 100.137 C 54.995999999999995 99.211 54.116 98.334 53.22 97.489 C 51.951 96.293 50.617 95.16600000000001 49.239 94.09700000000001 C 46.336 91.846 43.236999999999995 89.85600000000001 40.077999999999996 87.98500000000001 C 39.181 87.45400000000001 38.278999999999996 86.93100000000001 37.37499999999999 86.41300000000001 C 36.84799999999999 86.111 36.31999999999999 85.79500000000002 35.78099999999999 85.50300000000001 C 36.26399999999999 85.66100000000002 36.74799999999999 85.81300000000002 37.227999999999994 85.97000000000001 C 38.169999999999995 86.28000000000002 39.102999999999994 86.61300000000001 40.028999999999996 86.96700000000001 C 41.849 87.66100000000002 43.63099999999999 88.46000000000001 45.336 89.406 C 48.464 91.141 51.329 93.408 53.522 96.25 C 54.469 97.477 55.265 98.802 55.905 100.207 C 55.876 100.183 55.845 100.16 55.815 100.137 z M 38.151 101.67 C 39.006 101.68 39.86000000000001 101.739 40.708000000000006 101.84700000000001 C 42.410000000000004 102.063 44.08500000000001 102.468 45.693000000000005 103.06700000000001 C 48.645 104.16600000000001 51.351000000000006 105.911 53.57300000000001 108.144 C 53.897000000000006 108.47 54.208000000000006 108.80900000000001 54.50900000000001 109.155 C 52.80700000000001 107.644 50.87800000000001 106.363 48.897000000000006 105.277 C 46.38400000000001 103.899 43.681000000000004 102.861 40.88700000000001 102.222 C 39.77400000000001 101.96799999999999 38.65400000000001 101.78899999999999 37.52300000000001 101.68199999999999 C 37.732 101.675 37.943 101.667 38.151 101.67 z M 44.319 103.641 C 46.985 104.608 49.510000000000005 105.932 51.808 107.593 C 52.894 108.378 53.905 109.24600000000001 54.892 110.146 C 50.050000000000004 107.93 45.206 105.719 40.363 103.505 C 39.123 102.938 37.876 102.393 36.624 101.85799999999999 C 39.243 102.171 41.838 102.741 44.319 103.641 z M 56.126 111.264 C 53.294 110.37299999999999 50.536 109.28099999999999 47.78 108.17699999999999 C 45.104 107.10499999999999 42.429 105.994 39.977000000000004 104.46199999999999 C 39.069 103.895 38.209 103.25899999999999 37.391000000000005 102.57099999999998 C 42.11800000000001 104.86399999999999 46.931000000000004 106.98199999999999 51.691 109.20599999999999 C 53.167 109.895 54.646 110.581 56.126 111.264 z M 52.452 111.427 C 50.908 111.09100000000001 49.393 110.646 47.919 110.07600000000001 C 44.977 108.94000000000001 42.211 107.352 39.757999999999996 105.36900000000001 C 38.49699999999999 104.34900000000002 37.358999999999995 103.21800000000002 36.269 102.02600000000001 C 36.326 102.05400000000002 36.382999999999996 102.08100000000002 36.44 102.10900000000001 C 38.262 104.052 40.617999999999995 105.44300000000001 43 106.58900000000001 C 44.319 107.22300000000001 45.668 107.78900000000002 47.024 108.34000000000002 C 48.538000000000004 108.95500000000001 50.055 109.56600000000002 51.58 110.15300000000002 C 53.235 110.78900000000002 54.900999999999996 111.40200000000002 56.596 111.92400000000002 C 56.620999999999995 111.96200000000002 56.647999999999996 111.99900000000002 56.672 112.03700000000002 C 55.256 111.893 53.848 111.73 52.452 111.427 z M 32.348 118.777 C 33.329 118.499 34.344 118.31400000000001 35.353 118.176 C 37.412 117.894 39.502 117.883 41.566 118.108 C 43.613 118.331 45.634 118.784 47.583000000000006 119.44800000000001 C 49.471000000000004 120.09100000000001 51.290000000000006 120.94200000000001 52.919000000000004 122.10100000000001 C 54.321000000000005 123.09900000000002 55.566 124.34200000000001 56.510000000000005 125.78500000000001 C 53.294000000000004 123.91000000000001 50.06100000000001 122.02900000000001 46.60600000000001 120.62100000000001 C 43.25200000000001 119.254 39.67000000000001 118.36500000000001 36.02900000000001 118.453 C 34.23100000000001 118.49600000000001 32.43600000000001 118.797 30.74700000000001 119.417 C 31.245 119.129 31.8 118.932 32.348 118.777 z M 40.771 119.258 C 44.316 119.943 47.659 121.39399999999999 50.834 123.079 C 52.581 124.006 54.285000000000004 125.00999999999999 55.985 126.02 C 52.75 125.572 49.612 124.62899999999999 46.524 123.575 C 43.016 122.37700000000001 39.526 121.084 35.888000000000005 120.327 C 34.099000000000004 119.955 32.284000000000006 119.731 30.459000000000003 119.711 C 33.795 118.651 37.346 118.596 40.771 119.258 z M 55.35 126.459 C 54.132000000000005 126.635 52.877 126.536 51.661 126.34700000000001 C 49.908 126.07400000000001 48.169000000000004 125.66900000000001 46.446 125.25200000000001 C 42.949999999999996 124.406 39.507999999999996 123.35400000000001 36.125 122.13400000000001 C 34.39 121.50800000000001 32.681 120.81600000000002 30.958 120.16000000000001 C 34.282 120.27900000000001 37.549 121.08000000000001 40.71 122.08000000000001 C 44.215 123.18900000000001 47.644 124.53500000000001 51.187 125.52600000000001 C 52.557 125.908 53.946 126.231 55.35 126.459 z M 45.719 127.215 C 42.013 126.524 38.502 125.033 35.217 123.21300000000001 C 34.281 122.69500000000001 33.369 122.13900000000001 32.458 121.58000000000001 C 31.679 121.10200000000002 30.912999999999997 120.558 30.096999999999998 120.13500000000002 C 30.169999999999998 120.13500000000002 30.243 120.14100000000002 30.316 120.14100000000002 C 30.323999999999998 120.14800000000002 30.331 120.15600000000002 30.342 120.16100000000002 C 31.983999999999998 120.99000000000001 33.691 121.67500000000001 35.412 122.32100000000001 C 37.132 122.96600000000001 38.875 123.552 40.631 124.09100000000001 C 44.102000000000004 125.155 47.647 126.04100000000001 51.225 126.665 C 52.974000000000004 126.97000000000001 54.795 127.123 56.513000000000005 126.62400000000001 C 56.551 126.629 56.58800000000001 126.63600000000001 56.626000000000005 126.64000000000001 C 53.109 127.799 49.347 127.892 45.719 127.215 z M 32.792 127.946 C 33.848 127.859 34.910000000000004 127.867 35.967 127.955 C 40.152 128.304 44.105 129.887 47.747 131.909 C 49.507 132.886 51.234 133.95 52.887 135.1 C 53.628 135.61499999999998 54.362 136.172 55.022 136.801 C 54.208 136.314 53.345 135.897 52.518 135.47 C 50.788000000000004 134.577 49.037 133.724 47.264 132.92 C 45.491 132.11599999999999 43.697 131.35799999999998 41.888000000000005 130.637 C 40.084 129.918 38.264 129.216 36.38700000000001 128.708 C 34.973000000000006 128.326 33.516000000000005 128.052 32.05300000000001 128.023 C 32.299 127.992 32.545 127.966 32.792 127.946 z M 35.724 128.908 C 37.58 129.368 39.373 130.051 41.147 130.756 C 44.666 132.155 48.117 133.734 51.489 135.457 C 52.421 135.933 53.351 136.417 54.266999999999996 136.924 C 54.837999999999994 137.24 55.398999999999994 137.588 55.913999999999994 137.993 C 52.928999999999995 136.581 49.90899999999999 135.245 46.846999999999994 134.00799999999998 C 43.34799999999999 132.59499999999997 39.812 131.27599999999998 36.233999999999995 130.075 C 35.227999999999994 129.737 34.218999999999994 129.411 33.205999999999996 129.094 C 32.699999999999996 128.936 32.193 128.775 31.683999999999997 128.628 C 31.340999999999998 128.529 30.997999999999998 128.42299999999997 30.65 128.339 C 32.358 128.288 34.065 128.497 35.724 128.908 z M 30.276 128.583 C 30.28 128.575 30.287 128.57 30.291 128.563 C 31.081 128.896 31.934 129.11399999999998 32.748 129.374 C 33.643 129.66 34.535 129.953 35.427 130.249 C 37.224 130.847 39.012 131.47299999999998 40.79 132.12699999999998 C 44.332 133.42999999999998 47.826 134.855 51.281 136.37399999999997 C 52.726 137.00999999999996 54.16 137.67099999999996 55.588 138.34499999999997 C 52.331 137.84599999999998 49.118 137.07499999999996 45.981 136.06899999999996 C 42.381 134.91399999999996 38.88 133.44599999999997 35.534000000000006 131.68499999999995 C 33.73700000000001 130.73899999999995 32.00000000000001 129.68799999999993 30.255000000000006 128.65099999999995 C 30.262 128.628 30.263 128.605 30.276 128.583 z M 44.301 137.218 C 40.649 136.232 37.097 134.72699999999998 34.033 132.48499999999999 C 33.282000000000004 131.93599999999998 32.562 131.343 31.883000000000003 130.707 C 31.543000000000003 130.38899999999998 31.212000000000003 130.06199999999998 30.892000000000003 129.724 C 30.732000000000003 129.55499999999998 30.418000000000003 129.285 30.288000000000004 129.005 C 31.688000000000002 129.995 33.163000000000004 130.87 34.67 131.69 C 36.349000000000004 132.60399999999998 38.069 133.44299999999998 39.823 134.20499999999998 C 43.31 135.719 46.928 136.92399999999998 50.625 137.80999999999997 C 52.641 138.29299999999998 54.683 138.67699999999996 56.734 138.97799999999998 C 56.761 139.03099999999998 56.789 139.08299999999997 56.816 139.13599999999997 C 52.608 138.787 48.385 138.32 44.301 137.218 z M 54.868 149.89 C 54.917 149.922 54.964 149.957 55.012 149.98999999999998 C 55.167 150.15399999999997 55.321 150.319 55.471000000000004 150.48899999999998 C 55.685 150.73099999999997 55.891000000000005 150.986 56.083000000000006 151.253 C 55.337 150.73899999999998 54.434000000000005 150.40499999999997 53.61200000000001 150.124 C 51.75400000000001 149.489 49.89600000000001 148.853 48.05400000000001 148.171 C 44.36000000000001 146.802 40.71600000000001 145.267 37.25600000000001 143.375 C 36.281000000000006 142.842 35.32600000000001 142.274 34.382000000000005 141.687 C 34.02400000000001 141.464 33.67100000000001 141.233 33.319 141.001 C 33.687000000000005 141.097 34.056000000000004 141.192 34.419000000000004 141.297 C 35.306000000000004 141.553 36.187000000000005 141.829 37.06400000000001 142.118 C 38.82000000000001 142.698 40.55200000000001 143.347 42.26500000000001 144.042 C 45.70100000000001 145.436 49.065000000000005 147.007 52.403000000000006 148.622 C 53.23 149.022 54.098 149.384 54.868 149.89 z M 43.138 142.425 C 46.784 143.722 50.196999999999996 145.643 53.123 148.18400000000003 C 53.427 148.44800000000004 53.724 148.72000000000003 54.016999999999996 148.997 C 53.9 148.94000000000003 53.784 148.88500000000002 53.672 148.83200000000002 C 51.955999999999996 148.01900000000003 50.242 147.20100000000002 48.518 146.40600000000003 C 45.061 144.81000000000003 41.557 143.30400000000003 37.951 142.07600000000002 C 36.935 141.73000000000002 35.912 141.40800000000002 34.88 141.116 C 34.128 140.90300000000002 33.358000000000004 140.66500000000002 32.582 140.512 C 32.522 140.471 32.463 140.431 32.403 140.39 C 36.055 140.539 39.691 141.199 43.138 142.425 z M 35.69 144.102 C 34.934 143.46800000000002 34.208 142.799 33.516999999999996 142.095 C 33.086999999999996 141.657 32.68599999999999 141.189 32.270999999999994 140.73499999999999 C 32.78099999999999 141.124 33.32599999999999 141.47699999999998 33.85099999999999 141.826 C 34.65399999999999 142.35999999999999 35.47899999999999 142.85899999999998 36.31499999999999 143.339 C 37.99599999999999 144.303 39.72699999999999 145.177 41.49199999999999 145.978 C 45.03799999999999 147.58800000000002 48.70099999999999 148.92100000000002 52.383999999999986 150.179 C 53.945999999999984 150.712 55.87699999999999 151.18 56.828999999999986 152.643 C 54.761999999999986 152.148 52.69099999999999 151.667 50.62599999999998 151.166 C 48.646999999999984 150.68699999999998 46.67199999999998 150.182 44.765999999999984 149.459 C 41.461 148.203 38.398 146.373 35.69 144.102 z M 45.644 150.728 C 43.942 149.90300000000002 42.292 148.977 40.701 147.959 C 41.763 148.544 42.856 149.073 43.978 149.531 C 45.84 150.29 47.774 150.83100000000002 49.723 151.318 C 52.085 151.90900000000002 54.45 152.49300000000002 56.814 153.07600000000002 C 56.873 153.091 56.92 153.07800000000003 56.957 153.05300000000003 C 56.969 153.10000000000002 56.982 153.14600000000002 56.992 153.19400000000002 C 53.075 153.997 49.116 152.411 45.644 150.728 z M 72.09 104.236 C 69.26700000000001 106.459 66.108 108.22500000000001 62.75 109.5 C 61.818 109.854 60.871 110.169 59.911 110.439 C 59.300000000000004 110.61099999999999 58.683 110.76199999999999 58.067 110.91699999999999 C 58.082 110.90499999999999 58.096000000000004 110.89299999999999 58.111 110.88099999999999 C 58.126999999999995 110.88399999999999 58.144 110.88699999999999 58.160999999999994 110.87799999999999 C 61.132999999999996 109.24599999999998 64.089 107.58899999999998 67.05 105.93599999999998 C 68.53699999999999 105.10599999999998 70.03699999999999 104.29899999999998 71.533 103.48399999999998 C 72.766 102.81299999999997 74.01 102.15399999999998 75.225 101.44899999999998 C 74.236 102.439 73.189 103.371 72.09 104.236 z M 76.47 100.126 C 76.195 100.33 75.90899999999999 100.522 75.613 100.705 C 74.313 101.507 72.944 102.206 71.609 102.947 C 68.68299999999999 104.571 65.779 106.24000000000001 62.86999999999999 107.894 C 61.55199999999999 108.643 60.25099999999999 109.418 58.94999999999999 110.19600000000001 C 59.83499999999999 109.46800000000002 60.71599999999999 108.73600000000002 61.64499999999999 108.06000000000002 C 63.05899999999999 107.03100000000002 64.50399999999999 106.03600000000002 65.97999999999999 105.09800000000001 C 67.463 104.15500000000002 68.98299999999999 103.26800000000001 70.53299999999999 102.44100000000002 C 72.02799999999999 101.64400000000002 73.56799999999998 100.94200000000002 75.07799999999999 100.17600000000002 C 75.99499999999999 99.71100000000001 76.89799999999998 99.20800000000001 77.746 98.62800000000001 C 77.336 99.141 76.908 99.638 76.47 100.126 z M 58.118 108.8 C 58.492000000000004 108.033 58.93 107.29899999999999 59.422000000000004 106.602 C 60.407000000000004 105.206 61.597 103.962 62.92 102.882 C 65.82000000000001 100.51400000000001 69.303 98.99600000000001 72.904 98.046 C 73.997 97.757 75.104 97.518 76.216 97.31700000000001 C 76.87299999999999 97.19800000000001 77.53299999999999 97.10000000000001 78.193 97.004 C 78.133 97.021 78.074 97.03800000000001 78.014 97.054 C 77.58999999999999 97.168 77.167 97.289 76.747 97.417 C 75.91 97.672 75.082 97.955 74.266 98.271 C 72.646 98.899 71.06700000000001 99.64 69.546 100.479 C 66.513 102.154 63.68500000000001 104.206 61.181000000000004 106.603 C 59.846000000000004 107.88 58.604000000000006 109.25399999999999 57.49700000000001 110.73299999999999 C 57.565 110.061 57.816 109.419 58.118 108.8 z M 64.842 103.88 C 67.612 101.822 70.65899999999999 100.14699999999999 73.876 98.901 C 74.763 98.557 75.66300000000001 98.243 76.571 97.963 C 77.036 97.81899999999999 77.504 97.68499999999999 77.974 97.55999999999999 C 78.162 97.50999999999999 78.35300000000001 97.46699999999998 78.543 97.42199999999998 C 76.25 99.33999999999999 73.34100000000001 100.41799999999998 70.718 101.79599999999998 C 67.63300000000001 103.41699999999997 64.654 105.27699999999997 61.906000000000006 107.42399999999998 C 61.12200000000001 108.03699999999998 60.346000000000004 108.66199999999998 59.581 109.29899999999998 C 58.914 109.85499999999998 58.252 110.41699999999997 57.633 111.02599999999998 C 57.585 111.03799999999998 57.536 111.04999999999998 57.488 111.06299999999999 C 57.488 111.05599999999998 57.488 111.04799999999999 57.488 111.04099999999998 C 59.654 108.377 62.082 105.931 64.842 103.88 z M 57.371 84.653 C 57.366 83.56800000000001 57.362 82.482 57.356 81.397 C 57.382000000000005 81.34700000000001 57.39 81.286 57.368 81.22 C 57.364000000000004 81.208 57.359 81.197 57.355000000000004 81.185 C 57.354000000000006 80.977 57.353 80.77 57.352000000000004 80.562 C 57.344 79.213 57.332 77.864 57.319 76.514 C 59.47 75.399 61.604 74.234 63.646 72.928 C 61.385 75.364 59.492000000000004 78.16499999999999 58.318 81.285 C 57.907 82.38 57.589 83.507 57.371 84.653 z M 68.178 76.767 C 66.229 79.455 64.029 81.93299999999999 61.518 84.11 C 60.325 85.144 59.078 86.114 57.793 87.03 C 57.905 86.869 58.022 86.71000000000001 58.136 86.549 C 59.066 85.74000000000001 59.963 84.885 60.841 84.024 C 61.988 82.899 63.103 81.742 64.185 80.554 C 66.351 78.176 68.395 75.684 70.274 73.07300000000001 C 70.771 72.382 71.253 71.68 71.736 70.97900000000001 C 70.697 72.993 69.51 74.931 68.178 76.767 z M 70.381 72.357 C 69.458 73.656 68.496 74.92999999999999 67.509 76.181 C 65.516 78.707 63.364000000000004 81.11099999999999 61.089 83.386 C 60.36 84.115 59.613 84.824 58.862 85.529 C 60.291000000000004 83.54899999999999 61.783 81.61 63.311 79.71 C 65.298 77.23899999999999 67.382 74.854 69.536 72.52799999999999 C 70.33 71.66999999999999 71.145 70.833 71.956 69.993 C 71.45 70.791 70.931 71.582 70.381 72.357 z M 73.028 68.259 C 73.021 68.274 73.01400000000001 68.289 73.00800000000001 68.304 C 73.00800000000001 68.304 73.00800000000001 68.304 73.00800000000001 68.304 C 73.007 68.306 73.00600000000001 68.307 73.00500000000001 68.309 C 72.99100000000001 68.316 72.97600000000001 68.322 72.96300000000001 68.334 C 71.816 69.417 70.74400000000001 70.589 69.673 71.74600000000001 C 68.593 72.91400000000002 67.534 74.102 66.501 75.311 C 64.435 77.73 62.43600000000001 80.21100000000001 60.539 82.76400000000001 C 59.660000000000004 83.94600000000001 58.816 85.15 57.976 86.36000000000001 C 57.833 86.49400000000001 57.691 86.62800000000001 57.548 86.76200000000001 C 57.57 86.50900000000001 57.593 86.25600000000001 57.624 86.00400000000002 C 57.732 85.57700000000001 57.868 85.15700000000002 58.049 84.74000000000002 C 58.392 83.94900000000003 58.828 83.19800000000002 59.286 82.46800000000002 C 60.160000000000004 81.07400000000001 61.106 79.72200000000002 62.105000000000004 78.41400000000002 C 64.092 75.81100000000002 66.306 73.36700000000002 68.822 71.26500000000001 C 69.511 70.69000000000001 70.221 70.13800000000002 70.952 69.61800000000001 C 71.329 69.35000000000001 71.711 69.09 72.1 68.83900000000001 C 72.399 68.64600000000002 72.711 68.46500000000002 73 68.25600000000001 C 73.009 68.258 73.019 68.258 73.028 68.259 z M 72.439 68.204 C 71.946 68.47999999999999 71.476 68.826 71.026 69.13499999999999 C 70.341 69.606 69.67399999999999 70.10499999999999 69.027 70.62799999999999 C 67.75 71.66199999999999 66.549 72.78799999999998 65.414 73.97499999999998 C 63.103 76.39299999999999 61.092 79.07399999999998 59.223 81.84299999999998 C 58.797 82.47399999999998 58.387 83.11799999999998 58.032 83.79199999999997 C 58.586999999999996 81.53599999999997 59.535 79.37599999999998 60.769999999999996 77.40799999999997 C 61.681 75.95599999999997 62.739999999999995 74.59799999999997 63.9 73.33699999999997 C 64.449 72.73999999999998 65.022 72.15299999999998 65.618 71.58999999999997 C 66.18599999999999 71.18499999999997 66.74799999999999 70.77099999999997 67.294 70.33499999999998 C 67.714 70.00099999999998 68.124 69.65199999999997 68.52799999999999 69.29599999999998 C 69.723 68.591 71.059 68.145 72.439 68.204 z M 74.883 59.048 C 74.786 59.829 74.41199999999999 60.605000000000004 74.088 61.314 C 72.74199999999999 64.263 70.628 66.801 68.20899999999999 68.939 C 67.16699999999999 69.57499999999999 66.219 70.372 65.32799999999999 71.22 C 63.01999999999999 72.865 60.55599999999999 74.28 58.11199999999999 75.723 C 57.850999999999985 75.877 57.59299999999999 76.035 57.33399999999999 76.192 C 57.35399999999999 76.16499999999999 57.36499999999999 76.13199999999999 57.36999999999999 76.095 C 57.46799999999999 75.92399999999999 57.57299999999999 75.758 57.67499999999999 75.589 C 58.26499999999999 75.245 58.83399999999999 74.857 59.40399999999999 74.486 C 60.14899999999999 74 60.89099999999999 73.50800000000001 61.62299999999999 73.003 C 63.07199999999999 72.002 64.496 70.963 65.862 69.851 C 68.383 67.79899999999999 70.71799999999999 65.481 72.573 62.8 C 73.475 61.495999999999995 74.243 60.102 74.89699999999999 58.657999999999994 C 74.906 58.789 74.899 58.923 74.883 59.048 z M 58.04 74.994 C 59.467 72.774 61.236 70.767 63.12 68.93299999999999 C 65.52799999999999 66.588 68.157 64.49199999999999 70.68599999999999 62.282999999999994 C 71.981 61.151999999999994 73.235 59.971999999999994 74.42099999999999 58.72599999999999 C 73.318 61.36999999999999 71.59299999999999 63.745999999999995 69.65599999999999 65.838 C 67.356 68.323 64.681 70.428 61.91499999999999 72.368 C 61.126999999999995 72.92099999999999 60.331999999999994 73.46499999999999 59.532999999999994 74.003 C 59.04 74.334 58.534 74.657 58.04 74.994 z M 74.242 57.854 C 74.339 57.866 74.434 57.885999999999996 74.519 57.932 C 74.5 57.944 74.48 57.954 74.46300000000001 57.973 C 72.11600000000001 60.519999999999996 69.44800000000001 62.747 66.83300000000001 65.01 C 64.35900000000001 67.15100000000001 61.89200000000001 69.337 59.83100000000001 71.89 C 58.94200000000001 72.991 58.15700000000001 74.162 57.47600000000001 75.398 C 57.420000000000016 75.44 57.36400000000001 75.482 57.30900000000001 75.52499999999999 C 57.308000000000014 75.475 57.30700000000001 75.425 57.30700000000001 75.37499999999999 C 57.42700000000001 74.06999999999998 57.74600000000001 72.81099999999998 58.31200000000001 71.61099999999999 C 58.99200000000001 70.16799999999999 59.954000000000015 68.87899999999999 61.05300000000001 67.728 C 62.20800000000001 66.51899999999999 63.51700000000001 65.467 64.86000000000001 64.475 C 66.26200000000001 63.44 67.69900000000001 62.449999999999996 69.12500000000001 61.44799999999999 C 70.829 60.249 72.534 59.05 74.242 57.854 z M 70.946 59.024 C 71.401 58.824 71.858 58.629 72.317 58.438 C 72.59299999999999 58.323 72.871 58.198 73.15299999999999 58.088 C 70.41499999999999 60.042 67.657 61.972 64.94999999999999 63.968 C 62.31599999999999 65.911 59.77299999999999 68.10600000000001 58.26899999999999 71.071 C 57.83999999999999 71.916 57.49099999999999 72.833 57.282999999999994 73.776 C 57.26899999999999 72.783 57.25699999999999 71.789 57.23799999999999 70.79599999999999 C 57.57599999999999 69.24199999999999 58.24499999999999 67.75999999999999 59.230999999999995 66.496 C 59.85699999999999 65.69399999999999 60.593999999999994 64.993 61.38799999999999 64.36 C 63.26199999999999 63.353 65.073 62.229 66.812 61.01 C 67.3 60.756 67.791 60.507 68.283 60.263999999999996 C 69.161 59.831 70.049 59.417 70.946 59.024 z M 61.986 56.74 C 63.163 55.286 64.466 53.939 65.837 52.667 C 67.162 51.438 68.533 50.223 70.004 49.169000000000004 C 70.729 48.649 71.492 48.178000000000004 72.307 47.81100000000001 C 72.70400000000001 47.63300000000001 73.114 47.476000000000006 73.532 47.357000000000006 C 73.881 47.25800000000001 74.297 47.168000000000006 74.655 47.28600000000001 C 73.303 48.04200000000001 72.015 48.891000000000005 70.744 49.78000000000001 C 69.341 50.76100000000001 67.994 51.821000000000005 66.709 52.95300000000001 C 64.167 55.19300000000001 61.887 57.71200000000001 59.895 60.45200000000001 C 59.342000000000006 61.21200000000001 58.812000000000005 61.99000000000001 58.309000000000005 62.783000000000015 C 59.226 60.607 60.497 58.581 61.986 56.74 z M 57.915 63.799 C 59.374 61.457 61.004 59.234 62.856 57.178 C 65.115 54.671 67.638 52.408 70.386 50.449 C 71.88 49.385 73.467 48.455 75.077 47.577999999999996 C 75.14699999999999 47.665 75.201 47.763999999999996 75.242 47.87 C 72.53 49.814 69.936 51.919 67.483 54.181999999999995 C 65.013 56.459999999999994 62.68600000000001 58.895999999999994 60.511 61.456999999999994 C 59.452000000000005 62.70499999999999 58.371 63.97599999999999 57.437000000000005 65.329 C 57.431000000000004 65.333 57.425000000000004 65.33699999999999 57.419000000000004 65.342 C 57.562 64.82 57.732 64.307 57.915 63.799 z M 74.935 48.689 C 73.536 51.3 71.69 53.65 69.622 55.766 C 67.234 58.21 64.536 60.333 61.765 62.321999999999996 C 60.615 63.147999999999996 59.439 63.93599999999999 58.275 64.741 C 58.961999999999996 63.882 59.638 63.013 60.349 62.173 C 61.43 60.896 62.549 59.652 63.706999999999994 58.445 C 66.03999999999999 56.014 68.52499999999999 53.731 71.133 51.599000000000004 C 72.369 50.589 73.641 49.624 74.935 48.689 z M 57.258 65.983 C 57.416000000000004 65.797 57.569 65.607 57.724000000000004 65.418 C 58.99100000000001 64.605 60.233000000000004 63.74900000000001 61.467000000000006 62.888000000000005 C 62.916000000000004 61.877 64.343 60.83200000000001 65.72200000000001 59.727000000000004 C 68.28500000000001 57.673 70.70100000000001 55.38 72.69600000000001 52.762 C 73.69500000000001 51.451 74.58600000000001 50.052 75.34800000000001 48.59 C 75.34600000000002 48.787000000000006 75.33200000000001 48.982000000000006 75.30600000000001 49.152 C 75.177 49.983000000000004 74.906 50.804 74.58900000000001 51.582 C 73.21300000000001 54.963 70.59600000000002 57.617000000000004 67.72900000000001 59.79 C 67.50100000000002 59.963 67.26900000000002 60.129 67.03800000000001 60.297 C 66.08500000000001 60.785999999999994 65.144 61.297999999999995 64.21700000000001 61.834999999999994 C 62.95200000000001 62.56799999999999 61.713000000000015 63.36299999999999 60.60200000000001 64.315 C 59.72900000000001 64.788 58.84700000000001 65.245 57.95700000000001 65.688 C 57.72100000000001 65.806 57.48300000000001 65.917 57.245000000000005 66.032 C 57.249 66.017 57.254 66 57.258 65.983 z M 57.139 66.394 C 57.962 66.049 58.774 65.67800000000001 59.578 65.287 C 58.540000000000006 66.381 57.738 67.668 57.205000000000005 69.057 C 57.185 68.17 57.165000000000006 67.283 57.139 66.395 C 57.139 66.395 57.139 66.394 57.139 66.394 z M 33.503 155.724 C 35.597 155.93599999999998 37.685 156.272 39.749 156.67999999999998 C 43.758 157.47199999999998 47.716 158.634 51.407000000000004 160.40599999999998 C 52.018 160.69899999999998 52.615 161.01299999999998 53.203 161.34099999999998 C 50.739000000000004 160.564 48.256 159.84799999999998 45.75 159.23 C 41.842 158.268 37.919 157.391 33.947 156.73999999999998 C 31.995000000000005 156.42 30.028000000000002 156.105 28.054000000000002 155.94199999999998 C 27.941000000000003 155.908 27.828000000000003 155.87099999999998 27.714000000000002 155.837 C 29.622 155.496 31.575 155.529 33.503 155.724 z M 55.115 162.499 C 54.428000000000004 162.37699999999998 53.733000000000004 162.284 53.048 162.166 C 52.079 161.998 51.111000000000004 161.822 50.146 161.636 C 48.230000000000004 161.266 46.319 160.865 44.416 160.432 C 40.583 159.56099999999998 36.778 158.57799999999997 33.007999999999996 157.463 C 31.929999999999996 157.144 30.855999999999995 156.81 29.781999999999996 156.476 C 30.883999999999997 156.645 31.987999999999996 156.808 33.086999999999996 156.992 C 35.071 157.325 37.049 157.694 39.019 158.10399999999998 C 42.971 158.926 46.870999999999995 159.94299999999998 50.736999999999995 161.1 C 52.206 161.539 53.664 162.008 55.115 162.499 z M 32.147 157.625 C 34.041 158.207 35.946 158.758 37.858999999999995 159.276 C 41.647999999999996 160.30200000000002 45.467999999999996 161.202 49.31699999999999 161.96900000000002 C 50.401999999999994 162.18500000000003 51.489999999999995 162.39300000000003 52.577999999999996 162.59100000000004 C 52.73499999999999 162.62000000000003 52.894 162.65100000000004 53.05199999999999 162.68100000000004 C 50.099999999999994 162.72600000000003 47.15599999999999 162.53500000000005 44.230999999999995 162.04500000000004 C 40.324999999999996 161.39100000000005 36.489 160.25900000000004 32.855999999999995 158.68100000000004 C 31.833999999999996 158.23700000000005 30.826999999999995 157.75800000000004 29.837999999999994 157.24500000000003 C 29.253999999999994 156.94200000000004 28.678999999999995 156.62200000000004 28.102999999999994 156.30300000000003 C 29.439 156.779 30.791 157.209 32.147 157.625 z M 43.805 163.836 C 39.721000000000004 163.247 35.759 161.82700000000003 32.224000000000004 159.698 C 30.811000000000003 158.847 29.475000000000005 157.875 28.217000000000006 156.81 C 28.580000000000005 157.02 28.948000000000008 157.223 29.316000000000006 157.421 C 30.200000000000006 157.89499999999998 31.099000000000007 158.34199999999998 32.010000000000005 158.76 C 33.833000000000006 159.596 35.705000000000005 160.328 37.617000000000004 160.933 C 41.438 162.142 45.398 162.888 49.395 163.168 C 51.629000000000005 163.32500000000002 53.897000000000006 163.332 56.128 163.139 C 56.134 163.143 56.139 163.14600000000002 56.145 163.15 C 52.131 164.196 47.911 164.428 43.805 163.836 z M 72.88 159.553 C 70.22399999999999 161.912 66.92 163.507 63.355 163.8 C 61.72 163.935 60.099 163.739 58.523999999999994 163.32500000000002 C 61.89099999999999 163.37800000000001 65.3 162.57100000000003 68.36 161.20700000000002 C 71.511 159.80300000000003 74.336 157.73200000000003 76.658 155.18300000000002 C 76.662 155.17800000000003 76.666 155.17300000000003 76.67 155.169 C 75.581 156.775 74.329 158.266 72.88 159.553 z M 78.13 152.746 C 76.755 154.704 75.103 156.45100000000002 73.197 157.924 C 70.394 160.09 67.125 161.62 63.672000000000004 162.411 C 62.229000000000006 162.741 60.75900000000001 162.93 59.282000000000004 163.023 C 59.455000000000005 162.975 59.628 162.932 59.800000000000004 162.882 C 60.599000000000004 162.647 61.389 162.386 62.173 162.10500000000002 C 63.752 161.54000000000002 65.303 160.894 66.81700000000001 160.17200000000003 C 69.828 158.73600000000002 72.69600000000001 157.00300000000001 75.36200000000001 154.997 C 76.102 154.44000000000003 76.82400000000001 153.86 77.53000000000002 153.26100000000002 C 77.731 153.091 77.931 152.919 78.13 152.746 z M 66.207 158.253 C 68.455 157.178 70.74 156.176 72.964 155.04999999999998 C 72.538 155.31499999999997 72.113 155.58299999999997 71.68299999999999 155.843 C 68.863 157.551 65.945 159.084 62.95099999999999 160.462 C 62.11099999999999 160.849 61.26499999999999 161.22299999999998 60.41499999999999 161.58499999999998 C 60.15699999999999 161.695 59.895999999999994 161.79999999999998 59.63399999999999 161.90399999999997 C 61.716 160.506 63.943 159.335 66.207 158.253 z M 58.781 162.495 C 59.266 162.309 59.745 162.101 60.222 161.904 C 60.983000000000004 161.588 61.739000000000004 161.263 62.491 160.928 C 64.009 160.252 65.508 159.537 66.989 158.783 C 69.91300000000001 157.29399999999998 72.786 155.707 75.547 153.932 C 76.175 153.528 76.795 153.10999999999999 77.413 152.69099999999997 C 76.79599999999999 153.21799999999996 76.166 153.72799999999998 75.526 154.22599999999997 C 74.223 155.23899999999998 72.86999999999999 156.18699999999998 71.472 157.06599999999997 C 68.672 158.82699999999997 65.69699999999999 160.30799999999996 62.602999999999994 161.47899999999998 C 61.748999999999995 161.802 60.88699999999999 162.09699999999998 60.017999999999994 162.378 C 59.571999999999996 162.522 59.12299999999999 162.66 58.675 162.79899999999998 C 58.494 162.855 58.312999999999995 162.909 58.132 162.96699999999998 C 58.347 162.805 58.565 162.651 58.781 162.495 z M 73.832 147.202 C 71.422 149.958 67.88 151.44 64.35 152.10999999999999 C 63.212999999999994 152.326 62.06399999999999 152.462 60.910999999999994 152.559 C 60.69799999999999 152.577 60.483999999999995 152.59 60.270999999999994 152.60399999999998 C 61.108 152.48 61.93699999999999 152.30399999999997 62.74499999999999 152.088 C 64.43299999999999 151.637 66.06599999999999 150.989 67.60499999999999 150.162 C 70.529 148.589 73.07499999999999 146.36 75.05499999999999 143.696 C 75.943 142.5 76.758 141.209 77.39599999999999 139.851 C 76.65 142.503 75.665 145.106 73.832 147.202 z M 59.207 151.138 C 59.803 150.567 60.42 150.019 61.052 149.489 C 62.353 148.401 63.72 147.394 65.119 146.436 C 67.932 144.50900000000001 70.88 142.792 73.78 141.002 C 74.013 140.858 74.245 140.71200000000002 74.477 140.567 C 72.94200000000001 141.645 71.405 142.721 69.86 143.787 C 67.236 145.598 64.621 147.423 62.004 149.244 C 61.271 149.754 60.538999999999994 150.264 59.806 150.774 C 59.552 150.95 59.296 151.125 59.04 151.301 C 59.096 151.247 59.151 151.192 59.207 151.138 z M 59.657 151.203 L 61.629 149.85 C 62.943999999999996 148.948 64.259 148.045 65.575 147.14499999999998 C 68.221 145.337 70.85000000000001 143.503 73.49000000000001 141.68599999999998 C 74.37100000000001 141.07999999999998 75.25800000000001 140.48399999999998 76.14500000000001 139.88799999999998 C 75.793 140.29199999999997 75.43400000000001 140.68999999999997 75.061 141.07599999999996 C 73.923 142.25399999999996 72.69000000000001 143.33799999999997 71.399 144.34599999999998 C 68.636 146.503 65.612 148.29799999999997 62.522 149.93999999999997 C 61.617 150.42099999999996 60.705999999999996 150.89199999999997 59.792 151.35699999999997 C 59.317 151.59899999999996 58.837 151.83699999999996 58.361000000000004 152.08299999999997 C 58.802 151.8 59.228 151.498 59.657 151.203 z M 59.743 151.808 C 60.568000000000005 151.403 61.391000000000005 150.994 62.208 150.572 C 63.815999999999995 149.741 65.40599999999999 148.874 66.956 147.93800000000002 C 69.834 146.199 72.57300000000001 144.209 74.958 141.829 C 75.605 141.184 76.227 140.514 76.81099999999999 139.811 C 76.92699999999999 139.672 77.03999999999999 139.531 77.154 139.389 C 76.578 140.64100000000002 75.938 141.848 75.149 142.989 C 74.236 144.308 73.171 145.52700000000002 71.99 146.613 C 69.50099999999999 148.899 66.521 150.583 63.291 151.571 C 61.657999999999994 152.07 59.997 152.345 58.306999999999995 152.51 C 58.79 152.285 59.266 152.042 59.743 151.808 z M 84.433 124.29 C 83.119 125.284 81.781 126.24600000000001 80.385 127.122 C 78.71300000000001 128.172 76.99300000000001 129.145 75.23400000000001 130.042 C 71.697 131.844 68.004 133.318 64.20800000000001 134.475 C 62.20000000000001 135.08599999999998 60.16500000000001 135.612 58.12400000000001 136.09799999999998 C 59.69400000000001 135.49099999999999 61.24400000000001 134.82299999999998 62.79100000000001 134.16199999999998 C 64.59500000000001 133.391 66.394 132.60799999999998 68.18800000000002 131.813 C 71.81700000000002 130.20399999999998 75.43000000000002 128.55499999999998 79.02100000000002 126.862 C 80.826 126.01 82.636 125.163 84.433 124.29 z M 84.033 125.18 C 82.947 126.301 81.802 127.358 80.562 128.316 C 78.965 129.549 77.26899999999999 130.653 75.495 131.613 C 71.96300000000001 133.526 68.144 134.871 64.19200000000001 135.585 C 63.092000000000006 135.78400000000002 61.982000000000006 135.93800000000002 60.86900000000001 136.041 C 60.306000000000004 136.093 59.742000000000004 136.13 59.178000000000004 136.166 C 58.92700000000001 136.182 58.673 136.191 58.42100000000001 136.203 C 62.12700000000001 135.58 65.751 134.481 69.251 133.122 C 72.964 131.681 76.546 129.907 79.946 127.83200000000001 C 81.33 126.986 82.701 126.109 84.033 125.18 z M 61.703 132.313 C 63.504000000000005 131.10799999999998 65.372 130.003 67.299 129.012 C 71.15 127.031 75.24100000000001 125.497 79.47200000000001 124.56 C 79.90200000000002 124.465 80.33500000000001 124.38 80.76800000000001 124.297 C 78.28800000000001 124.932 75.84500000000001 125.709 73.45700000000002 126.631 C 69.74900000000002 128.062 66.16400000000002 129.826 62.788000000000025 131.924 C 61.27100000000002 132.86700000000002 59.791000000000025 133.869 58.379000000000026 134.961 C 59.305 133.897 60.556 133.081 61.703 132.313 z M 57.901 135.587 C 60.967000000000006 133.39999999999998 64.114 131.35399999999998 67.477 129.642 C 70.985 127.857 74.656 126.399 78.435 125.297 C 80.31400000000001 124.749 82.221 124.301 84.145 123.94 C 82.6 124.703 81.059 125.474 79.505 126.217 C 77.735 127.063 75.95899999999999 127.898 74.179 128.722 C 70.575 130.389 66.944 131.996 63.297000000000004 133.566 C 61.415000000000006 134.376 59.511 135.147 57.643 135.989 C 57.72 135.85 57.811 135.719 57.901 135.587 z M 84.569 125.519 C 84.297 125.933 84.012 126.33800000000001 83.71600000000001 126.735 C 83.13100000000001 127.519 82.501 128.268 81.831 128.979 C 79.095 131.882 75.667 134.14800000000002 71.91 135.495 C 67.65899999999999 137.019 63.143 137.323 58.69499999999999 136.621 C 58.468999999999994 136.585 58.24399999999999 136.543 58.017999999999994 136.50300000000001 C 58.342999999999996 136.52 58.669999999999995 136.513 58.99499999999999 136.508 C 59.50999999999999 136.5 60.02399999999999 136.47500000000002 60.53799999999999 136.436 C 61.55099999999999 136.359 62.56099999999999 136.241 63.56299999999999 136.076 C 65.56099999999999 135.74699999999999 67.51999999999998 135.24699999999999 69.44099999999999 134.608 C 73.29899999999999 133.326 76.95599999999999 131.429 80.219 129.00300000000001 C 81.91799999999999 127.74000000000001 83.54599999999999 126.34900000000002 85.02199999999999 124.82800000000002 C 84.886 125.089 84.688 125.339 84.569 125.519 z" stroke-linecap="round" />
</g>
</svg>