<?xml version="1.0" encoding="UTF-8" standalone="no" ?>
<!DOCTYPE svg PUBLIC "-//W3C//DTD SVG 1.1//EN" "http://www.w3.org/Graphics/SVG/1.1/DTD/svg11.dtd">
<svg xmlns="http://www.w3.org/2000/svg" xmlns:xlink="http://www.w3.org/1999/xlink" version="1.1" width="80" height="150" viewBox="0 0 80 150" xml:space="preserve">
<desc>Created with Fabric.js 5.2.4</desc>
<defs>
</defs>
<rect x="0" y="0" width="100%" height="100%" fill="transparent"></rect>
<g transform="matrix(1 0 0 1 40 75)" id="fc811ae7-94a6-4813-a672-5562730f3949"  >
<rect style="stroke: none; stroke-width: 1; stroke-dasharray: none; stroke-linecap: butt; stroke-dashoffset: 0; stroke-linejoin: miter; stroke-miterlimit: 4; fill: rgb(255,255,255); fill-rule: nonzero; opacity: 1; visibility: hidden;" vector-effect="non-scaling-stroke"  x="-40" y="-75" rx="0" ry="0" width="80" height="150" />
</g>
<g transform="matrix(Infinity NaN NaN Infinity 0 0)" id="dbb4e705-56be-4df9-91b2-46cd2014175f"  >
</g>
<g transform="matrix(1.15 0 0 1.31 40 90.58)" id="4449a9e7-60af-496f-aba1-ea0c232ef803"  >
<path style="stroke: rgb(0,0,0); stroke-width: 0; stroke-dasharray: none; stroke-linecap: butt; stroke-dashoffset: 0; stroke-linejoin: miter; stroke-miterlimit: 4; fill: rgb(77,76,81); fill-rule: nonzero; opacity: 1;" vector-effect="non-scaling-stroke"  transform=" translate(-180.5, -386.06)" d="M 214.781 383.461 C 210.584 384.449 206.63400000000001 386.39300000000003 203.28900000000002 389.11400000000003 C 200.388 391.473 197.99800000000002 394.38800000000003 196.20800000000003 397.65700000000004 C 197.35600000000002 392.07800000000003 197.62600000000003 386.32700000000006 196.83400000000003 380.66600000000005 C 196.79700000000003 380.40400000000005 196.75000000000003 380.14400000000006 196.70900000000003 379.88200000000006 C 196.72000000000003 379.8740000000001 196.73000000000002 379.86600000000004 196.74100000000004 379.85800000000006 C 196.77500000000003 379.8330000000001 196.75200000000004 379.77900000000005 196.71100000000004 379.7830000000001 C 196.70500000000004 379.78400000000005 196.69900000000004 379.78400000000005 196.69300000000004 379.7850000000001 C 196.67900000000003 379.7000000000001 196.66600000000005 379.6140000000001 196.65200000000004 379.5290000000001 C 196.67800000000005 379.4760000000001 196.70200000000006 379.4230000000001 196.72800000000004 379.3700000000001 C 199.29800000000003 378.1980000000001 201.81100000000004 376.8010000000001 204.06400000000005 375.0990000000001 C 206.36400000000006 373.3610000000001 208.34200000000004 371.2110000000001 209.64900000000006 368.6260000000001 C 210.95400000000006 366.0460000000001 211.41700000000006 363.2000000000001 210.96100000000007 360.3430000000001 C 210.47100000000006 357.2770000000001 209.16800000000006 354.42800000000005 208.17000000000007 351.5110000000001 C 206.97500000000008 348.0180000000001 206.30200000000008 344.3660000000001 206.16000000000008 340.6770000000001 C 206.1510000000001 340.45400000000006 205.96100000000007 340.38400000000007 205.79100000000008 340.42500000000007 C 205.7870000000001 340.3930000000001 205.79000000000008 340.36100000000005 205.78400000000008 340.32900000000006 C 205.74100000000007 340.0830000000001 205.37200000000007 339.9870000000001 205.27000000000007 340.25000000000006 C 205.05400000000006 340.80500000000006 205.02900000000005 341.3980000000001 204.91700000000006 341.98100000000005 C 204.80400000000006 342.5690000000001 204.66800000000006 343.15500000000003 204.49900000000005 343.7300000000001 C 204.15800000000004 344.89700000000005 203.69400000000005 346.03100000000006 203.17600000000004 347.13000000000005 C 202.13700000000006 349.33200000000005 200.81800000000004 351.38200000000006 199.50300000000004 353.42600000000004 C 198.40100000000004 355.14000000000004 197.28200000000004 356.886 196.31600000000003 358.701 C 196.24600000000004 358.738 196.19600000000003 358.81300000000005 196.21300000000002 358.89700000000005 C 194.996 361.21600000000007 194.03400000000002 363.65000000000003 193.68200000000002 366.27600000000007 C 193.584 367.0040000000001 193.54000000000002 367.74000000000007 193.544 368.4750000000001 C 191.757 364.03100000000006 189.388 359.81700000000006 186.56900000000002 355.94700000000006 C 186.46800000000002 354.09400000000005 186.29200000000003 352.24300000000005 186.05800000000002 350.39900000000006 C 186.098 350.37500000000006 186.13600000000002 350.34400000000005 186.16400000000002 350.29600000000005 C 187.71200000000002 347.63500000000005 189.37 344.53000000000003 188.36800000000002 341.37800000000004 C 187.621 339.028 185.68400000000003 337.333 184.07900000000004 335.56100000000004 C 183.61300000000003 335.04600000000005 183.16300000000004 334.516 182.75500000000002 333.95300000000003 C 182.354 333.39900000000006 182.03700000000003 332.80100000000004 181.68900000000002 332.21400000000006 C 181.60200000000003 332.06800000000004 181.41000000000003 332.2080000000001 181.448 332.34700000000004 C 181.464 332.40600000000006 181.487 332.463 181.506 332.52200000000005 C 181.498 332.54300000000006 181.484 332.56100000000004 181.486 332.58700000000005 C 181.53099999999998 333.22600000000006 181.62099999999998 333.85600000000005 181.61599999999999 334.499 C 181.611 335.142 181.54399999999998 335.783 181.463 336.42 C 181.304 337.678 181.055 338.923 180.932 340.185 C 180.81199999999998 341.41 180.81799999999998 342.651 181.137 343.847 C 181.437 344.971 182.018 346.02099999999996 182.719 346.94399999999996 C 183.539 348.02199999999993 184.515 348.96799999999996 185.5 349.893 C 185.552 350.304 185.609 350.714 185.654 351.125 C 185.801 352.468 185.904 353.814 185.988 355.163 C 185.665 354.73400000000004 185.341 354.305 185.007 353.886 C 182.16400000000002 350.31600000000003 178.928 347.059 175.412 344.134 C 174.792 339.521 173.32 334.725 169.55 331.71500000000003 C 165.476 328.461 159.88500000000002 328.821 154.977 328.84400000000005 C 152.059 328.857 149.19 328.68500000000006 146.34300000000002 328.03400000000005 C 146.33300000000003 328.01900000000006 146.32500000000002 328.0040000000001 146.31400000000002 327.98900000000003 C 146.26900000000003 327.925 146.20300000000003 327.94700000000006 146.17000000000002 327.99600000000004 C 146.12800000000001 327.98600000000005 146.086 327.97900000000004 146.044 327.968 C 145.854 327.922 145.768 328.224 145.947 328.296 C 146.026 328.328 146.107 328.354 146.187 328.381 C 146.187 328.40799999999996 146.196 328.43499999999995 146.223 328.455 C 146.28500000000003 328.5 146.352 328.53999999999996 146.41500000000002 328.584 C 147.431 330.516 148.086 332.614 148.76700000000002 334.68 C 149.48700000000002 336.863 150.30500000000004 339.088 151.76300000000003 340.899 C 154.94300000000004 344.847 160.32700000000003 345.642 165.09500000000003 345.495 C 168.42700000000002 345.392 171.74400000000003 344.945 175.08100000000002 345.087 C 177.53600000000003 347.142 179.85500000000002 349.358 181.99300000000002 351.755 C 184.64700000000002 354.731 187.01600000000002 357.976 189.03500000000003 361.423 C 187.86200000000002 361.067 186.669 360.783 185.46500000000003 360.561 C 185.40700000000004 360.51399999999995 185.33500000000004 360.484 185.25400000000002 360.493 C 185.24500000000003 360.49399999999997 185.23600000000002 360.496 185.22700000000003 360.498 C 184.83700000000005 360.187 184.39700000000002 359.935 183.96500000000003 359.69 C 183.45300000000003 359.4 182.92400000000004 359.137 182.38600000000002 358.9 C 181.34500000000003 358.441 180.25900000000001 358.077 179.15400000000002 357.806 C 176.90700000000004 357.255 174.55200000000002 357.10699999999997 172.25500000000002 357.38599999999997 C 167.943 357.90999999999997 163.94200000000004 359.98699999999997 160.95200000000003 363.126 C 160.13700000000003 363.981 159.39900000000003 364.912 158.76200000000003 365.907 C 158.15500000000003 366.856 157.45400000000004 367.936 157.26200000000003 369.06199999999995 C 157.25300000000004 369.11799999999994 157.28600000000003 369.16299999999995 157.33000000000004 369.18799999999993 C 157.30700000000004 369.2129999999999 157.28300000000004 369.23799999999994 157.26200000000003 369.26399999999995 C 157.19800000000004 369.3419999999999 157.30300000000003 369.45399999999995 157.38400000000004 369.39199999999994 C 157.49600000000004 369.30699999999996 157.60200000000003 369.2149999999999 157.71200000000005 369.12899999999996 C 158.69000000000005 369.41599999999994 159.70500000000004 369.587 160.70700000000005 369.758 C 161.79900000000006 369.945 162.89700000000005 370.09299999999996 164.00200000000004 370.17499999999995 C 166.15100000000004 370.33399999999995 168.32500000000005 370.24699999999996 170.41100000000003 369.67099999999994 C 174.05500000000004 368.66399999999993 176.99800000000002 366.17099999999994 180.04100000000003 364.0539999999999 C 180.88300000000004 363.4679999999999 181.74300000000002 362.9029999999999 182.63800000000003 362.3999999999999 C 183.09000000000003 362.1459999999999 183.55400000000003 361.9119999999999 184.02600000000004 361.69499999999994 C 184.40200000000004 361.52199999999993 184.79300000000003 361.38399999999996 185.16000000000003 361.1979999999999 C 185.21200000000002 361.2129999999999 185.26100000000002 361.2159999999999 185.30500000000004 361.2029999999999 C 186.73700000000002 361.46899999999994 188.15100000000004 361.82699999999994 189.53300000000004 362.28599999999994 C 192.17600000000004 366.98299999999995 194.16000000000005 372.0439999999999 195.29200000000003 377.32399999999996 C 196.57100000000003 383.29299999999995 196.66200000000003 389.42199999999997 195.70000000000002 395.4 C 195.47500000000002 394.42499999999995 195.19100000000003 393.46299999999997 194.88000000000002 392.53 C 194.65600000000003 391.85699999999997 194.395 391.19699999999995 194.11900000000003 390.54299999999995 C 194.09300000000002 389.93699999999995 193.99000000000004 389.32699999999994 193.88000000000002 388.739 C 193.73700000000002 387.972 193.54200000000003 387.21299999999997 193.29700000000003 386.472 C 192.79600000000002 384.95099999999996 192.08100000000002 383.491 191.18900000000002 382.15999999999997 C 189.39800000000002 379.48699999999997 186.836 377.376 183.89300000000003 376.08299999999997 C 183.08700000000002 375.729 182.25200000000004 375.43199999999996 181.40000000000003 375.21099999999996 C 180.66200000000003 375.02 179.88700000000003 374.852 179.11800000000002 374.8419999999999 C 178.99000000000004 374.7899999999999 178.86200000000002 374.7339999999999 178.73300000000003 374.6859999999999 C 178.69000000000003 374.6699999999999 178.65600000000003 374.68299999999994 178.63000000000002 374.7039999999999 C 178.50400000000002 374.6969999999999 178.40400000000002 374.8619999999999 178.47600000000003 374.9919999999999 C 178.84900000000002 375.6599999999999 179.29600000000002 376.2829999999999 179.65200000000002 376.9639999999999 C 179.99300000000002 377.6149999999999 180.29000000000002 378.2889999999999 180.57000000000002 378.9679999999999 C 181.14200000000002 380.3549999999999 181.64200000000002 381.7749999999999 182.31300000000002 383.1199999999999 C 182.95000000000002 384.3969999999999 183.747 385.60399999999987 184.836 386.5409999999999 C 186.037 387.5749999999999 187.512 388.2209999999999 188.95700000000002 388.83499999999987 C 190.591 389.5289999999999 192.27100000000002 390.19899999999984 193.616 391.3919999999999 C 193.674 391.44299999999987 193.734 391.4639999999999 193.793 391.47199999999987 C 193.863 391.6559999999999 193.93800000000002 391.8369999999999 194.00400000000002 392.02299999999985 C 194.37500000000003 393.06899999999985 194.699 394.13099999999986 194.95200000000003 395.21099999999984 C 195.11500000000004 395.90999999999985 195.23700000000002 396.61299999999983 195.35200000000003 397.31899999999985 C 194.76600000000002 400.25099999999986 193.92900000000003 403.1399999999999 192.85300000000004 405.9449999999998 C 190.39500000000004 412.3539999999998 186.76300000000003 418.22599999999983 182.24800000000005 423.3519999999998 C 182.26300000000003 423.2539999999998 182.27600000000004 423.1549999999998 182.29000000000005 423.0559999999998 C 182.32200000000006 423.03099999999984 182.35100000000006 422.99999999999983 182.37500000000006 422.95899999999983 C 184.65800000000004 418.9839999999998 186.45700000000005 414.64399999999983 187.04000000000005 410.06899999999985 C 187.55500000000004 406.03199999999987 187.05500000000004 401.8369999999999 185.27400000000006 398.1519999999999 C 184.31400000000005 396.1659999999999 182.99700000000007 394.36899999999986 181.33900000000006 392.90999999999985 C 181.19100000000006 392.77999999999986 180.92600000000004 392.84099999999984 180.85300000000007 393.02599999999984 C 179.17700000000008 397.28799999999984 177.48500000000007 401.61299999999983 176.85000000000008 406.17499999999984 C 176.3230000000001 409.9669999999998 176.60500000000008 413.9279999999998 178.15400000000008 417.46499999999986 C 178.97000000000008 419.32799999999986 180.1390000000001 421.0939999999999 181.7090000000001 422.40499999999986 C 181.72400000000007 422.41799999999984 181.7390000000001 422.42299999999983 181.75400000000008 422.42999999999984 C 181.66800000000006 423.0199999999998 181.57700000000008 423.60999999999984 181.49100000000007 424.20099999999985 C 179.91500000000008 425.92299999999983 178.24000000000007 427.5579999999999 176.47200000000007 429.0939999999998 C 169.38200000000006 435.2529999999998 161.02700000000007 439.7359999999998 152.18100000000007 442.8129999999998 C 151.09200000000007 443.19199999999984 150.00000000000006 443.5609999999998 148.90000000000006 443.9069999999998 C 148.75900000000007 443.9519999999998 148.81700000000006 444.1979999999998 148.96400000000006 444.1629999999998 C 157.30700000000004 442.1369999999998 165.29100000000005 438.39699999999976 172.28700000000006 433.3999999999998 C 172.31700000000006 433.4419999999998 172.37400000000005 433.4629999999998 172.43100000000007 433.4219999999998 C 173.11700000000008 432.9379999999998 173.79600000000008 432.4429999999998 174.47300000000007 431.9459999999998 C 179.14900000000006 429.1539999999998 184.28800000000007 427.2799999999998 189.36800000000008 425.3589999999998 C 192.82400000000007 424.0519999999998 196.2990000000001 422.6809999999998 199.55900000000008 420.9289999999998 C 199.8340000000001 420.8519999999998 200.10500000000008 420.7569999999998 200.30200000000008 420.60099999999983 C 200.3460000000001 420.56699999999984 200.36200000000008 420.52599999999984 200.36700000000008 420.4839999999998 C 201.84500000000008 419.6499999999998 203.27500000000006 418.7309999999998 204.63000000000008 417.69199999999984 C 206.96100000000007 415.90599999999984 209.06400000000008 413.78799999999984 210.64800000000008 411.30499999999984 C 210.70800000000008 411.2119999999998 210.71300000000008 411.11499999999984 210.68800000000007 411.02799999999985 C 210.68800000000007 411.02799999999985 210.68900000000008 411.02799999999985 210.68900000000008 411.0269999999999 C 210.71100000000007 411.01599999999985 210.7270000000001 411.0019999999999 210.74200000000008 410.9879999999999 C 210.91900000000007 410.9099999999999 210.85400000000007 410.6009999999999 210.62400000000008 410.6049999999999 C 206.08200000000008 410.6869999999999 201.5730000000001 412.0019999999999 197.44900000000007 413.8989999999999 C 197.42900000000006 413.9029999999999 197.40900000000008 413.9129999999999 197.38900000000007 413.9269999999999 C 196.92400000000006 414.1409999999999 196.46300000000008 414.36099999999993 196.00900000000007 414.5899999999999 C 191.35800000000006 416.92799999999994 187.16100000000006 420.0609999999999 183.26900000000006 423.49799999999993 C 183.22500000000005 423.5369999999999 183.18200000000007 423.57699999999994 183.13800000000006 423.61599999999993 C 186.88300000000007 419.34799999999996 190.03400000000005 414.5709999999999 192.39500000000007 409.36999999999995 C 192.55200000000008 409.02399999999994 192.70300000000006 408.67499999999995 192.85300000000007 408.32599999999996 C 192.96200000000007 408.15999999999997 193.06700000000006 407.99199999999996 193.17800000000005 407.82699999999994 C 193.34400000000005 407.57899999999995 193.51700000000005 407.3349999999999 193.68600000000006 407.08899999999994 C 195.34800000000007 405.90899999999993 197.02500000000006 404.7629999999999 198.80800000000005 403.75999999999993 C 200.82300000000004 402.62699999999995 202.90300000000005 401.67099999999994 205.01700000000005 400.73999999999995 C 206.93500000000006 399.8949999999999 208.87600000000006 398.98999999999995 210.50000000000006 397.64199999999994 C 211.06800000000007 397.17099999999994 211.57300000000006 396.6449999999999 212.02700000000004 396.08099999999996 C 212.09100000000004 396.02899999999994 212.16100000000003 395.98299999999995 212.22400000000005 395.92799999999994 C 212.29300000000003 395.86699999999996 212.31500000000005 395.79099999999994 212.30900000000005 395.71899999999994 C 213.08200000000005 394.67299999999994 213.67600000000004 393.49999999999994 214.08500000000006 392.24099999999993 C 214.94900000000007 389.5799999999999 215.05800000000008 386.7729999999999 215.13800000000006 383.9989999999999 C 215.13800000000006 383.9879999999999 215.14100000000005 383.9769999999999 215.13900000000007 383.9659999999999 C 215.14000000000007 383.9239999999999 215.14200000000005 383.8809999999999 215.14300000000006 383.8379999999999 C 215.153 383.651 215.015 383.406 214.781 383.461 z M 183.285 335.335 C 183.835 335.99199999999996 184.418 336.621 184.994 337.256 C 185.04 337.642 185.1 338.027 185.124 338.417 C 185.15699999999998 338.957 185.142 339.5 185.079 340.037 C 185.019 340.54499999999996 184.918 341.049 184.776 341.53999999999996 C 184.71800000000002 341.741 184.64700000000002 341.93899999999996 184.574 342.13599999999997 C 184.245 340.71599999999995 183.89100000000002 339.30299999999994 183.48700000000002 337.905 C 183.08300000000003 336.50899999999996 182.61200000000002 335.13899999999995 182.11100000000002 333.777 C 182.46 334.333 182.882 334.854 183.285 335.335 z M 181.931 336.548 C 182.006 335.948 182.08 335.299 182.09300000000002 334.65 C 182.954 337.371 183.69500000000002 340.132 184.3 342.921 C 184.298 342.94 184.292 342.959 184.292 342.978 C 184.291 343.016 184.31 343.053 184.336 343.083 C 184.46200000000002 343.67100000000005 184.58100000000002 344.261 184.69500000000002 344.85200000000003 C 184.17400000000004 344.502 183.663 344.136 183.17200000000003 343.745 C 182.57700000000003 343.27 182.03300000000002 342.732 181.42600000000002 342.274 C 181.40800000000002 342.261 181.389 342.26 181.37 342.258 C 181.229 340.362 181.696 338.415 181.931 336.548 z M 181.659 343.866 C 181.53 343.437 181.447 343.003 181.399 342.567 C 181.847 343.1 182.393 343.552 182.934 343.99 C 183.528 344.471 184.147 344.92 184.787 345.338 C 185.014 346.55 185.217 347.76500000000004 185.386 348.98600000000005 C 183.847 347.522 182.283 345.936 181.659 343.866 z M 184.728 342.808 C 184.911 342.478 185 342.048 185.092 341.721 C 185.24300000000002 341.187 185.346 340.64 185.401 340.087 C 185.478 339.318 185.508 338.461 185.36200000000002 337.668 C 185.47200000000004 337.793 185.58700000000002 337.913 185.69500000000002 338.04 C 186.44600000000003 338.915 187.15900000000002 339.851 187.61300000000003 340.918 C 188.17500000000004 342.238 188.23900000000003 343.663 187.91900000000004 345.055 C 187.55100000000004 346.65500000000003 186.76500000000004 348.13 185.94900000000004 349.549 C 185.641 347.284 185.226 345.036 184.728 342.808 z M 168.307 331.581 C 168.43599999999998 331.666 168.559 331.759 168.684 331.849 C 168.775 332.783 169.05 333.72999999999996 169.3 334.622 C 169.58200000000002 335.629 169.91500000000002 336.62100000000004 170.294 337.596 C 170.673 338.57 171.10000000000002 339.525 171.568 340.46 C 171.76100000000002 340.846 171.966 341.226 172.174 341.60499999999996 C 171.71200000000002 341.26399999999995 171.25 340.92199999999997 170.781 340.59099999999995 C 170.757 340.53599999999994 170.71200000000002 340.489 170.638 340.47299999999996 C 170.627 340.46999999999997 170.615 340.46899999999994 170.604 340.46599999999995 C 168.65200000000002 339.09899999999993 166.63600000000002 337.82599999999996 164.57000000000002 336.65 C 164.53000000000003 336.59099999999995 164.48300000000003 336.537 164.44600000000003 336.476 C 164.23000000000002 336.11899999999997 164.06700000000004 335.728 163.94400000000002 335.33 C 163.668 334.43899999999996 163.57700000000003 333.50399999999996 163.401 332.591 C 163.24900000000002 331.803 163.029 331.029 162.62300000000002 330.332 C 162.49 330.105 162.32100000000003 329.855 162.12300000000002 329.631 C 164.29 329.862 166.468 330.375 168.307 331.581 z M 149.594 335.65 C 149.522 335.45399999999995 149.45 335.258 149.38 335.061 C 148.638 332.974 147.986 330.815 146.871 328.893 C 148.345 329.88399999999996 149.94 330.719 151.52200000000002 331.512 C 152.437 331.97 153.35700000000003 332.424 154.29000000000002 332.844 C 154.75700000000003 333.054 155.22600000000003 333.258 155.69700000000003 333.457 C 156.14200000000002 333.644 156.61300000000003 333.904 157.10200000000003 333.90999999999997 C 157.30100000000004 333.91299999999995 157.33800000000002 333.63699999999994 157.21300000000002 333.527 C 156.854 333.214 156.312 333.091 155.87300000000002 332.91999999999996 C 155.39600000000002 332.734 154.92100000000002 332.542 154.449 332.34499999999997 C 153.52200000000002 331.957 152.602 331.55999999999995 151.697 331.12199999999996 C 150.126 330.36299999999994 148.617 329.49399999999997 147.08100000000002 328.67499999999995 C 149.132 329.27799999999996 151.31300000000002 329.39799999999997 153.43900000000002 329.43299999999994 C 156.05200000000002 329.4749999999999 158.67100000000002 329.34899999999993 161.27900000000002 329.54999999999995 C 161.36700000000002 329.55699999999996 161.455 329.56699999999995 161.54300000000003 329.57499999999993 C 161.64400000000003 329.6649999999999 161.74600000000004 329.7539999999999 161.83600000000004 329.85599999999994 C 162.09800000000004 330.15199999999993 162.31100000000004 330.4869999999999 162.47900000000004 330.84399999999994 C 162.85700000000003 331.64599999999996 163.00700000000003 332.52699999999993 163.14700000000005 333.3949999999999 C 163.28200000000004 334.22799999999995 163.41600000000005 335.0609999999999 163.70200000000006 335.85799999999995 C 163.75100000000006 335.99399999999997 163.81000000000006 336.1259999999999 163.86800000000005 336.2579999999999 C 163.30900000000005 335.94699999999995 162.74900000000005 335.63699999999994 162.18300000000005 335.34099999999995 C 161.09300000000005 334.77099999999996 159.95800000000006 334.28 158.83900000000006 333.76899999999995 C 158.44400000000005 333.58899999999994 158.18200000000004 334.18699999999995 158.56500000000005 334.381 C 160.11300000000006 335.16299999999995 161.64200000000005 335.98999999999995 163.15000000000006 336.85499999999996 C 160.87300000000008 336.96299999999997 158.59700000000007 337.06999999999994 156.32100000000005 337.17799999999994 C 154.15500000000006 337.2799999999999 151.09000000000006 337.78799999999995 149.65400000000005 335.68299999999994 C 149.639 335.661 149.617 335.652 149.594 335.65 z M 151.909 340.199 C 151.011 339.00600000000003 150.367 337.644 149.82299999999998 336.25100000000003 C 150.80299999999997 337.454 152.48099999999997 337.69700000000006 153.992 337.677 C 156.136 337.65000000000003 158.283 337.49800000000005 160.42499999999998 337.40200000000004 C 161.56199999999998 337.35100000000006 162.69899999999998 337.30000000000007 163.83599999999998 337.25000000000006 C 165.36499999999998 338.14400000000006 166.87199999999999 339.07700000000006 168.34499999999997 340.06000000000006 C 166.58199999999997 339.81200000000007 164.79699999999997 339.72100000000006 163.01599999999996 339.79800000000006 C 161.72699999999998 339.85300000000007 160.44199999999995 339.99500000000006 159.17199999999997 340.22300000000007 C 157.89499999999998 340.45200000000006 156.63299999999998 340.7990000000001 155.33399999999997 340.8910000000001 C 154.69099999999997 340.9360000000001 154.04199999999997 340.9100000000001 153.40999999999997 340.7750000000001 C 152.866 340.66 152.389 340.446 151.909 340.199 z M 158.79 344.343 C 156.48999999999998 343.817 154.23999999999998 342.785 152.607 341.04200000000003 C 152.569 341.002 152.537 340.958 152.5 340.91700000000003 C 153.138 341.17400000000004 153.861 341.27500000000003 154.503 341.29600000000005 C 155.77599999999998 341.33700000000005 157.023 341.05800000000005 158.26199999999997 340.80300000000005 C 160.85799999999998 340.27000000000004 163.50499999999997 340.05800000000005 166.15099999999998 340.23400000000004 C 167.14899999999997 340.3 168.14299999999997 340.42400000000004 169.128 340.59400000000005 C 170.844 341.76800000000003 172.51999999999998 343.00000000000006 174.135 344.30600000000004 C 169.013 344.282 163.863 345.503 158.79 344.343 z M 173.035 342.246 C 172.921 342.07399999999996 172.803 341.906 172.709 341.746 C 172.435 341.277 172.174 340.801 171.925 340.318 C 171.44500000000002 339.389 171.01600000000002 338.43399999999997 170.632 337.462 C 170.24800000000002 336.49 169.911 335.49899999999997 169.622 334.495 C 169.39600000000002 333.708 169.24300000000002 332.895 169.032 332.10200000000003 C 170.542 333.27900000000005 171.744 334.83700000000005 172.61100000000002 336.538 C 173.723 338.72 174.31500000000003 341.108 174.67000000000002 343.521 C 174.133 343.087 173.585 342.665 173.035 342.246 z M 178.142 358.249 C 179.389 358.499 180.606 358.87600000000003 181.775 359.37800000000004 C 182.348 359.624 182.90800000000002 359.90100000000007 183.454 360.20300000000003 C 183.499 360.228 183.543 360.25500000000005 183.588 360.281 C 183.159 360.22700000000003 182.72899999999998 360.184 182.298 360.147 C 182.282 360.106 182.25 360.069 182.195 360.048 C 180.281 359.309 178.293 358.754 176.275 358.38100000000003 C 175.25400000000002 358.192 174.22400000000002 358.05 173.19 357.96000000000004 C 173.137 357.95500000000004 173.084 357.951 173.031 357.94700000000006 C 174.73 357.811 176.453 357.91 178.142 358.249 z M 165.534 360.253 C 167.34799999999998 359.204 169.326 358.508 171.364 358.156 C 171.957 358.189 172.55100000000002 358.212 173.141 358.27 C 174.154 358.36899999999997 175.16299999999998 358.513 176.164 358.703 C 177.843 359.02299999999997 179.48499999999999 359.488 181.09099999999998 360.065 C 179.248 359.973 177.397 360.033 175.56099999999998 360.265 C 175.48799999999997 360.274 175.41699999999997 360.289 175.34399999999997 360.298 C 174.63299999999995 360.26800000000003 173.90999999999997 360.303 173.21799999999996 360.334 C 172.14299999999997 360.382 171.07099999999997 360.487 170.00599999999997 360.648 C 167.88299999999998 360.968 165.79199999999997 361.499 163.77799999999996 362.245 C 163.13199999999998 362.484 162.47799999999995 362.73900000000003 161.84399999999997 363.031 C 162.956 361.96 164.198 361.025 165.534 360.253 z M 158.994 366.518 C 159.536 365.669 160.144 364.85999999999996 160.812 364.10499999999996 C 160.96300000000002 363.93399999999997 161.12900000000002 363.777 161.286 363.61199999999997 C 162.011 363.29999999999995 162.727 362.96599999999995 163.465 362.683 C 164.452 362.305 165.459 361.977 166.48 361.702 C 168.545 361.145 170.67 360.81 172.80599999999998 360.696 C 172.89999999999998 360.69100000000003 172.99499999999998 360.694 173.08999999999997 360.689 C 169.52299999999997 361.43800000000005 166.08899999999997 362.802 162.974 364.697 C 161.927 365.334 160.917 366.03000000000003 159.94899999999998 366.782 C 159.196 367.36699999999996 158.446 367.99399999999997 157.784 368.691 C 158.209 367.983 158.549 367.217 158.994 366.518 z M 158.22 368.72 C 158.767 368.27200000000005 159.31 367.81800000000004 159.87 367.386 C 160.716 366.73400000000004 161.589 366.11800000000005 162.494 365.54900000000004 C 164.315 364.40500000000003 166.251 363.44700000000006 168.263 362.69000000000005 C 172.119 361.24000000000007 176.26 360.56000000000006 180.37800000000001 360.67800000000005 C 177.92600000000002 361.40500000000003 175.685 362.96200000000005 173.562 364.28900000000004 C 170.525 366.18700000000007 167.251 367.57300000000004 163.721 368.23400000000004 C 162.767 368.413 161.802 368.54300000000006 160.835 368.622 C 160.33200000000002 368.663 159.829 368.69 159.32500000000002 368.70300000000003 C 158.958 368.712 158.587 368.703 158.22 368.72 z M 182.761 361.516 C 181.964 361.951 181.194 362.433 180.444 362.945 C 178.927 363.98 177.48399999999998 365.11899999999997 175.98 366.17199999999997 C 174.488 367.217 172.928 368.17699999999996 171.20999999999998 368.804 C 169.195 369.539 167.03099999999998 369.75199999999995 164.89799999999997 369.666 C 163.69599999999997 369.617 162.49999999999997 369.48 161.30999999999997 369.311 C 160.67199999999997 369.221 160.03499999999997 369.10499999999996 159.39699999999996 369 C 159.74399999999997 368.988 160.08999999999997 368.967 160.42199999999997 368.948 C 161.27999999999997 368.899 162.13499999999996 368.80899999999997 162.98399999999998 368.676 C 164.695 368.408 166.38099999999997 367.978 168.01199999999997 367.395 C 169.63799999999998 366.813 171.20099999999996 366.073 172.68999999999997 365.197 C 174.29499999999996 364.253 175.82099999999997 363.175 177.46499999999997 362.297 C 178.87499999999997 361.545 180.36299999999997 360.982 181.92899999999997 360.75500000000005 C 182.57799999999997 360.80600000000004 183.22599999999997 360.87600000000003 183.86999999999998 360.96600000000007 C 183.494 361.137 183.124 361.319 182.761 361.516 z M 192.608 386.082 C 192.893 386.888 193.118 387.71299999999997 193.276 388.553 C 193.29000000000002 388.63 193.299 388.70799999999997 193.312 388.785 C 193.02 388.202 192.717 387.625 192.39100000000002 387.06100000000004 C 191.37500000000003 385.30500000000006 190.18200000000002 383.64900000000006 188.841 382.12300000000005 C 188.77 381.52400000000006 188.655 380.93300000000005 188.495 380.35200000000003 C 188.41 380.04400000000004 188.31300000000002 379.73900000000003 188.199 379.44100000000003 C 190.184 381.252 191.708 383.543 192.608 386.082 z M 181.033 375.59 C 181.779 375.784 182.51299999999998 376.025 183.22699999999998 376.315 C 184.65999999999997 376.897 186.01099999999997 377.673 187.23199999999997 378.622 C 187.39599999999996 378.75 187.55099999999996 378.88800000000003 187.70999999999998 379.022 C 187.885 379.489 188.057 379.956 188.183 380.43899999999996 C 188.285 380.83399999999995 188.35399999999998 381.23799999999994 188.40099999999998 381.643 C 187.21499999999997 380.34999999999997 185.92499999999998 379.15099999999995 184.53599999999997 378.082 C 183.27199999999996 377.11 181.90899999999996 376.188 180.46799999999996 375.455 C 180.656 375.498 180.846 375.541 181.033 375.59 z M 181.201 379.018 C 180.885 378.253 180.551 377.49399999999997 180.162 376.76399999999995 C 179.872 376.21999999999997 179.549 375.65199999999993 179.142 375.17199999999997 C 179.154 375.17499999999995 179.166 375.17799999999994 179.179 375.181 C 180.74 376.03999999999996 182.275 376.91999999999996 183.704 377.99699999999996 C 184.64700000000002 378.70799999999997 185.542 379.479 186.395 380.29499999999996 C 185.678 380.152 184.89100000000002 380.21 184.20000000000002 380.23999999999995 C 183.257 380.2819999999999 182.311 380.23699999999997 181.50300000000001 379.76099999999997 C 181.402 379.513 181.302 379.263 181.201 379.018 z M 181.698 380.242 C 182.293 380.535 183.007 380.60900000000004 183.661 380.61600000000004 C 184.24 380.622 184.819 380.56700000000006 185.398 380.58000000000004 C 185.996 380.59400000000005 186.518 380.713 187.055 380.93600000000004 C 187.386 381.273 187.711 381.617 188.026 381.97 C 188.90900000000002 382.959 189.723 384.00800000000004 190.47 385.10200000000003 C 190.253 384.978 190.033 384.86800000000005 189.821 384.77400000000006 C 189.059 384.43600000000004 188.24099999999999 384.24100000000004 187.421 384.1000000000001 C 186.47 383.9360000000001 185.509 383.8320000000001 184.565 383.6290000000001 C 184.119 383.5330000000001 183.398 383.3830000000001 182.941 383.03800000000007 C 182.471 382.139 182.079 381.187 181.698 380.242 z M 185.758 386.479 C 184.667 385.69399999999996 183.87 384.67699999999996 183.22400000000002 383.554 C 183.32100000000003 383.602 183.42000000000002 383.64599999999996 183.52100000000002 383.68399999999997 C 184.447 384.03 185.43900000000002 384.16799999999995 186.411 384.316 C 187.351 384.45899999999995 188.299 384.60699999999997 189.195 384.93699999999995 C 189.618 385.09299999999996 190.03199999999998 385.28299999999996 190.41 385.52899999999994 C 190.688 385.7099999999999 190.918 385.92699999999996 191.152 386.14799999999997 C 191.964 387.45 192.683 388.811 193.29 390.222 C 190.982 388.613 188.056 388.132 185.758 386.479 z M 186.19 402.95 C 186.21699999999998 403.085 186.24699999999999 403.21999999999997 186.271 403.356 C 187.021 407.554 186.39399999999998 411.864 184.988 415.859 C 184.315 417.772 183.467 419.61699999999996 182.511 421.404 C 182.607 420.578 182.689 419.752 182.768 418.932 C 182.889 417.675 182.971 416.416 183.036 415.15500000000003 C 184.455 411.87300000000005 185.357 408.348 185.933 404.831 C 186.036 404.206 186.119 403.578 186.19 402.95 z M 185.847 401.526 C 185.69400000000002 403.988 185.377 406.445 184.8 408.845 C 184.34400000000002 410.74100000000004 183.745 412.59200000000004 183.067 414.41600000000005 C 183.091 413.86000000000007 183.12300000000002 413.30400000000003 183.136 412.74800000000005 C 183.16 411.69800000000004 183.16299999999998 410.64900000000006 183.147 409.6 C 183.165 409.557 183.165 409.51000000000005 183.142 409.461 C 183.124 408.425 183.07999999999998 407.39 183.024 406.356 C 183.799 403.52299999999997 184.196 400.592 184.273 397.656 C 184.943 398.878 185.467 400.182 185.847 401.526 z M 183.907 396.999 C 183.90200000000002 399.817 183.562 402.60600000000005 182.966 405.35200000000003 C 182.858 403.728 182.705 402.10600000000005 182.499 400.49 C 182.21099999999998 398.232 181.856 395.981 181.32 393.76800000000003 C 182.329 394.727 183.19 395.819 183.907 396.999 z M 178.823 400.375 C 179.488 398.268 180.282 396.206 181.091 394.15 C 181.392 395.996 181.70000000000002 397.84299999999996 181.92700000000002 399.7 C 182.17600000000002 401.731 182.34600000000003 403.77 182.454 405.813 C 182.505 406.772 182.538 407.73199999999997 182.55800000000002 408.692 C 181.63200000000003 407.499 180.69100000000003 406.312 179.836 405.069 C 179.358 404.374 178.93200000000002 403.637 178.67100000000002 402.831 C 178.55 402.457 178.46900000000002 402.074 178.431 401.683 C 178.556 401.245 178.686 400.809 178.823 400.375 z M 178.226 402.438 C 178.242 402.509 178.258 402.58 178.275 402.64799999999997 C 178.485 403.47099999999995 178.883 404.23299999999995 179.339 404.94399999999996 C 179.845 405.73199999999997 180.428 406.46899999999994 180.988 407.21899999999994 C 181.515 407.92499999999995 182.041 408.63199999999995 182.567 409.33899999999994 C 182.606 412.0849999999999 182.518 414.83299999999997 182.29600000000002 417.5709999999999 C 180.90200000000002 414.79099999999994 178.35000000000002 412.6909999999999 177.192 409.7879999999999 C 177.191 407.309 177.594 404.843 178.226 402.438 z M 178.831 417.715 C 178.075 416.08099999999996 177.60199999999998 414.327 177.36499999999998 412.544 C 177.27399999999997 411.85999999999996 177.22899999999998 411.17499999999995 177.207 410.491 C 178.432 413.32599999999996 181.031 415.45799999999997 182.23399999999998 418.33 C 182.13799999999998 419.388 182.02399999999997 420.445 181.88899999999998 421.49899999999997 C 181.86899999999997 421.65099999999995 181.84599999999998 421.80199999999996 181.825 421.95399999999995 C 180.592 420.713 179.567 419.307 178.831 417.715 z M 181.642 427.719 C 180.286 428.302 178.95 428.927 177.64499999999998 429.609 C 178.254 429.16299999999995 178.86499999999998 428.721 179.48199999999997 428.287 C 181.82999999999998 426.63599999999997 184.22199999999998 425.04699999999997 186.66299999999998 423.536 C 187.41699999999997 423.069 188.177 422.612 188.938 422.157 C 190.78 422.34299999999996 192.667 422.24 194.49699999999999 422.007 C 195.24999999999997 421.911 195.99699999999999 421.777 196.73999999999998 421.625 C 191.825 423.934 186.627 425.573 181.642 427.719 z M 198.552 420.738 C 198.15099999999998 420.852 197.75 420.964 197.346 421.062 C 196.371 421.297 195.385 421.483 194.391 421.62 C 192.72299999999998 421.849 191.054 421.892 189.37699999999998 421.891 C 192.09199999999998 420.279 194.85099999999997 418.74100000000004 197.64999999999998 417.279 C 200.57199999999997 416.919 203.45899999999997 416.28 206.27999999999997 415.436 C 203.99 417.562 201.335 419.298 198.552 420.738 z M 206.987 414.756 C 204.224 415.625 201.408 416.28799999999995 198.56199999999998 416.80999999999995 C 199.65599999999998 416.24699999999996 200.753 415.68999999999994 201.85999999999999 415.15099999999995 C 204.46699999999998 413.88199999999995 207.134 412.739 209.74699999999999 411.48299999999995 C 208.925 412.663 207.995 413.75 206.987 414.756 z M 202.261 412.558 C 204.624 411.815 207.03799999999998 411.348 209.494 411.10699999999997 C 207.121 411.96599999999995 204.818 413.02799999999996 202.541 414.106 C 199.914 415.35 197.327 416.683 194.777 418.079 C 194.658 418.144 194.541 418.212 194.422 418.277 C 194.43099999999998 418.257 194.441 418.236 194.45 418.216 C 194.54899999999998 418.00600000000003 194.655 417.79900000000004 194.766 417.596 C 195.007 417.159 195.274 416.736 195.56699999999998 416.332 C 196.04299999999998 415.675 196.593 415.078 197.206 414.549 C 198.845 413.778 200.528 413.103 202.261 412.558 z M 196.159 415.067 C 195.84699999999998 415.395 195.54999999999998 415.737 195.278 416.099 C 194.981 416.49399999999997 194.712 416.907 194.47299999999998 417.34 C 194.349 417.566 194.23199999999997 417.796 194.124 418.029 C 194.051 418.186 193.968 418.363 193.951 418.541 C 191.29 420.022 188.68099999999998 421.596 186.11599999999999 423.238 C 186.134 423.154 186.152 423.07 186.17299999999997 422.987 C 186.23099999999997 422.764 186.29899999999998 422.545 186.378 422.32800000000003 C 186.45299999999997 422.12100000000004 186.53599999999997 421.91700000000003 186.629 421.716 C 186.72299999999998 421.512 186.81799999999998 421.29200000000003 186.953 421.112 C 186.987 421.067 186.993 421.023 186.988 420.982 C 187.576 420.52000000000004 188.17 420.064 188.773 419.622 C 191.11 417.913 193.575 416.37 196.159 415.067 z M 186.386 421.466 C 186.371 421.498 186.35399999999998 421.529 186.34 421.56100000000004 C 186.243 421.77700000000004 186.156 421.997 186.079 422.22 C 186.00300000000001 422.442 185.935 422.66700000000003 185.87800000000001 422.894 C 185.83100000000002 423.081 185.78900000000002 423.27 185.77200000000002 423.462 C 183.85000000000002 424.699 181.948 425.96799999999996 180.08 427.28499999999997 C 179.787 427.49199999999996 179.494 427.70199999999994 179.20000000000002 427.90999999999997 C 179.42800000000003 427.68699999999995 179.65500000000003 427.46299999999997 179.88400000000001 427.241 C 180.83100000000002 426.327 181.792 425.42699999999996 182.769 424.546 C 183.946 423.486 185.152 422.458 186.386 421.466 z M 208.211 386.611 C 210.08300000000003 385.631 212.061 384.86899999999997 214.101 384.324 C 212.522 385.642 211.041 387.096 209.549 388.50600000000003 C 207.83700000000002 390.124 206.143 391.761 204.487 393.435 C 204.478 393.444 204.468 393.454 204.459 393.464 C 204.475 393.326 204.487 393.189 204.511 393.075 C 204.57999999999998 392.73699999999997 204.662 392.401 204.758 392.07 C 204.96900000000002 391.34 205.247 390.628 205.58100000000002 389.945 C 206.127 388.83 206.842 387.87 207.627 386.937 C 207.822 386.83 208.013 386.714 208.211 386.611 z M 206.689 387.474 C 206.137 388.185 205.668 388.968 205.279 389.753 C 204.942 390.433 204.66299999999998 391.142 204.446 391.87 C 204.343 392.216 204.252 392.56600000000003 204.176 392.919 C 204.118 393.191 203.968 393.60999999999996 204.028 393.906 C 201.74699999999999 396.236 199.558 398.65500000000003 197.503 401.185 C 197.714 399.672 198.03699999999998 398.174 198.503 396.719 C 198.867 395.58299999999997 199.32199999999997 394.476 199.81199999999998 393.38599999999997 C 201.762 391.055 204.09 389.052 206.689 387.474 z M 210.508 363.331 C 210.423 364.694 210.098 366.031 209.583 367.29400000000004 C 208.521 369.898 206.716 372.141 204.60999999999999 373.98100000000005 C 202.30599999999998 375.994 199.65599999999998 377.4560000000001 196.968 378.87100000000004 C 197.349 378.074 197.714 377.26900000000006 198.07999999999998 376.46700000000004 C 198.63899999999998 375.24100000000004 199.183 374.00800000000004 199.71099999999998 372.76900000000006 C 199.90699999999998 372.3090000000001 200.09799999999998 371.84700000000004 200.28799999999998 371.38400000000007 C 200.55399999999997 371.06000000000006 200.80399999999997 370.72400000000005 201.08899999999997 370.41400000000004 C 201.45899999999997 370.011 201.85599999999997 369.63400000000007 202.27399999999997 369.28100000000006 C 203.07699999999997 368.6020000000001 203.94199999999998 368.0060000000001 204.81199999999998 367.41900000000004 C 206.48999999999998 366.28700000000003 208.195 365.13000000000005 209.45499999999998 363.51700000000005 C 209.87499999999997 362.97900000000004 210.22299999999998 362.39000000000004 210.49699999999999 361.76800000000003 C 210.533 362.289 210.54 362.81 210.508 363.331 z M 207.531 351.555 C 208.363 353.997 209.401 356.374 210.024 358.88100000000003 C 210.181 359.512 210.308 360.153 210.39600000000002 360.79900000000004 C 209.906 362.68300000000005 208.52900000000002 364.16900000000004 207.043 365.36800000000005 C 205.457 366.648 203.68 367.67300000000006 202.126 368.994 C 201.648 369.401 201.13400000000001 369.857 200.701 370.36400000000003 C 201.37099999999998 368.69100000000003 202.00199999999998 367.002 202.565 365.29100000000005 C 203.391 362.78200000000004 204.034 360.22800000000007 204.524 357.64500000000004 C 205.13 356.401 206.159 355.391 206.769 354.14300000000003 C 207.12 353.42600000000004 207.36100000000002 352.653 207.489 351.86600000000004 C 207.506 351.765 207.517 351.659 207.531 351.555 z M 205.579 349.537 C 205.69400000000002 348.001 205.761 346.46099999999996 205.805 344.92199999999997 C 205.812 344.695 205.82 344.46599999999995 205.829 344.236 C 206.092 346.241 206.511 348.226 207.085 350.167 C 207.124 350.299 207.168 350.42999999999995 207.209 350.561 C 207.215 351.01099999999997 207.197 351.46 207.117 351.91999999999996 C 206.98 352.71199999999993 206.719 353.48099999999994 206.34699999999998 354.19399999999996 C 205.873 355.102 205.206 355.893 204.68099999999998 356.76399999999995 C 205.1 354.375 205.398 351.963 205.579 349.537 z M 200.68 352.569 C 201.662 351.03900000000004 202.62 349.49600000000004 203.453 347.879 C 204.068 346.687 204.613 345.456 205.035 344.182 C 205.084 344.035 205.127 343.885 205.174 343.737 C 205.172 343.95500000000004 205.17100000000002 344.173 205.16500000000002 344.389 C 205.13000000000002 345.744 205.074 347.099 204.99300000000002 348.452 C 204.83100000000002 351.135 204.57600000000002 353.807 204.18500000000003 356.467 C 203.81300000000002 358.998 203.23300000000003 361.48199999999997 202.51000000000002 363.925 C 202.485 363.296 202.366 362.66700000000003 202.21300000000002 362.058 C 201.949 361.005 201.57700000000003 359.986 201.22700000000003 358.96 C 200.533 356.932 199.906 354.663 200.68 352.569 z M 200.071 353.512 C 199.781 355.209 200.189 356.979 200.72899999999998 358.604 C 201.082 359.667 201.48899999999998 360.71299999999997 201.79299999999998 361.793 C 202.06499999999997 362.76300000000003 202.20399999999998 363.73900000000003 202.26199999999997 364.737 C 201.52199999999996 367.12 200.65199999999996 369.464 199.69299999999998 371.77000000000004 C 199.39499999999998 372.48600000000005 199.08999999999997 373.199 198.78099999999998 373.91 C 197.099 370.02700000000004 198.65699999999998 365.68600000000004 197.76399999999998 361.65900000000005 C 197.55899999999997 360.73300000000006 197.21599999999998 359.85100000000006 196.71599999999998 359.04800000000006 C 197.73 357.143 198.897 355.326 200.071 353.512 z M 196.549 378.875 C 196.008 375.832 195.181 372.848 194.112 369.952 C 193.989 368.899 193.994 367.834 194.111 366.78 C 194.36399999999998 364.48199999999997 195.111 362.28299999999996 196.11399999999998 360.20899999999995 C 196.24299999999997 359.941 196.38799999999998 359.68299999999994 196.52399999999997 359.4189999999999 C 198.51699999999997 362.7939999999999 197.36199999999997 367.0439999999999 197.68199999999996 370.75199999999995 C 197.78099999999995 371.90399999999994 198.02899999999997 373.03999999999996 198.50899999999996 374.09599999999995 C 198.53999999999996 374.16399999999993 198.59899999999996 374.191 198.65799999999996 374.18999999999994 C 198.41299999999995 374.74899999999997 198.16699999999994 375.30799999999994 197.91699999999994 375.86499999999995 C 197.465 376.869 196.989 377.865 196.549 378.875 z M 193.849 405.838 C 194.539 403.994 195.13299999999998 402.115 195.623 400.209 C 196.44 398.302 197.46699999999998 396.489 198.688 394.812 C 198.803 394.65500000000003 198.92499999999998 394.504 199.04299999999998 394.35 C 197.97599999999997 396.665 197.32799999999997 399.208 197.03699999999998 401.702 C 197.034 401.724 197.03799999999998 401.743 197.04199999999997 401.763 C 196.44199999999998 402.515 195.84699999999998 403.272 195.27299999999997 404.044 C 194.75799999999998 404.73699999999997 194.26099999999997 405.443 193.77199999999996 406.155 C 193.798 406.049 193.824 405.944 193.849 405.838 z M 205.128 400.042 C 203.111 400.94399999999996 201.09699999999998 401.825 199.16299999999998 402.90099999999995 C 197.569 403.78799999999995 196.00199999999998 404.78899999999993 194.529 405.89799999999997 C 194.75 405.59099999999995 194.97 405.282 195.195 404.97799999999995 C 196.11599999999999 403.73499999999996 197.081 402.52699999999993 198.07399999999998 401.3419999999999 C 198.808 400.93999999999994 199.541 400.5489999999999 200.32899999999998 400.2469999999999 C 201.30399999999997 399.8729999999999 202.31199999999998 399.5879999999999 203.32299999999998 399.3299999999999 C 205.31199999999998 398.82199999999995 207.34799999999998 398.41399999999993 209.26099999999997 397.6529999999999 C 209.44899999999996 397.5779999999999 209.63599999999997 397.4939999999999 209.82199999999997 397.4099999999999 C 208.404 398.515 206.765 399.31 205.128 400.042 z M 211.323 395.987 C 209.851 397.004 208.211 397.663 206.473 398.14000000000004 C 204.466 398.69100000000003 202.40900000000002 399.07900000000006 200.45200000000003 399.80000000000007 C 199.88900000000004 400.0080000000001 199.31300000000002 400.24300000000005 198.76600000000002 400.52700000000004 C 199.032 400.21700000000004 199.29800000000003 399.90600000000006 199.568 399.59900000000005 C 200.55300000000003 398.47900000000004 201.568 397.386 202.595 396.30400000000003 C 205.664 394.67900000000003 209.266 394.36300000000006 212.246 392.55100000000004 C 212.72500000000002 392.26000000000005 213.186 391.92100000000005 213.608 391.54200000000003 C 213.15 393.167 212.441 394.689 211.323 395.987 z M 213.824 390.701 C 212.37400000000002 392.22 210.48700000000002 393.08000000000004 208.507 393.737 C 206.719 394.329 204.848 394.80100000000004 203.183 395.69300000000004 C 205.19299999999998 393.60100000000006 207.26 391.56300000000005 209.367 389.569 C 210.327 388.66 211.29299999999998 387.757 212.261 386.857 C 212.999 386.17 213.74699999999999 385.495 214.46099999999998 384.78400000000005 C 214.393 386.739 214.262 388.775 213.824 390.701 z" stroke-linecap="round" />
</g>
</svg>