<?xml version="1.0" encoding="UTF-8" standalone="no" ?>
<!DOCTYPE svg PUBLIC "-//W3C//DTD SVG 1.1//EN" "http://www.w3.org/Graphics/SVG/1.1/DTD/svg11.dtd">
<svg xmlns="http://www.w3.org/2000/svg" xmlns:xlink="http://www.w3.org/1999/xlink" version="1.1" width="80" height="200" viewBox="0 10.71 80 200" xml:space="preserve">
<desc>Created with Fabric.js 5.2.4</desc>
<defs>
</defs>
<rect x="0" y="0" width="100%" height="100%" fill="transparent"></rect>
<g transform="matrix(0 0 0 0 0 0)" id="dbb4e705-56be-4df9-91b2-46cd2014175f"  >
</g>
<g transform="matrix(1 0 0 1 40 100)" id="fc811ae7-94a6-4813-a672-5562730f3949"  >
<rect style="stroke: none; stroke-width: 1; stroke-dasharray: none; stroke-linecap: butt; stroke-dashoffset: 0; stroke-linejoin: miter; stroke-miterlimit: 4; fill: rgb(255,255,255); fill-rule: nonzero; opacity: 1; visibility: hidden;" vector-effect="non-scaling-stroke"  x="-40" y="-100" rx="0" ry="0" width="80" height="200" />
</g>
<g transform="matrix(0.58 0 0 1.34 40 110.34)"  >
<path style="stroke: rgb(0,0,0); stroke-width: 0; stroke-dasharray: none; stroke-linecap: butt; stroke-dashoffset: 0; stroke-linejoin: miter; stroke-miterlimit: 4; fill: rgb(77,76,81); fill-rule: nonzero; opacity: 1;" vector-effect="non-scaling-stroke"  transform=" translate(-439.25, -365.93)" d="M 466.58 329.837 C 466.631 329.841 466.68399999999997 329.828 466.71799999999996 329.772 C 468.84099999999995 326.312 471.65899999999993 323.496 474.90899999999993 321.084 C 478.39399999999995 318.497 482.19999999999993 316.398 485.79999999999995 313.984 C 486.51599999999996 313.50399999999996 487.352 313.005 487.66099999999994 312.152 C 487.91799999999995 311.443 487.73599999999993 310.579 487.0079999999999 310.236 C 486.2709999999999 309.889 485.3959999999999 310.17699999999996 484.67299999999994 310.414 C 483.77199999999993 310.709 482.88599999999997 311.051 482.0199999999999 311.438 C 478.5419999999999 312.991 475.36099999999993 315.263 472.77599999999995 318.062 C 471.34799999999996 319.608 470.109 321.327 469.06999999999994 323.15700000000004 C 471.07199999999995 317.07800000000003 472.4429999999999 310.78900000000004 473.09399999999994 304.43600000000004 C 473.22099999999995 303.19300000000004 473.2919999999999 301.94300000000004 473.3519999999999 300.69500000000005 C 473.3709999999999 300.30600000000004 472.6939999999999 300.25600000000003 472.66099999999994 300.64900000000006 C 471.85099999999994 310.01200000000006 469.86599999999993 319.19800000000004 466.4429999999999 327.9320000000001 C 466.4359999999999 327.8350000000001 466.4309999999999 327.7370000000001 466.4219999999999 327.6400000000001 C 466.7259999999999 324.8160000000001 466.7179999999999 321.9460000000001 466.5009999999999 319.1370000000001 C 466.3419999999999 317.07600000000014 466.05099999999993 315.02800000000013 465.6379999999999 313.0030000000001 C 465.2399999999999 311.0510000000001 464.75699999999995 309.0870000000001 464.06999999999994 307.2150000000001 C 463.4239999999999 305.4550000000001 462.4699999999999 303.7260000000001 460.75999999999993 302.8140000000001 C 460.58199999999994 302.71900000000005 460.36699999999996 302.83600000000007 460.32499999999993 303.02400000000006 C 459.50899999999996 306.67100000000005 460.1429999999999 310.2950000000001 461.29299999999995 313.79800000000006 C 462.43399999999997 317.27500000000003 464.04099999999994 320.59000000000003 464.96899999999994 324.13900000000007 C 465.0679999999999 324.5160000000001 465.1479999999999 324.89700000000005 465.22799999999995 325.2780000000001 C 464.65799999999996 324.17500000000007 463.97499999999997 323.1230000000001 463.28999999999996 322.09100000000007 C 461.66999999999996 319.6530000000001 460.01 317.2420000000001 458.38399999999996 314.80800000000005 C 458.02199999999993 314.2660000000001 457.691 313.66700000000003 457.268 313.17100000000005 C 456.99699999999996 312.85300000000007 456.582 312.61300000000006 456.17199999999997 312.838 C 455.712 313.09000000000003 455.62499999999994 313.64300000000003 455.68499999999995 314.119 C 455.7629999999999 314.74300000000005 455.95399999999995 315.36800000000005 456.13999999999993 315.966 C 456.8909999999999 318.387 458.2129999999999 320.63 459.7059999999999 322.664 C 460.6079999999999 323.893 461.5899999999999 325.062 462.6199999999999 326.185 C 463.5709999999999 327.222 464.5379999999999 328.288 465.6119999999999 329.207 C 465.5759999999999 329.548 465.5409999999999 329.889 465.5019999999999 330.23 C 465.3479999999999 330.591 465.1979999999999 330.95300000000003 465.0389999999999 331.312 C 461.45999999999987 339.418 456.6659999999999 346.81600000000003 451.0459999999999 353.61 C 452.45499999999987 350.21000000000004 453.6799999999999 346.702 454.62099999999987 343.15700000000004 C 455.71799999999985 339.021 456.33099999999985 334.706 455.98699999999985 330.42500000000007 C 455.90599999999984 329.4150000000001 455.8029999999998 328.3810000000001 455.55899999999986 327.3950000000001 C 455.35799999999983 326.5820000000001 454.94399999999985 325.7830000000001 454.1709999999999 325.3850000000001 C 453.5219999999999 325.0510000000001 452.7479999999999 325.0910000000001 452.1999999999999 325.5960000000001 C 451.67199999999985 326.08300000000014 451.4729999999999 326.82800000000015 451.3729999999999 327.5150000000001 C 451.2189999999999 328.5750000000001 451.15999999999985 329.6570000000001 451.06399999999985 330.7240000000001 C 450.9619999999999 331.8630000000001 450.86699999999985 333.0030000000001 450.77499999999986 334.1430000000001 C 450.59299999999985 336.40100000000007 450.44599999999986 338.66300000000007 450.31099999999986 340.9240000000001 C 450.2329999999999 342.2310000000001 450.1779999999999 343.5390000000001 450.1129999999999 344.8470000000001 C 449.6129999999999 342.3200000000001 449.0109999999999 339.7870000000001 448.2889999999999 337.3170000000001 C 448.1519999999999 336.8470000000001 447.93099999999987 336.3700000000001 447.4729999999999 336.13800000000015 C 447.0779999999999 335.93800000000016 446.6009999999999 335.9900000000001 446.3009999999999 336.32700000000017 C 446.01599999999985 336.64700000000016 445.9589999999999 337.10400000000016 445.9379999999999 337.5140000000002 C 445.90499999999986 338.17800000000017 445.91699999999986 338.8480000000002 445.9469999999999 339.5130000000002 C 446.0639999999999 342.1290000000002 446.57999999999987 344.7170000000002 447.3249999999999 347.2240000000002 C 447.7449999999999 348.6380000000002 448.23899999999986 350.0290000000002 448.7809999999999 351.4000000000002 C 449.05599999999987 352.0970000000002 449.3399999999999 352.7930000000002 449.6429999999999 353.4790000000002 C 449.6839999999999 353.57200000000023 449.7249999999999 353.6660000000002 449.7659999999999 353.7600000000002 C 449.75299999999993 354.23500000000024 449.7309999999999 354.7100000000002 449.7189999999999 355.18500000000023 C 449.0579999999999 355.95600000000024 448.3899999999999 356.72100000000023 447.70799999999986 357.4760000000002 C 446.37099999999987 358.9570000000002 444.99699999999984 360.4040000000002 443.60799999999983 361.83400000000023 C 445.40499999999986 357.4790000000002 446.2839999999998 352.6040000000002 445.31199999999984 347.9620000000002 C 445.17699999999985 347.31700000000023 445.00699999999983 346.6790000000002 444.79799999999983 346.0540000000002 C 444.63099999999986 345.5530000000002 444.47499999999985 344.9850000000002 444.11999999999983 344.5790000000002 C 443.84799999999984 344.2680000000002 443.43499999999983 344.0740000000002 443.0459999999998 344.30100000000016 C 442.6379999999998 344.53900000000016 442.5879999999998 345.05700000000013 442.5489999999998 345.48000000000013 C 442.3129999999998 348.0910000000001 442.5289999999998 350.7040000000001 442.7719999999998 353.30600000000015 C 443.0519999999998 356.31400000000014 443.3559999999998 359.34700000000015 442.9639999999998 362.35900000000015 C 442.95799999999986 362.4060000000002 442.9649999999998 362.44600000000014 442.97799999999984 362.4830000000002 C 441.08299999999986 364.4170000000002 439.15299999999985 366.3160000000002 437.1999999999998 368.1910000000002 C 439.5939999999998 363.1200000000002 440.6069999999998 357.4250000000002 440.22099999999983 351.8330000000002 C 440.16999999999985 351.0990000000002 440.1159999999998 350.3530000000002 439.9889999999998 349.6280000000002 C 439.8959999999998 349.1010000000002 439.7419999999998 348.5510000000002 439.4139999999998 348.1180000000002 C 438.6519999999998 347.1130000000002 437.3259999999998 347.4480000000002 436.7629999999998 348.47500000000025 C 436.42299999999983 349.09600000000023 436.3969999999998 349.84600000000023 436.3319999999998 350.53500000000025 C 436.24999999999983 351.40600000000023 436.17699999999985 352.27700000000027 436.1139999999998 353.15000000000026 C 435.9919999999998 354.8200000000003 435.9049999999998 356.49200000000025 435.8529999999998 358.1660000000003 C 435.79599999999976 360.0430000000003 435.78399999999976 361.9210000000003 435.8169999999998 363.79900000000026 C 435.8499999999998 365.63900000000024 436.0109999999998 367.4860000000003 436.0129999999998 369.3250000000003 C 433.0919999999998 372.1080000000003 430.1399999999998 374.8580000000003 427.2049999999998 377.6250000000003 C 427.6759999999998 376.7440000000003 428.0439999999998 375.7960000000003 428.3609999999998 374.86400000000026 C 428.8389999999998 373.46100000000024 429.22299999999984 372.00800000000027 429.4789999999998 370.5480000000003 C 429.73799999999983 369.0690000000003 429.9089999999998 367.5750000000003 430.03599999999983 366.07800000000026 C 430.15799999999984 364.63600000000025 430.2939999999998 363.1760000000003 430.2749999999998 361.72800000000024 C 430.2579999999998 360.47100000000023 430.0859999999998 358.96600000000024 429.2789999999998 357.94100000000026 C 428.9499999999998 357.52300000000025 428.4119999999998 357.24100000000027 427.9099999999998 357.55900000000025 C 427.4169999999998 357.87200000000024 427.1869999999998 358.54400000000027 426.9679999999998 359.0510000000003 C 425.7709999999998 361.82600000000025 425.5999999999998 364.91000000000025 425.6959999999998 367.89300000000026 C 425.8159999999998 371.61400000000026 426.3419999999998 375.35500000000025 425.6719999999998 379.05500000000023 C 425.6709999999998 379.05900000000025 425.6729999999998 379.06200000000024 425.6719999999998 379.06700000000023 C 425.6379999999998 379.0990000000002 425.6039999999998 379.13100000000026 425.5699999999998 379.16300000000024 C 422.17299999999983 382.3870000000002 418.8299999999998 385.67200000000025 415.6209999999998 389.07800000000026 C 418.3959999999998 383.47200000000026 419.3619999999998 376.86900000000026 418.7609999999998 370.68700000000024 C 418.6799999999998 369.8510000000002 418.5679999999998 369.0170000000002 418.4259999999998 368.18900000000025 C 418.3069999999998 367.49500000000023 418.19899999999984 366.74400000000026 417.7869999999998 366.15200000000027 C 417.4359999999998 365.6470000000003 416.8159999999998 365.2910000000003 416.1879999999998 365.39500000000027 C 415.5949999999998 365.49400000000026 415.2479999999998 365.9830000000003 415.1109999999998 366.5360000000003 C 414.9219999999998 367.2980000000003 414.97799999999984 368.15000000000026 414.94699999999983 368.9280000000003 C 414.9089999999998 369.85700000000026 414.8759999999998 370.7860000000003 414.84799999999984 371.7160000000003 C 414.7909999999998 373.5500000000003 414.74199999999985 375.38300000000027 414.7139999999998 377.2180000000003 C 414.69399999999985 378.5380000000003 414.6979999999998 379.8590000000003 414.6949999999998 381.1790000000003 C 414.22799999999984 378.6690000000003 413.54999999999984 376.1970000000003 412.6519999999998 373.7920000000003 C 412.34599999999983 372.9720000000003 411.8179999999998 371.8070000000003 410.7369999999998 372.0150000000003 C 409.5899999999998 372.23600000000033 409.3689999999998 373.5350000000003 409.4009999999998 374.50500000000034 C 409.48599999999976 377.08600000000035 410.0949999999998 379.6550000000003 410.95199999999977 382.08100000000036 C 411.44099999999975 383.46300000000036 412.0379999999998 384.80900000000037 412.68099999999976 386.1260000000004 C 413.31899999999973 387.4330000000004 413.9879999999998 388.7480000000004 414.76799999999974 389.97800000000035 C 411.35599999999977 393.65400000000034 408.11399999999975 397.48300000000035 405.15899999999976 401.5560000000003 C 405.08799999999974 401.65400000000034 405.0189999999998 401.7530000000003 404.9489999999998 401.85100000000034 C 404.8839999999998 401.9240000000003 404.8169999999998 401.99500000000035 404.75299999999976 402.06900000000036 C 404.73199999999974 402.09300000000036 404.72399999999976 402.11800000000034 404.7109999999998 402.14300000000037 C 404.63999999999976 402.18900000000036 404.6069999999998 402.2580000000004 404.6089999999998 402.3280000000004 C 402.1509999999998 405.78500000000037 399.8949999999998 409.42900000000037 397.9889999999998 413.24000000000035 C 397.98799999999983 413.23300000000035 397.98799999999983 413.2270000000004 397.9869999999998 413.22000000000037 C 398.6459999999998 411.3560000000004 399.2069999999998 409.45400000000035 399.7499999999998 407.55400000000037 C 400.32299999999975 405.5480000000004 400.8529999999998 403.5250000000004 401.2589999999998 401.4790000000004 C 402.0299999999998 397.5890000000004 402.40199999999976 393.5860000000004 402.0179999999998 389.6280000000004 C 401.8059999999998 387.4490000000004 401.3519999999998 385.2890000000004 400.6039999999998 383.23000000000036 C 400.5099999999998 382.97000000000037 400.1519999999998 383.0080000000004 400.08399999999983 383.2630000000004 C 399.0459999999998 387.1710000000004 398.16699999999986 391.10000000000036 397.64899999999983 395.11500000000035 C 397.14799999999985 399.00200000000035 396.9239999999998 402.92600000000033 396.97499999999985 406.84500000000037 C 396.3029999999998 403.6740000000004 395.29399999999987 400.57200000000034 393.96599999999984 397.6280000000004 C 393.69099999999986 397.01800000000037 393.40099999999984 396.41500000000036 393.1039999999998 395.8150000000004 C 392.8789999999998 395.3600000000004 392.5939999999998 394.8360000000004 392.03099999999984 394.78000000000037 C 391.53299999999984 394.73000000000036 391.09299999999985 395.1110000000004 390.90999999999985 395.54700000000037 C 390.65599999999984 396.15300000000036 390.74399999999986 396.91500000000036 390.77599999999984 397.55400000000037 C 390.91799999999984 400.37200000000036 391.6879999999998 403.1280000000004 392.7819999999998 405.7170000000004 C 393.4089999999998 407.2020000000004 394.1399999999998 408.64100000000036 394.9209999999998 410.0500000000004 C 395.6159999999998 411.3040000000004 396.3299999999998 412.5640000000004 397.1089999999998 413.7720000000004 C 397.1579999999998 413.9070000000004 397.2049999999998 414.0430000000004 397.2539999999998 414.17700000000036 C 397.29099999999977 414.27800000000036 397.3719999999998 414.3230000000004 397.4549999999998 414.32900000000035 C 395.4089999999998 418.60600000000034 393.8149999999998 423.08700000000033 392.8909999999998 427.74700000000036 C 392.6549999999998 428.9360000000004 392.4629999999998 430.1330000000004 392.3069999999998 431.33600000000035 C 392.2859999999998 431.49700000000036 392.5309999999998 431.5490000000004 392.5559999999998 431.38700000000034 C 394.1039999999998 421.51900000000035 398.3659999999998 412.3230000000003 403.9799999999998 404.1280000000003 C 404.2739999999998 403.6980000000003 404.5839999999998 403.2800000000003 404.8879999999998 402.85800000000035 C 406.5739999999998 402.97800000000035 408.27399999999983 402.9310000000003 409.9619999999998 402.87400000000036 C 411.7429999999998 402.8130000000004 413.5229999999998 402.69900000000035 415.29799999999983 402.53300000000036 C 417.04799999999983 402.37000000000035 418.79299999999984 402.15600000000035 420.52999999999986 401.89300000000037 C 422.2119999999999 401.6380000000004 423.9139999999999 401.37900000000036 425.55999999999983 400.9430000000004 C 426.3319999999998 400.7390000000004 427.09099999999984 400.4830000000004 427.81199999999984 400.1390000000004 C 428.34699999999987 399.88300000000044 429.03999999999985 399.5800000000004 429.14399999999983 398.9190000000004 C 429.2649999999998 398.1490000000004 428.44199999999984 397.9210000000004 427.87699999999984 397.71300000000036 C 427.1299999999998 397.4380000000004 426.36199999999985 397.22000000000037 425.5819999999998 397.0610000000004 C 423.01599999999985 396.5410000000004 420.3569999999998 396.6590000000004 417.7889999999998 397.1590000000004 C 421.51199999999983 395.4160000000004 425.1939999999998 393.55400000000037 428.7609999999998 391.5120000000004 C 429.4809999999998 391.1000000000004 430.3059999999998 390.53000000000037 430.5389999999998 389.6830000000004 C 430.7549999999998 388.89800000000037 430.30999999999983 388.1460000000004 429.60999999999984 387.7930000000004 C 428.71599999999984 387.3420000000004 427.67999999999984 387.6110000000004 426.7649999999998 387.8420000000004 C 425.8569999999998 388.07100000000037 424.9579999999998 388.3370000000004 424.0699999999998 388.63600000000037 C 420.53599999999983 389.82700000000034 417.18699999999984 391.5510000000004 414.1139999999998 393.65800000000036 C 411.9779999999998 395.12200000000036 409.9769999999998 396.7700000000004 408.10799999999983 398.55700000000036 C 412.13699999999983 393.47400000000033 416.60999999999984 388.7510000000004 421.24999999999983 384.21400000000034 C 421.28999999999985 384.21300000000036 421.33099999999985 384.2100000000003 421.3709999999998 384.20900000000034 C 421.3719999999998 384.20900000000034 421.3739999999998 384.20900000000034 421.37499999999983 384.20900000000034 C 422.69899999999984 384.18200000000036 424.03799999999984 383.99400000000037 425.34999999999985 383.83400000000034 C 426.71099999999984 383.66800000000035 428.06899999999985 383.45700000000033 429.41699999999986 383.20900000000034 C 432.02299999999985 382.73000000000036 434.69699999999983 382.2270000000003 437.21099999999984 381.37300000000033 C 437.7889999999998 381.1770000000003 438.3539999999998 380.94500000000033 438.8969999999998 380.6650000000003 C 439.2989999999998 380.4580000000003 439.9639999999998 380.1780000000003 439.98499999999984 379.6440000000003 C 440.00399999999985 379.1610000000003 439.48899999999986 379.02000000000027 439.11199999999985 378.9500000000003 C 438.48499999999984 378.83500000000026 437.84699999999987 378.7670000000003 437.2119999999999 378.7260000000003 C 434.59299999999985 378.5580000000003 431.95999999999987 379.0410000000003 429.48699999999985 379.8850000000003 C 427.01899999999983 380.72700000000026 424.7359999999999 381.9470000000003 422.40599999999984 383.0890000000003 C 422.95899999999983 382.5550000000003 423.51299999999986 382.0210000000003 424.0699999999998 381.49100000000027 C 425.65599999999984 379.98200000000026 427.2559999999998 378.48700000000025 428.8589999999998 376.9950000000003 C 432.2479999999998 376.2610000000003 435.5589999999998 375.0950000000003 438.7469999999998 373.7450000000003 C 442.0359999999998 372.3530000000003 445.2229999999998 370.71700000000027 448.2689999999998 368.8520000000003 C 449.4369999999998 368.13700000000034 451.2859999999998 367.2880000000003 451.2209999999998 365.66100000000034 C 451.19299999999976 364.97000000000037 450.7439999999998 364.42800000000034 450.0789999999998 364.25700000000035 C 449.3329999999998 364.06500000000034 448.49299999999977 364.30000000000035 447.7609999999998 364.45600000000036 C 444.3639999999998 365.18000000000035 441.1769999999998 366.6620000000004 438.2629999999998 368.53100000000035 C 437.8389999999998 368.80300000000034 437.4219999999998 369.08300000000037 437.0089999999998 369.37000000000035 C 440.2229999999998 366.32000000000033 443.38999999999976 363.22300000000035 446.42799999999977 359.99500000000035 C 447.1319999999998 359.24700000000036 447.82499999999976 358.4890000000004 448.5109999999998 357.72600000000034 C 451.4509999999998 356.6860000000003 454.2809999999998 355.21900000000034 456.9899999999998 353.68900000000036 C 459.8169999999998 352.09100000000035 462.5479999999998 350.32000000000033 465.14699999999976 348.37200000000036 C 466.06299999999976 347.6860000000004 467.84899999999976 346.60800000000035 467.2829999999998 345.20400000000035 C 467.05799999999977 344.64700000000033 466.4679999999998 344.3110000000004 465.8909999999998 344.2510000000004 C 465.1729999999998 344.17500000000035 464.5059999999998 344.4830000000004 463.87999999999977 344.7940000000004 C 461.16899999999976 346.1380000000004 458.60399999999976 347.7720000000004 456.2329999999998 349.6510000000004 C 455.02699999999976 350.6060000000004 453.8929999999998 351.6340000000004 452.7999999999998 352.7060000000004 C 455.9849999999998 348.7570000000004 458.89199999999977 344.6030000000004 461.43999999999977 340.2140000000004 C 463.1699999999998 340.1660000000004 464.89999999999975 339.9120000000004 466.6029999999998 339.6230000000004 C 468.34199999999976 339.3280000000004 470.0709999999998 338.9690000000004 471.7929999999998 338.5890000000004 C 475.05299999999977 337.8680000000004 478.3879999999998 337.2070000000004 481.48399999999975 335.9240000000004 C 482.1989999999997 335.6280000000004 482.90499999999975 335.30200000000036 483.57499999999976 334.91500000000036 C 484.15299999999974 334.58200000000033 485.01999999999975 334.18000000000035 485.31599999999975 333.54300000000035 C 486.02699999999976 332.01100000000037 482.96899999999977 331.7940000000003 482.16599999999977 331.73800000000034 C 480.45299999999975 331.61800000000034 478.7569999999998 331.93000000000035 477.11599999999976 332.40100000000035 C 475.89799999999974 332.75000000000034 474.69599999999974 333.16300000000035 473.50799999999975 333.60700000000037 C 475.00399999999973 332.68400000000037 476.48699999999974 331.74200000000036 477.95099999999974 330.76800000000037 C 479.52799999999974 329.7190000000004 481.08499999999975 328.6260000000004 482.47199999999975 327.33100000000036 C 483.1559999999998 326.69200000000035 483.79499999999973 326.00200000000035 484.35399999999976 325.25000000000034 C 484.83299999999974 324.60700000000037 485.50399999999973 323.75700000000035 485.03399999999976 322.93300000000033 C 484.06999999999977 321.24200000000036 481.75499999999977 322.6380000000003 480.56599999999975 323.24200000000036 C 477.1989999999997 324.9530000000004 473.99799999999976 326.92700000000036 471.02099999999973 329.25500000000034 C 468.44399999999973 331.2700000000003 466.0429999999997 333.5010000000003 463.7959999999997 335.87700000000035 C 463.9989999999997 335.47600000000034 464.2079999999997 335.0780000000004 464.4049999999997 334.67300000000034 C 465.177 333.083 465.9 331.47 466.58 329.837 z M 487.012 310.838 C 487.305 311.12300000000005 487.346 311.57000000000005 487.207 311.959 C 486.893 312.837 485.824 313.364 485.094 313.85 C 481.666 316.13 478.081 318.18300000000005 474.769 320.63500000000005 C 472.551 322.27700000000004 470.371 324.16300000000007 468.615 326.35300000000007 C 469.922 324.16800000000006 471.418 322.12100000000004 473.159 320.2200000000001 C 475.572 317.5870000000001 478.368 315.28800000000007 481.455 313.48800000000006 C 483.23 312.453 485.089 311.562 487.012 310.838 z M 467.746 326.953 C 468.087 326.08599999999996 468.471 325.23699999999997 468.897 324.40799999999996 C 469.771 322.70799999999997 470.82099999999997 321.10499999999996 472.024 319.61899999999997 C 474.331 316.77 477.216 314.378 480.472 312.686 C 482.061 311.85999999999996 483.781 311.07 485.53 310.65 C 485.789 310.58799999999997 486.08599999999996 310.544 486.368 310.56699999999995 C 479.747 313.21999999999997 473.976 317.8709999999999 469.914 323.72599999999994 C 468.95099999999996 325.11499999999995 468.078 326.57099999999997 467.339 328.0919999999999 C 467.469 327.711 467.599 327.329 467.746 326.953 z M 457.077 313.532 C 457.462 314.04699999999997 457.791 314.614 458.143 315.152 C 459.585 317.35499999999996 460.996 319.578 462.44199999999995 321.77799999999996 C 463.643 323.60499999999996 464.888 325.46899999999994 465.58299999999997 327.54999999999995 C 465.58599999999996 327.585 465.58599999999996 327.61999999999995 465.58899999999994 327.65399999999994 C 465.5199999999999 327.5729999999999 465.45099999999996 327.49199999999996 465.38599999999997 327.41099999999994 C 465.00399999999996 326.93499999999995 464.628 326.45399999999995 464.258 325.96899999999994 C 463.518 324.9989999999999 462.796 324.01399999999995 462.097 323.01399999999995 C 460.68399999999997 320.99499999999995 459.37699999999995 318.90599999999995 458.176 316.75399999999996 C 457.527 315.59099999999995 456.93 314.39899999999994 456.256 313.251 C 456.517 313 456.878 313.266 457.077 313.532 z M 463.706 326.598 C 462.857 325.666 462.024 324.71500000000003 461.231 323.73400000000004 C 459.736 321.88300000000004 458.405 319.898 457.407 317.73300000000006 C 456.929 316.69500000000005 456.534 315.61800000000005 456.222 314.5180000000001 C 456.12699999999995 314.1840000000001 455.979 313.7650000000001 456.13899999999995 313.4290000000001 C 457.01099999999997 315.6130000000001 458.251 317.68700000000007 459.46399999999994 319.6940000000001 C 460.74999999999994 321.8230000000001 462.11499999999995 323.90400000000005 463.6039999999999 325.89700000000005 C 464.01199999999994 326.44200000000006 464.42599999999993 326.98100000000005 464.84799999999996 327.51500000000004 C 465.1039999999999 327.83900000000006 465.35999999999996 328.194 465.64099999999996 328.52000000000004 C 465.64399999999995 328.59400000000005 465.652 328.66700000000003 465.65399999999994 328.74100000000004 C 465.034 328.002 464.354 327.31 463.706 326.598 z M 411.937 383.269 C 411.055 381.072 410.343 378.798 410.022 376.447 C 409.942 375.861 409.885 375.272 409.853 374.681 C 409.82 374.072 409.791 373.363 410.189 372.854 C 410.334 372.669 410.512 372.543 410.701 372.481 C 410.71000000000004 373.878 411 375.32 411.22900000000004 376.688 C 411.463 378.08799999999997 411.73800000000006 379.48199999999997 412.05800000000005 380.865 C 412.57000000000005 383.079 413.17800000000005 385.276 413.89500000000004 387.435 C 413.196 386.07 412.512 384.7 411.937 383.269 z M 412.424 380.817 C 412.07899999999995 379.371 411.77799999999996 377.915 411.527 376.45 C 411.299 375.125 411.199 373.757 410.919 372.442 C 411.171 372.427 411.42699999999996 372.524 411.637 372.753 C 412.002 373.151 412.168 373.704 412.349 374.20099999999996 C 413.207 376.55899999999997 413.836 379.006 414.27 381.47599999999994 C 414.462 382.56999999999994 414.599 383.67299999999994 414.707 384.77799999999996 C 414.728 385.97999999999996 414.748 387.18399999999997 414.74399999999997 388.38599999999997 C 413.832 385.906 413.038 383.389 412.424 380.817 z M 395.791 410.712 C 395.109 409.51099999999997 394.455 408.292 393.866 407.042 C 392.748 404.66499999999996 391.848 402.15599999999995 391.449 399.551 C 391.35 398.902 391.281 398.24899999999997 391.249 397.594 C 391.218 396.972 391.088 396.116 391.44100000000003 395.569 C 391.47200000000004 395.521 391.50800000000004 395.48 391.547 395.442 C 391.596 396.024 391.80100000000004 396.622 391.95000000000005 397.183 C 392.112 397.791 392.278 398.397 392.44700000000006 399.003 C 392.79100000000005 400.239 393.14500000000004 401.472 393.5160000000001 402.7 C 394.25900000000007 405.155 394.99300000000005 407.61699999999996 395.8090000000001 410.049 C 395.9980000000001 410.611 396.1910000000001 411.17199999999997 396.3850000000001 411.733 C 396.186 411.393 395.985 411.054 395.791 410.712 z M 392.959 399.545 C 392.761 398.843 392.567 398.14000000000004 392.377 397.435 C 392.192 396.75 392.065 395.98 391.76300000000003 395.338 C 391.75600000000003 395.324 391.74300000000005 395.31800000000004 391.73300000000006 395.30800000000005 C 391.9220000000001 395.22 392.1430000000001 395.23600000000005 392.32300000000004 395.40900000000005 C 392.53900000000004 395.6170000000001 392.66600000000005 395.922 392.8 396.18500000000006 C 393.107 396.78900000000004 393.391 397.40600000000006 393.663 398.02600000000007 C 394.69 400.36500000000007 395.517 402.7920000000001 396.132 405.27200000000005 C 396.57 407.03700000000003 396.878 408.83000000000004 397.096 410.63400000000007 C 397.13 411.31000000000006 397.177 411.98500000000007 397.223 412.6600000000001 C 395.67 408.329 394.207 403.977 392.959 399.545 z M 427.452 399.702 C 426.788 400.005 426.091 400.234 425.386 400.421 C 423.833 400.832 422.23100000000005 401.081 420.646 401.327 C 419.033 401.577 417.414 401.784 415.79 401.948 C 413.966 402.132 412.13800000000003 402.26 410.30600000000004 402.33599999999996 C 409.02000000000004 402.38899999999995 407.732 402.39599999999996 406.446 402.41499999999996 C 411.97 401.09099999999995 417.56600000000003 400.08399999999995 423.22 399.506 C 424.947 399.33 426.687 399.14399999999995 428.42400000000004 399.14 C 428.178 399.398 427.758 399.562 427.452 399.702 z M 411.037 400.158 C 412.546 399.53200000000004 414.042 398.872 415.53099999999995 398.19800000000004 C 418.10799999999995 397.47600000000006 420.75499999999994 397.095 423.46099999999996 397.32200000000006 C 424.996 397.4510000000001 426.52399999999994 397.7660000000001 427.95899999999995 398.33400000000006 C 428.12399999999997 398.39900000000006 428.3469999999999 398.47700000000003 428.48099999999994 398.59600000000006 C 428.45399999999995 398.5900000000001 428.42599999999993 398.5830000000001 428.39399999999995 398.58700000000005 C 426.83699999999993 398.766 425.26899999999995 398.84900000000005 423.70899999999995 399.00300000000004 C 422.14899999999994 399.15700000000004 420.5919999999999 399.34200000000004 419.03899999999993 399.559 C 415.9889999999999 399.98400000000004 412.96099999999996 400.54 409.95699999999994 401.21900000000005 C 408.4959999999999 401.54900000000004 407.04599999999994 401.91700000000003 405.6019999999999 402.31200000000007 C 405.6889999999999 402.26900000000006 405.7759999999999 402.22600000000006 405.8639999999999 402.1820000000001 C 407.613 401.58 409.331 400.866 411.037 400.158 z M 428.156 380.909 C 430.404 380.02299999999997 432.766 379.363 435.184 379.20099999999996 C 436.27000000000004 379.128 437.35900000000004 379.162 438.434 379.33199999999994 C 435.77500000000003 379.67299999999994 433.12800000000004 380.15599999999995 430.52900000000005 380.80799999999994 C 428.31000000000006 381.36499999999995 426.0520000000001 381.99999999999994 423.90500000000003 382.8519999999999 C 425.29 382.135 426.709 381.48 428.156 380.909 z M 426.217 382.451 C 427.635 381.98900000000003 429.06899999999996 381.576 430.51599999999996 381.21500000000003 C 433.41299999999995 380.492 436.34999999999997 379.99100000000004 439.323 379.71700000000004 C 439.301 379.838 439.291 379.80600000000004 439.19599999999997 379.88900000000007 C 438.97599999999994 380.0830000000001 438.626 380.21600000000007 438.364 380.34100000000007 C 437.854 380.58400000000006 437.322 380.78200000000004 436.78499999999997 380.95500000000004 C 434.455 381.70700000000005 432.01 382.19200000000006 429.606 382.641 C 428.207 382.903 426.803 383.134 425.396 383.34900000000005 C 424.474 383.49000000000007 423.543 383.59000000000003 422.617 383.708 C 423.817 383.29 425.007 382.845 426.217 382.451 z M 426.654 361.577 C 426.816 360.878 427.025 360.19 427.295 359.526 C 427.426 359.204 427.571 358.88800000000003 427.733 358.579 C 427.826 358.402 427.952 358.145 428.139 358.016 C 428.132 358.647 428.22200000000004 359.295 428.25800000000004 359.921 C 428.29800000000006 360.61199999999997 428.324 361.303 428.336 361.995 C 428.361 363.403 428.329 364.813 428.24 366.219 C 428.058 369.087 427.629 371.935 426.97700000000003 374.733 C 426.80400000000003 375.474 426.619 376.212 426.41600000000005 376.946 C 426.755 371.829 425.48 366.64 426.654 361.577 z M 426.714 377.474 C 426.912 376.78499999999997 427.101 376.094 427.273 375.39799999999997 C 427.62300000000005 373.98299999999995 427.90200000000004 372.549 428.125 371.109 C 428.563 368.282 428.776 365.41999999999996 428.753 362.56 C 428.746 361.745 428.721 360.92900000000003 428.676 360.115 C 428.637 359.411 428.62399999999997 358.656 428.479 357.957 C 429.029 358.07 429.35499999999996 359.154 429.477 359.572 C 429.65999999999997 360.2 429.72999999999996 360.854 429.751 361.50600000000003 C 429.796 362.855 429.66499999999996 364.216 429.55899999999997 365.559 C 429.44899999999996 366.942 429.30899999999997 368.32300000000004 429.099 369.694 C 428.863 371.233 428.57599999999996 372.77000000000004 428.114 374.259 C 427.70099999999996 375.588 427.11899999999997 376.82 426.53499999999997 378.07 C 426.595 377.872 426.656 377.674 426.714 377.474 z M 443.589 357.198 C 443.418 354.149 442.967 351.10299999999995 442.945 348.046 C 442.941 347.467 442.952 346.887 442.986 346.308 C 442.998 346.103 442.977 345.325 443.159 344.93899999999996 C 443.19 345.55699999999996 443.29699999999997 346.17299999999994 443.37 346.78599999999994 C 443.447 347.4359999999999 443.512 348.08599999999996 443.565 348.73799999999994 C 443.675 350.0919999999999 443.737 351.44999999999993 443.746 352.80799999999994 C 443.756 354.19699999999995 443.715 355.5879999999999 443.611 356.97299999999996 C 443.604 357.048 443.595 357.123 443.589 357.198 z M 443.621 360.689 C 443.70599999999996 360.499 443.70799999999997 360.279 443.73499999999996 360.064 C 443.78 359.71500000000003 443.82099999999997 359.365 443.859 359.01500000000004 C 443.935 358.314 443.996 357.612 444.044 356.91 C 444.13599999999997 355.56 444.186 354.208 444.18 352.855 C 444.17400000000004 351.471 444.115 350.088 443.998 348.709 C 443.93899999999996 348.007 443.865 347.306 443.77799999999996 346.607 C 443.69899999999996 345.975 443.62899999999996 345.333 443.44899999999996 344.72200000000004 C 443.46599999999995 344.723 443.48199999999997 344.72200000000004 443.501 344.72600000000006 C 443.93699999999995 344.83500000000004 444.12199999999996 345.67500000000007 444.241 346.02000000000004 C 444.441 346.598 444.608 347.18800000000005 444.74399999999997 347.785 C 445.28 350.139 445.344 352.617 445.032 355.007 C 444.77 357.005 444.255 358.945 443.618 360.848 C 443.62 360.795 443.618 360.742 443.621 360.689 z M 447.889 337.647 C 448.56 340.117 449.197 342.606 449.673 345.122 C 449.795 345.766 449.903 346.41200000000003 450 347.06 C 449.945 348.315 449.907 349.571 449.865 350.827 C 449.706 350.033 449.523 349.242 449.35900000000004 348.452 C 449.076 347.085 448.8 345.717 448.535 344.346 C 448.27700000000004 343.008 448.028 341.669 447.78900000000004 340.32800000000003 C 447.672 339.67 447.55600000000004 339.01200000000006 447.444 338.353 C 447.34000000000003 337.747 447.28900000000004 337.075 447.076 336.491 C 447.521 336.539 447.794 337.294 447.889 337.647 z M 449.492 351.973 C 449.04200000000003 350.866 448.62100000000004 349.747 448.242 348.613 C 447.475 346.318 446.877 343.96 446.588 341.554 C 446.447 340.381 446.379 339.2 446.398 338.018 C 446.404 337.60299999999995 446.336 336.83299999999997 446.75100000000003 336.568 C 446.77200000000005 336.555 446.79 336.555 446.81000000000006 336.54499999999996 C 446.80000000000007 337.15299999999996 446.95700000000005 337.78499999999997 447.0570000000001 338.37899999999996 C 447.16800000000006 339.03799999999995 447.28100000000006 339.69599999999997 447.39700000000005 340.354 C 447.63700000000006 341.721 447.88700000000006 343.086 448.14700000000005 344.449 C 448.40100000000007 345.779 448.66400000000004 347.108 448.93600000000004 348.434 C 449.19800000000004 349.709 449.42800000000005 351.009 449.81500000000005 352.254 C 449.81100000000004 352.399 449.80400000000003 352.54400000000004 449.79900000000004 352.689 C 449.694 352.451 449.589 352.213 449.492 351.973 z M 484.724 332.953 C 485.158 333.462 483.65299999999996 334.197 483.312 334.39599999999996 C 482.646 334.78499999999997 481.96000000000004 335.138 481.25 335.43999999999994 C 478.417 336.64399999999995 475.345 337.2459999999999 472.361 337.94699999999995 C 470.49 338.38699999999994 468.614 338.80499999999995 466.71999999999997 339.13699999999994 C 465.86999999999995 339.28599999999994 465.017 339.40299999999996 464.164 339.50999999999993 C 466.29499999999996 338.97099999999995 468.408 338.3349999999999 470.506 337.7049999999999 C 472.017 337.2509999999999 473.508 336.74299999999994 475.00899999999996 336.25999999999993 C 476.53499999999997 335.7699999999999 478.06399999999996 335.29599999999994 479.57899999999995 334.77199999999993 C 480.42999999999995 334.4769999999999 481.28 334.1769999999999 482.12699999999995 333.8709999999999 C 482.97099999999995 333.5659999999999 483.84799999999996 333.31999999999994 484.679 332.98299999999995 C 484.697 332.975 484.708 332.962 484.724 332.953 z M 467.089 337.361 C 468.18 336.769 469.257 336.151 470.328 335.52299999999997 C 470.455 335.46799999999996 470.57899999999995 335.40799999999996 470.70599999999996 335.35499999999996 C 472.203 334.71999999999997 473.72399999999993 334.138 475.26199999999994 333.61099999999993 C 476.78899999999993 333.0879999999999 478.34299999999996 332.5899999999999 479.94899999999996 332.3879999999999 C 480.79499999999996 332.2819999999999 481.65099999999995 332.2589999999999 482.49999999999994 332.34899999999993 C 482.89899999999994 332.39199999999994 483.29599999999994 332.45699999999994 483.68699999999995 332.5439999999999 C 483.792 332.56699999999995 483.912 332.5919999999999 484.03399999999993 332.6209999999999 C 483.4429999999999 332.85799999999995 482.85999999999996 333.11999999999995 482.2629999999999 333.34399999999994 C 481.5369999999999 333.61699999999996 480.8089999999999 333.8859999999999 480.0789999999999 334.15099999999995 C 478.5979999999999 334.68899999999996 477.1179999999999 335.24299999999994 475.6239999999999 335.74199999999996 C 472.6359999999999 336.73999999999995 469.5959999999999 337.616 466.5609999999999 338.45799999999997 C 465.5139999999999 338.748 464.4629999999999 339.025 463.41399999999993 339.308 C 464.661 338.697 465.881 338.017 467.089 337.361 z" stroke-linecap="round" />
</g>
</svg>