<?xml version="1.0" encoding="UTF-8" standalone="no" ?>
<!DOCTYPE svg PUBLIC "-//W3C//DTD SVG 1.1//EN" "http://www.w3.org/Graphics/SVG/1.1/DTD/svg11.dtd">
<svg xmlns="http://www.w3.org/2000/svg" xmlns:xlink="http://www.w3.org/1999/xlink" version="1.1" width="80" height="80" viewBox="0 10.71 80 80" xml:space="preserve">
<desc>Created with Fabric.js 5.2.4</desc>
<defs>
</defs>
<rect x="0" y="0" width="100%" height="100%" fill="transparent"></rect>
<g transform="matrix(Infinity NaN NaN Infinity 0 0)" id="dbb4e705-56be-4df9-91b2-46cd2014175f"  >
</g>
<g transform="matrix(1 0 0 1 40 40)" id="fc811ae7-94a6-4813-a672-5562730f3949"  >
<rect style="stroke: none; stroke-width: 1; stroke-dasharray: none; stroke-linecap: butt; stroke-dashoffset: 0; stroke-linejoin: miter; stroke-miterlimit: 4; fill: rgb(255,255,255); fill-rule: nonzero; opacity: 1; visibility: hidden;" vector-effect="non-scaling-stroke"  x="-40" y="-40" rx="0" ry="0" width="80" height="80" />
</g>
<g transform="matrix(1.15 0 0 0.82 40 50.84)" id="7e3b9c3f-5d3a-4902-9351-363a3b38338a"  >
<path style="stroke: rgb(0,0,0); stroke-width: 0; stroke-dasharray: none; stroke-linecap: butt; stroke-dashoffset: 0; stroke-linejoin: miter; stroke-miterlimit: 4; fill: rgb(77,76,81); fill-rule: nonzero; opacity: 1;" vector-effect="non-scaling-stroke"  transform=" translate(-246.09, -346.91)" d="M 270.782 340.126 C 270.66499999999996 340.10999999999996 270.563 340.13399999999996 270.477 340.183 C 270.36699999999996 340.141 270.23999999999995 340.13 270.09999999999997 340.186 C 264.65 342.359 259.18999999999994 344.52599999999995 253.88599999999997 347.03999999999996 C 249.13899999999995 349.289 244.48899999999998 351.95699999999994 240.89499999999998 355.85599999999994 C 239.98 356.84899999999993 239.152 357.92299999999994 238.432 359.06499999999994 C 237.83999999999997 360.00299999999993 237.18599999999998 361.04499999999996 236.89499999999998 362.14199999999994 C 236.307 362.42099999999994 235.719 362.69899999999996 235.129 362.9719999999999 C 233.743 363.6119999999999 232.31699999999998 364.1859999999999 230.95399999999998 364.8769999999999 C 230.92899999999997 364.7729999999999 230.90499999999997 364.6679999999999 230.87999999999997 364.5629999999999 C 232.36999999999998 360.05199999999985 234.25699999999998 355.6759999999999 236.45099999999996 351.4619999999999 C 237.60399999999996 349.2479999999999 238.84899999999996 347.0839999999999 240.16799999999998 344.9659999999999 C 241.24999999999997 344.8569999999999 242.32199999999997 344.5839999999999 243.35899999999998 344.2879999999999 C 244.74299999999997 343.8929999999999 246.094 343.3919999999999 247.403 342.7909999999999 C 250.01 341.5939999999999 252.45399999999998 340.01799999999986 254.605 338.11899999999986 C 259.085 334.1639999999999 262.094 328.9329999999999 263.556 323.16099999999983 C 263.97499999999997 321.50599999999986 264.262 319.80899999999986 264.375 318.10499999999985 C 264.431 317.2599999999998 264.447 316.4139999999999 264.431 315.56799999999987 C 264.41499999999996 314.7139999999999 264.42199999999997 313.81399999999985 264.18899999999996 312.9879999999999 C 264.06499999999994 312.5499999999999 263.34599999999995 312.4379999999999 263.28299999999996 312.9579999999999 C 257.87899999999996 314.2689999999999 252.83599999999996 316.9799999999999 248.77299999999997 320.7799999999999 C 246.04599999999996 323.3299999999999 243.79499999999996 326.3459999999999 242.10999999999996 329.6569999999999 C 242.07199999999995 329.6789999999999 242.04199999999994 329.7109999999999 242.03899999999996 329.76499999999993 C 242.03799999999995 329.77699999999993 242.03899999999996 329.78899999999993 242.03799999999995 329.80099999999993 C 241.10999999999996 331.64899999999994 240.35399999999996 333.58599999999996 239.79599999999996 335.58699999999993 C 238.88999999999996 338.83699999999993 238.48499999999996 342.19499999999994 238.62099999999995 345.56699999999995 C 238.62199999999996 345.60299999999995 238.63599999999994 345.62699999999995 238.64399999999995 345.65799999999996 C 237.87099999999995 346.96099999999996 237.11699999999996 348.275 236.40199999999996 349.61099999999993 C 234.07299999999995 353.9669999999999 232.10499999999996 358.51399999999995 230.55999999999995 363.20699999999994 C 230.19099999999995 361.62699999999995 229.84099999999995 360.0439999999999 229.51999999999995 358.45599999999996 C 232.71099999999996 353.866 234.76799999999994 348.518 235.46799999999996 342.96999999999997 C 235.68699999999995 341.231 235.75099999999995 339.477 235.69499999999996 337.726 C 235.71199999999996 337.651 235.73399999999995 337.575 235.74699999999996 337.5 C 235.76199999999994 337.415 235.73099999999997 337.346 235.68099999999995 337.294 C 235.51499999999996 333.538 234.74399999999994 329.808 233.39099999999996 326.299 C 232.88199999999998 324.979 232.29199999999997 323.68899999999996 231.62299999999996 322.44199999999995 C 231.29399999999995 321.828 230.94599999999997 321.22299999999996 230.58299999999997 320.62899999999996 C 230.28799999999998 320.14599999999996 229.91699999999997 319.59599999999995 229.31499999999997 319.489 C 228.90599999999998 319.416 228.60499999999996 319.529 228.37699999999998 319.74499999999995 C 228.32899999999998 319.59799999999996 228.09799999999998 319.53599999999994 227.97299999999998 319.6739999999999 C 227.027 320.7109999999999 226.326 321.92599999999993 225.66199999999998 323.1579999999999 C 224.99299999999997 324.3989999999999 224.38899999999998 325.6749999999999 223.861 326.9809999999999 C 222.809 329.5869999999999 222.03 332.3079999999999 221.53799999999998 335.0749999999999 C 221.33499999999998 336.2139999999999 221.195 337.36399999999986 221.09199999999998 338.5169999999999 C 221.03699999999998 338.5599999999999 221.003 338.6319999999999 221.033 338.7179999999999 C 221.04299999999998 338.7449999999999 221.05499999999998 338.7719999999999 221.065 338.7989999999999 C 220.938 340.3519999999999 220.894 341.9129999999999 220.956 343.4699999999999 C 221.07 346.32499999999993 221.563 349.2209999999999 222.786 351.8229999999999 C 223.99 354.3839999999999 225.889 356.64199999999994 228.404 357.9869999999999 C 228.48499999999999 358.0309999999999 228.559 358.0379999999999 228.629 358.0319999999999 C 228.565 358.2179999999999 228.618 358.39699999999993 228.737 358.52599999999995 C 229.053 359.996 229.405 361.45699999999994 229.796 362.90599999999995 C 229.923 363.37799999999993 230.064 363.84499999999997 230.201 364.31399999999996 C 228.694 369.116 227.59699999999998 374.08899999999994 227.166 379.10699999999997 C 227.109 379.772 227.09799999999998 380.428 227.102 381.09499999999997 C 227.103 381.23299999999995 227.297 381.26599999999996 227.32 381.12199999999996 C 227.72899999999998 378.55999999999995 228.018 375.98199999999997 228.525 373.43299999999994 C 229.035 370.86999999999995 229.686 368.33599999999996 230.463 365.84099999999995 C 230.47299999999998 365.80999999999995 230.483 365.77899999999994 230.493 365.74799999999993 C 230.542 365.75499999999994 230.594 365.75499999999994 230.65099999999998 365.73799999999994 C 232.14399999999998 365.30899999999997 233.56799999999998 364.65199999999993 234.98899999999998 364.0299999999999 C 235.49899999999997 363.8069999999999 236.00399999999996 363.57499999999993 236.51099999999997 363.3449999999999 C 239.90499999999997 363.65399999999994 243.33699999999996 363.7509999999999 246.73999999999995 363.51699999999994 C 249.88399999999996 363.30099999999993 253.01499999999996 362.77199999999993 255.98899999999995 361.7079999999999 C 258.6739999999999 360.7469999999999 261.24299999999994 359.3449999999999 263.36999999999995 357.4309999999999 C 265.54599999999994 355.4719999999999 267.15099999999995 353.01499999999993 268.31499999999994 350.34099999999995 C 269.64699999999993 347.27899999999994 270.52899999999994 343.96399999999994 271.23799999999994 340.70699999999994 C 271.298 340.43 271.044 340.16 270.782 340.126 z M 247.965 341.607 C 246.589 342.302 245.157 342.882 243.69 343.35600000000005 C 242.704 343.67400000000004 241.696 343.89700000000005 240.692 344.136 C 241.92100000000002 342.202 243.208 340.305 244.549 338.447 C 245.523 337.097 246.53400000000002 335.775 247.561 334.465 C 249.72400000000002 334.142 251.86100000000002 333.57599999999996 253.955 332.953 C 255.793 332.40599999999995 257.599 331.774 259.38800000000003 331.09 C 256.67 335.583 252.651 339.241 247.965 341.607 z M 263.282 315.267 C 263.31399999999996 315.19599999999997 263.34 315.123 263.371 315.051 C 263.37399999999997 315.102 263.37899999999996 315.152 263.381 315.202 C 263.417 315.934 263.42299999999994 316.666 263.39899999999994 317.399 C 263.34999999999997 318.868 263.20199999999994 320.337 262.93899999999996 321.784 C 262.41499999999996 324.663 261.40399999999994 327.443 260.00899999999996 330.014 C 259.94199999999995 330.137 259.86999999999995 330.257 259.80099999999993 330.38 C 257.8829999999999 331.197 255.90999999999994 331.895 253.91199999999992 332.485 C 251.9579999999999 333.062 249.97299999999993 333.49 247.9869999999999 333.93 C 249.9979999999999 331.391 252.08999999999992 328.91700000000003 254.2609999999999 326.515 C 255.9149999999999 324.68399999999997 257.6529999999999 322.929 259.2909999999999 321.08299999999997 C 260.854 319.321 262.312 317.426 263.282 315.267 z M 262.605 314.194 C 261.309 317.504 258.824 320.16900000000004 256.365 322.743 C 256.408 322.423 256.454 322.102 256.522 321.784 C 256.69 320.99899999999997 256.902 320.224 257.14799999999997 319.46 C 257.59099999999995 318.085 258.22099999999995 316.811 258.80699999999996 315.49899999999997 C 260.044 314.984 261.313 314.546 262.605 314.194 z M 252.577 318.984 C 253.391 318.40099999999995 254.222 317.84299999999996 255.088 317.342 C 256.123 316.74199999999996 257.19599999999997 316.211 258.292 315.731 C 257.62199999999996 316.86199999999997 257.135 318.13 256.743 319.368 C 256.518 320.078 256.334 320.801 256.185 321.53 C 256.07 322.09 255.939 322.68499999999995 255.863 323.27 C 255.393 323.762 254.926 324.253 254.472 324.745 C 253.42700000000002 325.879 252.405 327.033 251.395 328.197 C 251.40800000000002 328.064 251.42000000000002 327.93 251.436 327.8 C 251.491 327.338 251.55100000000002 326.878 251.615 326.41700000000003 C 251.747 325.471 251.87800000000001 324.52400000000006 252.006 323.57700000000006 C 252.13 322.65600000000006 252.254 321.73500000000007 252.37800000000001 320.81300000000005 C 252.459 320.205 252.519 319.595 252.577 318.984 z M 243.683 328.806 C 245.801 325.07099999999997 248.73999999999998 321.816 252.191 319.262 C 252.106 319.735 252.025 320.208 251.959 320.685 C 251.827 321.63100000000003 251.695 322.578 251.56300000000002 323.524 C 251.43400000000003 324.445 251.31000000000003 325.366 251.18500000000003 326.287 C 251.12300000000002 326.748 251.05800000000002 327.20799999999997 250.98700000000002 327.667 C 250.92600000000002 328.061 250.83200000000002 328.469 250.81900000000002 328.871 C 248.675 331.37199999999996 246.60600000000002 333.938 244.65200000000002 336.591 C 244.17200000000003 337.243 243.70100000000002 337.902 243.23600000000002 338.565 C 242.87300000000002 336.124 242.657 333.674 242.466 331.216 C 242.841 330.398 243.238 329.59 243.683 328.806 z M 242.027 332.198 C 242.095 334.56399999999996 242.381 336.93 242.75799999999998 339.26 C 241.64999999999998 340.867 240.581 342.5 239.55599999999998 344.162 C 239.592 340.06 240.446 335.979 242.027 332.198 z M 232.071 325.305 C 232.07999999999998 325.325 232.09 325.345 232.099 325.365 C 233.929 329.68600000000004 234.85 334.378 234.778 339.067 C 234.757 339.141 234.739 339.21500000000003 234.71599999999998 339.288 C 234.51899999999998 339.92 234.29899999999998 340.545 234.058 341.161 C 233.593 342.353 233.058 343.51800000000003 232.45399999999998 344.646 C 231.28799999999998 346.825 229.814 348.83000000000004 228.21599999999998 350.711 C 228.081 349.695 227.956 348.676 227.85399999999998 347.653 C 227.533 344.41900000000004 227.36399999999998 341.173 227.33999999999997 337.925 C 228.63299999999998 335.90500000000003 229.64399999999998 333.702 230.42999999999998 331.44 C 230.83199999999997 330.282 231.17199999999997 329.103 231.45199999999997 327.91 C 231.656 327.041 231.888 326.178 232.071 325.305 z M 228.523 321.493 C 228.573 321.167 228.662 320.235 229.16 320.293 C 229.66 320.35200000000003 230.054 321.31600000000003 230.271 321.69 C 230.732 322.485 231.14499999999998 323.307 231.53599999999997 324.139 C 231.41399999999996 325.337 231.34099999999998 326.547 231.07199999999997 327.724 C 230.79099999999997 328.95099999999996 230.44099999999997 330.161 230.02799999999996 331.34999999999997 C 229.31099999999995 333.40799999999996 228.37599999999998 335.36699999999996 227.33699999999996 337.277 C 227.33399999999997 334.907 227.40799999999996 332.537 227.56799999999996 330.171 C 227.764 327.266 228.082 324.37 228.523 321.493 z M 224.36 328.073 C 224.899 326.65 225.51500000000001 325.253 226.20800000000003 323.89799999999997 C 226.70700000000002 322.92299999999994 227.26900000000003 321.98199999999997 227.78900000000002 321.02 C 227.71900000000002 321.34 227.67600000000002 321.655 227.639 321.907 C 227.416 323.41999999999996 227.226 324.938 227.071 326.46 C 226.44899999999998 332.532 226.363 338.661 226.802 344.74899999999997 C 226.85899999999998 345.532 226.932 346.31499999999994 227.007 347.097 C 226.586 346.674 226.15200000000002 346.26099999999997 225.761 345.811 C 225.143 345.09799999999996 224.565 344.349 224.031 343.57099999999997 C 223.193 342.349 222.483 341.049 221.86 339.707 C 222.09 335.731 222.955 331.778 224.36 328.073 z M 221.86 344.058 C 221.788 342.916 221.78400000000002 341.77 221.822 340.62399999999997 C 222.337 341.72999999999996 222.934 342.79799999999994 223.609 343.81499999999994 C 224.143 344.61999999999995 224.72400000000002 345.39399999999995 225.347 346.13199999999995 C 225.87800000000001 346.75999999999993 226.446 347.4549999999999 227.08800000000002 347.99099999999993 C 227.40200000000002 351.0039999999999 227.848 354.0089999999999 228.43500000000003 356.98299999999995 C 223.957 354.327 222.175 349.016 221.86 344.058 z M 228.286 351.221 C 230.087 349.323 231.557 347.158 232.803 344.862 C 233.435 343.69800000000004 233.99699999999999 342.49800000000005 234.483 341.266 C 234.56300000000002 341.064 234.629 340.857 234.705 340.654 C 234.69400000000002 340.828 234.693 341.002 234.68 341.175 C 234.255 346.497 232.566 351.71500000000003 229.761 356.261 C 229.597 356.52700000000004 229.417 356.78400000000005 229.245 357.045 C 228.876 355.113 228.556 353.172 228.286 351.221 z M 261.394 344.862 C 263.519 343.97900000000004 265.653 343.119 267.788 342.264 C 267.44 342.56100000000004 267.093 342.85900000000004 266.745 343.146 C 265.565 344.12 264.37 345.077 263.161 346.01500000000004 C 261.13 347.59200000000004 259.046 349.1 256.932 350.56300000000005 C 256.973 350.44800000000004 257.01 350.331 257.05400000000003 350.218 C 257.285 349.635 257.53900000000004 349.06100000000004 257.809 348.494 C 258.261 347.545 258.78000000000003 346.627 259.32300000000004 345.72600000000006 C 260.014 345.436 260.705 345.149 261.394 344.862 z M 246.752 352.105 C 250.46800000000002 349.596 254.596 347.72 258.73400000000004 345.97400000000005 C 258.25800000000004 346.71400000000006 257.82500000000005 347.48100000000005 257.434 348.273 C 257.148 348.85400000000004 256.886 349.447 256.64500000000004 350.048 C 256.516 350.37 256.379 350.7 256.25800000000004 351.034 C 256.06100000000004 351.168 255.87000000000003 351.31 255.67300000000003 351.444 C 251.63700000000003 354.172 247.45400000000004 356.678 243.15800000000002 358.976 C 243.566 357.794 244.05200000000002 356.64 244.627 355.528 C 244.984 354.839 245.372 354.166 245.792 353.51300000000003 C 246.099 353.036 246.432 352.575 246.752 352.105 z M 238.927 359.836 C 239.564 358.84000000000003 240.289 357.908 241.06699999999998 357.019 C 242.44699999999997 355.443 244.03199999999998 354.067 245.724 352.836 C 245.2 353.617 244.736 354.451 244.316 355.254 C 243.64600000000002 356.534 243.094 357.87 242.647 359.243 C 241.709 359.74 240.773 360.24 239.82399999999998 360.716 C 239.189 361.035 238.551 361.345 237.91099999999997 361.654 C 238.241 361.044 238.553 360.42 238.927 359.836 z M 247.672 362.579 C 244.303 362.901 240.925 362.819 237.547 362.87 C 238.106 362.609 238.664 362.347 239.218 362.079 C 241.159 361.14 243.076 360.153 244.97 359.123 C 247.141 359.835 249.468 360.17199999999997 251.736 360.347 C 252.94 360.44 254.148 360.472 255.355 360.45 C 255.874 360.441 256.392 360.41499999999996 256.909 360.384 C 253.986 361.61 250.801 362.28 247.672 362.579 z M 263.431 356.098 C 261.931 357.605 260.19899999999996 358.795 258.33099999999996 359.731 C 258.24999999999994 359.742 258.169 359.753 258.08799999999997 359.762 C 257.79299999999995 359.793 257.49899999999997 359.821 257.203 359.845 C 256.613 359.89300000000003 256.02099999999996 359.92600000000004 255.42899999999997 359.944 C 254.19299999999998 359.983 252.95499999999998 359.951 251.72199999999998 359.857 C 249.60599999999997 359.69500000000005 247.551 359.283 245.486 358.84400000000005 C 246.12699999999998 358.4920000000001 246.766 358.13500000000005 247.402 357.77200000000005 C 248.54199999999997 357.12100000000004 249.66899999999998 356.44500000000005 250.791 355.76300000000003 C 250.811 355.77400000000006 250.823 355.79200000000003 250.851 355.79400000000004 C 255.662 356.182 260.529 355.54100000000005 265.125 354.083 C 264.612 354.794 264.054 355.472 263.431 356.098 z M 267.864 348.902 C 267.253 350.48699999999997 266.50199999999995 352.027 265.56899999999996 353.443 C 260.97099999999995 354.98199999999997 256.138 355.61699999999996 251.29699999999997 355.46099999999996 C 254.15299999999996 353.70699999999994 256.945 351.84999999999997 259.66999999999996 349.89899999999994 C 261.14799999999997 349.66999999999996 262.621 349.41599999999994 264.09399999999994 349.16399999999993 C 264.88499999999993 349.0279999999999 265.67699999999996 348.89399999999995 266.46899999999994 348.7609999999999 C 266.97599999999994 348.67599999999993 267.48999999999995 348.59899999999993 268.0009999999999 348.5119999999999 C 267.953 348.642 267.914 348.773 267.864 348.902 z M 268.182 347.993 C 267.587 348.091 266.994 348.219 266.404 348.324 C 265.614 348.46500000000003 264.823 348.604 264.032 348.742 C 262.81 348.95500000000004 261.58799999999997 349.171 260.36899999999997 349.397 C 261.21099999999996 348.787 262.04799999999994 348.17 262.87499999999994 347.541 C 264.2389999999999 346.504 265.58399999999995 345.443 266.9049999999999 344.352 C 267.5739999999999 343.79999999999995 268.2509999999999 343.253 268.8909999999999 342.667 C 269.23599999999993 342.351 269.5859999999999 342.041 269.9199999999999 341.715 C 269.405 343.829 268.897 345.935 268.182 347.993 z" stroke-linecap="round" />
</g>
</svg>