<?xml version="1.0" encoding="UTF-8" standalone="no" ?>
<!DOCTYPE svg PUBLIC "-//W3C//DTD SVG 1.1//EN" "http://www.w3.org/Graphics/SVG/1.1/DTD/svg11.dtd">
<svg xmlns="http://www.w3.org/2000/svg" xmlns:xlink="http://www.w3.org/1999/xlink" version="1.1" width="150" height="150" viewBox="0 10.71 150 150" xml:space="preserve">
<desc>Created with Fabric.js 5.2.4</desc>
<defs>
</defs>
<rect x="0" y="0" width="100%" height="100%" fill="transparent"></rect>
<g transform="matrix(Infinity NaN NaN Infinity 0 0)" id="dbb4e705-56be-4df9-91b2-46cd2014175f"  >
</g>
<g transform="matrix(1 0 0 1 75 75)" id="fc811ae7-94a6-4813-a672-5562730f3949"  >
<rect style="stroke: none; stroke-width: 1; stroke-dasharray: none; stroke-linecap: butt; stroke-dashoffset: 0; stroke-linejoin: miter; stroke-miterlimit: 4; fill: rgb(255,255,255); fill-rule: nonzero; opacity: 1; visibility: hidden;" vector-effect="non-scaling-stroke"  x="-75" y="-75" rx="0" ry="0" width="150" height="150" />
</g>
<g transform="matrix(0.82 0 0 0.6 76.25 85.59)" id="7dd0b2a3-8614-4970-b212-d390daa6217d"  >
<path style="stroke: rgb(0,0,0); stroke-width: 0; stroke-dasharray: none; stroke-linecap: butt; stroke-dashoffset: 0; stroke-linejoin: miter; stroke-miterlimit: 4; fill: rgb(77,76,81); fill-rule: nonzero; opacity: 1;" vector-effect="non-scaling-stroke"  transform=" translate(-356.19, -309.89)" d="M 434.371 314.18 C 434.392 312.722 433.827 311.269 432.947 310.122 C 430.93 307.493 427.571 306.649 424.395 307.166 C 420.352 307.824 417.06399999999996 310.361 413.938 312.839 C 413.878 312.887 413.83299999999997 312.941 413.80199999999996 312.999 C 413.43399999999997 312.982 413.066 312.966 412.698 312.949 C 407.878 312.731 403.05699999999996 312.512 398.23699999999997 312.303 C 396.88399999999996 312.24399999999997 395.532 312.186 394.17799999999994 312.136 C 393.21299999999997 312.1 392.2149999999999 312.011 391.23299999999995 312.024 C 392.90199999999993 310.894 394.55999999999995 309.749 396.26899999999995 308.677 C 398.46199999999993 307.30100000000004 400.71899999999994 306.02700000000004 402.989 304.78200000000004 C 406.006 303.12800000000004 409.101 301.61800000000005 412.25199999999995 300.23600000000005 C 414.15899999999993 300.82500000000005 416.0799999999999 301.36300000000006 418.00999999999993 301.869 C 419.90599999999995 302.36600000000004 421.82899999999995 303.01000000000005 423.7919999999999 303.16900000000004 C 425.41099999999994 303.3 427.1329999999999 303.009 428.4149999999999 301.94700000000006 C 429.81299999999993 300.78900000000004 430.2259999999999 298.97300000000007 430.2609999999999 297.23400000000004 C 430.2929999999999 295.62800000000004 430.16399999999993 293.86 429.5489999999999 292.35900000000004 C 428.93499999999995 290.86 427.77399999999994 289.76300000000003 426.1939999999999 289.345 C 424.5539999999999 288.911 422.7619999999999 289.20200000000006 421.1809999999999 289.73400000000004 C 419.57899999999995 290.273 418.0489999999999 291.04600000000005 416.6649999999999 292.016 C 415.1649999999999 293.067 413.7569999999999 294.356 412.6839999999999 295.84700000000004 C 411.9669999999999 296.84400000000005 411.3389999999999 298.25100000000003 411.7999999999999 299.42600000000004 C 411.3109999999999 299.64200000000005 410.8169999999999 299.84600000000006 410.3309999999999 300.069 C 405.6039999999999 302.235 401.0539999999999 304.728 396.6979999999999 307.56800000000004 C 394.6809999999999 308.88300000000004 392.66799999999995 310.23400000000004 390.76199999999994 311.713 C 390.77699999999993 311.65500000000003 390.79099999999994 311.598 390.8059999999999 311.54 C 394.2199999999999 307.76300000000003 397.2749999999999 303.661 400.4149999999999 299.658 C 403.5599999999999 295.648 406.8419999999999 291.659 410.6509999999999 288.255 C 415.4839999999999 288.478 420.3909999999999 287.401 424.8589999999999 285.59499999999997 C 426.9489999999999 284.74999999999994 429.07499999999993 283.638 430.42799999999994 281.772 C 431.8689999999999 279.784 432.1929999999999 277.231 431.82899999999995 274.848 C 431.48599999999993 272.606 430.61499999999995 270.442 429.14099999999996 268.702 C 427.58799999999997 266.86899999999997 425.323 265.641 422.90999999999997 265.503 C 418.35499999999996 265.243 414.50699999999995 269.152 412.26899999999995 272.705 C 409.7989999999999 276.626 408.64099999999996 281.409 409.114 286.024 C 409.17199999999997 286.59 409.25899999999996 287.152 409.36199999999997 287.711 C 409.376 287.78700000000003 409.417 287.84700000000004 409.469 287.898 C 406.519 290.60200000000003 403.861 293.637 401.35 296.754 C 398.007 300.903 394.85400000000004 305.219 391.37300000000005 309.254 C 391.41600000000005 309.07300000000004 391.46500000000003 308.89300000000003 391.504 308.711 C 391.74 307.624 391.98400000000004 306.54 392.237 305.457 C 392.75600000000003 303.23699999999997 393.295 301.02299999999997 393.877 298.819 C 395.038 294.421 396.345 290.06100000000004 397.795 285.75 C 399.497 285.449 401.154 284.903 402.733 284.202 C 404.306 283.504 405.81600000000003 282.628 407.06 281.426 C 409.47 279.09499999999997 410.79 275.553 409.39300000000003 272.34299999999996 C 408.73400000000004 270.82899999999995 407.64700000000005 269.46599999999995 406.37800000000004 268.41599999999994 C 405.17 267.41499999999996 403.682 266.62399999999997 402.08000000000004 266.61099999999993 C 398.57300000000004 266.58399999999995 396.93100000000004 270.4239999999999 396.184 273.2819999999999 C 395.19300000000004 277.0739999999999 395.444 281.1359999999999 396.848 284.7899999999999 C 396.892 284.9049999999999 396.97 284.9769999999999 397.057 285.0249999999999 C 396.368 287.0609999999999 395.707 289.10599999999994 395.082 291.1629999999999 C 393.756 295.5239999999999 392.566 299.9289999999999 391.541 304.3699999999999 C 391.253 305.6159999999999 390.984 306.8659999999999 390.723 308.1179999999999 C 390.56 308.9019999999999 390.434 309.6849999999999 390.31600000000003 310.46999999999986 C 389.735 311.11999999999983 389.144 311.76199999999983 388.53900000000004 312.3919999999999 C 386.535 314.4829999999999 384.38000000000005 316.40999999999985 382.071 318.14999999999986 C 382.134 317.65099999999984 382.16700000000003 317.14499999999987 382.226 316.66899999999987 C 382.351 315.66699999999986 382.457 314.6639999999999 382.555 313.6589999999999 C 382.749 311.6659999999999 382.899 309.66899999999987 383.009 307.66899999999987 C 383.098 306.04499999999985 383.153 304.41899999999987 383.188 302.7929999999999 C 385.90299999999996 300.6709999999999 388.498 297.8309999999999 389.433 294.4449999999999 C 390.277 291.3889999999999 389.601 288.0769999999999 387.012 286.07799999999986 C 384.517 284.15099999999984 380.62 282.9979999999999 377.846 285.0049999999999 C 375.255 286.8789999999999 374.493 290.22899999999987 375.247 293.21999999999986 C 376.244 297.17399999999986 379.366 300.01399999999984 382.30600000000004 302.61299999999983 C 382.34700000000004 302.6499999999998 382.391 302.66799999999984 382.43500000000006 302.68699999999984 C 382.3140000000001 306.04999999999984 382.0830000000001 309.40699999999987 381.7370000000001 312.75399999999985 C 381.62200000000007 313.86299999999983 381.4910000000001 314.9689999999998 381.35800000000006 316.07599999999985 C 381.29100000000005 316.6299999999998 381.22200000000004 317.1829999999999 381.14900000000006 317.7359999999999 C 381.09600000000006 318.13599999999985 381.01500000000004 318.54199999999986 380.99100000000004 318.9469999999999 C 380.86500000000007 319.03699999999986 380.74500000000006 319.1339999999999 380.61800000000005 319.22199999999987 C 377.50900000000007 321.38599999999985 374.19200000000006 323.22899999999987 370.82200000000006 324.94899999999984 C 365.45700000000005 327.6879999999998 360.01700000000005 330.28799999999984 354.58400000000006 332.89499999999987 C 354.7080000000001 332.74399999999986 354.8310000000001 332.59299999999985 354.95400000000006 332.4419999999999 C 355.38400000000007 331.9119999999999 355.81200000000007 331.3799999999999 356.23600000000005 330.8449999999999 C 357.10100000000006 329.75299999999993 357.94700000000006 328.64699999999993 358.78000000000003 327.5309999999999 C 359.41700000000003 326.6769999999999 360.03900000000004 325.8119999999999 360.66 324.9449999999999 C 360.709 324.9809999999999 360.774 325.0029999999999 360.85900000000004 324.9929999999999 C 364.79900000000004 324.54699999999985 368.99 320.4279999999999 367.25300000000004 316.2759999999999 C 366.54600000000005 314.5859999999999 364.89300000000003 313.4349999999999 363.02600000000007 313.6169999999999 C 360.82000000000005 313.8319999999999 359.71400000000006 315.8029999999999 359.3260000000001 317.7929999999999 C 358.89400000000006 320.0099999999999 359.24500000000006 322.3129999999999 360.26400000000007 324.3199999999999 C 359.56000000000006 325.30399999999986 358.8500000000001 326.28499999999985 358.12500000000006 327.2539999999999 C 357.30600000000004 328.3469999999999 356.47400000000005 329.4299999999999 355.63300000000004 330.5059999999999 C 355.21200000000005 331.0439999999999 354.788 331.5789999999999 354.36100000000005 332.1119999999999 C 354.15600000000006 332.3679999999999 353.94800000000004 332.6209999999999 353.74300000000005 332.8769999999999 C 353.5810000000001 333.07999999999987 353.45300000000003 333.2919999999999 353.321 333.5039999999999 C 351.84700000000004 334.21199999999993 350.37300000000005 334.9189999999999 348.90200000000004 335.6329999999999 C 345.11600000000004 337.46899999999994 341.33000000000004 339.3059999999999 337.5450000000001 341.1459999999999 C 335.68000000000006 342.0519999999999 333.8160000000001 342.9589999999999 331.9510000000001 343.8639999999999 C 330.08900000000006 344.7679999999999 328.2000000000001 345.6359999999999 326.3670000000001 346.5979999999999 C 325.94700000000006 346.8179999999999 325.5330000000001 347.0469999999999 325.1160000000001 347.2719999999999 C 326.5610000000001 343.4179999999999 328.1080000000001 339.6029999999999 329.8010000000001 335.8479999999999 C 332.8260000000001 329.1379999999999 336.3280000000001 322.6969999999999 340.1330000000001 316.4329999999999 C 344.5750000000001 313.3409999999999 349.1590000000001 310.4489999999999 353.9140000000001 307.8649999999999 C 354.0710000000001 307.9919999999999 354.3180000000001 308.01999999999987 354.5130000000001 307.9119999999999 C 357.3280000000001 308.5979999999999 360.4520000000001 308.9009999999999 363.2290000000001 308.01499999999993 C 365.9730000000001 307.13999999999993 368.2770000000001 305.06999999999994 368.7090000000001 302.12499999999994 C 368.9420000000001 300.54099999999994 368.7530000000001 298.88899999999995 368.50600000000014 297.3159999999999 C 368.3100000000001 296.0739999999999 367.89000000000016 294.6649999999999 366.58700000000016 294.1929999999999 C 365.23000000000013 293.7009999999999 363.83200000000016 294.54599999999994 362.75800000000015 295.30499999999995 C 361.48200000000014 296.20599999999996 360.29000000000013 297.2339999999999 359.21300000000014 298.36599999999993 C 356.87800000000016 300.8189999999999 355.1080000000001 303.75199999999995 353.96900000000016 306.9359999999999 C 353.5960000000002 307.13699999999994 353.2210000000002 307.3329999999999 352.85100000000017 307.5379999999999 C 349.94500000000016 309.1409999999999 347.11400000000015 310.8669999999999 344.36400000000015 312.7259999999999 C 343.17900000000014 313.5269999999999 342.02100000000013 314.3629999999999 340.87600000000015 315.2179999999999 C 343.87500000000017 310.34899999999993 347.05100000000016 305.5829999999999 350.33000000000015 300.8809999999999 C 351.30700000000013 299.4789999999999 352.30100000000016 298.0879999999999 353.2880000000002 296.6929999999999 C 353.3880000000002 296.6599999999999 353.4770000000002 296.5829999999999 353.5130000000002 296.43999999999994 C 353.5210000000002 296.40899999999993 353.5260000000002 296.37699999999995 353.5340000000002 296.34599999999995 C 356.0350000000002 292.816 358.5490000000002 289.29499999999996 361.0530000000002 285.76699999999994 C 364.2530000000002 284.35999999999996 367.3990000000002 282.84399999999994 370.6740000000002 281.61099999999993 C 373.0940000000002 280.69999999999993 375.5590000000002 279.90099999999995 378.0510000000002 279.2079999999999 C 378.2620000000002 279.27199999999993 378.4990000000002 279.2029999999999 378.62700000000024 279.0449999999999 C 381.5870000000002 280.75299999999993 385.0200000000002 282.2759999999999 388.49700000000024 281.4819999999999 C 389.92500000000024 281.1559999999999 391.32300000000026 280.4349999999999 392.29700000000025 279.3229999999999 C 393.36500000000024 278.1039999999999 393.79900000000026 276.49099999999993 393.61200000000025 274.8909999999999 C 393.23700000000025 271.6719999999999 390.82300000000026 268.8539999999999 387.8010000000003 267.7739999999999 C 384.88100000000026 266.7299999999999 381.52300000000025 267.4589999999999 379.25300000000027 269.56099999999986 C 377.99600000000027 270.72499999999985 377.17000000000024 272.3269999999999 376.9010000000003 274.01599999999985 C 376.6840000000003 275.37499999999983 376.7630000000003 276.98299999999983 377.36600000000027 278.28099999999984 C 373.43900000000025 279.40099999999984 369.59300000000025 280.80699999999985 365.8800000000003 282.48499999999984 C 364.5510000000003 283.08499999999987 363.2520000000003 283.72899999999987 361.99100000000027 284.44699999999983 C 365.9260000000003 278.88399999999984 369.79700000000025 273.2769999999998 373.4330000000003 267.51099999999985 C 375.90500000000026 263.59099999999984 378.26800000000026 259.58499999999987 380.4540000000003 255.48799999999986 C 380.4750000000003 255.48099999999985 380.4970000000003 255.47299999999987 380.5170000000003 255.45699999999985 C 383.29400000000027 253.28999999999985 385.9330000000003 250.95899999999986 388.6030000000003 248.66199999999986 C 390.1000000000003 247.37399999999985 391.5930000000003 246.07999999999987 393.0870000000003 244.78699999999986 C 393.12400000000025 244.83099999999988 393.1700000000003 244.86899999999986 393.23700000000025 244.89199999999985 C 395.0530000000002 245.52399999999986 397.06100000000026 245.68499999999986 398.9740000000003 245.65799999999984 C 400.9110000000003 245.62999999999985 402.85000000000025 245.35899999999984 404.7210000000003 244.85399999999984 C 406.4530000000003 244.38699999999983 408.2300000000003 243.74299999999985 409.5720000000003 242.50899999999984 C 410.9590000000003 241.23399999999984 411.5260000000003 239.33899999999986 411.3310000000003 237.49099999999984 C 411.1300000000003 235.58599999999984 410.1940000000003 233.85199999999983 409.0410000000003 232.35599999999985 C 407.91700000000026 230.89699999999985 406.5410000000003 229.55699999999985 404.8670000000003 228.74699999999984 C 403.2790000000003 227.97799999999984 401.45000000000033 227.75699999999983 399.7880000000003 228.43399999999986 C 398.1650000000003 229.09399999999985 396.9050000000003 230.37899999999985 395.9130000000003 231.79099999999985 C 393.4560000000003 235.28499999999985 392.3590000000003 239.66799999999986 392.7760000000003 243.90999999999985 C 390.0570000000003 246.28499999999985 387.3340000000003 248.65499999999986 384.6200000000003 251.03599999999986 C 383.4390000000003 252.07199999999986 382.2780000000003 253.12599999999986 381.1350000000003 254.20099999999985 C 384.68100000000027 247.40099999999984 387.6990000000003 240.33799999999985 389.85700000000026 232.97199999999987 C 389.90100000000024 233.04299999999986 390.0000000000002 233.08599999999987 390.08000000000027 233.03999999999988 C 391.25800000000027 232.3579999999999 392.21800000000025 231.38599999999988 393.17900000000026 230.43199999999987 C 394.15700000000027 229.46099999999987 395.1060000000003 228.45999999999987 395.99100000000027 227.40299999999988 C 397.67200000000025 225.39699999999988 399.1270000000003 223.17499999999987 400.05200000000025 220.71599999999987 C 400.93100000000027 218.38099999999986 401.37000000000023 215.84999999999985 401.02500000000026 213.36099999999988 C 400.71300000000025 211.10699999999989 399.73700000000025 208.97199999999987 398.2090000000003 207.28299999999987 C 396.72700000000026 205.64499999999987 394.6790000000003 204.48199999999989 392.46000000000026 204.27499999999986 C 390.34200000000027 204.07799999999986 388.22500000000025 204.68699999999987 386.44300000000027 205.82699999999986 C 384.60500000000025 207.00199999999987 383.12200000000024 208.71699999999984 382.24400000000026 210.71499999999986 C 381.23500000000024 213.01099999999985 380.9400000000003 215.56999999999985 381.19900000000024 218.05299999999986 C 381.7380000000002 223.21399999999986 384.53800000000024 227.72099999999986 387.71000000000026 231.69099999999986 C 388.10400000000027 232.18399999999986 388.5050000000003 232.67099999999985 388.9090000000003 233.15599999999986 C 388.9690000000003 233.22799999999987 389.0500000000003 233.26299999999986 389.13800000000026 233.28299999999987 C 385.7550000000003 243.94099999999986 380.71000000000026 254.03399999999988 374.91700000000026 263.58999999999986 C 374.84100000000024 263.71499999999986 374.76100000000025 263.8369999999999 374.68500000000023 263.9619999999999 C 374.40300000000025 261.1079999999999 374.10700000000026 258.2549999999999 373.8030000000002 255.40299999999988 C 374.4380000000002 254.83799999999988 374.92300000000023 254.13499999999988 375.3970000000002 253.42699999999988 C 375.9400000000002 252.61499999999987 376.4260000000002 251.76699999999988 376.85500000000025 250.88899999999987 C 377.70600000000024 249.14999999999986 378.3490000000003 247.29999999999987 378.74900000000025 245.40599999999986 C 379.37400000000025 242.44799999999987 379.84600000000023 238.23099999999985 377.05400000000026 236.16999999999987 C 374.56600000000026 234.33299999999988 370.9740000000003 235.07999999999987 368.98200000000026 237.28399999999988 C 366.71600000000024 239.78999999999988 366.29900000000026 243.5119999999999 367.03100000000023 246.69899999999987 C 367.82600000000025 250.15699999999987 370.00600000000026 253.26099999999988 373.0290000000002 255.12399999999988 C 373.0370000000002 255.12899999999988 373.0440000000002 255.12799999999987 373.05200000000025 255.1319999999999 C 373.35900000000026 258.4329999999999 373.6830000000002 261.7319999999999 374.01800000000026 265.0279999999999 C 367.82800000000026 275.0499999999999 360.83300000000025 284.5289999999999 353.9760000000002 294.0999999999999 C 354.16500000000025 292.92099999999994 354.30500000000023 291.7319999999999 354.4430000000002 290.5559999999999 C 354.6690000000002 288.6239999999999 354.8250000000002 286.68499999999995 354.92300000000023 284.74299999999994 C 355.0120000000002 282.9789999999999 355.04500000000024 281.21199999999993 355.0340000000002 279.4459999999999 C 355.07200000000023 279.4419999999999 355.1110000000002 279.4309999999999 355.1490000000002 279.40399999999994 C 358.16000000000025 277.26699999999994 360.4430000000002 273.90299999999996 361.0250000000002 270.22499999999997 C 361.5770000000002 266.739 360.5440000000002 263.14099999999996 357.8780000000002 260.751 C 355.6550000000002 258.758 352.3190000000002 257.738 349.47100000000023 258.97799999999995 C 348.03300000000024 259.6039999999999 346.99000000000024 260.77299999999997 346.5370000000002 262.27799999999996 C 346.0000000000002 264.06399999999996 346.3620000000002 265.98999999999995 347.0830000000002 267.667 C 347.9330000000002 269.64599999999996 349.1450000000002 271.489 350.3340000000002 273.277 C 351.56100000000015 275.123 352.88300000000015 276.907 354.27400000000017 278.634 C 354.27900000000017 282.321 354.0960000000002 286.009 353.6990000000002 289.68600000000004 C 353.4840000000002 291.672 353.1330000000002 293.641 352.8890000000002 295.622 C 352.50000000000017 296.16700000000003 352.1090000000002 296.711 351.7210000000002 297.25800000000004 C 346.26300000000015 304.94800000000004 340.98800000000017 312.76800000000003 336.3100000000002 320.94100000000003 C 336.30800000000016 320.32300000000004 336.2730000000002 319.70200000000006 336.26700000000017 319.10400000000004 C 336.2540000000002 317.95000000000005 336.24600000000015 316.79600000000005 336.2420000000002 315.64200000000005 C 336.2350000000002 313.33400000000006 336.24300000000017 311.02600000000007 336.2630000000002 308.7180000000001 C 336.2870000000002 305.95900000000006 336.3360000000002 303.2000000000001 336.3990000000002 300.44200000000006 C 338.9720000000002 298.09200000000004 341.44600000000025 295.42300000000006 342.45800000000025 292.0060000000001 C 343.30600000000027 289.1430000000001 342.83300000000025 285.71600000000007 340.48000000000025 283.67500000000007 C 338.37900000000025 281.85400000000004 335.19700000000023 281.8740000000001 332.97100000000023 283.4800000000001 C 330.15600000000023 285.5110000000001 330.26400000000024 289.07400000000007 330.85800000000023 292.1500000000001 C 331.2310000000002 294.0800000000001 331.7840000000002 295.9750000000001 332.5080000000002 297.8030000000001 C 333.0680000000002 299.2170000000001 333.9140000000002 301.2000000000001 335.5680000000002 301.56900000000013 C 335.39400000000023 306.0000000000001 335.3080000000002 310.43400000000014 335.2940000000002 314.8630000000001 C 335.2900000000002 316.1270000000001 335.2920000000002 317.3920000000001 335.2990000000002 318.6560000000001 C 335.3030000000002 319.31600000000014 335.3080000000002 319.97500000000014 335.32200000000023 320.6340000000001 C 335.3350000000002 321.25300000000016 335.3300000000002 321.8700000000001 335.4520000000002 322.47700000000015 C 334.32200000000023 324.4950000000001 333.2170000000002 326.52900000000017 332.16800000000023 328.59500000000014 C 331.0730000000002 323.7690000000001 329.8800000000002 318.96200000000016 328.72500000000025 314.15000000000015 C 327.55200000000025 309.2590000000001 326.37800000000027 304.36900000000014 325.20400000000024 299.4780000000001 C 324.8390000000002 297.95800000000014 324.4720000000002 296.43900000000014 324.10700000000026 294.9190000000001 C 324.21600000000024 294.8580000000001 324.30600000000027 294.7570000000001 324.34700000000026 294.6040000000001 C 325.5700000000003 290.0310000000001 327.1320000000003 285.5850000000001 328.9350000000003 281.2210000000001 C 331.6710000000003 281.1660000000001 334.3510000000003 279.6180000000001 336.06600000000026 277.5340000000001 C 338.02800000000025 275.1490000000001 338.9160000000003 271.9090000000001 338.37400000000025 268.8610000000001 C 338.12000000000023 267.43200000000013 337.50900000000024 266.0010000000001 336.35800000000023 265.0660000000001 C 335.2750000000002 264.18700000000007 333.8270000000002 263.7980000000001 332.48300000000023 264.2680000000001 C 329.9480000000002 265.1550000000001 328.77800000000025 268.1400000000001 328.1450000000002 270.5100000000001 C 327.2750000000002 273.7660000000001 327.3270000000002 277.24200000000013 328.24500000000023 280.4820000000001 C 328.09500000000025 280.8230000000001 327.9400000000002 281.16300000000007 327.7940000000002 281.5060000000001 C 326.6530000000002 284.1790000000001 325.6380000000002 286.90600000000006 324.7390000000002 289.6690000000001 C 324.3630000000002 290.8250000000001 324.0170000000002 291.9900000000001 323.6840000000002 293.1590000000001 C 321.9680000000002 286.02100000000013 320.2440000000002 278.8850000000001 318.4940000000002 271.7560000000001 C 318.89900000000017 270.6180000000001 319.2110000000002 269.4410000000001 319.5700000000002 268.2910000000001 C 320.0560000000002 266.7340000000001 320.5560000000002 265.1800000000001 321.07200000000023 263.6320000000001 C 321.7600000000002 261.5670000000001 322.4930000000002 259.5170000000001 323.24500000000023 257.47500000000014 C 323.28800000000024 257.41900000000015 323.31700000000023 257.35500000000013 323.3180000000002 257.2790000000001 C 323.4170000000002 257.01100000000014 323.5180000000002 256.7430000000001 323.6180000000002 256.47500000000014 C 325.00400000000025 256.0380000000001 326.3560000000002 255.24200000000013 327.5560000000002 254.47100000000015 C 328.9270000000002 253.59000000000015 330.2080000000002 252.53300000000016 331.2260000000002 251.25300000000016 C 332.94400000000024 249.09200000000016 333.8510000000002 246.19900000000015 333.2750000000002 243.45800000000017 C 332.6540000000002 240.50400000000016 329.8600000000002 237.88200000000018 326.7160000000002 238.97100000000017 C 323.5910000000002 240.05300000000017 322.1390000000002 243.69600000000017 321.4890000000002 246.66900000000018 C 320.7140000000002 250.21600000000018 321.03600000000023 254.01800000000017 322.4320000000002 257.3710000000002 C 322.4600000000002 257.4390000000002 322.50000000000017 257.4930000000002 322.5450000000002 257.5350000000002 C 322.4680000000002 257.7440000000002 322.3860000000002 257.9500000000002 322.3100000000002 258.1590000000002 C 321.2040000000002 261.19900000000024 320.15700000000015 264.2620000000002 319.2060000000002 267.35300000000024 C 318.8740000000002 268.43200000000024 318.5140000000002 269.5220000000002 318.2180000000002 270.62400000000025 C 318.16600000000017 270.41200000000026 318.1150000000002 270.20100000000025 318.0630000000002 269.98900000000026 C 317.3880000000002 267.24600000000027 316.7170000000002 264.50300000000027 316.0340000000002 261.7620000000003 C 315.7410000000002 260.5880000000003 315.4570000000002 259.4110000000003 315.1540000000002 258.23900000000026 C 315.23500000000024 258.2600000000003 315.3280000000002 258.23900000000026 315.38900000000024 258.14300000000026 C 315.96100000000024 257.24500000000023 316.24900000000025 256.15700000000027 316.53000000000026 255.13500000000025 C 316.80700000000024 254.12700000000024 317.04800000000023 253.10900000000024 317.25200000000024 252.08300000000025 C 317.62400000000025 250.20500000000027 317.94600000000025 248.26200000000026 317.8610000000002 246.34100000000026 C 317.7870000000002 244.67300000000026 317.3510000000002 242.99600000000027 316.3280000000002 241.65100000000027 C 315.3520000000002 240.36800000000028 313.9950000000002 239.42400000000026 312.4610000000002 238.93300000000028 C 309.3530000000002 237.94000000000028 306.0040000000002 239.29400000000027 304.19000000000017 241.94300000000027 C 302.2980000000002 244.70700000000028 302.81100000000015 248.25400000000027 304.48600000000016 250.98500000000027 C 305.5330000000002 252.69100000000026 307.01300000000015 254.05100000000027 308.6630000000002 255.16200000000026 C 309.5980000000002 255.79200000000026 310.5860000000002 256.3390000000003 311.59400000000016 256.8440000000003 C 312.48200000000014 257.28900000000027 313.3840000000002 257.7330000000003 314.3170000000002 258.08000000000027 C 314.53400000000016 259.00800000000027 314.75800000000015 259.93400000000025 314.9710000000002 260.85500000000025 C 315.5430000000002 263.33400000000023 316.12100000000015 265.81200000000024 316.70000000000016 268.28900000000027 C 317.8580000000002 273.2430000000003 319.02700000000016 278.19400000000024 320.20200000000017 283.1440000000003 C 320.20300000000015 283.1460000000003 320.20300000000015 283.1480000000003 320.20300000000015 283.15000000000026 C 316.5260000000001 281.63400000000024 312.88600000000014 280.04200000000026 309.25800000000015 278.41800000000023 C 309.21800000000013 278.3610000000002 309.16700000000014 278.31600000000026 309.10600000000017 278.28300000000024 C 309.1050000000002 278.2550000000002 309.10100000000017 278.22700000000026 309.0880000000002 278.19800000000026 C 308.5230000000002 276.93700000000024 307.5550000000002 275.8490000000003 306.56500000000017 274.90000000000026 C 305.54400000000015 273.92200000000025 304.38800000000015 273.07600000000025 303.14900000000017 272.3940000000003 C 300.9820000000002 271.2020000000003 298.2040000000002 270.2200000000003 295.71400000000017 270.8320000000003 C 294.60200000000015 271.1050000000003 293.58900000000017 271.8020000000003 293.0710000000002 272.8410000000003 C 292.5430000000002 273.9010000000003 292.5500000000002 275.1580000000003 292.9150000000002 276.2680000000003 C 293.8260000000002 279.0420000000003 296.6990000000002 280.27200000000033 299.4010000000002 280.5760000000003 C 302.6550000000002 280.9430000000003 305.9960000000002 280.4520000000003 309.03400000000016 279.2420000000003 C 309.07700000000017 279.2250000000003 309.10600000000017 279.1970000000003 309.1410000000002 279.1730000000003 C 311.3850000000002 280.2040000000003 313.6400000000002 281.2130000000003 315.9080000000002 282.1940000000003 C 317.4120000000002 282.8450000000003 318.9220000000002 283.4830000000003 320.4350000000002 284.1130000000003 C 322.6960000000002 293.6310000000003 324.9820000000002 303.1440000000003 327.26300000000015 312.65700000000027 C 328.59400000000016 318.20600000000024 329.87300000000016 323.77000000000027 331.27900000000017 329.3000000000003 C 331.33300000000014 329.5140000000003 331.47700000000015 329.6140000000003 331.6360000000002 329.6410000000003 C 331.2830000000002 330.34900000000033 330.9350000000002 331.0600000000003 330.5930000000002 331.7750000000003 C 328.0620000000002 337.0660000000003 325.81500000000017 342.4850000000003 323.7860000000002 347.98600000000033 C 323.7230000000002 348.0200000000003 323.6600000000002 348.05300000000034 323.59700000000015 348.0880000000003 C 323.42200000000014 348.1840000000003 323.46000000000015 348.4190000000003 323.58800000000014 348.5240000000003 C 321.39700000000016 354.51500000000027 319.48400000000015 360.6070000000003 317.78900000000016 366.7560000000003 C 317.78900000000016 366.7560000000003 317.78900000000016 366.7560000000003 317.78900000000016 366.7560000000003 C 317.48200000000014 367.86800000000034 317.16900000000015 368.9790000000003 316.8770000000002 370.0950000000003 C 315.77700000000016 374.3040000000003 314.7870000000002 378.5390000000003 313.8690000000002 382.7900000000003 C 312.1160000000002 377.2760000000003 310.3760000000002 371.7670000000003 308.8810000000002 366.1740000000003 C 307.8260000000002 362.22600000000034 306.8660000000002 358.2520000000003 305.9840000000002 354.26200000000034 C 306.0530000000002 354.2150000000003 306.1130000000002 354.1520000000003 306.1460000000002 354.05700000000036 C 307.33200000000016 350.61000000000035 308.5350000000002 347.16700000000037 309.7160000000002 343.7170000000004 C 310.0310000000002 343.6370000000004 310.3290000000002 343.4410000000004 310.60900000000015 343.2940000000004 C 311.05800000000016 343.05700000000036 311.49800000000016 342.80200000000036 311.94100000000014 342.5530000000004 C 312.80300000000017 342.07100000000037 313.6560000000001 341.5740000000004 314.51300000000015 341.08300000000037 C 314.7450000000002 340.9500000000004 314.97700000000015 340.81700000000035 315.21000000000015 340.68400000000037 C 316.80600000000015 341.82400000000035 319.00300000000016 341.9380000000004 320.8120000000001 341.24700000000036 C 322.7620000000001 340.50200000000035 324.1990000000001 338.7940000000004 324.7360000000001 336.79200000000037 C 325.2100000000001 335.02600000000035 325.0180000000001 332.5240000000004 323.2760000000001 331.49000000000035 C 321.37100000000015 330.35800000000035 319.1370000000001 331.94900000000035 317.85000000000014 333.30200000000036 C 316.97700000000015 334.22000000000037 316.25800000000015 335.30200000000036 315.74900000000014 336.4620000000004 C 315.5050000000001 337.01800000000037 315.30200000000013 337.5970000000004 315.15000000000015 338.1850000000004 C 315.00600000000014 338.7400000000004 314.8480000000001 339.3660000000004 314.90300000000013 339.9480000000004 C 314.65700000000015 340.0890000000004 314.41200000000015 340.2310000000004 314.1660000000001 340.37200000000036 C 313.3110000000001 340.86500000000035 312.4520000000001 341.3520000000004 311.60000000000014 341.85100000000034 C 311.1870000000001 342.09300000000036 310.77100000000013 342.33200000000033 310.36100000000016 342.58100000000036 C 310.2590000000002 342.64300000000037 310.14900000000017 342.7050000000004 310.03900000000016 342.76900000000035 C 310.68200000000013 340.8830000000003 311.31900000000013 338.99500000000035 311.93600000000015 337.10100000000034 C 312.4590000000002 335.49700000000036 312.97000000000014 333.89100000000036 313.46900000000016 332.27900000000034 C 313.52900000000017 332.0850000000003 313.20200000000017 331.96200000000033 313.12800000000016 332.15600000000035 C 310.98400000000015 337.73200000000037 309.04000000000013 343.37900000000036 307.07000000000016 349.01800000000037 C 306.61100000000016 350.3320000000004 306.15200000000016 351.64600000000036 305.69300000000015 352.95900000000034 C 305.34000000000015 351.3230000000003 304.99800000000016 349.68400000000037 304.67400000000015 348.04200000000037 C 303.79200000000014 343.5730000000004 303.01300000000015 339.08400000000034 302.34200000000016 334.57900000000035 C 303.71900000000016 331.80900000000037 304.85200000000015 328.91000000000037 306.04700000000014 326.05900000000037 C 306.87800000000016 324.0750000000004 307.70500000000015 322.0900000000004 308.53200000000015 320.10500000000036 C 310.1680000000002 319.56700000000035 311.7570000000002 318.79500000000036 313.2330000000002 317.9120000000004 C 314.67400000000015 317.0510000000004 316.0420000000002 316.0200000000004 317.13700000000017 314.74000000000035 C 319.16700000000014 312.36500000000035 320.4590000000002 308.9120000000004 319.1360000000002 305.88500000000033 C 318.0360000000002 303.36800000000034 315.42800000000017 301.4940000000003 312.6140000000002 302.13500000000033 C 309.8130000000002 302.77200000000033 308.0390000000002 305.5400000000003 307.2590000000002 308.1160000000003 C 306.0780000000002 312.01400000000035 306.5250000000002 316.22400000000033 307.0360000000002 320.19500000000033 C 307.0600000000002 320.38400000000036 307.16400000000016 320.51000000000033 307.29400000000015 320.58900000000034 C 306.04700000000014 323.6310000000003 304.79700000000014 326.67100000000033 303.56900000000013 329.72100000000034 C 303.0860000000001 330.92000000000036 302.60400000000016 332.1140000000003 302.16000000000014 333.32500000000033 C 301.9830000000001 332.10100000000034 301.80800000000016 330.87700000000035 301.64800000000014 329.65100000000035 C 300.84300000000013 323.4960000000004 300.2260000000001 317.3180000000003 299.82100000000014 311.12400000000036 C 299.64700000000016 308.46100000000035 299.53000000000014 305.79700000000037 299.43300000000016 303.1330000000004 C 299.43600000000015 303.09300000000036 299.44100000000014 303.0530000000004 299.43600000000015 303.0130000000004 C 300.76700000000017 301.43700000000035 301.89900000000017 299.5770000000004 302.64800000000014 297.66000000000037 C 303.32300000000015 295.93500000000034 303.68800000000016 294.05700000000036 303.48400000000015 292.2030000000004 C 303.1200000000002 288.9000000000004 300.83200000000016 286.2550000000004 297.68400000000014 285.2510000000004 C 294.63500000000016 284.27800000000036 291.36900000000014 285.29000000000036 289.34500000000014 287.7550000000004 C 288.38000000000017 288.9310000000004 287.70200000000017 290.3680000000004 287.4950000000001 291.88100000000037 C 287.2720000000001 293.5080000000004 287.61200000000014 295.11200000000036 288.3490000000001 296.57100000000037 C 290.3520000000001 300.5370000000004 294.6320000000001 302.3560000000004 298.6850000000001 303.50600000000037 C 298.73700000000014 305.31200000000035 298.80200000000013 307.11700000000036 298.8890000000001 308.9210000000004 C 299.0700000000001 312.66700000000037 299.3440000000001 316.4110000000004 299.68600000000015 320.14800000000037 C 299.39500000000015 319.86200000000036 299.08500000000015 319.58900000000034 298.82000000000016 319.31900000000036 C 298.2660000000002 318.75500000000034 297.71000000000015 318.1930000000004 297.15400000000017 317.63000000000034 C 296.0430000000002 316.50500000000034 294.93300000000016 315.37900000000036 293.8220000000002 314.25400000000036 C 293.3190000000002 313.74500000000035 292.81100000000015 313.24200000000036 292.30600000000015 312.73500000000035 C 292.27700000000016 312.67900000000037 292.23900000000015 312.63100000000037 292.19100000000014 312.58900000000034 C 292.8890000000001 311.50200000000035 292.98100000000017 310.06400000000036 292.85200000000015 308.8060000000003 C 292.71700000000016 307.48600000000033 292.27900000000017 306.19000000000034 291.54900000000015 305.0780000000003 C 290.04600000000016 302.7880000000003 287.35000000000014 301.4970000000003 284.63500000000016 301.53400000000033 C 281.9130000000002 301.5710000000003 278.9230000000002 303.11700000000036 278.18900000000014 305.90900000000033 C 277.44600000000014 308.7320000000003 279.1990000000001 311.55500000000035 281.62600000000015 312.89200000000034 C 284.7690000000001 314.62400000000036 288.5550000000001 314.1960000000003 291.90500000000014 313.3690000000003 C 292.36600000000016 313.8550000000003 292.8220000000001 314.3450000000003 293.28500000000014 314.8290000000003 C 294.37800000000016 315.9730000000003 295.47200000000015 317.1170000000003 296.56600000000014 318.2610000000003 C 297.11300000000017 318.8330000000003 297.65900000000016 319.4060000000003 298.20700000000016 319.9760000000003 C 298.7110000000002 320.50100000000026 299.21200000000016 321.1660000000003 299.82000000000016 321.5720000000003 C 300.01300000000015 323.5640000000003 300.22000000000014 325.5550000000003 300.4560000000002 327.5420000000003 C 301.19000000000017 333.7200000000003 302.12500000000017 339.8770000000003 303.2760000000002 345.9910000000003 C 304.02200000000016 349.95200000000034 304.8620000000002 353.8950000000003 305.77700000000016 357.82000000000033 C 301.88700000000017 353.94200000000035 298.07000000000016 350.0080000000003 294.4010000000002 345.92600000000033 C 294.41400000000016 345.91300000000035 294.4320000000002 345.9070000000003 294.4420000000002 345.88900000000035 C 294.8940000000002 345.10700000000037 294.98600000000016 344.17300000000034 295.10400000000016 343.2890000000003 C 295.21800000000013 342.43700000000035 295.2930000000002 341.57400000000035 295.29500000000013 340.71400000000034 C 295.29900000000015 338.98800000000034 295.0480000000001 337.23000000000036 294.42000000000013 335.61500000000035 C 293.2980000000001 332.73000000000036 290.93900000000014 330.10000000000036 287.7980000000001 329.4770000000004 C 284.9810000000001 328.9190000000004 281.73700000000014 330.0080000000004 280.3110000000001 332.6140000000004 C 278.7090000000001 335.54000000000036 279.75900000000007 339.16700000000037 281.9310000000001 341.4810000000004 C 284.8910000000001 344.6350000000004 289.3190000000001 345.5510000000004 293.3950000000001 346.3060000000004 C 293.5400000000001 346.33300000000037 293.6580000000001 346.2990000000004 293.7580000000001 346.2390000000004 C 296.26400000000007 349.2070000000004 298.8630000000001 352.0970000000004 301.5410000000001 354.91700000000037 C 302.9640000000001 356.4160000000004 304.4170000000001 357.8920000000004 305.9110000000001 359.3200000000004 C 305.9880000000001 359.3940000000004 306.07100000000014 359.4250000000004 306.1540000000001 359.4390000000004 C 306.5320000000001 361.0160000000004 306.9210000000001 362.59000000000043 307.32600000000014 364.1600000000004 C 308.8800000000001 370.1890000000004 310.6010000000001 376.1920000000004 312.59700000000015 382.09000000000043 C 312.84500000000014 382.82200000000046 313.0980000000001 383.5520000000004 313.36100000000016 384.27900000000045 C 313.3940000000002 384.37000000000046 313.4470000000002 384.43200000000047 313.50800000000015 384.4820000000004 C 311.70500000000015 393.0500000000004 310.22400000000016 401.68600000000043 308.93400000000014 410.34400000000045 C 308.6920000000001 411.97100000000046 308.49800000000016 413.57400000000047 308.38100000000014 415.21400000000045 C 308.35200000000015 415.62700000000046 309.01000000000016 415.66400000000044 309.09400000000016 415.2730000000005 C 309.80300000000017 411.9510000000005 310.21200000000016 408.57200000000046 310.74400000000014 405.2170000000005 C 311.2880000000001 401.7870000000005 311.86600000000016 398.3630000000005 312.48600000000016 394.9460000000005 C 313.70200000000017 388.24700000000047 315.08200000000016 381.5760000000005 316.69100000000014 374.95900000000046 C 317.34400000000016 372.27400000000046 318.04100000000017 369.6000000000005 318.7760000000001 366.93500000000046 C 322.7620000000001 365.8790000000005 326.7110000000001 364.6790000000005 330.67700000000013 363.5520000000005 C 334.86700000000013 362.3620000000005 339.05700000000013 361.1740000000005 343.2550000000001 360.01400000000046 C 346.5070000000001 359.11500000000046 349.7650000000001 358.24100000000044 353.0240000000001 357.3670000000005 C 353.95600000000013 357.56700000000046 354.9490000000001 357.6280000000005 355.8720000000001 357.7410000000005 C 357.1030000000001 357.8930000000005 358.33300000000014 358.04500000000047 359.56400000000014 358.1970000000005 C 360.57500000000016 358.3220000000005 361.58700000000016 358.4440000000005 362.5980000000001 358.5680000000005 C 362.82800000000015 359.1200000000005 363.25800000000015 359.5540000000005 363.6540000000001 359.9950000000005 C 364.12900000000013 360.52300000000054 364.6180000000001 361.0370000000005 365.1140000000001 361.5440000000005 C 366.0880000000001 362.5400000000005 367.0870000000001 363.5080000000005 368.1160000000001 364.4470000000005 C 369.6160000000001 365.81400000000053 371.1670000000001 367.1260000000005 372.7620000000001 368.3800000000005 C 372.69600000000014 368.4810000000005 372.6850000000001 368.6070000000005 372.7190000000001 368.72500000000053 C 371.9130000000001 370.85200000000054 372.4000000000001 373.5620000000005 373.6250000000001 375.41700000000054 C 374.96300000000014 377.44300000000055 377.38600000000014 378.7640000000005 379.8350000000001 378.60400000000055 C 382.11500000000007 378.45500000000055 384.1610000000001 376.91500000000053 384.95400000000006 374.77200000000056 C 385.3520000000001 373.69600000000054 385.4150000000001 372.5070000000006 385.04600000000005 371.4130000000006 C 384.61000000000007 370.1200000000006 383.63400000000007 369.22900000000055 382.37100000000004 368.7560000000006 C 380.896 368.2040000000006 379.28000000000003 367.9850000000006 377.71600000000007 367.8790000000006 C 376.90600000000006 367.8240000000006 376.09400000000005 367.8160000000006 375.28400000000005 367.8550000000006 C 374.77500000000003 367.8790000000006 374.232 367.8940000000006 373.71700000000004 367.99300000000056 C 371.06100000000004 365.94300000000055 368.52400000000006 363.7420000000006 366.10800000000006 361.4010000000006 C 365.56100000000004 360.8710000000006 365.02600000000007 360.3290000000006 364.48600000000005 359.7930000000006 C 364.11000000000007 359.4200000000006 363.749 358.9920000000006 363.32800000000003 358.6560000000006 C 364.535 358.80300000000057 365.74300000000005 358.95200000000057 366.95000000000005 359.09900000000056 C 371.84700000000004 359.69500000000056 376.744 360.29000000000053 381.641 360.88300000000055 L 382.271 360.9590000000006 C 384.107 363.8260000000006 386.373 366.69300000000055 389.801 367.65200000000056 C 391.315 368.07500000000056 392.938 368.0140000000006 394.378 367.36300000000057 C 395.71 366.76000000000056 396.813 365.74800000000056 397.662 364.56800000000055 C 399.229 362.39100000000053 400.632 359.03000000000054 399.28499999999997 356.4300000000006 C 397.736 353.4410000000006 393.65999999999997 353.7560000000006 390.92999999999995 354.50000000000057 C 387.57099999999997 355.4150000000006 384.3949999999999 357.39000000000055 382.20599999999996 360.11400000000054 C 382.2 360.12100000000055 382.2 360.12900000000053 382.19399999999996 360.13700000000057 C 379.85499999999996 359.8570000000006 377.51699999999994 359.5760000000006 375.179 359.29600000000056 C 370.28 358.7090000000006 365.381 358.1220000000006 360.481 357.54600000000056 C 359.109 357.38500000000056 357.736 357.2230000000006 356.364 357.0620000000006 C 355.84099999999995 357.0010000000006 355.31699999999995 356.9440000000006 354.79299999999995 356.8880000000006 C 359.35999999999996 355.6720000000006 363.93199999999996 354.4750000000006 368.51199999999994 353.3100000000006 C 370.61699999999996 352.7740000000006 372.72499999999997 352.24500000000063 374.83299999999997 351.72000000000065 C 376.075 352.25700000000063 377.39099999999996 352.6710000000007 378.69599999999997 353.0000000000006 C 380.106 353.3560000000006 381.55999999999995 353.5890000000006 383.018 353.57100000000065 C 385.48299999999995 353.54000000000065 388.155 352.77300000000065 389.854 350.89000000000067 C 390.65799999999996 350.0000000000007 391.233 348.8480000000007 391.23699999999997 347.63100000000065 C 391.241 346.41200000000066 390.57099999999997 345.32500000000067 389.59499999999997 344.63200000000063 C 387.347 343.0340000000006 384.404 343.7700000000006 382.09799999999996 344.83600000000064 C 380.734 345.4670000000006 379.47599999999994 346.28500000000065 378.33199999999994 347.25900000000064 C 377.7629999999999 347.74400000000065 377.2319999999999 348.27500000000066 376.73999999999995 348.83800000000065 C 376.24299999999994 349.40700000000066 375.69499999999994 350.02300000000065 375.412 350.72800000000063 C 375.407 350.7410000000006 375.40799999999996 350.7530000000006 375.404 350.76600000000064 C 375.103 350.84100000000063 374.802 350.91700000000066 374.5 350.9930000000006 C 374.499 350.9930000000006 374.498 350.99200000000064 374.496 350.99200000000064 C 374.407 350.97100000000063 374.33299999999997 350.99900000000065 374.27599999999995 351.04900000000066 C 372.80999999999995 351.41500000000065 371.34399999999994 351.7810000000007 369.87999999999994 352.15200000000067 C 365.65799999999996 353.2230000000007 361.44199999999995 354.3150000000007 357.2319999999999 355.42900000000066 C 355.6259999999999 355.85400000000067 354.02199999999993 356.28300000000064 352.4169999999999 356.71300000000065 C 352.3599999999999 356.71600000000063 352.30299999999994 356.7140000000006 352.2459999999999 356.7190000000006 C 352.1739999999999 356.7260000000006 352.1269999999999 356.7580000000006 352.09399999999994 356.7990000000006 C 345.3929999999999 358.59600000000063 338.7029999999999 360.4400000000006 332.03999999999996 362.3710000000006 C 327.669 363.6370000000006 323.27799999999996 364.87000000000063 318.95399999999995 366.2940000000006 C 320.66099999999994 360.1650000000006 322.59099999999995 354.0980000000006 324.79699999999997 348.13200000000063 C 328.304 346.61700000000064 331.731 344.9230000000006 335.174 343.2670000000006 C 338.94 341.45600000000064 342.707 339.64600000000064 346.471 337.8330000000006 C 350.972 335.6640000000006 355.478 333.5040000000006 359.98 331.3370000000006 C 362.743 331.3880000000006 365.505 331.3880000000006 368.26800000000003 331.3670000000006 C 369.75600000000003 331.35600000000056 371.24300000000005 331.3450000000006 372.73100000000005 331.3340000000006 C 372.73400000000004 331.3340000000006 372.73600000000005 331.3340000000006 372.73900000000003 331.3340000000006 C 372.742 331.33900000000057 372.742 331.34400000000056 372.745 331.3500000000006 C 372.79200000000003 331.42800000000057 372.846 331.50000000000057 372.895 331.5760000000006 C 372.90799999999996 331.62500000000057 372.936 331.66600000000057 372.97499999999997 331.6960000000006 C 374.10299999999995 333.3900000000006 375.818 334.6670000000006 377.82399999999996 335.1090000000006 C 379.76199999999994 335.5370000000006 381.77899999999994 335.0660000000006 383.30499999999995 333.7900000000006 C 384.78799999999995 332.5500000000006 385.68799999999993 330.5520000000006 385.15199999999993 328.62500000000057 C 385.08899999999994 328.40000000000055 385.00299999999993 328.18300000000056 384.8999999999999 327.97700000000054 C 384.72399999999993 326.95600000000053 384.0779999999999 326.0980000000005 383.0899999999999 325.70000000000056 C 382.2279999999999 325.3530000000006 381.31499999999994 325.36800000000056 380.4369999999999 325.58100000000053 C 379.6289999999999 325.5670000000005 378.8149999999999 325.83100000000053 378.0829999999999 326.1780000000005 C 376.0559999999999 327.1400000000005 374.29599999999994 328.7510000000005 373.2399999999999 330.7380000000005 C 373.0609999999999 330.7400000000005 372.8819999999999 330.74200000000053 372.7029999999999 330.7430000000005 L 368.2399999999999 330.7870000000005 C 365.7599999999999 330.81200000000047 363.2809999999999 330.8580000000005 360.8029999999999 330.9360000000005 C 363.4729999999999 329.6500000000005 366.14499999999987 328.3660000000005 368.8079999999999 327.0660000000005 C 375.44799999999987 323.8250000000005 381.94299999999987 320.2510000000005 387.3319999999999 315.1210000000005 C 388.0689999999999 314.4190000000005 388.7769999999999 313.6910000000005 389.4739999999999 312.9530000000005 C 390.26799999999986 314.0820000000005 391.32099999999986 315.06700000000046 392.2759999999999 316.0510000000005 C 393.1449999999999 316.9470000000005 394.0159999999999 317.8410000000005 394.8879999999999 318.7350000000005 C 394.90399999999994 318.80400000000054 394.95199999999994 318.8660000000005 395.0419999999999 318.89300000000054 C 395.1819999999999 319.03700000000055 395.3219999999999 319.18100000000055 395.46199999999993 319.3240000000005 C 397.3159999999999 321.2190000000005 399.1689999999999 323.1150000000005 401.0249999999999 325.00800000000055 C 400.9749999999999 325.04400000000055 400.9369999999999 325.09700000000055 400.9319999999999 325.16200000000055 C 400.7819999999999 327.07600000000053 401.0079999999999 329.0910000000005 401.5549999999999 330.93600000000055 C 402.0749999999999 332.69100000000054 403.07299999999987 334.66200000000055 404.7789999999999 335.52400000000057 C 406.6249999999999 336.4560000000006 408.5579999999999 335.27200000000056 409.2589999999999 333.4750000000006 C 409.9929999999999 331.5950000000006 409.4699999999999 329.4900000000006 408.2299999999999 327.9550000000006 C 406.6339999999999 325.9810000000006 404.2009999999999 325.0800000000006 401.8019999999999 324.5100000000006 C 400.11099999999993 322.7870000000006 398.4219999999999 321.0630000000006 396.7279999999999 319.3440000000006 C 399.1959999999999 319.9820000000006 401.69299999999987 320.5000000000006 404.1859999999999 321.0370000000006 C 405.3549999999999 321.2890000000006 406.5259999999999 321.5370000000006 407.69499999999994 321.7880000000006 C 407.69899999999996 321.8430000000006 407.7149999999999 321.8980000000006 407.75699999999995 321.9480000000006 C 409.51899999999995 324.0700000000006 411.7339999999999 325.7230000000006 414.2169999999999 326.9150000000006 C 415.44499999999994 327.50500000000056 416.73099999999994 327.9820000000006 418.0469999999999 328.3330000000006 C 419.1749999999999 328.6340000000006 420.4779999999999 328.9280000000006 421.53399999999993 328.2510000000006 C 423.53599999999994 326.9680000000006 423.27899999999994 324.0380000000006 422.19499999999994 322.2590000000006 C 420.83399999999995 320.0250000000006 418.37499999999994 318.9970000000006 415.84799999999996 318.7880000000006 C 413.31299999999993 318.5780000000006 410.157 318.86600000000055 408.54599999999994 321.0930000000006 C 405.8279999999999 320.52200000000056 403.10999999999996 319.9460000000006 400.38899999999995 319.3880000000006 C 398.92799999999994 319.0880000000006 397.46599999999995 318.8260000000006 395.99399999999997 318.6000000000006 C 395.10799999999995 317.70200000000057 394.22499999999997 316.8010000000006 393.33599999999996 315.9050000000006 C 392.29699999999997 314.8570000000006 391.275 313.6980000000006 390.102 312.7810000000006 C 390.198 312.7160000000006 390.294 312.65200000000056 390.39099999999996 312.58700000000056 C 391.448 312.77800000000053 392.55699999999996 312.78600000000057 393.623 312.84700000000055 C 394.808 312.91500000000053 395.992 312.98100000000056 397.17699999999996 313.04200000000054 C 399.602 313.16700000000054 402.027 313.2930000000005 404.45199999999994 313.4130000000005 C 407.55799999999994 313.5670000000005 410.66299999999995 313.7210000000005 413.76899999999995 313.8750000000005 C 414.5919999999999 314.4540000000005 415.35599999999994 315.1090000000005 416.16499999999996 315.70800000000054 C 416.95099999999996 316.29000000000053 417.741 316.86700000000053 418.554 317.4110000000005 C 420.106 318.4490000000005 421.736 319.3540000000005 423.52099999999996 319.9230000000005 C 426.63599999999997 320.91500000000053 430.21999999999997 320.62900000000053 432.62199999999996 318.2170000000005 C 433.693 317.144 434.349 315.707 434.371 314.18 z" stroke-linecap="round" />
</g>
</svg>