<?xml version="1.0" encoding="UTF-8" standalone="no" ?>
<!DOCTYPE svg PUBLIC "-//W3C//DTD SVG 1.1//EN" "http://www.w3.org/Graphics/SVG/1.1/DTD/svg11.dtd">
<svg xmlns="http://www.w3.org/2000/svg" xmlns:xlink="http://www.w3.org/1999/xlink" version="1.1" width="150" height="100" viewBox="0 10.71 150 100" xml:space="preserve">
<desc>Created with Fabric.js 5.2.4</desc>
<defs>
</defs>
<rect x="0" y="0" width="100%" height="100%" fill="transparent"></rect>
<g transform="matrix(Infinity NaN NaN Infinity 0 0)" id="dbb4e705-56be-4df9-91b2-46cd2014175f"  >
</g>
<g transform="matrix(1 0 0 1 75 50)" id="fc811ae7-94a6-4813-a672-5562730f3949"  >
<rect style="stroke: none; stroke-width: 1; stroke-dasharray: none; stroke-linecap: butt; stroke-dashoffset: 0; stroke-linejoin: miter; stroke-miterlimit: 4; fill: rgb(255,255,255); fill-rule: nonzero; opacity: 1; visibility: hidden;" vector-effect="non-scaling-stroke"  x="-75" y="-50" rx="0" ry="0" width="150" height="100" />
</g>
<g transform="matrix(0.94 0 0 0.83 75 61.09)" id="2a835909-5cf4-454f-b705-872167f9443e"  >
<path style="stroke: rgb(0,0,0); stroke-width: 0; stroke-dasharray: none; stroke-linecap: butt; stroke-dashoffset: 0; stroke-linejoin: miter; stroke-miterlimit: 4; fill: rgb(77,76,81); fill-rule: nonzero; opacity: 1;" vector-effect="non-scaling-stroke"  transform=" translate(-227.64, -429.97)" d="M 272.1 407.949 C 272.261 408.081 272.483 408.115 272.67 407.916 C 272.671 407.915 272.672 407.914 272.673 407.913 C 273.948 408.064 275.33 407.89500000000004 276.558 407.765 C 278.241 407.587 279.908 407.24899999999997 281.53499999999997 406.78299999999996 C 284.748 405.86199999999997 287.78999999999996 404.431 290.54799999999994 402.54299999999995 C 292.13199999999995 401.45899999999995 293.59899999999993 400.21999999999997 294.94199999999995 398.84899999999993 C 295.18899999999996 398.5969999999999 295.0919999999999 398.1119999999999 294.691 398.0949999999999 C 288.14 397.8279999999999 281.66799999999995 399.75299999999993 276.294 403.5039999999999 C 275.911 403.7709999999999 275.53499999999997 404.0479999999999 275.166 404.3339999999999 C 275.856 403.4859999999999 276.536 402.6309999999999 277.19599999999997 401.7619999999999 C 277.89899999999994 400.8369999999999 278.59599999999995 399.90699999999987 279.28299999999996 398.9709999999999 C 279.674 398.4379999999999 278.852 397.8929999999999 278.44599999999997 398.39499999999987 C 274.13199999999995 403.72699999999986 269.647 408.9089999999999 264.916 413.8659999999999 C 269.426 406.9159999999999 272.836 398.62099999999987 271.173 390.2789999999999 C 270.777 388.2909999999999 270.11 386.16699999999986 268.978 384.44099999999986 C 268.97 384.3199999999999 268.967 384.1999999999999 268.958 384.07899999999984 C 268.942 383.84299999999985 268.656 383.7339999999998 268.451 383.80699999999985 C 268.21500000000003 383.74899999999985 267.932 384.00799999999987 268.064 384.27399999999983 C 268.07 384.2869999999998 268.076 384.2989999999998 268.082 384.31199999999984 C 263.779 391.98899999999986 261.332 400.53699999999986 261.262 409.36699999999985 C 261.244 411.68599999999986 261.378 414.00199999999984 261.664 416.3029999999998 C 261.39799999999997 416.8659999999998 261.135 417.4309999999998 260.875 417.9979999999998 C 260.539 418.3279999999998 260.208 418.66299999999984 259.87 418.9909999999998 C 257.511 421.2769999999998 255.074 423.4809999999998 252.601 425.6429999999998 C 253.154 424.7449999999998 253.669 423.8229999999998 254.138 422.8789999999998 C 255.201 420.7359999999998 256.003 418.4719999999998 256.524 416.1369999999998 C 257.519 411.6729999999998 257.508 406.9939999999998 256.48 402.53699999999975 C 256.01500000000004 400.52099999999973 255.366 398.47899999999976 254.38000000000002 396.6439999999998 C 254.31900000000002 396.2999999999998 254.26500000000001 395.95499999999976 254.19600000000003 395.61099999999976 C 254.10200000000003 395.1389999999998 253.40900000000002 395.08199999999977 253.25400000000002 395.5449999999998 C 250.37900000000002 404.1339999999998 248.00300000000001 412.8819999999998 247.87600000000003 422.0009999999998 C 247.84200000000004 424.4299999999998 247.95600000000005 426.8839999999998 248.31000000000003 429.2899999999998 C 245.86900000000003 431.3059999999998 243.39500000000004 433.2829999999998 240.86400000000003 435.1849999999998 C 243.66100000000003 428.62999999999977 245.14600000000004 421.5499999999998 245.26300000000003 414.41899999999976 C 245.30000000000004 412.1609999999998 245.19100000000003 409.89799999999974 244.97300000000004 407.6509999999998 C 244.92800000000005 407.1839999999998 244.27500000000003 407.1209999999998 244.03400000000005 407.45699999999977 C 239.29300000000006 414.0519999999998 238.25600000000006 422.42399999999975 238.20900000000006 430.3339999999998 C 238.19600000000005 432.56999999999977 238.20300000000006 434.8289999999998 238.36000000000007 437.0619999999998 C 235.93900000000008 438.8229999999998 233.46500000000006 440.5059999999998 230.96500000000006 442.1489999999998 C 231.02700000000007 441.91399999999976 231.07400000000007 441.6729999999998 231.10700000000006 441.42599999999976 C 231.51000000000005 440.6729999999998 231.88700000000006 439.9059999999998 232.22800000000007 439.1369999999998 C 233.08000000000007 437.21499999999975 233.75100000000006 435.2159999999998 234.24000000000007 433.17099999999976 C 235.19700000000006 429.1679999999998 235.49200000000008 425.09699999999975 234.98900000000006 421.0069999999998 C 234.94700000000006 420.6679999999998 234.42900000000006 420.5599999999998 234.25500000000005 420.8549999999998 C 230.49500000000006 427.2249999999998 228.97900000000004 434.7809999999998 229.94000000000005 442.1079999999998 C 229.73300000000006 442.4819999999998 229.52800000000005 442.8579999999998 229.32300000000006 443.2329999999998 C 225.88500000000008 445.4469999999998 222.38400000000007 447.56299999999976 218.82400000000007 449.57699999999977 C 219.22300000000007 449.17799999999977 219.60500000000008 448.7609999999998 219.97900000000007 448.34699999999975 C 220.75700000000006 447.48499999999973 221.48500000000007 446.57999999999976 222.16200000000006 445.63599999999974 C 223.55700000000007 443.69299999999976 224.72700000000006 441.59899999999976 225.70000000000007 439.41499999999974 C 227.66000000000008 435.0189999999997 228.70500000000007 430.20299999999975 228.73800000000008 425.38999999999976 C 228.75600000000009 422.69799999999975 228.45000000000007 420.0089999999998 227.8110000000001 417.3939999999998 C 227.63600000000008 416.67599999999976 226.5430000000001 416.87099999999975 226.6340000000001 417.5469999999998 C 220.9880000000001 424.9099999999998 217.3740000000001 433.6379999999998 216.3460000000001 442.8759999999998 C 216.0540000000001 445.4989999999998 215.98200000000008 448.1409999999998 216.1220000000001 450.7769999999998 C 216.1280000000001 450.8899999999998 216.1570000000001 450.9839999999998 216.1990000000001 451.0649999999998 C 215.9280000000001 451.21299999999985 215.6630000000001 451.37199999999984 215.3920000000001 451.51899999999983 C 212.1160000000001 453.2939999999998 208.77600000000012 454.95899999999983 205.40500000000011 456.5559999999998 C 206.2850000000001 455.2969999999998 207.0590000000001 453.94699999999983 207.7720000000001 452.6209999999998 C 208.9280000000001 450.4719999999998 209.9450000000001 448.2489999999998 210.7960000000001 445.9609999999998 C 212.4800000000001 441.4339999999998 213.5630000000001 436.6729999999998 213.9990000000001 431.8629999999998 C 214.2490000000001 429.10199999999975 214.2640000000001 426.33699999999976 214.07200000000012 423.5719999999998 C 214.04200000000012 423.13999999999976 213.40100000000012 423.0619999999998 213.18700000000013 423.3889999999998 C 208.00900000000013 431.2659999999998 204.57200000000012 440.1859999999998 203.27700000000013 449.5329999999998 C 202.90800000000013 452.1929999999998 202.76900000000012 454.8529999999998 202.62100000000012 457.5319999999998 C 202.61400000000012 457.65599999999984 202.65100000000012 457.7529999999998 202.7020000000001 457.8379999999998 C 199.83400000000012 459.1459999999998 196.92500000000013 460.3599999999998 193.9990000000001 461.5279999999998 C 196.3750000000001 457.5809999999998 198.22100000000012 453.28399999999976 199.6530000000001 448.9209999999998 C 201.2710000000001 443.98799999999983 202.3320000000001 438.8679999999998 202.8020000000001 433.6979999999998 C 202.97700000000012 431.77399999999983 203.0580000000001 429.8449999999998 203.06000000000012 427.9149999999998 C 202.9680000000001 427.7289999999998 202.87700000000012 427.5519999999998 202.78900000000013 427.4179999999998 C 202.70200000000014 427.2849999999998 202.60800000000012 427.15699999999975 202.50500000000014 427.0359999999998 C 202.45500000000013 426.97699999999975 202.40300000000013 426.91899999999976 202.34900000000013 426.86399999999975 C 202.32700000000014 426.8409999999997 202.32700000000014 426.8409999999997 202.31900000000013 426.83099999999973 C 202.31000000000014 426.82499999999976 202.30600000000013 426.82299999999975 202.27500000000012 426.7959999999997 C 202.1600000000001 426.6989999999997 202.03800000000012 426.61699999999973 201.9160000000001 426.5289999999997 C 201.8910000000001 426.51099999999974 201.88800000000012 426.5069999999997 201.88300000000012 426.5019999999997 C 201.87400000000014 426.4979999999997 201.87100000000012 426.4979999999997 201.84600000000012 426.4859999999997 C 201.7910000000001 426.4599999999997 201.7360000000001 426.4329999999997 201.68000000000012 426.40799999999973 C 201.58000000000013 426.3649999999997 201.4880000000001 426.3339999999997 201.39700000000013 426.30399999999975 C 201.39200000000014 426.3509999999998 201.38700000000014 426.3989999999998 201.38300000000012 426.44599999999974 C 197.18300000000013 435.18799999999976 194.28100000000012 444.47399999999976 192.92300000000012 454.0959999999997 C 192.54300000000012 456.7859999999997 192.28800000000012 459.4949999999997 192.1290000000001 462.20799999999974 C 191.9200000000001 462.27899999999977 191.7120000000001 462.35399999999976 191.5090000000001 462.44099999999975 C 191.4580000000001 462.46299999999974 191.4200000000001 462.49199999999973 191.3860000000001 462.52199999999976 C 191.1890000000001 462.4609999999998 191.0440000000001 462.57999999999976 190.9980000000001 462.73099999999977 C 190.7360000000001 462.8309999999998 190.47700000000012 462.94299999999976 190.21500000000012 463.04199999999975 C 187.02100000000013 464.24599999999975 183.78600000000012 465.32699999999977 180.5340000000001 466.34999999999974 C 181.3390000000001 465.5379999999997 182.04800000000012 464.5739999999997 182.7020000000001 463.71699999999976 C 183.79800000000012 462.27999999999975 184.80400000000012 460.7739999999998 185.7120000000001 459.21199999999976 C 187.5050000000001 456.13099999999974 188.8320000000001 452.8579999999998 189.8450000000001 449.44599999999974 C 189.96000000000012 449.05699999999973 189.52600000000012 448.77299999999974 189.2080000000001 449.01099999999974 C 183.5090000000001 453.2879999999997 179.6460000000001 459.77899999999977 178.42300000000012 466.78299999999973 C 178.41100000000012 466.8509999999997 178.42000000000013 466.90699999999975 178.43000000000012 466.96299999999974 C 178.4100000000001 466.98899999999975 178.38200000000012 467.00999999999976 178.3690000000001 467.0409999999997 C 173.5220000000001 468.5099999999997 168.6240000000001 469.80699999999973 163.67300000000012 470.90299999999974 C 162.5690000000001 471.14799999999974 161.47100000000012 471.4229999999997 160.3670000000001 471.6749999999997 C 160.0920000000001 471.7379999999997 160.17300000000012 472.14999999999975 160.4520000000001 472.1039999999997 C 166.54400000000012 471.1099999999997 172.5800000000001 469.6189999999997 178.5220000000001 467.8519999999997 C 186.8010000000001 472.7139999999997 196.47100000000012 475.4019999999997 206.01900000000012 476.0409999999997 C 208.82400000000013 476.2289999999997 211.60300000000012 476.15299999999974 214.4090000000001 476.0599999999997 C 214.8310000000001 476.0459999999997 215.1250000000001 475.47999999999973 214.70300000000012 475.2139999999997 C 210.58000000000013 472.6179999999997 205.9570000000001 470.7139999999997 201.30000000000013 469.3179999999997 C 196.64800000000014 467.9239999999997 191.83100000000013 467.0589999999997 186.98400000000012 466.7599999999997 C 185.45700000000014 466.6659999999997 183.9280000000001 466.6369999999997 182.40000000000012 466.6569999999997 C 184.05000000000013 466.1309999999997 185.69400000000013 465.5929999999997 187.3260000000001 465.0339999999997 C 188.86400000000012 464.5079999999997 190.39300000000011 463.95599999999973 191.9160000000001 463.3899999999997 C 201.6770000000001 467.1669999999997 212.2580000000001 468.9039999999997 222.69900000000013 469.0039999999997 C 225.71300000000014 469.0329999999997 228.72700000000012 468.9119999999997 231.73000000000013 468.65899999999965 C 232.17100000000013 468.6219999999997 232.31200000000013 467.91699999999963 231.92800000000014 467.70399999999967 C 222.38400000000013 462.41099999999966 211.40800000000013 460.0299999999997 200.52800000000013 460.84399999999965 C 199.56500000000014 460.91599999999966 198.60600000000014 461.0229999999996 197.64800000000014 461.1459999999997 C 199.58400000000015 460.3549999999997 201.51300000000015 459.54299999999967 203.42300000000014 458.69199999999967 C 203.51700000000014 458.74999999999966 203.63400000000016 458.75199999999967 203.74100000000016 458.6409999999997 C 203.78200000000015 458.5979999999997 203.81700000000015 458.54799999999966 203.85800000000015 458.5039999999997 C 205.64800000000014 457.7009999999997 207.42700000000013 456.8719999999997 209.19300000000015 456.01699999999965 C 209.21900000000016 456.10799999999966 209.28100000000015 456.19099999999963 209.39900000000014 456.23599999999965 C 214.02900000000014 458.01499999999965 218.96300000000014 459.02699999999965 223.87900000000013 459.62099999999964 C 228.81500000000014 460.2179999999996 233.80700000000013 460.30999999999966 238.76300000000015 459.90199999999965 C 241.50800000000015 459.67599999999965 244.23700000000014 459.28899999999965 246.93900000000014 458.75599999999963 C 247.43900000000014 458.86099999999965 247.86000000000013 458.13999999999965 247.34900000000013 457.84199999999964 C 239.01400000000012 452.9749999999996 229.13800000000015 450.82799999999963 219.53600000000014 451.98099999999965 C 218.35100000000014 452.12299999999965 217.17500000000015 452.32499999999965 216.00700000000015 452.56699999999967 C 218.18500000000014 451.40199999999965 220.33600000000015 450.1909999999997 222.46900000000014 448.94499999999965 C 225.13300000000012 450.37099999999964 228.26500000000013 451.09899999999965 231.19600000000014 451.6939999999997 C 234.37300000000013 452.33899999999966 237.61000000000013 452.68299999999965 240.85200000000015 452.7109999999997 C 241.63400000000016 452.7179999999997 242.41600000000014 452.7059999999997 243.19700000000014 452.67599999999965 C 243.79800000000014 452.6529999999996 244.68500000000014 452.77399999999966 245.21200000000013 452.43699999999967 C 246.55300000000014 451.57999999999964 243.91400000000013 450.64199999999965 243.42700000000013 450.4359999999997 C 240.48600000000013 449.1859999999997 237.40600000000015 448.2809999999997 234.26100000000014 447.7189999999997 C 231.38800000000015 447.2049999999997 228.47400000000013 447.0149999999997 225.56200000000013 447.0989999999997 C 227.13300000000012 446.1419999999997 228.6960000000001 445.1719999999997 230.24000000000012 444.1719999999997 C 235.18000000000012 445.4909999999997 240.38500000000013 446.0249999999997 245.4760000000001 446.2029999999997 C 250.9450000000001 446.39399999999966 256.4370000000001 446.0729999999997 261.84500000000014 445.2409999999997 C 264.9010000000001 444.7709999999997 267.92800000000017 444.1309999999997 270.91500000000013 443.3349999999997 C 271.4210000000001 443.1999999999997 271.51300000000015 442.4839999999997 270.9880000000001 442.2929999999997 C 260.70100000000014 438.5669999999997 249.3620000000001 437.8769999999997 238.6880000000001 440.2699999999997 C 237.2260000000001 440.5979999999997 235.7770000000001 440.9849999999997 234.3430000000001 441.4239999999997 C 235.14900000000011 440.8739999999997 235.9660000000001 440.3419999999997 236.7640000000001 439.7809999999997 C 237.62500000000009 439.1749999999997 238.4720000000001 438.5489999999997 239.3230000000001 437.9299999999997 C 239.49400000000009 437.8939999999997 239.6500000000001 437.79499999999973 239.75500000000008 437.6179999999997 C 240.8530000000001 436.81399999999974 241.93100000000007 435.9859999999997 243.01200000000009 435.1589999999997 C 250.4230000000001 437.3459999999997 258.7010000000001 437.0499999999997 266.13400000000007 435.1479999999997 C 267.1860000000001 434.8789999999997 268.2270000000001 434.57199999999966 269.2560000000001 434.22599999999966 C 269.8130000000001 434.03799999999967 270.4380000000001 433.8599999999997 271.0250000000001 433.61999999999966 C 271.1710000000001 433.61299999999966 271.3190000000001 433.6139999999997 271.4640000000001 433.59899999999965 C 271.6880000000001 433.57499999999965 271.8060000000001 433.44299999999964 271.8400000000001 433.28399999999965 C 272.0080000000001 433.26699999999965 272.1300000000001 433.14399999999966 272.16800000000006 432.9869999999996 C 272.20500000000004 432.95799999999963 272.2510000000001 432.93799999999965 272.2870000000001 432.9059999999996 C 272.4630000000001 432.75099999999964 272.3860000000001 432.36899999999963 272.1130000000001 432.3839999999996 C 271.9880000000001 432.3909999999996 271.86700000000013 432.4199999999996 271.7440000000001 432.4399999999996 C 264.8020000000001 429.7629999999996 256.9530000000001 429.4489999999996 249.75000000000009 431.2259999999996 C 248.8170000000001 431.4559999999996 247.89600000000007 431.7279999999996 246.9840000000001 432.0299999999996 C 247.6110000000001 431.52799999999957 248.25000000000009 431.0409999999996 248.8710000000001 430.5299999999996 C 248.9120000000001 430.5099999999996 248.9480000000001 430.47999999999956 248.9810000000001 430.4399999999996 C 250.3080000000001 429.3459999999996 251.6250000000001 428.2399999999996 252.92300000000012 427.1099999999996 C 256.91000000000014 427.64299999999963 261.06400000000014 427.37599999999964 265.0380000000001 426.8669999999996 C 269.18200000000013 426.3359999999996 273.2620000000001 425.35699999999963 277.2020000000001 423.9679999999996 C 279.4380000000001 423.1799999999996 281.6190000000001 422.23399999999964 283.7390000000001 421.1719999999996 C 284.1380000000001 420.97199999999964 283.9790000000001 420.44299999999964 283.5840000000001 420.3769999999996 C 283.5020000000001 420.3629999999996 283.4190000000001 420.35699999999963 283.3360000000001 420.3439999999996 C 281.7860000000001 419.53499999999957 279.96300000000014 419.0779999999996 278.27100000000013 418.7339999999996 C 276.33300000000014 418.3399999999996 274.3580000000001 418.1539999999996 272.38100000000014 418.17699999999957 C 268.53900000000016 418.22099999999955 264.7210000000001 419.03099999999955 261.20600000000013 420.58799999999957 C 260.35200000000015 420.96599999999955 259.5260000000001 421.39899999999955 258.7160000000001 421.86299999999954 C 260.3460000000001 420.32499999999953 261.9500000000001 418.75899999999956 263.5270000000001 417.16599999999954 C 263.6060000000001 417.14899999999955 263.6860000000001 417.1139999999995 263.7620000000001 417.05599999999953 C 263.8200000000001 417.01199999999955 263.8820000000001 416.9749999999995 263.9410000000001 416.93099999999953 C 271.2080000000001 415.8479999999995 278.5390000000001 414.38899999999956 285.3440000000001 411.56699999999955 C 287.37900000000013 410.72299999999956 289.3570000000001 409.75399999999956 291.2520000000001 408.62999999999954 C 291.6560000000001 408.39099999999956 291.6080000000001 407.6859999999995 291.0650000000001 407.67099999999954 C 283.3000000000001 407.46199999999953 275.5440000000001 409.1789999999995 268.64600000000013 412.76899999999955 C 267.9810000000001 413.11499999999955 267.33300000000014 413.49499999999955 266.6830000000001 413.8689999999996 C 267.1680000000001 413.35499999999956 267.67000000000013 412.8569999999996 268.1490000000001 412.33799999999957 C 269.481 410.896 270.801 409.432 272.1 407.949 z M 277.248 406.819 C 276.304 406.96000000000004 275.355 407.065 274.402 407.11400000000003 C 274.36 407.11600000000004 274.318 407.11600000000004 274.277 407.11800000000005 C 277.181 406.13300000000004 280.061 405.08000000000004 282.894 403.90200000000004 C 284.681 403.16 286.461 402.398 288.212 401.57300000000004 C 289.122 401.14400000000006 290.027 400.70500000000004 290.929 400.25800000000004 C 291.72099999999995 399.86500000000007 292.57399999999996 399.369 293.429 399.07300000000004 C 288.949 403.199 283.278 405.918 277.248 406.819 z M 292.26 398.953 C 291.73199999999997 399.23699999999997 291.179 399.488 290.675 399.73499999999996 C 289.841 400.143 289.00100000000003 400.54099999999994 288.159 400.931 C 286.404 401.745 284.643 402.54699999999997 282.86 403.299 C 279.922 404.539 276.93 405.652 273.916 406.698 C 278.875 402.046 285.461 399.223 292.26 398.953 z M 223.191 439.526 C 224.847 435.10900000000004 226.025 430.50600000000003 226.739 425.844 C 226.996 424.168 227.179 422.481 227.302 420.79 C 228.602 428.981 226.668 437.594 222.016 444.483 C 221.295 445.551 220.51 446.575 219.672 447.555 C 219.633 447.601 219.589 447.642 219.549 447.687 C 220.976 445.057 222.162 442.271 223.191 439.526 z M 184.942 458.685 C 184.089 460.151 183.15 461.568 182.132 462.925 C 181.626 463.599 181.095 464.253 180.56 464.903 C 180.85 464.166 181.15800000000002 463.43800000000005 181.482 462.71500000000003 C 182.175 461.168 182.937 459.653 183.763 458.17300000000006 C 185.171 455.65100000000007 186.784 453.24700000000007 188.499 450.92400000000004 C 187.572 453.618 186.37 456.231 184.942 458.685 z M 179.936 464.762 C 181.043 459.889 183.548 455.42 187.092 451.913 C 185.637 453.855 184.32600000000002 455.901 183.14700000000002 458.027 C 182.354 459.457 181.62000000000003 460.919 180.94700000000003 462.409 C 180.61600000000004 463.142 180.30100000000004 463.881 179.99600000000004 464.625 C 179.978 464.669 179.955 464.717 179.936 464.762 z M 206.875 472.45 C 208.058 472.937 209.214 473.476 210.361 474.03499999999997 C 206.903 472.99399999999997 203.46099999999998 471.90999999999997 199.956 471.02 C 195.565 469.905 191.096 469.05899999999997 186.629 468.31 C 185.30599999999998 468.088 183.98 467.89 182.653 467.71 C 190.942 467.667 199.202 469.293 206.875 472.45 z M 205.453 473.487 C 207.322 474.048 209.189 474.627 211.02100000000002 475.29900000000004 C 207.30200000000002 475.37500000000006 203.53300000000002 475.04800000000006 199.90400000000002 474.466 C 195.17100000000002 473.707 190.52300000000002 472.416 186.074 470.635 C 184.049 469.824 182.072 468.89799999999997 180.125 467.912 C 188.701 469.163 197.144 470.995 205.453 473.487 z M 201.304 434.389 C 201.674 432.115 201.969 429.83 202.211 427.539 C 202.192 436.905 200.293 446.22499999999997 196.52100000000002 454.811 C 195.983 456.036 195.40200000000002 457.238 194.79500000000002 458.42699999999996 C 197.785 450.667 199.968 442.594 201.304 434.389 z M 199.35 433.031 C 199.911 431.608 200.517 430.20300000000003 201.14499999999998 428.808 C 200.19299999999998 437.65999999999997 198.32099999999997 446.39799999999997 195.48999999999998 454.846 C 194.76999999999998 456.995 193.969 459.117 193.13299999999998 461.224 C 193.683 451.574 195.807 442.023 199.35 433.031 z M 239.552 455.164 C 240.281 455.437 240.999 455.736 241.70999999999998 456.048 C 234.12499999999997 453.984 226.21099999999998 453.197 218.361 453.776 C 216.355 453.92400000000004 214.35199999999998 454.164 212.361 454.467 C 212.575 454.359 212.79299999999998 454.26099999999997 213.00699999999998 454.152 C 213.36999999999998 453.966 213.72699999999998 453.768 214.08899999999997 453.58 C 222.494 451.608 231.458 452.132 239.552 455.164 z M 243.291 451.923 C 242.135 451.945 240.657 451.918 240.432 451.914 C 237.539 451.864 234.64999999999998 451.565 231.808 451.022 C 230.153 450.706 228.51399999999998 450.301 226.9 449.817 C 225.616 449.432 224.357 448.976 223.073 448.597 C 223.175 448.537 223.276 448.47499999999997 223.37800000000001 448.414 C 224.888 448.768 226.429 448.995 227.95600000000002 449.256 C 229.78900000000002 449.56899999999996 231.622 449.88199999999995 233.455 450.19599999999997 C 236.737 450.755 240.015 451.337 243.291 451.923 z M 240.795 450.267 C 241.393 450.479 241.98499999999999 450.70799999999997 242.57299999999998 450.947 C 239.58899999999997 450.474 236.605 450 233.62499999999997 449.505 C 231.83199999999997 449.207 230.03899999999996 448.90999999999997 228.24599999999998 448.612 C 226.909 448.39000000000004 225.57099999999997 448.132 224.225 447.958 C 229.833 447.608 235.498 448.391 240.795 450.267 z M 233.551 423.938 C 232.78699999999998 426.751 232.213 429.601 231.694 432.474 C 231.399 434.103 231.11999999999998 435.735 230.85899999999998 437.37 C 230.74899999999997 438.063 230.64399999999998 438.75600000000003 230.539 439.449 C 230.22 434.118 231.263 428.762 233.551 423.938 z M 231.347 439.411 C 231.425 438.829 231.502 438.246 231.583 437.664 C 231.82 435.986 232.074 434.311 232.35 432.639 C 232.87199999999999 429.474 233.472 426.326 233.939 423.153 C 234.066 422.903 234.178 422.646 234.31199999999998 422.399 C 234.617 425.988 234.38899999999998 429.67 233.539 433.162 C 233.076 435.061 232.452 436.91999999999996 231.67299999999997 438.712 C 231.571 438.949 231.458 439.18 231.347 439.411 z M 266.679 434.019 C 264.80199999999996 434.533 262.893 434.93 260.967 435.21 C 257.118 435.768 253.20399999999998 435.84499999999997 249.33599999999998 435.443 C 247.463 435.24899999999997 245.59699999999998 434.94599999999997 243.74399999999997 434.603 C 243.86599999999999 434.509 243.98399999999998 434.41200000000003 244.10399999999998 434.317 C 248.55599999999998 433.926 253.01899999999998 433.628 257.486 433.496 C 259.813 433.428 262.144 433.394 264.471 433.423 C 265.635 433.437 266.799 433.462 267.963 433.5 C 268.07800000000003 433.504 268.196 433.513 268.31300000000005 433.519 C 267.768 433.689 267.228 433.869 266.679 434.019 z M 265.639 431.634 C 266.872 431.863 268.088 432.178 269.294 432.531 C 268.782 432.546 268.272 432.57 267.782 432.571 C 266.575 432.57500000000005 265.36899999999997 432.588 264.16299999999995 432.60600000000005 C 261.83099999999996 432.64000000000004 259.501 432.70000000000005 257.17099999999994 432.79400000000004 C 253.14299999999994 432.956 249.12199999999993 433.237 245.11199999999994 433.64900000000006 C 251.604 431.047 258.758 430.359 265.639 431.634 z M 251.242 425.794 C 251.475 425.21299999999997 251.697 424.63 251.911 424.048 C 252.715 421.864 253.357 419.618 253.859 417.347 C 254.866 412.793 255.31900000000002 408.10699999999997 255.121 403.445 C 255.066 402.161 254.965 400.882 254.818 399.608 C 255.101 400.418 255.36800000000002 401.235 255.57600000000002 402.075 C 256.108 404.214 256.40900000000005 406.414 256.457 408.618 C 256.554 413.157 255.528 417.662 253.599 421.766 C 253.054 422.925 252.429 424.041 251.725 425.11100000000005 C 251.572 425.344 251.402 425.565 251.242 425.794 z M 260.723 421.753 C 262.411 420.93 264.183 420.286 266.004 419.83 C 269.66 418.913 273.475 418.712 277.202 419.301 C 278.191 419.45799999999997 279.169 419.67699999999996 280.133 419.947 C 273.173 419.325 266.09799999999996 420.287 259.54499999999996 422.735 C 258.97599999999994 422.947 258.41299999999995 423.172 257.85299999999995 423.40700000000004 C 258.01399999999995 423.29300000000006 258.17499999999995 423.17900000000003 258.34 423.074 C 259.106 422.587 259.907 422.151 260.723 421.753 z M 264.206 412.774 C 264.22900000000004 412.717 264.255 412.659 264.279 412.602 C 265.174 410.42499999999995 265.949 408.19899999999996 266.602 405.938 C 267.905 401.421 268.724 396.741 269.003 392.048 C 269.114 390.173 269.133 388.298 269.073 386.424 C 269.55699999999996 387.525 269.97799999999995 388.645 270.245 389.85999999999996 C 270.67900000000003 391.83599999999996 270.81600000000003 393.86499999999995 270.701 395.883 C 270.447 400.339 268.92900000000003 404.63399999999996 266.812 408.534 C 266.017 409.997 265.13 411.396 264.206 412.774 z" stroke-linecap="round" />
</g>
</svg>