<?xml version="1.0" encoding="UTF-8" standalone="no" ?>
<!DOCTYPE svg PUBLIC "-//W3C//DTD SVG 1.1//EN" "http://www.w3.org/Graphics/SVG/1.1/DTD/svg11.dtd">
<svg xmlns="http://www.w3.org/2000/svg" xmlns:xlink="http://www.w3.org/1999/xlink" version="1.1" width="150" height="100" viewBox="0 10.71 150 100" xml:space="preserve">
<desc>Created with Fabric.js 5.2.4</desc>
<defs>
</defs>
<rect x="0" y="0" width="100%" height="100%" fill="transparent"></rect>
<g transform="matrix(Infinity NaN NaN Infinity 0 0)" id="dbb4e705-56be-4df9-91b2-46cd2014175f"  >
</g>
<g transform="matrix(1 0 0 1 75 50)" id="fc811ae7-94a6-4813-a672-5562730f3949"  >
<rect style="stroke: none; stroke-width: 1; stroke-dasharray: none; stroke-linecap: butt; stroke-dashoffset: 0; stroke-linejoin: miter; stroke-miterlimit: 4; fill: rgb(255,255,255); fill-rule: nonzero; opacity: 1; visibility: hidden;" vector-effect="non-scaling-stroke"  x="-75" y="-50" rx="0" ry="0" width="150" height="100" />
</g>
<g transform="matrix(0.91 0 0 0.94 74.75 60.59)" id="71e221ea-c6e4-4134-973a-047b9a9d2d3e"  >
<path style="stroke: rgb(0,0,0); stroke-width: 0; stroke-dasharray: none; stroke-linecap: butt; stroke-dashoffset: 0; stroke-linejoin: miter; stroke-miterlimit: 4; fill: rgb(77,76,81); fill-rule: nonzero; opacity: 1;" vector-effect="non-scaling-stroke"  transform=" translate(-423.01, -443.47)" d="M 467.676 480.557 C 468.44599999999997 478.706 468.21 476.64300000000003 466.89099999999996 475.105 C 465.472 473.452 463.23799999999994 472.66700000000003 461.191 472.135 C 460.74199999999996 472.018 460.289 471.918 459.83399999999995 471.827 C 462.66599999999994 471.696 465.49699999999996 471.408 468.27299999999997 470.881 C 468.772 470.78599999999994 469.26599999999996 470.681 469.758 470.556 C 470.02299999999997 470.489 469.986 470.034 469.698 470.065 C 467.667 470.282 465.64599999999996 470.586 463.61199999999997 470.779 C 461.58899999999994 470.971 459.55699999999996 471.088 457.525 471.127 C 454.65299999999996 471.182 451.779 471.07 448.919 470.81 C 449.59799999999996 470.719 450.274 470.606 450.945 470.462 C 453.776 469.852 456.674 468.59999999999997 458.228 466.02299999999997 C 459.437 464.018 459.77 460.801 457.56100000000004 459.31199999999995 C 456.41900000000004 458.542 455.105 458.96299999999997 454.009 459.59099999999995 C 452.582 460.40899999999993 451.209 461.33799999999997 449.877 462.30099999999993 C 448.344 463.40799999999996 446.865 464.59099999999995 445.45 465.8469999999999 C 444.073 467.0689999999999 442.70799999999997 468.3569999999999 441.53999999999996 469.78399999999993 C 438.799 469.2679999999999 436.08299999999997 468.61499999999995 433.414 467.8059999999999 C 429.072 466.48999999999995 424.85699999999997 464.78799999999995 420.733 462.9029999999999 C 416.618 461.02199999999993 412.616 458.9159999999999 408.559 456.9149999999999 C 408.42400000000004 456.84899999999993 408.288 456.7859999999999 408.153 456.7219999999999 C 408.524 456.6809999999999 408.89500000000004 456.64899999999994 409.266 456.6039999999999 C 418.74100000000004 455.46899999999994 428.09200000000004 453.3159999999999 437.09900000000005 450.16399999999993 C 439.98 449.15599999999995 442.82300000000004 448.0369999999999 445.62800000000004 446.83199999999994 C 445.63500000000005 446.8419999999999 445.64000000000004 446.8519999999999 445.65000000000003 446.8619999999999 C 445.67300000000006 446.8839999999999 445.69800000000004 446.9059999999999 445.72200000000004 446.9269999999999 C 445.66100000000006 446.9789999999999 445.675 447.0939999999999 445.778 447.0969999999999 C 445.803 447.0979999999999 445.82800000000003 447.0969999999999 445.85200000000003 447.0979999999999 C 446.761 449.7059999999999 447.906 452.3089999999999 449.853 454.3119999999999 C 451.652 456.1619999999999 454.121 457.3739999999999 456.741 456.9969999999999 C 458.06399999999996 456.8069999999999 459.327 456.1959999999999 460.222 455.1949999999999 C 461.75 455.33299999999986 463.27799999999996 455.0769999999999 464.652 454.3659999999999 C 465.41499999999996 453.9709999999999 466.118 453.4489999999999 466.71999999999997 452.83099999999985 C 466.77099999999996 452.80699999999985 466.803 452.76899999999983 466.81699999999995 452.72299999999984 C 467.36699999999996 452.13799999999986 467.83099999999996 451.4739999999998 468.16999999999996 450.74899999999985 C 468.83599999999996 449.3249999999999 469.061 447.54699999999985 468.14899999999994 446.17299999999983 C 467.14399999999995 444.65799999999984 465.2389999999999 444.00199999999984 463.56299999999993 443.55499999999984 C 461.8809999999999 443.1059999999998 460.1329999999999 442.89899999999983 458.3929999999999 442.8969999999998 C 456.4199999999999 442.89399999999983 454.4679999999999 443.1589999999998 452.5549999999999 443.60999999999984 C 456.0709999999999 441.84699999999987 459.5089999999999 439.93199999999985 462.8459999999999 437.8489999999998 C 464.60899999999987 436.7489999999998 466.3429999999999 435.59799999999984 468.0509999999999 434.4099999999998 C 468.0769999999999 434.7679999999998 468.36199999999985 435.1329999999998 468.5359999999999 435.4029999999998 C 469.2249999999999 436.46899999999977 470.0059999999999 437.4889999999998 470.8119999999999 438.46899999999977 C 472.4449999999999 440.45299999999975 474.2639999999999 442.27899999999977 476.2409999999999 443.9199999999998 C 477.22199999999987 444.7339999999998 478.2409999999999 445.5039999999998 479.29199999999986 446.2249999999998 C 480.1949999999999 446.8439999999998 481.18499999999983 447.6209999999998 482.28499999999985 447.8349999999998 C 483.0219999999999 447.9779999999998 483.66299999999984 447.8239999999998 484.2119999999999 447.4859999999998 C 484.2859999999999 447.47999999999985 484.3489999999999 447.4329999999998 484.38299999999987 447.3669999999998 C 485.49899999999985 446.5749999999998 486.2119999999999 445.0279999999998 486.5549999999999 443.7809999999998 C 486.7239999999999 443.16599999999977 486.82299999999987 442.5209999999998 486.8279999999999 441.87799999999976 C 486.8539999999999 441.8219999999998 486.85599999999994 441.75899999999973 486.82499999999993 441.6989999999998 C 486.8139999999999 441.1819999999998 486.7419999999999 440.6669999999998 486.58599999999996 440.1729999999998 C 486.268 439.16599999999977 485.64599999999996 438.25099999999975 484.77799999999996 437.6529999999998 C 487.27099999999996 437.7569999999998 489.74699999999996 437.3419999999998 491.539 435.49299999999977 C 492.81399999999996 434.17799999999977 493.246 432.3529999999998 493.282 430.56999999999977 C 493.318 428.7499999999998 493.167 426.4829999999998 491.41299999999995 425.4609999999998 C 490.645 425.0139999999998 489.734 424.8699999999998 488.859 424.8229999999998 C 487.921 424.7719999999998 486.977 424.8119999999998 486.044 424.9199999999998 C 484.144 425.1389999999998 482.291 425.6359999999998 480.513 426.3349999999998 C 478.608 427.08399999999983 476.81399999999996 428.0469999999998 475.089 429.1269999999998 C 478.594 426.2809999999998 481.931 423.2299999999998 485.048 419.9709999999998 C 485.869 419.1129999999998 486.669 418.23899999999975 487.443 417.3379999999998 C 487.663 417.0819999999998 487.30899999999997 416.7169999999998 487.065 416.96399999999977 C 480.376 423.7449999999998 473.295 430.00299999999976 465.348 435.2829999999998 C 457.44 440.5369999999998 448.94100000000003 444.8939999999998 440.068 448.2689999999998 C 436.98199999999997 449.44299999999976 433.84999999999997 450.4939999999998 430.685 451.4349999999998 C 431.341 450.0569999999998 431.969 448.66599999999977 432.649 447.29899999999975 C 433.455 445.6799999999997 434.297 444.0789999999997 435.173 442.49599999999975 C 435.847 441.27899999999977 436.546 440.07599999999974 437.259 438.88099999999974 C 440.16700000000003 440.27299999999974 443.595 440.48499999999973 446.716 439.74399999999974 C 450.15000000000003 438.92899999999975 453.236 436.87099999999975 455.35 434.05199999999974 C 456.404 432.64699999999976 457.309 430.9949999999997 457.72400000000005 429.27799999999974 C 458.107 427.69099999999975 457.939 425.76299999999975 456.3310000000001 424.92199999999974 C 454.6770000000001 424.05599999999976 452.8300000000001 424.7399999999997 451.3280000000001 425.58799999999974 C 449.5880000000001 426.56999999999977 447.8980000000001 427.65799999999973 446.2720000000001 428.81799999999976 C 444.2090000000001 430.28999999999974 442.2510000000001 431.91899999999976 440.4930000000001 433.7399999999998 C 440.5950000000001 433.58699999999976 440.6920000000001 433.43099999999976 440.79500000000013 433.27899999999977 C 442.80900000000014 430.2709999999998 444.9470000000001 427.3459999999998 447.2110000000001 424.5209999999998 C 447.52100000000013 424.1339999999998 447.8370000000001 423.7539999999998 448.1510000000001 423.3699999999998 C 448.2500000000001 423.32299999999975 448.32800000000015 423.2249999999998 448.3610000000001 423.1119999999998 C 450.2630000000001 420.7989999999998 452.2370000000001 418.5419999999998 454.2910000000001 416.3629999999998 C 456.7700000000001 413.7329999999998 459.36700000000013 411.2089999999998 462.0260000000001 408.7609999999998 C 462.35500000000013 408.4579999999998 462.6880000000001 408.1599999999998 463.0220000000001 407.8619999999998 C 463.1250000000001 407.7699999999998 462.9750000000001 407.6269999999998 462.8710000000001 407.7129999999998 C 460.0600000000001 410.0299999999998 457.3660000000001 412.4629999999998 454.7950000000001 415.0439999999998 C 453.86800000000005 415.9749999999998 452.9600000000001 416.9259999999998 452.06300000000005 417.8859999999998 C 452.177 417.6649999999998 452.28700000000003 417.4419999999998 452.38800000000003 417.2129999999998 C 452.71900000000005 416.4649999999998 453.02700000000004 415.7029999999998 453.283 414.9249999999998 C 453.797 413.3569999999998 454.166 411.7449999999998 454.39000000000004 410.11099999999976 C 454.59700000000004 408.6029999999998 454.66700000000003 407.01699999999977 454.06100000000004 405.5859999999998 C 453.53200000000004 404.33699999999976 452.46700000000004 403.3839999999998 451.23 402.8579999999998 C 450.00300000000004 402.3359999999998 448.612 402.1959999999998 447.312 402.51299999999975 C 445.887 402.86099999999976 444.61400000000003 403.7499999999998 443.68600000000004 404.87199999999973 C 441.718 407.2529999999997 441.31000000000006 410.4299999999997 441.975 413.37899999999973 C 442.80800000000005 417.07299999999975 445.172 420.14099999999974 447.548 422.9979999999997 C 447.519 423.03299999999973 447.489 423.0659999999997 447.461 423.1009999999997 C 445.39 425.6039999999997 443.41700000000003 428.1899999999997 441.547 430.8469999999997 C 441.89000000000004 429.6609999999997 442.134 428.44899999999967 442.274 427.2219999999997 C 442.559 424.7369999999997 442.559 421.8979999999997 441.362 419.6279999999997 C 440.87600000000003 418.7059999999997 440.05600000000004 417.8339999999997 438.966 417.7259999999997 C 437.795 417.60999999999973 436.757 418.4829999999997 436.301 419.5019999999997 C 435.781 420.6609999999997 435.795 422.0079999999997 435.866 423.2519999999997 C 435.94 424.54199999999975 436.152 425.8219999999997 436.461 427.0749999999997 C 437.08500000000004 429.6069999999997 438.083 432.0219999999997 439.127 434.4069999999997 C 437.723 436.5539999999997 436.38 438.7409999999997 435.11400000000003 440.9719999999997 C 433.319 444.1319999999997 431.66200000000003 447.3709999999997 430.151 450.6759999999997 C 429.992 451.0239999999997 429.843 451.3749999999997 429.697 451.7289999999997 C 424.092 453.34799999999973 418.38 454.6019999999997 412.611 455.4699999999997 C 411.142 455.6909999999997 409.668 455.8739999999997 408.191 456.0409999999997 C 409.265 455.65799999999973 410.311 455.1919999999997 411.328 454.6759999999997 C 413.13899999999995 453.75899999999973 414.852 452.6679999999997 416.453 451.4209999999997 C 418.02099999999996 450.1999999999997 419.522 448.8329999999997 420.79699999999997 447.3059999999997 C 421.89599999999996 445.9899999999997 422.698 444.4169999999997 422.325 442.6639999999997 C 421.993 441.1029999999997 420.861 439.7359999999997 419.429 439.0519999999997 C 417.919 438.3309999999997 416.16999999999996 438.27899999999966 414.56399999999996 438.6859999999997 C 412.638 439.17499999999967 410.95199999999994 440.3339999999997 409.50899999999996 441.6679999999997 C 408.20599999999996 442.8729999999997 407.044 444.23899999999975 406.054 445.7119999999997 C 404.152 448.5409999999997 402.87399999999997 451.8419999999997 402.73499999999996 455.27099999999973 C 402.71799999999996 455.69799999999975 402.72399999999993 456.1249999999997 402.74499999999995 456.55199999999974 C 402.74499999999995 456.5529999999997 402.7459999999999 456.55399999999975 402.7459999999999 456.5549999999997 C 396.5689999999999 457.01099999999974 390.3599999999999 457.0379999999997 384.18299999999994 456.5919999999997 C 382.8639999999999 456.4969999999997 381.5469999999999 456.3749999999997 380.23099999999994 456.2379999999997 C 381.30699999999996 456.1469999999997 382.3739999999999 455.9979999999997 383.4169999999999 455.7889999999997 C 387.0689999999999 455.0549999999997 390.5739999999999 453.5949999999997 393.7109999999999 451.5929999999997 C 395.3139999999999 450.56999999999965 397.1729999999999 449.3909999999997 397.9949999999999 447.6019999999997 C 398.7149999999999 446.0329999999997 398.4289999999999 443.9709999999997 396.7639999999999 443.1469999999997 C 395.9079999999999 442.72299999999973 394.9139999999999 442.64099999999974 393.9719999999999 442.6639999999997 C 392.98099999999994 442.6869999999997 391.9939999999999 442.8549999999997 391.03899999999993 443.1169999999997 C 389.06699999999995 443.65899999999965 387.18299999999994 444.57699999999966 385.4549999999999 445.6599999999997 C 381.9529999999999 447.8549999999997 378.98599999999993 450.9199999999997 376.9319999999999 454.5079999999997 C 376.6979999999999 454.9169999999997 376.4799999999999 455.3339999999997 376.2699999999999 455.7559999999997 C 369.4849999999999 454.8269999999997 362.76699999999994 453.3449999999997 356.24499999999995 451.2889999999997 C 355.11499999999995 450.9329999999997 353.98999999999995 450.5579999999997 352.8709999999999 450.1679999999997 C 352.7349999999999 450.1209999999997 352.67999999999995 450.3339999999997 352.81299999999993 450.3829999999997 C 359.60999999999996 452.8729999999997 366.6049999999999 454.6979999999997 373.72799999999995 455.8789999999997 C 374.47799999999995 456.04299999999967 375.23999999999995 456.15099999999967 376.0079999999999 456.2249999999997 C 377.5499999999999 456.4499999999997 379.0949999999999 456.65599999999966 380.6479999999999 456.8209999999997 C 381.17599999999993 456.87699999999967 381.7049999999999 456.9189999999997 382.2339999999999 456.9679999999997 C 382.2349999999999 456.98799999999966 382.23299999999995 457.0079999999997 382.2489999999999 457.02899999999966 C 382.2669999999999 457.05299999999966 382.2869999999999 457.0759999999997 382.3049999999999 457.0999999999997 C 382.2359999999999 457.22799999999967 382.2909999999999 457.42299999999966 382.4769999999999 457.41599999999966 C 382.5019999999999 457.4149999999997 382.52699999999993 457.4149999999997 382.55099999999993 457.41399999999965 C 383.1329999999999 458.14899999999966 383.77599999999995 458.83699999999965 384.4029999999999 459.53399999999965 C 385.1549999999999 460.3719999999997 385.9189999999999 461.19799999999964 386.6859999999999 462.02199999999965 C 388.2179999999999 463.6699999999997 389.74999999999994 465.3189999999997 391.2819999999999 466.96699999999964 C 393.7289999999999 469.59899999999965 396.62299999999993 472.8909999999996 400.61499999999995 472.37799999999964 C 402.32099999999997 472.15899999999965 403.75199999999995 471.07799999999963 404.47799999999995 469.5229999999996 C 404.82099999999997 468.78899999999965 404.98699999999997 468.0159999999996 405.013 467.2379999999996 C 405.087 467.1709999999996 405.12399999999997 467.0499999999996 405.044 466.9499999999996 C 405.038 466.9419999999996 405.031 466.9349999999996 405.024 466.92699999999957 C 405.009 466.04699999999957 404.808 465.1669999999996 404.448 464.3349999999996 C 402.868 460.6799999999996 398.863 458.9529999999996 395.24399999999997 458.0189999999996 C 394.419 457.8059999999996 393.585 457.6389999999996 392.746 457.50099999999964 C 397.59999999999997 457.5429999999996 402.457 457.3169999999996 407.286 456.81299999999965 C 410.309 458.5089999999997 413.368 460.1339999999997 416.473 461.6719999999996 C 416.87 462.62099999999964 417.322 463.54399999999964 417.76800000000003 464.47199999999964 C 418.286 465.55099999999965 418.812 466.62599999999964 419.338 467.7009999999996 C 420.38300000000004 469.8339999999996 421.469 471.9509999999996 422.692 473.9869999999996 C 423.903 476.00299999999964 425.259 477.9419999999996 426.839 479.68799999999965 C 428.27 481.26899999999966 429.918 482.75699999999966 431.901 483.60099999999966 C 432.783 483.97599999999966 433.743 484.24399999999963 434.709 484.18499999999966 C 435.748 484.12099999999964 436.653 483.65899999999965 437.4 482.9459999999997 C 438.14099999999996 482.2389999999997 438.856 481.3249999999997 439.214 480.3569999999997 C 439.549 479.4509999999997 439.393 478.5149999999997 439.016 477.65099999999967 C 438.589 476.6719999999997 437.939 475.7709999999997 437.312 474.91299999999967 C 436.641 473.99499999999966 435.91900000000004 473.11499999999967 435.144 472.2829999999997 C 433.635 470.66099999999966 431.92900000000003 469.2339999999997 430.103 467.98299999999966 C 429.579 467.6239999999997 429.043 467.28399999999965 428.502 466.95399999999967 C 429.54 467.33899999999966 430.58500000000004 467.70499999999964 431.63800000000003 468.04999999999967 C 434.687 469.04799999999966 437.79800000000006 469.85099999999966 440.946 470.4649999999997 C 443.889 474.09099999999967 447.093 477.6349999999997 450.851 480.4359999999997 C 454.26 482.9769999999997 458.712 485.46599999999967 463.105 484.3159999999997 C 465.105 483.791 466.87 482.495 467.676 480.557 z M 484.007 446.874 C 481.827 445.47900000000004 479.7 444.023 477.672 442.40900000000005 C 475.569 440.73500000000007 473.57300000000004 438.93300000000005 471.68 437.02500000000003 C 470.92900000000003 436.26700000000005 470.199 435.487 469.47700000000003 434.701 C 470.463 435.047 471.44300000000004 435.399 472.40400000000005 435.82000000000005 C 473.60200000000003 436.345 474.7710000000001 436.934 475.90100000000007 437.59400000000005 C 478.20000000000005 438.93700000000007 480.34200000000004 440.55400000000003 482.24300000000005 442.42100000000005 C 483.26700000000005 443.427 484.21400000000006 444.50500000000005 485.1050000000001 445.63000000000005 C 484.827 446.093 484.46 446.557 484.007 446.874 z M 486.11 442.852 C 485.98 443.642 485.72200000000004 444.426 485.361 445.147 C 482.082 441.063 477.73 437.771 472.955 435.644 C 472.013 435.224 471.039 434.839 470.04699999999997 434.525 C 470.152 434.54699999999997 470.258 434.568 470.364 434.59 C 472.92199999999997 435.407 475.525 436.109 478.154 436.659 C 479.939 437.313 481.659 438.126 483.258 439.191 C 483.854 439.58799999999997 484.42699999999996 440.018 484.971 440.484 C 485.385 440.83799999999997 485.80400000000003 441.21099999999996 486.174 441.61899999999997 C 486.197 442.032 486.176 442.448 486.11 442.852 z M 486.097 440.957 C 485.876 440.738 485.652 440.522 485.416 440.316 C 484.95 439.911 484.461 439.53099999999995 483.956 439.174 C 482.916 438.44 481.80400000000003 437.81199999999995 480.65200000000004 437.27099999999996 C 480.48800000000006 437.19399999999996 480.32200000000006 437.12399999999997 480.15700000000004 437.05099999999993 C 480.23900000000003 437.0659999999999 480.321 437.0849999999999 480.403 437.09899999999993 C 481.456 437.28299999999996 482.593 437.47099999999995 483.745 437.5779999999999 C 483.721 437.69499999999994 483.762 437.8179999999999 483.90500000000003 437.8859999999999 C 485.157 438.48 485.865 439.663 486.097 440.957 z M 492.312 432.59 C 492.165 433.178 491.944 433.743 491.61400000000003 434.262 C 490.61100000000005 435.838 488.76000000000005 436.641 486.96700000000004 436.88 C 485.11300000000006 437.128 483.20700000000005 436.856 481.374 436.566 C 477.812 436.00199999999995 474.33200000000005 435.06899999999996 470.845 434.16499999999996 C 476.458 434.64199999999994 482.119 434.39399999999995 487.68100000000004 433.48699999999997 C 489.233 433.235 490.777 432.934 492.312 432.59 z M 492.404 432.152 C 486.558 433.548 480.541 434.155 474.534 434.056 C 473.34499999999997 434.036 472.153 433.988 470.964 433.92199999999997 C 471.031 433.907 471.098 433.892 471.165 433.878 C 472.02500000000003 433.688 472.884 433.49899999999997 473.744 433.30899999999997 C 475.353 432.95399999999995 476.96200000000005 432.599 478.572 432.25199999999995 C 481.603 431.59899999999993 484.658 431.0079999999999 487.751 430.74499999999995 C 488.59099999999995 430.6739999999999 489.433 430.62699999999995 490.27599999999995 430.61099999999993 C 491.03599999999994 430.59599999999995 491.79499999999996 430.6259999999999 492.554 430.63199999999995 C 492.539 431.142 492.496 431.653 492.404 432.152 z M 479.115 427.716 C 480.758 426.943 482.48 426.327 484.257 425.943 C 485.961 425.575 487.81 425.36199999999997 489.547 425.611 C 490.38800000000003 425.731 491.25100000000003 426.027 491.783 426.728 C 492.07800000000003 427.116 492.25300000000004 427.57300000000004 492.362 428.05 C 491.059 427.611 489.62100000000004 427.618 488.269 427.743 C 486.665 427.892 485.071 428.195 483.496 428.526 C 480.18699999999995 429.221 476.933 430.182 473.77099999999996 431.38300000000004 C 473.13499999999993 431.624 472.506 431.88000000000005 471.87899999999996 432.14300000000003 C 474.179 430.487 476.548 428.924 479.115 427.716 z M 470.368 433.25 C 472.868 432.11 475.437 431.117 478.064 430.312 C 481.173 429.36 484.379 428.59700000000004 487.607 428.17900000000003 C 489.233 427.96900000000005 490.83000000000004 427.982 492.425 428.357 C 492.482 428.692 492.51300000000003 429.03200000000004 492.53200000000004 429.36 C 492.55100000000004 429.675 492.557 429.99600000000004 492.55600000000004 430.317 C 491.13700000000006 430.17900000000003 489.66900000000004 430.26 488.25700000000006 430.36400000000003 C 486.7420000000001 430.47600000000006 485.23400000000004 430.67100000000005 483.73400000000004 430.91400000000004 C 480.59400000000005 431.42300000000006 477.48900000000003 432.13100000000003 474.37800000000004 432.78700000000003 C 473.42300000000006 432.98800000000006 472.468 433.19000000000005 471.51200000000006 433.391 C 471.02500000000003 433.494 470.53800000000007 433.596 470.05100000000004 433.699 C 469.92100000000005 433.726 469.78900000000004 433.75100000000003 469.65600000000006 433.776 C 469.894 433.601 470.131 433.425 470.368 433.25 z M 468.63 434.404 C 468.75 434.44599999999997 468.86899999999997 434.488 468.988 434.53 C 472.285 438.428 476.161 441.883 480.281 444.87899999999996 C 481.349 445.65599999999995 482.438 446.41299999999995 483.555 447.121 C 483.373 447.195 483.182 447.24899999999997 482.978 447.26399999999995 C 482.028 447.33599999999996 481.16 446.715 480.404 446.22299999999996 C 479.469 445.61599999999993 478.558 444.97099999999995 477.678 444.28799999999995 C 475.917 442.92099999999994 474.269 441.40999999999997 472.747 439.78 C 471.89500000000004 438.868 471.087 437.916 470.31800000000004 436.933 C 469.92600000000004 436.433 469.54800000000006 435.923 469.18100000000004 435.404 C 469.00500000000005 435.155 468.81300000000005 434.914 468.65000000000003 434.657 C 468.593 434.566 468.52900000000005 434.46299999999997 468.50700000000006 434.356 C 468.533 434.386 468.575 434.405 468.63 434.404 z M 453.541 456.159 C 451.055 455.272 449.245 453.127 448.005 450.879 C 447.40999999999997 449.79900000000004 446.905 448.67 446.402 447.54200000000003 C 446.42199999999997 447.559 446.442 447.57500000000005 446.462 447.59200000000004 C 447.678 449.511 449.18399999999997 451.24000000000007 450.9 452.72900000000004 C 451.78999999999996 453.50200000000007 452.73199999999997 454.22 453.724 454.85800000000006 C 454.639 455.44700000000006 455.64 455.9700000000001 456.727 456.13900000000007 C 457.08799999999997 456.19500000000005 457.453 456.20900000000006 457.816 456.18100000000004 C 456.462 456.676 454.907 456.646 453.541 456.159 z M 458.359 455.711 C 457.861 455.827 457.334 455.84000000000003 456.828 455.766 C 455.78799999999995 455.61400000000003 454.83 455.118 453.948 454.56800000000004 C 452.022 453.367 450.289 451.87100000000004 448.784 450.17400000000004 C 448.241 449.56100000000004 447.731 448.91900000000004 447.248 448.25800000000004 C 448.241 449.07300000000004 449.281 449.83700000000005 450.33 450.564 C 451.88 451.639 453.481 452.665 455.156 453.53700000000003 C 456.545 454.26000000000005 458.01800000000003 454.862 459.57 455.11400000000003 C 459.521 455.16 459.469 455.20200000000006 459.418 455.24600000000004 C 459.08 455.436 458.757 455.617 458.359 455.711 z M 465.16 453.466 C 463.80800000000005 454.374 462.221 454.802 460.59700000000004 454.716 C 459.02700000000004 454.632 457.50300000000004 454.11 456.09000000000003 453.446 C 454.543 452.718 453.07200000000006 451.819 451.641 450.88800000000003 C 450.031 449.841 448.48900000000003 448.706 446.983 447.51500000000004 C 446.812 447.38000000000005 446.64 447.24500000000006 446.469 447.11000000000007 C 446.483 447.11000000000007 446.497 447.11000000000007 446.51099999999997 447.11000000000007 C 447.64599999999996 447.8140000000001 448.885 448.3930000000001 450.087 448.95900000000006 C 451.425 449.58900000000006 452.787 450.16900000000004 454.168 450.69900000000007 C 455.568 451.23600000000005 456.988 451.7200000000001 458.425 452.14900000000006 C 459.709 452.5330000000001 461.007 452.88400000000007 462.337 453.0690000000001 C 463.44599999999997 453.22400000000005 464.574 453.2540000000001 465.676 453.07500000000005 C 465.507 453.209 465.338 453.345 465.16 453.466 z M 466.239 452.566 C 463.774 453.166 461.21299999999997 452.55699999999996 458.825 451.86899999999997 C 456.025 451.063 453.28499999999997 450.04999999999995 450.635 448.83799999999997 C 449.906 448.50499999999994 449.183 448.157 448.467 447.794 C 448.027 447.57099999999997 447.59299999999996 447.337 447.15799999999996 447.106 C 448.23199999999997 447.105 449.30799999999994 447.08299999999997 450.381 447.092 C 451.87899999999996 447.104 453.37699999999995 447.152 454.871 447.267 C 457.704 447.487 460.553 447.993 463.241 448.933 C 464.724 449.452 466.152 450.114 467.493 450.933 C 467.161 451.536 466.728 452.081 466.239 452.566 z M 468.048 449.611 C 467.954 449.942 467.826 450.262 467.679 450.573 C 462.679 447.551 456.75699999999995 446.883 451.027 446.81899999999996 C 449.58099999999996 446.80299999999994 448.122 446.79499999999996 446.673 446.85999999999996 C 446.626 446.83599999999996 446.579 446.811 446.532 446.78799999999995 C 447.03 446.609 447.526 446.42499999999995 448.031 446.26599999999996 C 448.747 446.03999999999996 449.472 445.84299999999996 450.204 445.67699999999996 C 451.684 445.33899999999994 453.196 445.14399999999995 454.712 445.073 C 457.727 444.93199999999996 460.768 445.28499999999997 463.667 446.126 C 465.246 446.584 466.756 447.209 468.224 447.943 C 468.274 448.501 468.2 449.071 468.048 449.611 z M 449.934 444.895 C 452.168 444.149 454.47400000000005 443.627 456.826 443.46999999999997 C 458.48900000000003 443.359 460.16900000000004 443.421 461.81300000000005 443.705 C 463.43600000000004 443.986 465.18700000000007 444.42199999999997 466.57300000000004 445.346 C 467.295 445.827 467.88800000000003 446.503 468.11800000000005 447.353 C 468.1290000000001 447.395 468.13100000000003 447.438 468.1410000000001 447.48 C 465.5680000000001 446.196 462.74000000000007 445.37100000000004 459.9000000000001 444.982 C 456.86000000000007 444.56600000000003 453.77600000000007 444.685 450.7650000000001 445.26300000000003 C 449.9140000000001 445.42600000000004 449.0710000000001 445.63000000000005 448.2420000000001 445.88000000000005 C 447.4920000000001 446.1050000000001 446.7290000000001 446.35100000000006 446.0150000000001 446.68100000000004 C 446.0130000000001 446.677 446.0110000000001 446.67300000000006 446.0090000000001 446.66800000000006 C 447.327 446.096 448.637 445.509 449.934 444.895 z M 453.149 405.261 C 453.915 406.47700000000003 453.953 407.96200000000005 453.822 409.351 C 453.662 411.054 453.296 412.747 452.795 414.382 C 452.31600000000003 415.947 451.73400000000004 417.513 451.031 418.995 C 450.185 419.924 449.36 420.872 448.547 421.829 C 448.19800000000004 419.613 448.153 417.321 448.50500000000005 415.11 C 448.89400000000006 412.658 449.68100000000004 410.26800000000003 450.84000000000003 408.072 C 451.16400000000004 407.459 451.519 406.865 451.89300000000003 406.282 C 452.201 405.80199999999996 452.55400000000003 405.34799999999996 452.87300000000005 404.875 C 452.971 404.997 453.064 405.126 453.149 405.261 z M 452.68 404.658 C 452.334 405.041 452.035 405.478 451.746 405.898 C 451.38599999999997 406.42100000000005 451.055 406.964 450.74699999999996 407.519 C 450.12999999999994 408.63 449.60799999999995 409.794 449.18399999999997 410.991 C 448.534 412.827 448.12499999999994 414.752 447.93399999999997 416.69399999999996 C 447.90999999999997 415.58599999999996 447.92199999999997 414.47599999999994 447.979 413.36899999999997 C 448.098 411.027 448.34999999999997 408.64099999999996 448.873 406.352 C 449.018 405.719 449.212 405.09099999999995 449.505 404.51 C 449.748 404.03 450.069 403.645 450.431 403.27 C 451.28 403.535 452.077 404.003 452.68 404.658 z M 450.128 403.184 C 449.449 403.77500000000003 449.037 404.71500000000003 448.774 405.533 C 448.408 406.668 448.203 407.863 448.023 409.04 C 447.653 411.458 447.47200000000004 413.904 447.488 416.35 C 447.492 417.041 447.512 417.733 447.548 418.423 C 447.559 418.625 447.567 418.831 447.576 419.037 C 447.08500000000004 417.313 446.594 415.58799999999997 446.098 413.86499999999995 C 445.403 411.44899999999996 444.65500000000003 408.89399999999995 445.257 406.37499999999994 C 445.535 405.21199999999993 446.1 404.13699999999994 446.963 403.31499999999994 C 447.977 402.96 449.081 402.92 450.128 403.184 z M 443.01 414.456 C 442.117 411.779 442.01599999999996 408.791 443.493 406.298 C 443.756 405.854 444.064 405.437 444.411 405.056 C 443.557 406.498 443.24 408.28499999999997 443.316 409.93 C 443.38 411.323 443.676 412.698 444.06199999999995 414.034 C 444.472 415.45 444.94199999999995 416.856 445.44899999999996 418.24 C 445.69499999999994 418.91200000000003 445.96099999999996 419.577 446.25399999999996 420.229 C 444.911 418.456 443.716 416.572 443.01 414.456 z M 447.555 421.872 C 446.198 419.664 445.394 417.132 444.617 414.677 C 443.822 412.166 443.20500000000004 409.493 443.93800000000005 406.89000000000004 C 444.22100000000006 405.88500000000005 444.70000000000005 404.96600000000007 445.37100000000004 404.18600000000004 C 445.682 403.95200000000006 446.01200000000006 403.742 446.36400000000003 403.56800000000004 C 444.98 405.04 444.55100000000004 407.249 444.70500000000004 409.23100000000005 C 444.80800000000005 410.55500000000006 445.12300000000005 411.8500000000001 445.473 413.12800000000004 C 445.87 414.57700000000006 446.281 416.023 446.689 417.46900000000005 C 447.15000000000003 419.1050000000001 447.612 420.74100000000004 448.077 422.37600000000003 C 448.059 422.39700000000005 448.041 422.418 448.023 422.439 C 447.866 422.252 447.711 422.062 447.555 421.872 z M 457.194 428.294 C 457.142 428.852 457.007 429.407 456.824 429.95099999999996 C 456.565 430.21799999999996 456.353 430.53 456.118 430.818 C 455.871 431.121 455.615 431.417 455.351 431.70599999999996 C 454.848 432.25699999999995 454.315 432.78099999999995 453.758 433.277 C 452.616 434.29499999999996 451.363 435.191 450.022 435.928 C 447.546 437.288 444.76 438.111 441.949 438.368 C 441.18600000000004 438.438 440.421 438.465 439.65500000000003 438.453 C 439.37 438.448 439.08700000000005 438.426 438.80300000000005 438.405 C 439.071 438.361 439.33900000000006 438.315 439.60200000000003 438.265 C 440.36100000000005 438.121 441.11400000000003 437.947 441.85900000000004 437.743 C 443.367 437.331 444.84200000000004 436.798 446.26800000000003 436.159 C 449.10100000000006 434.889 451.77000000000004 433.19599999999997 454.10100000000006 431.144 C 455.22400000000005 430.15500000000003 456.2610000000001 429.079 457.21200000000005 427.926 C 457.211 428.05 457.205 428.173 457.194 428.294 z M 440.753 419.594 C 441.349 420.58299999999997 441.632 421.763 441.779 422.897 C 441.939 424.134 441.921 425.399 441.817 426.64 C 441.704 427.985 441.466 429.323 441.11400000000003 430.627 C 440.978 431.13100000000003 440.82200000000006 431.63 440.65500000000003 432.125 C 440.569 432.251 440.485 432.379 440.398 432.505 C 440.41900000000004 428.876 440.035 425.248 439.218 421.709 C 438.951 420.55400000000003 438.641 419.40500000000003 438.25800000000004 418.283 C 439.326 417.965 440.229 418.723 440.753 419.594 z M 438.062 418.357 C 438.63 420.36400000000003 439.141 422.38000000000005 439.48400000000004 424.439 C 439.83500000000004 426.543 440.03900000000004 428.67100000000005 440.09400000000005 430.80400000000003 C 440.11000000000007 431.44100000000003 440.10600000000005 432.07700000000006 440.0930000000001 432.713 C 440.06200000000007 432.625 440.03100000000006 432.536 439.99700000000007 432.449 C 439.7920000000001 431.92 439.58200000000005 431.39300000000003 439.37700000000007 430.86400000000003 C 438.96100000000007 429.79400000000004 438.5730000000001 428.71000000000004 438.2220000000001 427.617 C 437.6090000000001 425.708 437.1430000000001 423.725 437.1470000000001 421.71000000000004 C 437.1490000000001 420.68800000000005 437.2930000000001 419.66900000000004 437.5380000000001 418.677 C 437.697 418.552 437.866 418.438 438.062 418.357 z M 437.319 428.256 C 436.63 425.977 436.122 423.481 436.38800000000003 421.09099999999995 C 436.47400000000005 420.31299999999993 436.749 419.48299999999995 437.288 418.9069999999999 C 436.77500000000003 420.5849999999999 436.805 422.40899999999993 437.064 424.1309999999999 C 437.39000000000004 426.30299999999994 438.13300000000004 428.3709999999999 438.851 430.4369999999999 C 439.065 431.0539999999999 439.285 431.6759999999999 439.457 432.3059999999999 C 439.544 432.6219999999999 439.643 432.9339999999999 439.73699999999997 433.2469999999999 C 439.753 433.3019999999999 439.768 433.3599999999999 439.78299999999996 433.4169999999999 C 439.67799999999994 433.5719999999999 439.57199999999995 433.72599999999994 439.46899999999994 433.8819999999999 C 438.668 432.04 437.9 430.181 437.319 428.256 z M 440.824 435.064 C 440.206 435.55100000000004 439.59700000000004 436.048 438.994 436.553 C 440.798 434.274 442.90900000000005 432.256 445.21500000000003 430.474 C 446.69500000000005 429.33 448.24800000000005 428.28 449.838 427.296 C 450.632 426.804 451.43100000000004 426.303 452.26500000000004 425.881 C 453.02600000000007 425.496 453.85300000000007 425.195 454.71700000000004 425.22099999999995 C 455.184 425.23499999999996 455.65700000000004 425.34499999999997 456.06200000000007 425.5729999999999 C 453.39900000000006 426.8019999999999 450.83000000000004 428.2469999999999 448.34200000000004 429.7949999999999 C 445.742 431.411 443.231 433.17 440.824 435.064 z M 437.856 438.078 C 442.235 434.241 446.971 430.83099999999996 452.051 427.977 C 453.449 427.19199999999995 454.87399999999997 426.45599999999996 456.301 425.727 C 456.447 425.835 456.58099999999996 425.96099999999996 456.698 426.10799999999995 C 456.93899999999996 426.4119999999999 457.08 426.76699999999994 457.152 427.14099999999996 C 453.347 431.90899999999993 448.175 435.46 442.315 437.19199999999995 C 441.48199999999997 437.43799999999993 440.638 437.64799999999997 439.786 437.81899999999996 C 439.128 437.95099999999996 438.465 438.04299999999995 437.804 438.14899999999994 C 437.822 438.125 437.84 438.102 437.856 438.078 z M 437.501 438.585 C 437.50399999999996 438.58099999999996 437.50699999999995 438.577 437.51 438.573 C 438.132 438.69399999999996 438.786 438.721 439.41499999999996 438.74399999999997 C 440.116 438.77 440.81899999999996 438.756 441.518 438.70899999999995 C 442.91499999999996 438.61499999999995 444.304 438.38599999999997 445.657 438.0199999999999 C 448.52099999999996 437.24499999999995 451.234 435.81999999999994 453.538 433.9559999999999 C 454.229 433.3969999999999 454.884 432.7939999999999 455.497 432.1499999999999 C 455.76300000000003 431.86999999999995 456.019 431.5809999999999 456.27000000000004 431.28599999999994 C 455.99800000000005 431.83599999999996 455.69100000000003 432.36499999999995 455.374 432.85999999999996 C 453.559 435.70099999999996 450.78000000000003 437.93499999999995 447.555 438.95099999999996 C 444.557 439.89599999999996 441.306 439.83899999999994 438.32 438.876 C 438.039 438.78499999999997 437.757 438.702 437.476 438.609 C 437.484 438.6 437.494 438.596 437.501 438.585 z M 384.189 447.064 C 385.779 445.89500000000004 387.514 444.899 389.345 444.16 C 391.12300000000005 443.44300000000004 393.052 442.96500000000003 394.98100000000005 443.139 C 395.65600000000006 443.2 396.37700000000007 443.37 396.934 443.771 C 395.704 443.69300000000004 394.458 444.045 393.322 444.48 C 391.853 445.04200000000003 390.43 445.742 389.058 446.509 C 386.173 448.123 383.525 450.11400000000003 380.977 452.212 C 379.596 453.349 378.243 454.519 376.892 455.692 C 378.619 452.304 381.124 449.319 384.189 447.064 z M 392.715 445.005 C 394.16299999999995 444.384 395.645 443.94599999999997 397.227 444.025 C 397.29699999999997 444.096 397.36499999999995 444.169 397.42499999999995 444.25 C 397.58099999999996 444.459 397.6929999999999 444.692 397.77399999999994 444.936 C 392.4479999999999 447.98199999999997 387.02299999999997 450.87199999999996 381.49899999999997 453.543 C 380.71999999999997 453.92 379.93899999999996 454.29200000000003 379.15599999999995 454.661 C 378.8469999999999 454.807 378.53399999999993 454.947 378.22099999999995 455.089 C 382.652 451.212 387.272 447.339 392.715 445.005 z M 377.299 455.898 C 377.36699999999996 455.838 377.435 455.779 377.503 455.71900000000005 C 378.003 455.50500000000005 378.495 455.2710000000001 378.986 455.04100000000005 C 379.668 454.72300000000007 380.349 454.40100000000007 381.02799999999996 454.07700000000006 C 382.43699999999995 453.40400000000005 383.84099999999995 452.71900000000005 385.23999999999995 452.02500000000003 C 388.00399999999996 450.653 390.746 449.237 393.45399999999995 447.75700000000006 C 394.93299999999994 446.94900000000007 396.40299999999996 446.12500000000006 397.86699999999996 445.28900000000004 C 397.95599999999996 445.75500000000005 397.936 446.24600000000004 397.82699999999994 446.701 C 397.37999999999994 448.58000000000004 395.55999999999995 449.81300000000005 394.05499999999995 450.83000000000004 C 391.11099999999993 452.819 387.82099999999997 454.30600000000004 384.36799999999994 455.14900000000006 C 382.07199999999995 455.71000000000004 379.69399999999996 455.97200000000004 377.3279999999999 455.90100000000007 C 377.318 455.901 377.308 455.9 377.299 455.898 z M 401.322 471.6 C 399.798 472.077 398.106 471.743 396.72 471.00800000000004 C 395.007 470.09900000000005 393.66200000000003 468.663 392.35400000000004 467.261 C 389.45500000000004 464.156 386.60100000000006 460.999 383.617 457.975 C 383.512 457.869 383.406 457.766 383.30100000000004 457.661 C 383.37000000000006 457.686 383.439 457.71 383.50800000000004 457.735 C 387.70000000000005 462.052 392.56600000000003 465.764 397.68000000000006 468.915 C 399.07200000000006 469.77200000000005 400.49300000000005 470.582 401.93800000000005 471.34700000000004 C 401.742 471.447 401.537 471.532 401.322 471.6 z M 402.369 471.088 C 396.891 468.216 391.744 464.74800000000005 387.07500000000005 460.687 C 386.03900000000004 459.786 385.02700000000004 458.857 384.023 457.91900000000004 C 384.29400000000004 458.01400000000007 384.564 458.11 384.83000000000004 458.213 C 385.59600000000006 458.507 386.35600000000005 458.81800000000004 387.105 459.154 C 388.565 459.808 390.00100000000003 460.52 391.403 461.291 C 394.223 462.843 396.91 464.636 399.408 466.666 C 400.772 467.775 402.077 468.954 403.324 470.193 C 403.052 470.538 402.732 470.84 402.369 471.088 z M 404.217 468.403 C 404.073 468.922 403.851 469.418 403.55699999999996 469.863 C 399.00199999999995 465.355 393.614 461.616 387.727 459.07 C 386.919 458.71999999999997 386.10299999999995 458.38599999999997 385.28099999999995 458.07099999999997 C 384.75999999999993 457.87199999999996 384.22999999999996 457.66499999999996 383.69399999999996 457.484 C 386.573 457.52099999999996 389.42499999999995 458.138 392.08099999999996 459.24399999999997 C 395.08099999999996 460.493 397.81499999999994 462.323 400.26199999999994 464.45 C 401.671 465.675 402.978 467.007 404.217 468.403 z M 404.324 467.921 C 399.961 463.206 394.668 459.113 388.28200000000004 457.70099999999996 C 387.72400000000005 457.57699999999994 387.16100000000006 457.486 386.59700000000004 457.409 C 388.576 457.594 390.53100000000006 457.978 392.437 458.609 C 395.528 459.633 398.432 461.231 400.946 463.301 C 402.206 464.33799999999997 403.358 465.512 404.39700000000005 466.772 C 404.416 467.153 404.391 467.538 404.324 467.921 z M 393.374 458.065 C 395.175 458.437 396.94300000000004 458.966 398.61400000000003 459.74 C 400.28700000000003 460.515 401.88800000000003 461.576 402.997 463.074 C 403.65500000000003 463.963 404.142 465.00600000000003 404.325 466.095 C 402.399 463.896 400.09 462.045 397.553 460.591 C 394.995 459.125 392.193 458.075 389.3 457.503 C 390.668 457.612 392.028 457.787 393.374 458.065 z M 405.787 447.305 C 406.59099999999995 445.89300000000003 407.563 444.579 408.661 443.382 C 409.948 441.97700000000003 411.408 440.673 413.138 439.841 C 414.116 439.371 415.19599999999997 439.07800000000003 416.284 439.036 C 414.15 440.817 412.197 442.821 410.381 444.921 C 408.45799999999997 447.145 406.741 449.553 405.234 452.07599999999996 C 404.592 453.15099999999995 403.989 454.248 403.42499999999995 455.36499999999995 C 403.523 452.53 404.381 449.775 405.787 447.305 z M 413.226 442.264 C 414.323 441.137 415.476 440.068 416.654 439.026 C 417.073 439.033 417.493 439.077 417.905 439.16700000000003 C 418.24199999999996 439.24100000000004 418.56699999999995 439.35 418.878 439.483 C 418.877 439.492 418.873 439.498 418.873 439.508 C 418.867 440.83799999999997 418.24399999999997 442.036 417.49 443.09799999999996 C 416.599 444.35299999999995 415.551 445.51199999999994 414.497 446.631 C 412.276 448.986 409.84000000000003 451.138 407.329 453.176 C 406.613 453.757 405.891 454.332 405.16700000000003 454.902 C 404.639 455.318 404.081 455.721 403.56500000000005 456.162 C 406.014 451.065 409.281 446.316 413.226 442.264 z M 405.174 455.374 C 405.842 454.851 406.50899999999996 454.32500000000005 407.16999999999996 453.79400000000004 C 408.47799999999995 452.74500000000006 409.78 451.68300000000005 411.03999999999996 450.57500000000005 C 412.29599999999994 449.47100000000006 413.51699999999994 448.326 414.681 447.124 C 415.772 445.99800000000005 416.844 444.83000000000004 417.776 443.56800000000004 C 418.611 442.439 419.3 441.15100000000007 419.372 439.72800000000007 C 420.074 440.12100000000004 420.675 440.67300000000006 421.115 441.36000000000007 C 421.09000000000003 442.76000000000005 420.709 444.0690000000001 419.973 445.2700000000001 C 419.123 446.6570000000001 417.909 447.77600000000007 416.666 448.8050000000001 C 414.127 450.9070000000001 411.425 452.8650000000001 408.504 454.40300000000013 C 407.06800000000004 455.1590000000001 405.572 455.7880000000001 404.02500000000003 456.27200000000016 C 404.415 455.979 404.795 455.67 405.174 455.374 z M 406.211 456.256 C 405.85900000000004 456.291 405.507 456.31899999999996 405.15500000000003 456.351 C 407.795 455.376 410.278 453.986 412.583 452.378 C 413.959 451.418 415.29 450.389 416.58900000000006 449.327 C 417.90400000000005 448.253 419.1940000000001 447.102 420.12800000000004 445.669 C 420.85900000000004 444.546 421.40700000000004 443.171 421.37300000000005 441.808 C 421.38300000000004 441.828 421.39400000000006 441.846 421.40400000000005 441.866 C 421.72300000000007 442.531 421.869 443.284 421.78600000000006 444.018 C 421.69200000000006 444.842 421.29600000000005 445.59999999999997 420.82500000000005 446.26899999999995 C 420.3070000000001 447.00299999999993 419.67400000000004 447.65999999999997 419.04400000000004 448.29699999999997 C 418.36600000000004 448.98299999999995 417.65600000000006 449.63699999999994 416.91700000000003 450.258 C 413.944 452.753 410.53900000000004 454.616 406.915 455.981 C 406.678 456.07 406.444 456.163 406.211 456.256 z M 432.95 483.248 C 431.019 482.662 429.371 481.33799999999997 427.979 479.918 C 426.40799999999996 478.315 425.058 476.511 423.854 474.62 C 421.42199999999997 470.798 419.52799999999996 466.648 417.48199999999997 462.613 C 417.491 462.617 417.501 462.62 417.51 462.624 C 417.546 462.65500000000003 417.584 462.684 417.62 462.714 C 419.646 465.825 421.77 468.874 423.973 471.861 C 426.24600000000004 474.944 428.661 477.93899999999996 431.313 480.706 C 432.373 481.81100000000004 433.568 482.869 434.996 483.449 C 434.315 483.551 433.609 483.448 432.95 483.248 z M 435.893 483.177 C 435.87899999999996 483.17100000000005 435.86899999999997 483.161 435.852 483.15700000000004 C 434.296 482.73400000000004 433.04699999999997 481.675 431.92999999999995 480.557 C 430.626 479.25100000000003 429.37899999999996 477.88800000000003 428.18399999999997 476.482 C 425.722 473.58500000000004 423.43999999999994 470.54200000000003 421.251 467.435 C 420.286 466.065 419.32899999999995 464.691 418.361 463.323 C 419.452 464.20099999999996 420.579 465.039 421.675 465.90799999999996 C 423.136 467.066 424.586 468.23499999999996 425.99 469.46199999999993 C 428.793 471.91299999999995 431.434 474.57499999999993 433.649 477.5759999999999 C 434.818 479.1599999999999 435.863 480.83699999999993 436.742 482.59899999999993 C 436.482 482.827 436.2 483.027 435.893 483.177 z M 437.68 481.567 C 437.503 481.79900000000004 437.319 482.028 437.115 482.243 C 435.46500000000003 479.062 433.31100000000004 476.177 430.872 473.556 C 428.31 470.803 425.447 468.351 422.498 466.025 C 421.198 464.99899999999997 419.884 463.96599999999995 418.526 463.00899999999996 C 418.628 463.04799999999994 418.729 463.09099999999995 418.831 463.12999999999994 C 418.836 463.15099999999995 418.848 463.1689999999999 418.87100000000004 463.17999999999995 C 422.074 464.70199999999994 425.12000000000006 466.5319999999999 427.84600000000006 468.80899999999997 C 430.56500000000005 471.07899999999995 432.95400000000006 473.73499999999996 434.92300000000006 476.679 C 435.966 478.236 436.885 479.871 437.68 481.567 z M 438.272 480.691 C 438.192 480.835 438.098 480.976 438.004 481.11499999999995 C 436.528 478.0799999999999 434.63800000000003 475.25899999999996 432.406 472.727 C 430.044 470.049 427.306 467.68699999999995 424.294 465.768 C 423.52799999999996 465.28 422.74199999999996 464.82599999999996 421.941 464.402 C 422.214 464.52 422.48999999999995 464.632 422.762 464.75399999999996 C 424.537 465.69199999999995 426.227 466.801 427.823 467.99899999999997 C 429.20799999999997 469.039 430.536 470.155 431.827 471.30999999999995 C 433.231 472.56499999999994 434.59499999999997 473.881 435.727 475.39199999999994 C 436.905 476.968 437.844 478.765 438.272 480.691 z M 428.089 467.521 C 431.737 469.742 434.934 472.619 437.326 476.17400000000004 C 437.844 476.944 438.40500000000003 477.75700000000006 438.622 478.67300000000006 C 438.725 479.10800000000006 438.699 479.5180000000001 438.594 479.90900000000005 C 437.614 476.58500000000004 435.216 473.9200000000001 432.692 471.62100000000004 C 430.658 469.76700000000005 428.515 467.98400000000004 426.216 466.45300000000003 C 426.848 466.794 427.475 467.147 428.089 467.521 z M 466.434 481.29 C 460.454 478.03200000000004 454.25 475.207 447.90200000000004 472.745 C 446.357 472.146 444.80100000000004 471.57800000000003 443.23500000000007 471.036 C 443.24500000000006 471.036 443.25500000000005 471.037 443.26500000000004 471.038 C 443.96100000000007 471.158 444.66200000000003 471.247 445.36500000000007 471.324 C 447.8210000000001 471.81600000000003 450.25000000000006 472.462 452.6170000000001 473.267 C 455.9030000000001 474.385 459.08400000000006 475.819 462.0900000000001 477.553 C 463.7260000000001 478.497 465.3190000000001 479.524 466.8260000000001 480.665 C 466.712 480.884 466.578 481.09 466.434 481.29 z M 449.056 471.602 C 451.068 471.78 453.08599999999996 471.87899999999996 455.10499999999996 471.90099999999995 C 456.35099999999994 471.99399999999997 457.59299999999996 472.12299999999993 458.82399999999996 472.335 C 460.79599999999994 472.67499999999995 462.84599999999995 473.17499999999995 464.597 474.174 C 465.515 474.697 466.36199999999997 475.39 466.887 476.322 C 467.339 477.123 467.491 478.048 467.375 478.957 C 467.316 479.42 467.188 479.85699999999997 467.013 480.27 C 464.21799999999996 478.334 461.30899999999997 476.58599999999996 458.22299999999996 475.149 C 455.06399999999996 473.678 451.763 472.507 448.37899999999996 471.674 C 448.17199999999997 471.623 447.96299999999997 471.58 447.75499999999994 471.532 C 448.189 471.557 448.622 471.581 449.056 471.602 z M 457.959 465.23 C 456.684 467.75800000000004 454.033 469.05 451.394 469.69100000000003 C 449.621 470.122 447.803 470.324 445.979 470.37800000000004 C 446 470.37300000000005 446.02099999999996 470.37000000000006 446.042 470.36600000000004 C 447.275 470.09600000000006 448.48499999999996 469.72100000000006 449.657 469.25000000000006 C 451.981 468.31600000000003 454.15099999999995 467.05600000000004 456.073 465.44500000000005 C 456.60499999999996 464.999 457.116 464.52900000000005 457.60299999999995 464.035 C 457.9309999999999 463.702 458.2699999999999 463.358 458.57499999999993 462.992 C 458.532 463.769 458.305 464.543 457.959 465.23 z M 458.475 461.76 C 458.529 461.99 458.557 462.22499999999997 458.571 462.46 C 458.21000000000004 462.835 457.875 463.238 457.511 463.60999999999996 C 457.081 464.04999999999995 456.632 464.47099999999995 456.166 464.87299999999993 C 455.247 465.66599999999994 454.264 466.38199999999995 453.229 467.0159999999999 C 451.14099999999996 468.2949999999999 448.86199999999997 469.2259999999999 446.472 469.75999999999993 C 445.794 469.91099999999994 445.10999999999996 470.03099999999995 444.421 470.11999999999995 C 444.215 470.14599999999996 444.009 470.16299999999995 443.80199999999996 470.18199999999996 C 443.76399999999995 470.176 443.72499999999997 470.169 443.68699999999995 470.162 C 445.48799999999994 469.635 447.24299999999994 468.91499999999996 448.92699999999996 468.113 C 451.18699999999995 467.036 453.349 465.75 455.32199999999995 464.206 C 456.40299999999996 463.36 457.42199999999997 462.433 458.38699999999994 461.456 C 458.42 461.558 458.452 461.659 458.475 461.76 z M 442.079 469.891 C 443.108 468.894 444.11 467.87100000000004 445.166 466.90200000000004 C 446.334 465.83000000000004 447.54699999999997 464.80800000000005 448.803 463.84000000000003 C 450.052 462.877 451.344 461.97 452.671 461.119 C 453.284 460.72600000000006 453.901 460.326 454.543 459.98 C 455.086 459.68800000000005 455.686 459.439 456.315 459.48900000000003 C 456.769 459.52400000000006 457.159 459.72400000000005 457.483 460.01200000000006 C 453.671 463.1410000000001 449.588 465.93600000000004 445.262 468.30600000000004 C 444.261 468.85400000000004 443.248 469.38000000000005 442.242 469.91800000000006 C 442.188 469.908 442.133 469.9 442.079 469.891 z M 448.298 466.966 C 450.434 465.67 452.522 464.29900000000004 454.538 462.822 C 455.63800000000003 462.016 456.71500000000003 461.176 457.773 460.314 C 457.964 460.547 458.12 460.81300000000005 458.244 461.088 C 454.754 464.629 450.48 467.52000000000004 445.802 469.22900000000004 C 444.923 469.55000000000007 444.02000000000004 469.81800000000004 443.11400000000003 470.06600000000003 C 443.00000000000006 470.04600000000005 442.886 470.028 442.773 470.00800000000004 C 444.674 469.116 446.506 468.053 448.298 466.966 z M 452.229 480.622 C 448.431 478.052 445.34999999999997 474.677 442.246 471.34000000000003 C 442.125 471.21000000000004 442.003 471.083 441.88 470.95500000000004 C 441.978 470.963 442.077 470.96600000000007 442.175 470.973 C 442.427 471.17400000000004 442.683 471.369 442.94100000000003 471.562 C 445.153 473.92400000000004 447.61 476.04200000000003 450.19300000000004 477.991 C 451.58900000000006 479.04499999999996 453.016 480.075 454.494 481.013 C 455.73800000000006 481.80199999999996 457.023 482.532 458.39000000000004 483.089 C 459.16400000000004 483.404 459.963 483.66 460.78400000000005 483.821 C 460.91200000000003 483.846 461.04200000000003 483.87 461.17500000000007 483.894 C 458.005 484.013 454.774 482.344 452.229 480.622 z M 464.094 483.21 C 463.71999999999997 483.382 463.341 483.50899999999996 462.959 483.614 C 462.298 483.55499999999995 461.639 483.558 460.979 483.43399999999997 C 460.276 483.30199999999996 459.587 483.10099999999994 458.916 482.854 C 457.538 482.347 456.241 481.637 454.992 480.86899999999997 C 452.045 479.058 449.261 477.018 446.649 474.75 C 445.72 473.943 444.811 473.11 443.912 472.269 C 444.53999999999996 472.714 445.178 473.145 445.816 473.57 C 447.265 474.537 448.74499999999995 475.457 450.253 476.329 C 453.28299999999996 478.081 456.425 479.64 459.651 480.996 C 461.303 481.69 462.981 482.32 464.677 482.9 C 464.489 483.013 464.295 483.118 464.094 483.21 z M 455.595 478.745 C 452.485 477.252 449.47 475.562 446.57500000000005 473.686 C 445.35900000000004 472.89799999999997 444.18300000000005 472.056 442.99800000000005 471.224 C 446.016 472.305 449.011 473.444 451.96500000000003 474.691 C 455.08900000000006 476.00899999999996 458.15700000000004 477.46 461.18800000000005 478.979 C 462.87100000000004 479.823 464.54 480.697 466.19300000000004 481.597 C 465.88300000000004 481.969 465.52900000000005 482.30699999999996 465.13100000000003 482.59499999999997 C 461.879 481.507 458.688 480.23 455.595 478.745 z" stroke-linecap="round" />
</g>
</svg>