<?xml version="1.0" encoding="UTF-8" standalone="no" ?>
<!DOCTYPE svg PUBLIC "-//W3C//DTD SVG 1.1//EN" "http://www.w3.org/Graphics/SVG/1.1/DTD/svg11.dtd">
<svg xmlns="http://www.w3.org/2000/svg" xmlns:xlink="http://www.w3.org/1999/xlink" version="1.1" width="130" height="80" viewBox="0 10.71 130 80" xml:space="preserve">
<desc>Created with Fabric.js 5.2.4</desc>
<defs>
</defs>
<rect x="0" y="0" width="100%" height="100%" fill="transparent"></rect>
<g transform="matrix(Infinity NaN NaN Infinity 0 0)" id="dbb4e705-56be-4df9-91b2-46cd2014175f"  >
</g>
<g transform="matrix(1 0 0 1 65 40)" id="fc811ae7-94a6-4813-a672-5562730f3949"  >
<rect style="stroke: none; stroke-width: 1; stroke-dasharray: none; stroke-linecap: butt; stroke-dashoffset: 0; stroke-linejoin: miter; stroke-miterlimit: 4; fill: rgb(255,255,255); fill-rule: nonzero; opacity: 1; visibility: hidden;" vector-effect="non-scaling-stroke"  x="-65" y="-40" rx="0" ry="0" width="130" height="80" />
</g>
<g transform="matrix(1.18 0 0 2.32 65 50.84)"  >
<g style="" vector-effect="non-scaling-stroke"   >
		<g transform="matrix(1 0 0 1 -0.05 0)"  >
<path style="stroke: none; stroke-width: 1; stroke-dasharray: none; stroke-linecap: butt; stroke-dashoffset: 0; stroke-linejoin: miter; stroke-miterlimit: 4; fill: rgb(77,76,81); fill-rule: nonzero; opacity: 1;" vector-effect="non-scaling-stroke"  transform=" translate(-313.64, -469.36)" d="M 341.324 465.926 C 345.15000000000003 464.68199999999996 348.887 463.16499999999996 352.497 461.389 C 354.571 460.369 356.574 459.213 358.562 458.034 C 358.777 457.907 358.80400000000003 457.496 358.483 457.484 C 350.136 457.164 341.772 458.87 334.67 463.412 C 332.79200000000003 464.613 331.04400000000004 466.001 329.454 467.56199999999995 C 329.416 467.59899999999993 329.394 467.64099999999996 329.372 467.68299999999994 C 325.831 467.2579999999999 322.269 467.01199999999994 318.701 466.99199999999996 C 314.15700000000004 466.96599999999995 309.61400000000003 467.27199999999993 305.115 467.893 C 305.373 467.816 305.633 467.741 305.89 467.664 C 310.699 466.216 315.453 464.577 320.14599999999996 462.791 C 322.806 461.779 325.44599999999997 460.704 328.054 459.565 C 328.349 459.436 328.304 458.94599999999997 327.962 458.922 C 317.449 458.177 307.211 461.38000000000005 298.11199999999997 466.48600000000005 C 295.66599999999994 467.85900000000004 293.28299999999996 469.35100000000006 290.94699999999995 470.90400000000005 C 290.93699999999995 470.90000000000003 290.92599999999993 470.89700000000005 290.91599999999994 470.89300000000003 C 290.7699999999999 470.83900000000006 290.6669999999999 470.935 290.64099999999996 471.04900000000004 C 288.93399999999997 471.56500000000005 287.23499999999996 472.11300000000006 285.55999999999995 472.728 C 279.63899999999995 474.902 273.91099999999994 477.635 268.6039999999999 481.052 C 268.48599999999993 481.12800000000004 268.6069999999999 481.336 268.7299999999999 481.26500000000004 C 275.8939999999999 477.17500000000007 283.4459999999999 473.855 291.3289999999999 471.53700000000003 C 299.4569999999999 475.19700000000006 308.5469999999999 477.002 317.4149999999999 477.39900000000006 C 319.9799999999999 477.51400000000007 322.5499999999999 477.4990000000001 325.1149999999999 477.36600000000004 C 325.5159999999999 477.345 325.4829999999999 476.81500000000005 325.2009999999999 476.66200000000003 C 317.2429999999999 472.36600000000004 308.2419999999999 470.083 299.1959999999999 470.093 C 298.4659999999999 470.094 297.7379999999999 470.123 297.0089999999999 470.154 C 297.7049999999999 469.978 298.3999999999999 469.805 299.0939999999999 469.618 C 299.3459999999999 469.566 299.5959999999999 469.503 299.8489999999999 469.454 C 306.7379999999999 468.123 313.7409999999999 467.611 320.7259999999999 467.847 C 321.97699999999986 468.969 323.4029999999999 469.90799999999996 324.8339999999999 470.78 C 326.3729999999999 471.71799999999996 327.9629999999999 472.57199999999995 329.5959999999999 473.335 C 332.84199999999987 474.851 336.2529999999999 476.003 339.7499999999999 476.777 C 341.7949999999999 477.22999999999996 343.8679999999999 477.543 345.9539999999999 477.729 C 346.3249999999999 477.762 346.5669999999999 477.263 346.2389999999999 477.031 C 340.0589999999999 472.658 333.0449999999999 469.708 325.6809999999999 468.13100000000003 C 326.9849999999999 468.24300000000005 328.28799999999995 468.377 329.58699999999993 468.54200000000003 C 329.61299999999994 468.598 329.6669999999999 468.646 329.73599999999993 468.644 C 329.85499999999996 468.64 329.9749999999999 468.62 330.09399999999994 468.613 C 331.3829999999999 468.783 332.6689999999999 468.971 333.95199999999994 469.193 C 337.12899999999996 469.74199999999996 340.27899999999994 470.45 343.3829999999999 471.323 C 346.53099999999995 472.20799999999997 349.6019999999999 473.32899999999995 352.73799999999994 474.24399999999997 C 352.97799999999995 474.31399999999996 353.1139999999999 473.998 352.88699999999994 473.883 C 350.28599999999994 472.55899999999997 347.5009999999999 471.64099999999996 344.70399999999995 470.82099999999997 C 341.905 469.99999999999994 339.06899999999996 469.30499999999995 336.20699999999994 468.741 C 335.14699999999993 468.532 334.0799999999999 468.36199999999997 333.01399999999995 468.191 C 333.90899999999993 467.998 334.79699999999997 467.77299999999997 335.66099999999994 467.556 C 337.567 467.076 339.456 466.533 341.324 465.926 z M 319.146 459.828 C 320.492 459.652 321.84700000000004 459.546 323.204 459.49899999999997 C 322.863 459.57199999999995 322.524 459.64599999999996 322.18600000000004 459.715 C 321.038 459.948 319.896 460.20399999999995 318.75600000000003 460.46999999999997 C 316.48900000000003 460.998 314.23900000000003 461.597 312.01000000000005 462.27 C 307.528 463.62399999999997 303.13800000000003 465.275 298.87700000000007 467.215 C 297.54100000000005 467.823 296.2010000000001 468.45 294.88500000000005 469.12199999999996 C 302.302 464.533 310.466 460.963 319.146 459.828 z M 298.119 473.338 C 296.12300000000005 472.735 294.149 472.05100000000004 292.18600000000004 471.344 C 292.67 471.28 293.15600000000006 471.247 293.641 471.19599999999997 C 295.15700000000004 471.41499999999996 296.68600000000004 471.56699999999995 298.202 471.77399999999994 C 300.274 472.05699999999996 302.341 472.3759999999999 304.402 472.73099999999994 C 308.56399999999996 473.44699999999995 312.699 474.33099999999996 316.801 475.33399999999995 C 318.462 475.73999999999995 320.104 476.21599999999995 321.745 476.69899999999996 C 313.76 476.769 305.762 475.648 298.119 473.338 z M 318.058 474.228 C 319.376 474.717 320.664 475.278 321.938 475.87 C 318.59 474.998 315.20599999999996 474.225 311.824 473.521 C 307.654 472.654 303.444 471.938 299.225 471.357 C 298.281 471.22700000000003 297.33000000000004 471.09400000000005 296.377 470.97200000000004 C 303.729 470.576 311.147 471.666 318.058 474.228 z M 294.124 470.094 C 295.49600000000004 469.407 296.865 468.715 298.26000000000005 468.073 C 300.35200000000003 467.109 302.47600000000006 466.21599999999995 304.62500000000006 465.38899999999995 C 308.97100000000006 463.71599999999995 313.42800000000005 462.33099999999996 317.9580000000001 461.24799999999993 C 319.2430000000001 460.9409999999999 320.5350000000001 460.6669999999999 321.8320000000001 460.41599999999994 C 323.1250000000001 460.16599999999994 324.4540000000001 460.02899999999994 325.7360000000001 459.7339999999999 C 325.7800000000001 459.72399999999993 325.8080000000001 459.6989999999999 325.8400000000001 459.6789999999999 C 325.8670000000001 459.6819999999999 325.8950000000001 459.6819999999999 325.9220000000001 459.6849999999999 C 325.93700000000007 459.6869999999999 325.95200000000006 459.6879999999999 325.96600000000007 459.6899999999999 C 317.47800000000007 463.1779999999999 308.8310000000001 466.2589999999999 299.99500000000006 468.75099999999986 C 298.025 469.132 296.068 469.589 294.124 470.094 z M 332.697 473.91 C 330.577 473.096 328.514 472.13500000000005 326.528 471.03400000000005 C 325.211 470.30400000000003 323.96200000000005 469.47600000000006 322.709 468.6530000000001 C 326.089 470.00700000000006 329.537 471.2050000000001 332.933 472.5150000000001 C 336.328 473.8250000000001 339.682 475.2400000000001 343.061 476.5890000000001 C 339.521 476.076 336.04 475.194 332.697 473.91 z M 342.131 475.359 C 339.162 474.173 336.14799999999997 473.08099999999996 333.15799999999996 471.96799999999996 C 329.907 470.758 326.643 469.50999999999993 323.328 468.46599999999995 C 329.953 469.565 336.346 471.951 342.131 475.359 z M 351.026 458.422 C 352.354 458.25300000000004 353.696 458.16200000000003 355.04 458.10600000000005 C 352.081 458.75300000000004 349.14500000000004 459.63800000000003 346.29600000000005 460.5930000000001 C 342.63900000000007 461.8190000000001 339.0930000000001 463.3180000000001 335.63300000000004 465.0200000000001 C 333.93500000000006 465.8550000000001 332.21600000000007 466.7190000000001 330.60100000000006 467.7200000000001 C 336.155 462.411 343.441 459.388 351.026 458.422 z M 331.226 467.912 C 331.208 467.909 331.189 467.90799999999996 331.171 467.905 C 332.48699999999997 467.214 333.79 466.498 335.125 465.84299999999996 C 336.821 465.01099999999997 338.543 464.23999999999995 340.293 463.53 C 343.87 462.07899999999995 347.522 460.80699999999996 351.25 459.79999999999995 C 352.956 459.33899999999994 354.677 458.97999999999996 356.4 458.60799999999995 C 350.053 462.20399999999995 343.149 464.96299999999997 336.10999999999996 466.78799999999995 C 334.503 467.204 332.841 467.497 331.226 467.912 z" stroke-linecap="round" />
</g>
		<g transform="matrix(1 0 0 1 40.08 5.37)"  >
<path style="stroke: none; stroke-width: 1; stroke-dasharray: none; stroke-linecap: butt; stroke-dashoffset: 0; stroke-linejoin: miter; stroke-miterlimit: 4; fill: rgb(77,76,81); fill-rule: nonzero; opacity: 1;" vector-effect="non-scaling-stroke"  transform=" translate(-353.77, -474.73)" d="M 353.755 474.748 C 353.76 474.743 353.764 474.739 353.769 474.734 C 353.772 474.728 353.776 474.722 353.78000000000003 474.716 C 353.773 474.728 353.765 474.738 353.755 474.748 z" stroke-linecap="round" />
</g>
		<g transform="matrix(1 0 0 1 40.77 5.86)"  >
<path style="stroke: none; stroke-width: 1; stroke-dasharray: none; stroke-linecap: butt; stroke-dashoffset: 0; stroke-linejoin: miter; stroke-miterlimit: 4; fill: rgb(77,76,81); fill-rule: nonzero; opacity: 1;" vector-effect="non-scaling-stroke"  transform=" translate(-354.46, -475.23)" d="M 355.34 475.086 C 355.335 475.03700000000003 355.30499999999995 474.998 355.28999999999996 474.95300000000003 C 355.289 474.94800000000004 355.287 474.94100000000003 355.28599999999994 474.937 C 355.2749999999999 474.899 355.26499999999993 474.85 355.24799999999993 474.81 C 355.21199999999993 474.749 355.17599999999993 474.689 355.13999999999993 474.628 C 355.0759999999999 474.539 354.9939999999999 474.471 354.8959999999999 474.426 C 354.8359999999999 474.381 354.7699999999999 474.354 354.6959999999999 474.344 C 354.5899999999999 474.306 354.4799999999999 474.298 354.36599999999993 474.319 C 354.2969999999999 474.339 354.22799999999995 474.358 354.15899999999993 474.37800000000004 C 354.09799999999996 474.41400000000004 354.03799999999995 474.45000000000005 353.9769999999999 474.48600000000005 C 353.93499999999995 474.516 353.91399999999993 474.56300000000005 353.8819999999999 474.60100000000006 C 353.8789999999999 474.6050000000001 353.8739999999999 474.60600000000005 353.8699999999999 474.61000000000007 C 353.8609999999999 474.61800000000005 353.8579999999999 474.63200000000006 353.8489999999999 474.64000000000004 C 353.82599999999985 474.672 353.7909999999999 474.694 353.7739999999999 474.73 C 353.7739999999999 474.73 353.7739999999999 474.731 353.7739999999999 474.731 C 353.78699999999986 474.717 353.8009999999999 474.704 353.8139999999999 474.69 C 353.7939999999999 474.713 353.7779999999999 474.74 353.7609999999999 474.766 C 353.75299999999993 474.779 353.75299999999993 474.795 353.7459999999999 474.808 C 353.73599999999993 474.822 353.72399999999993 474.834 353.7149999999999 474.849 C 353.7149999999999 474.847 353.7159999999999 474.844 353.7169999999999 474.842 C 353.71599999999995 474.84499999999997 353.7149999999999 474.84799999999996 353.71399999999994 474.84999999999997 C 353.70099999999996 474.87199999999996 353.6789999999999 474.888 353.66799999999995 474.91099999999994 C 353.67999999999995 474.88999999999993 353.69199999999995 474.86999999999995 353.70399999999995 474.84899999999993 C 353.698 474.8619999999999 353.686 474.8689999999999 353.6809999999999 474.88199999999995 C 353.67799999999994 474.89199999999994 353.67299999999994 474.90199999999993 353.66799999999995 474.91099999999994 C 353.66099999999994 474.92499999999995 353.64699999999993 474.93299999999994 353.64099999999996 474.94699999999995 C 353.621 475.02199999999993 353.602 475.09799999999996 353.58199999999994 475.17299999999994 C 353.56299999999993 475.32899999999995 353.5849999999999 475.4789999999999 353.64599999999996 475.62399999999997 C 353.68799999999993 475.731 353.75199999999995 475.82199999999995 353.83899999999994 475.89399999999995 C 353.91299999999995 475.98099999999994 354.00499999999994 476.0439999999999 354.1139999999999 476.0849999999999 C 354.2249999999999 476.13499999999993 354.33899999999994 476.15399999999994 354.45699999999994 476.1429999999999 C 354.5729999999999 476.15199999999993 354.6839999999999 476.1309999999999 354.79099999999994 476.0799999999999 C 354.92999999999995 476.01899999999995 355.04599999999994 475.92799999999994 355.13899999999995 475.80799999999994 C 355.19399999999996 475.73999999999995 355.23499999999996 475.65899999999993 355.27199999999993 475.5799999999999 C 355.2749999999999 475.57399999999996 355.27699999999993 475.5679999999999 355.27899999999994 475.56199999999995 C 355.2799999999999 475.55899999999997 355.28099999999995 475.55499999999995 355.2819999999999 475.55199999999996 C 355.30299999999994 475.47799999999995 355.32499999999993 475.39399999999995 355.3429999999999 475.31999999999994 C 355.342 475.241 355.341 475.163 355.34 475.086 z" stroke-linecap="round" />
</g>
		<g transform="matrix(1 0 0 1 40.05 5.43)"  >
<path style="stroke: none; stroke-width: 1; stroke-dasharray: none; stroke-linecap: butt; stroke-dashoffset: 0; stroke-linejoin: miter; stroke-miterlimit: 4; fill: rgb(77,76,81); fill-rule: nonzero; opacity: 1;" vector-effect="non-scaling-stroke"  transform=" translate(-353.74, -474.79)" d="M 353.774 474.729 L 353.769 474.734 C 353.747 474.772 353.725 474.81 353.704 474.84799999999996 C 353.718 474.816 353.744 474.79299999999995 353.762 474.76399999999995 C 353.768 474.754 353.767 474.74 353.774 474.729 z" stroke-linecap="round" />
</g>
		<g transform="matrix(1 0 0 1 42.73 6.78)"  >
<path style="stroke: none; stroke-width: 1; stroke-dasharray: none; stroke-linecap: butt; stroke-dashoffset: 0; stroke-linejoin: miter; stroke-miterlimit: 4; fill: rgb(77,76,81); fill-rule: nonzero; opacity: 1;" vector-effect="non-scaling-stroke"  transform=" translate(-356.42, -476.14)" d="M 357.031 476.049 C 357.015 475.94199999999995 356.974 475.846 356.907 475.76099999999997 C 356.87 475.724 356.83299999999997 475.68699999999995 356.796 475.65099999999995 C 356.73199999999997 475.59799999999996 356.659 475.56499999999994 356.579 475.55099999999993 C 356.5 475.5229999999999 356.419 475.51699999999994 356.335 475.5319999999999 C 356.253 475.54099999999994 356.18 475.5689999999999 356.11499999999995 475.61599999999993 C 356.0439999999999 475.65099999999995 355.984 475.7009999999999 355.93699999999995 475.7679999999999 C 355.88399999999996 475.83199999999994 355.84999999999997 475.9049999999999 355.83699999999993 475.9849999999999 C 355.8089999999999 476.0639999999999 355.80299999999994 476.1449999999999 355.8179999999999 476.2289999999999 C 355.82699999999994 476.3109999999999 355.8549999999999 476.3839999999999 355.90199999999993 476.44899999999996 C 355.93699999999995 476.52099999999996 355.9869999999999 476.5799999999999 356.05299999999994 476.62699999999995 C 356.11699999999996 476.67999999999995 356.18999999999994 476.71299999999997 356.2699999999999 476.727 C 356.34899999999993 476.755 356.42999999999995 476.76099999999997 356.51399999999995 476.746 C 356.621 476.72999999999996 356.7169999999999 476.68899999999996 356.80199999999996 476.62199999999996 C 356.81199999999995 476.614 356.823 476.60499999999996 356.83299999999997 476.59599999999995 C 356.83799999999997 476.5919999999999 356.84299999999996 476.58699999999993 356.849 476.58299999999997 C 356.901 476.54499999999996 356.94 476.498 356.967 476.441 C 357.00399999999996 476.388 357.025 476.328 357.031 476.262 C 357.031 476.261 357.031 476.259 357.032 476.258 C 357.032 476.255 357.032 476.253 357.032 476.25 C 357.03299999999996 476.239 357.03299999999996 476.228 357.034 476.217 L 357.034 476.21299999999997 C 357.033 476.159 357.032 476.104 357.031 476.049 z" stroke-linecap="round" />
</g>
		<g transform="matrix(1 0 0 1 44.54 8.06)"  >
<path style="stroke: none; stroke-width: 1; stroke-dasharray: none; stroke-linecap: butt; stroke-dashoffset: 0; stroke-linejoin: miter; stroke-miterlimit: 4; fill: rgb(77,76,81); fill-rule: nonzero; opacity: 1;" vector-effect="non-scaling-stroke"  transform=" translate(-358.23, -477.42)" d="M 358.803 477.27 C 358.789 477.198 358.758 477.133 358.709 477.07599999999996 C 358.675 477.042 358.641 477.00899999999996 358.607 476.97499999999997 C 358.526 476.914 358.435 476.87699999999995 358.33500000000004 476.864 C 358.31600000000003 476.85999999999996 358.297 476.856 358.278 476.852 C 358.175 476.84 358.076 476.854 357.981 476.895 C 357.939 476.91999999999996 357.897 476.945 357.855 476.96999999999997 C 357.776 477.03299999999996 357.71700000000004 477.10999999999996 357.678 477.203 C 357.645 477.27599999999995 357.632 477.351 357.64 477.429 C 357.634 477.505 357.64799999999997 477.57899999999995 357.68199999999996 477.649 C 357.71 477.72 357.75199999999995 477.779 357.80899999999997 477.827 C 357.85799999999995 477.884 357.91799999999995 477.926 357.98999999999995 477.953 C 358.08799999999997 477.993 358.18899999999996 478.005 358.29299999999995 477.98999999999995 C 358.31199999999995 477.98599999999993 358.3299999999999 477.98199999999997 358.34899999999993 477.9789999999999 C 358.4239999999999 477.97099999999995 358.49099999999993 477.94499999999994 358.55099999999993 477.90199999999993 C 358.6169999999999 477.86999999999995 358.67099999999994 477.82399999999996 358.71399999999994 477.7629999999999 C 358.73799999999994 477.72099999999995 358.7629999999999 477.6789999999999 358.7869999999999 477.63699999999994 C 358.8189999999999 477.5659999999999 358.83199999999994 477.49199999999996 358.8239999999999 477.41499999999996 C 358.83 477.366 358.823 477.317 358.803 477.27 z" stroke-linecap="round" />
</g>
</g>
</g>
</svg>