<?xml version="1.0" encoding="UTF-8" standalone="no" ?>
<!DOCTYPE svg PUBLIC "-//W3C//DTD SVG 1.1//EN" "http://www.w3.org/Graphics/SVG/1.1/DTD/svg11.dtd">
<svg xmlns="http://www.w3.org/2000/svg" xmlns:xlink="http://www.w3.org/1999/xlink" version="1.1" width="80" height="200" viewBox="0 0 80 200" xml:space="preserve">
<desc>Created with Fabric.js 5.2.4</desc>
<defs>
</defs>
<rect x="0" y="0" width="100%" height="100%" fill="transparent"></rect>
<g transform="matrix(1 0 0 1 40 100)" id="1640a779-a82b-4dc8-be6b-c8e2fec20882"  >
<rect style="stroke: none; stroke-width: 1; stroke-dasharray: none; stroke-linecap: butt; stroke-dashoffset: 0; stroke-linejoin: miter; stroke-miterlimit: 4; fill: rgb(255,255,255); fill-rule: nonzero; opacity: 1; visibility: hidden;" vector-effect="non-scaling-stroke"  x="-40" y="-100" rx="0" ry="0" width="80" height="200" />
</g>
<g transform="matrix(Infinity NaN NaN Infinity 0 0)" id="80ba961a-4c47-4854-a66f-01c3b96fd98e"  >
</g>
<g transform="matrix(1 0 0 1 40 100)"  >
<g style="" vector-effect="non-scaling-stroke"   >
		<g transform="matrix(1 0 0 1 0 0)"  >
<path style="stroke: none; stroke-width: 1; stroke-dasharray: none; stroke-linecap: butt; stroke-dashoffset: 0; stroke-linejoin: miter; stroke-miterlimit: 4; fill: rgb(77,76,81); fill-rule: nonzero; opacity: 1;" vector-effect="non-scaling-stroke"  transform=" translate(-372.41, -123.81)" d="M 404.34 107.829 C 403.21999999999997 108.29199999999999 402.15999999999997 108.88799999999999 401.09799999999996 109.469 C 400.049 110.044 399.01099999999997 110.637 397.984 111.24799999999999 C 395.91299999999995 112.47999999999999 393.88599999999997 113.78599999999999 391.907 115.16199999999999 C 387.95099999999996 117.913 384.19399999999996 120.946 380.664 124.226 C 377.18 127.463 373.817 130.915 371.09499999999997 134.829 C 370.38199999999995 135.854 369.724 136.916 369.116 138.005 C 369.52799999999996 135.5 370.163 133.06 371.108 130.684 C 372.262 127.78 373.746 125.01899999999999 375.354 122.344 C 375.669 121.81899999999999 375.996 121.30199999999999 376.32099999999997 120.78399999999999 C 376.38599999999997 120.79299999999999 376.455 120.77399999999999 376.513 120.704 C 379.709 116.823 383.402 113.40499999999999 386.83799999999997 109.74499999999999 C 390.10699999999997 106.26199999999999 393.15599999999995 102.42899999999999 394.92999999999995 97.948 C 395.78999999999996 95.77499999999999 396.32099999999997 93.48299999999999 396.39399999999995 91.143 C 396.47099999999995 88.667 396.018 86.214 395.41999999999996 83.821 C 394.81199999999995 81.387 394.04299999999995 78.995 393.46899999999994 76.553 C 392.9049999999999 74.154 392.59599999999995 71.703 392.5709999999999 69.238 C 392.5209999999999 64.343 393.5709999999999 59.433 395.6329999999999 54.992 C 395.70899999999995 54.827999999999996 395.79599999999994 54.669999999999995 395.8739999999999 54.507999999999996 C 396.2499999999999 54.077 396.6289999999999 53.647 397.02199999999993 53.23199999999999 C 397.2199999999999 53.02299999999999 396.9789999999999 52.70099999999999 396.7389999999999 52.75099999999999 C 396.7489999999999 52.56899999999999 396.5439999999999 52.38399999999999 396.3429999999999 52.51499999999999 C 392.8589999999999 54.797 390.0949999999999 58.00399999999999 387.99099999999993 61.574999999999996 C 385.8229999999999 65.253 384.35799999999995 69.318 383.41399999999993 73.472 C 382.26399999999995 78.53399999999999 381.8419999999999 83.723 381.5519999999999 88.895 C 381.2709999999999 93.914 381.1129999999999 98.945 380.5329999999999 103.942 C 379.9689999999999 108.79599999999999 379.0079999999999 113.65299999999999 377.1459999999999 118.18799999999999 C 377.1199999999999 118.25199999999998 377.0959999999999 118.31599999999999 377.0699999999999 118.37999999999998 C 376.6419999999999 119.04199999999999 376.2189999999999 119.70699999999998 375.8029999999999 120.37599999999998 C 373.0989999999999 124.72899999999997 370.6489999999999 129.37999999999997 369.3939999999999 134.36999999999998 C 369.4079999999999 134.17299999999997 369.4159999999999 133.97499999999997 369.4289999999999 133.777 C 370.7169999999999 128.48399999999998 371.94499999999994 123.17599999999999 373.0319999999999 117.838 C 373.1549999999999 117.234 373.27599999999995 116.62899999999999 373.3949999999999 116.024 C 374.6219999999999 114.218 375.5329999999999 112.173 376.3789999999999 110.17 C 377.2799999999999 108.038 378.03899999999993 105.84400000000001 378.6719999999999 103.619 C 379.9539999999999 99.109 380.6919999999999 94.439 380.8409999999999 89.752 C 380.9999999999999 84.74499999999999 380.4389999999999 79.758 379.9689999999999 74.78099999999999 C 379.52299999999985 70.05799999999999 379.1529999999999 65.30099999999999 379.5909999999999 60.56299999999999 C 379.9949999999999 56.20199999999999 381.0579999999999 51.84599999999999 383.2759999999999 48.03499999999999 C 383.3209999999999 47.95799999999999 383.3729999999999 47.88499999999999 383.41899999999987 47.80799999999999 C 383.46999999999986 47.770999999999994 383.51799999999986 47.73199999999999 383.5699999999999 47.69599999999999 C 383.69299999999987 47.60999999999999 383.7209999999999 47.48599999999999 383.6919999999999 47.37399999999999 C 383.8529999999999 47.115999999999985 384.00799999999987 46.853999999999985 384.1769999999999 46.60199999999999 C 384.4149999999999 46.24799999999999 383.9159999999999 45.80699999999999 383.66399999999993 46.16499999999999 C 383.36799999999994 46.58599999999999 383.0899999999999 47.017999999999994 382.82499999999993 47.456999999999994 C 379.69399999999996 49.74499999999999 377.1139999999999 52.760999999999996 375.33899999999994 56.208999999999996 C 374.39699999999993 58.038 373.68799999999993 59.985 373.22999999999996 61.991 C 372.67499999999995 64.417 372.46599999999995 66.903 372.30699999999996 69.381 C 372.14799999999997 71.865 371.99799999999993 74.344 371.72499999999997 76.819 C 371.44699999999995 79.337 371.10299999999995 81.84700000000001 370.82199999999995 84.36500000000001 C 370.62699999999995 86.12 370.46899999999994 87.879 370.37799999999993 89.641 C 370.18499999999995 85.956 369.6329999999999 82.29 368.7749999999999 78.702 C 368.50699999999995 77.579 368.2059999999999 76.465 367.87299999999993 75.359 C 367.5369999999999 74.244 367.2009999999999 73.094 366.6929999999999 72.04299999999999 C 366.64899999999994 71.95299999999999 366.55099999999993 71.961 366.50499999999994 72.02 C 366.4479999999999 71.948 366.3209999999999 71.96499999999999 366.32899999999995 72.068 C 366.28899999999993 72.099 366.25899999999996 72.14399999999999 366.25899999999996 72.2 C 366.258 73.062 366.364 73.924 366.37399999999997 74.787 C 366.38399999999996 75.631 366.354 76.474 366.301 77.316 C 366.193 79.028 365.984 80.732 365.77799999999996 82.434 C 365.40299999999996 85.533 365.04599999999994 88.663 365.35499999999996 91.785 C 365.45799999999997 92.825 365.65 93.85 365.92699999999996 94.852 C 364.998 93.39200000000001 363.96999999999997 91.995 362.847 90.682 C 361.14099999999996 88.68900000000001 359.231 86.886 357.167 85.276 C 357.061 85.02499999999999 356.87399999999997 84.809 356.73699999999997 84.574 C 356.59499999999997 84.329 356.47499999999997 84.071 356.373 83.807 C 356.159 83.25 356.032 82.663 355.984 82.069 C 355.952 81.676 355.962 81.272 356.006 80.86800000000001 C 356.20099999999996 80.23100000000001 356.41499999999996 79.60000000000001 356.698 78.995 C 357.03799999999995 78.269 357.45099999999996 77.57900000000001 357.895 76.91300000000001 C 358.801 75.555 359.808 74.26700000000001 360.669 72.879 C 362.455 70.001 363.70599999999996 66.813 364.517 63.53 C 366.23199999999997 56.585 365.945 49.327 364.831 42.313 C 364.322 39.111000000000004 363.61400000000003 35.951 362.857 32.801 C 362.85200000000003 32.766000000000005 362.84900000000005 32.730000000000004 362.84400000000005 32.695 C 362.83900000000006 32.661 362.82700000000006 32.634 362.81100000000004 32.611 C 362.735 32.294999999999995 362.66100000000006 31.978999999999996 362.58400000000006 31.663999999999998 C 362.67600000000004 31.189999999999998 362.76900000000006 30.715999999999998 362.8620000000001 30.241 C 362.9090000000001 29.998 362.7240000000001 29.857 362.5320000000001 29.846 C 362.5670000000001 29.686 362.4350000000001 29.499 362.2610000000001 29.53 C 361.8760000000001 29.6 361.5370000000001 29.958000000000002 361.23500000000007 30.194000000000003 C 360.8910000000001 30.463 360.55100000000004 30.739000000000004 360.2200000000001 31.024 C 359.5520000000001 31.599 358.9070000000001 32.202 358.2900000000001 32.83 C 357.2780000000001 33.86 356.3740000000001 34.982 355.5540000000001 36.167 C 355.2420000000001 32.893 354.4070000000001 29.661 353.22300000000007 26.594 C 352.5920000000001 24.959 351.88400000000007 23.322000000000003 351.06200000000007 21.75 C 351.0470000000001 21.704 351.0330000000001 21.658 351.01900000000006 21.612 C 350.97300000000007 21.538999999999998 350.92600000000004 21.467 350.8810000000001 21.395 C 350.8780000000001 21.393 350.8750000000001 21.391 350.87200000000007 21.387999999999998 C 350.8590000000001 21.348999999999997 350.84900000000005 21.31 350.83400000000006 21.270999999999997 C 350.6650000000001 20.830999999999996 350.45500000000004 20.409999999999997 350.21500000000003 20.005999999999997 C 349.98 19.609999999999996 349.71900000000005 19.213999999999995 349.40200000000004 18.877999999999997 C 349.13700000000006 18.595999999999997 348.65900000000005 18.447999999999997 348.45700000000005 18.876999999999995 C 348.41900000000004 18.957999999999995 348.47700000000003 19.044999999999995 348.5520000000001 19.069999999999997 C 348.5760000000001 20.209999999999997 348.5420000000001 21.348999999999997 348.4100000000001 22.484999999999996 C 348.2370000000001 23.977999999999994 347.93500000000006 25.451999999999995 347.5830000000001 26.911999999999995 C 346.8710000000001 29.866999999999997 345.9580000000001 32.775 345.4080000000001 35.767999999999994 C 344.42600000000004 41.10699999999999 344.7370000000001 46.657 346.23100000000005 51.87199999999999 C 346.845 54.01499999999999 347.6650000000001 56.10199999999999 348.6820000000001 58.08699999999999 C 348.6930000000001 58.12399999999999 348.70400000000006 58.15999999999999 348.7150000000001 58.19699999999999 C 348.6530000000001 58.25699999999999 348.6090000000001 58.33699999999999 348.6090000000001 58.44399999999999 C 348.6130000000001 59.328999999999986 348.6480000000001 60.21199999999999 348.7060000000001 61.09399999999999 C 348.6720000000001 62.08799999999999 348.7560000000001 63.08399999999999 349.0030000000001 64.04199999999999 C 349.0340000000001 64.27199999999999 349.0750000000001 64.50099999999999 349.1090000000001 64.73099999999998 C 349.1610000000001 65.34399999999998 349.2030000000001 66.04999999999998 349.4390000000001 66.63599999999998 C 349.9340000000001 69.16299999999998 350.6500000000001 71.64499999999998 351.57400000000007 74.04999999999998 C 351.83000000000004 75.02599999999998 352.13900000000007 75.98699999999998 352.52200000000005 76.91999999999999 C 353.20500000000004 78.585 354.0930000000001 80.23499999999999 355.30600000000004 81.576 C 355.321 81.59299999999999 355.338 81.606 355.35600000000005 81.615 C 355.35100000000006 81.77 355.34700000000004 81.925 355.35400000000004 82.079 C 355.38200000000006 82.714 355.511 83.34599999999999 355.72800000000007 83.943 C 355.77400000000006 84.069 355.8260000000001 84.191 355.88000000000005 84.313 C 355.07000000000005 83.729 354.23900000000003 83.171 353.39000000000004 82.644 C 349.75100000000003 80.385 345.80600000000004 78.67 341.70700000000005 77.44000000000001 C 341.20400000000006 77.28900000000002 340.696 77.17900000000002 340.18000000000006 77.08300000000001 C 340.0470000000001 77.058 339.97400000000005 77.25400000000002 340.09200000000004 77.31600000000002 C 340.009 77.36300000000001 339.956 77.46800000000002 340.03000000000003 77.55500000000002 C 340.314 77.89100000000002 340.52500000000003 78.25800000000002 340.766 78.62300000000002 C 341.00800000000004 78.99000000000002 341.216 79.37800000000001 341.39500000000004 79.77900000000002 C 341.747 80.56900000000003 341.999 81.40400000000002 342.19300000000004 82.24600000000002 C 342.58700000000005 83.95900000000002 342.72600000000006 85.71500000000002 343.05000000000007 87.44000000000003 C 343.3620000000001 89.10200000000003 343.82400000000007 90.77700000000003 344.75500000000005 92.20800000000003 C 345.232 92.94100000000003 345.83600000000007 93.58000000000003 346.53800000000007 94.10000000000002 C 347.31500000000005 94.67500000000003 348.17600000000004 95.12200000000003 348.96700000000004 95.67600000000002 C 349.71100000000007 96.19700000000002 350.33000000000004 96.82200000000002 350.82900000000006 97.58200000000002 C 351.3160000000001 98.32500000000002 351.68500000000006 99.13400000000003 352.04300000000006 99.94400000000002 C 352.7710000000001 101.59200000000001 353.52600000000007 103.16100000000002 354.7060000000001 104.54000000000002 C 357.09100000000007 107.32600000000002 360.2850000000001 109.26300000000002 362.7180000000001 112.00500000000002 C 364.5130000000001 114.02800000000002 365.98300000000006 116.34400000000002 367.06700000000006 118.82500000000002 C 367.30500000000006 119.48100000000002 367.5470000000001 120.13500000000002 367.8020000000001 120.78500000000001 C 367.8140000000001 120.81700000000001 367.83200000000005 120.84100000000001 367.85100000000006 120.86200000000001 C 367.9320000000001 121.102 368.01900000000006 121.33900000000001 368.0930000000001 121.581 C 368.2290000000001 122.024 368.3570000000001 122.471 368.4840000000001 122.917 C 368.4890000000001 122.936 368.5010000000001 122.949 368.5100000000001 122.965 C 368.5250000000001 123.096 368.5430000000001 123.226 368.55700000000013 123.357 C 368.71000000000015 124.8 368.80600000000015 126.249 368.8580000000001 127.699 C 368.8540000000001 127.758 368.84500000000014 127.816 368.8420000000001 127.875 C 368.8390000000001 127.925 368.8510000000001 127.965 368.8670000000001 128.001 C 368.9720000000001 131.418 368.8020000000001 134.842 368.3400000000001 138.231 C 368.25900000000007 138.827 368.16800000000006 139.422 368.0690000000001 140.015 C 368.0680000000001 140.022 368.07000000000005 140.027 368.07000000000005 140.034 C 367.92600000000004 140.34199999999998 367.77600000000007 140.647 367.64400000000006 140.96099999999998 C 366.6650000000001 143.278 366.02500000000003 145.72299999999998 365.70000000000005 148.21599999999998 C 365.02000000000004 153.42399999999998 365.62300000000005 158.7 366.535 163.84099999999998 C 366.64700000000005 164.474 366.78200000000004 165.10199999999998 366.92 165.73 C 366.952 165.87599999999998 367.07800000000003 165.944 367.196 165.944 C 367.01300000000003 167.19799999999998 366.85 168.45399999999998 366.708 169.712 C 366.201 174.21599999999998 365.925 178.74099999999999 365.64300000000003 183.26299999999998 C 365.353 187.92899999999997 365.067 192.59499999999997 364.78200000000004 197.26099999999997 C 364.206 206.67899999999997 363.58400000000006 216.09699999999998 363.16700000000003 225.52299999999997 C 363.117 226.64499999999998 363.079 227.75399999999996 363.095 228.87699999999998 C 363.098 229.06099999999998 363.39200000000005 229.07099999999997 363.41700000000003 228.891 C 363.742 226.564 363.87300000000005 224.209 364.045 221.86599999999999 C 364.214 219.557 364.375 217.248 364.526 214.93699999999998 C 364.831 210.27399999999997 365.13300000000004 205.60999999999999 365.427 200.94599999999997 C 366.007 191.75499999999997 366.42100000000005 182.53599999999997 367.24 173.36199999999997 C 367.517 170.25499999999997 367.891 167.16099999999997 368.41700000000003 164.09899999999996 C 368.42400000000004 164.09999999999997 368.43100000000004 164.09599999999998 368.432 164.08799999999997 C 368.433 164.07599999999996 368.435 164.06399999999996 368.43600000000004 164.05199999999996 C 368.48 164.00699999999998 368.52900000000005 163.96699999999996 368.56600000000003 163.91699999999997 C 368.716 163.71499999999997 368.87600000000003 163.521 369.028 163.32099999999997 C 369.334 162.92199999999997 369.65500000000003 162.53499999999997 369.978 162.14999999999998 C 370.637 161.36599999999999 371.339 160.61899999999997 372.067 159.89899999999997 C 373.52 158.46099999999998 375.06600000000003 157.12199999999999 376.598 155.76999999999998 C 378.129 154.42 379.652 153.05399999999997 381.05 151.56499999999997 C 382.48 150.04199999999997 383.735 148.37799999999996 384.826 146.59699999999998 C 387.088 142.90499999999997 388.644 138.837 390.18300000000005 134.807 C 390.95300000000003 132.791 391.7180000000001 130.773 392.56700000000006 128.789 C 393.4920000000001 126.62599999999999 394.5330000000001 124.51399999999998 395.67100000000005 122.45599999999999 C 397.98100000000005 118.27699999999999 400.63200000000006 114.30199999999999 403.302 110.34799999999998 C 403.42400000000004 110.16699999999999 403.54200000000003 109.98499999999999 403.65900000000005 109.80399999999999 C 403.66200000000003 109.80199999999999 403.665 109.79999999999998 403.66800000000006 109.79799999999999 C 403.7270000000001 109.75999999999999 403.75800000000004 109.71199999999999 403.77900000000005 109.66199999999999 C 404.05800000000005 109.41699999999999 404.33700000000005 109.17099999999999 404.62000000000006 108.931 C 404.77700000000004 108.798 404.7710000000001 108.605 404.6890000000001 108.464 C 405.025 108.243 404.72 107.672 404.34 107.829 z M 395.594 88.776 C 395.818 91.178 395.578 93.568 394.892 95.88 C 393.533 100.45899999999999 390.658 104.448 387.504 107.963 C 387.237 108.25999999999999 386.96500000000003 108.553 386.694 108.84599999999999 C 386.833 108.648 386.968 108.44699999999999 387.103 108.246 C 387.116 108.24199999999999 387.13 108.24 387.142 108.22699999999999 C 389.695 105.39099999999999 391.657 101.95899999999999 392.951 98.37599999999999 C 394.25 94.78099999999999 394.94800000000004 90.95199999999998 394.956 87.12799999999999 C 394.958 86.25299999999999 394.91400000000004 85.37799999999999 394.844 84.50499999999998 C 395.182 85.913 395.459 87.333 395.594 88.776 z M 392.268 74.265 C 392.63199999999995 76.482 393.24199999999996 78.646 393.852 80.805 C 393.945 81.74600000000001 394.16799999999995 82.674 394.28 83.61500000000001 C 394.39 84.54200000000002 394.45799999999997 85.47500000000001 394.48499999999996 86.40800000000002 C 394.53999999999996 88.30800000000002 394.42299999999994 90.21100000000001 394.14699999999993 92.09100000000001 C 393.59899999999993 95.82300000000001 392.36099999999993 99.45100000000001 390.59399999999994 102.781 C 389.8539999999999 104.177 388.98999999999995 105.504 388.04999999999995 106.774 C 389.061 105.122 389.948 103.395 390.67099999999994 101.598 C 392.01199999999994 98.261 392.72399999999993 94.743 392.9219999999999 91.156 C 393.1379999999999 87.24600000000001 392.8519999999999 83.333 392.55799999999994 79.435 C 392.4169999999999 77.56700000000001 392.28299999999996 75.69800000000001 392.2079999999999 73.82600000000001 C 392.23 73.971 392.244 74.118 392.268 74.265 z M 391.957 66.12 C 391.945 66.13900000000001 391.935 66.16000000000001 391.931 66.185 C 391.755 67.142 391.719 68.123 391.681 69.09400000000001 C 391.644 70.046 391.637 71.00000000000001 391.651 71.95200000000001 C 391.68 73.906 391.798 75.85700000000001 391.939 77.805 C 392.21700000000004 81.652 392.60200000000003 85.501 392.552 89.363 C 392.505 93.036 391.99 96.696 390.767 100.169 C 389.644 103.359 388.009 106.357 386.036 109.09899999999999 C 385.462 109.89699999999999 384.856 110.66799999999999 384.23 111.42299999999999 C 382.70000000000005 112.98599999999999 381.159 114.53799999999998 379.682 116.14799999999998 C 379.79200000000003 115.82599999999998 379.89500000000004 115.50199999999998 379.995 115.17699999999998 C 381.851 112.40199999999997 383.7 109.62299999999998 385.341 106.71299999999998 C 386.829 104.07499999999997 388.148 101.32899999999998 389.097 98.44799999999998 C 390.11199999999997 95.36899999999999 390.63399999999996 92.19699999999997 390.775 88.95999999999998 C 391.05699999999996 82.48999999999998 390.007 76.02699999999999 390.457 69.56099999999998 C 390.758 65.24199999999998 391.707 60.78199999999998 393.98 57.061999999999976 C 392.897 59.972 392.211 63.027 391.957 66.12 z M 394.326 54.742 C 394.666 54.443999999999996 395.01000000000005 54.15 395.36600000000004 53.87 C 395.34000000000003 53.922 395.314 53.974999999999994 395.28800000000007 54.026999999999994 C 393.89200000000005 55.480999999999995 392.8160000000001 57.266999999999996 392.0110000000001 59.089999999999996 C 390.9190000000001 61.562 390.2720000000001 64.22 389.9140000000001 66.892 C 389.0710000000001 73.196 389.9520000000001 79.53699999999999 390.0150000000001 85.858 C 390.0490000000001 89.211 389.8330000000001 92.58 389.0350000000001 95.846 C 388.30000000000007 98.855 387.1120000000001 101.733 385.7010000000001 104.48400000000001 C 384.2060000000001 107.39900000000002 382.4650000000001 110.167 380.67300000000006 112.903 C 380.83700000000005 112.346 381.00700000000006 111.79 381.16600000000005 111.232 C 381.78900000000004 109.05199999999999 382.37100000000004 106.86 382.91700000000003 104.66 C 384.00800000000004 100.258 384.947 95.82 385.72900000000004 91.353 C 386.51500000000004 86.86399999999999 387.13700000000006 82.35 387.595 77.81599999999999 C 388.04900000000004 73.323 388.225 68.75999999999999 389.322 64.36099999999999 C 390.2 60.84 391.765 57.362 394.326 54.742 z M 379.433 113.358 C 380.06 111.01700000000001 380.513 108.63300000000001 380.853 106.235 C 381.552 101.318 381.773 96.355 382.023 91.399 C 382.28400000000005 86.243 382.584 81.071 383.51500000000004 75.985 C 384.309 71.651 385.58900000000006 67.407 387.61800000000005 63.484 C 388.67400000000004 61.442 389.94200000000006 59.508 391.41300000000007 57.746 C 390.51700000000005 59.183 389.8110000000001 60.743 389.2800000000001 62.304 C 387.83600000000007 66.554 387.5080000000001 71.055 387.07400000000007 75.492 C 386.62800000000004 80.045 386.0250000000001 84.58500000000001 385.27900000000005 89.098 C 384.52900000000005 93.634 383.62200000000007 98.144 382.56000000000006 102.617 C 381.54800000000006 106.882 380.34400000000005 111.08500000000001 379.10200000000003 115.286 C 378.966 115.491 378.831 115.696 378.69500000000005 115.901 C 378.965 115.056 379.206 114.203 379.433 113.358 z M 364.984 52.367 C 365.049 59.064 363.80899999999997 65.945 360.41499999999996 71.791 C 359.847 72.77 359.19699999999995 73.691 358.54299999999995 74.61 C 358.92799999999994 73.87 359.30299999999994 73.125 359.662 72.373 C 360.99899999999997 69.57600000000001 362.125 66.69200000000001 362.93899999999996 63.69800000000001 C 363.758 60.687000000000005 364.239 57.602000000000004 364.34599999999995 54.483000000000004 C 364.46299999999997 51.071000000000005 364.18999999999994 47.660000000000004 363.89899999999994 44.264 C 363.7339999999999 42.336000000000006 363.57499999999993 40.408 363.40199999999993 38.480000000000004 C 363.3669999999999 38.093 363.3349999999999 37.705000000000005 363.30299999999994 37.31700000000001 C 364.206 42.296 364.935 47.311 364.984 52.367 z M 345.59 44.596 C 345.383 41.88999999999999 345.491 39.163999999999994 345.928 36.485 C 346.409 33.536 347.283 30.672 347.986 27.773 C 348.57599999999996 25.337 349.113 22.767 349.075 20.228 C 349.221 20.636000000000003 349.34999999999997 21.05 349.481 21.463 C 349.45799999999997 22.188000000000002 349.437 22.913 349.38599999999997 23.636000000000003 C 349.28499999999997 25.076000000000004 349.14199999999994 26.513 348.97799999999995 27.947000000000003 C 348.65 30.800000000000004 348.227 33.641000000000005 347.86499999999995 36.489000000000004 C 347.203 41.709 346.77099999999996 46.982000000000006 347.42699999999996 52.22500000000001 C 347.51 52.894000000000005 347.614 53.56000000000001 347.73499999999996 54.223000000000006 C 346.579 51.137 345.843 47.899 345.59 44.596 z M 348.561 56.233 C 348.28799999999995 55.138 348.073 54.028999999999996 347.916 52.912 C 347.558 50.376 347.491 47.808 347.565 45.25 C 347.725 39.743 348.672 34.299 349.36 28.843 C 349.559 27.266 349.735 25.685 349.863 24.1 C 349.891 23.759 349.92 23.414 349.947 23.068 C 350.937 26.805 351.314 30.696 350.993 34.56 C 350.533 40.102000000000004 349.022 45.503 348.666 51.057 C 348.542 52.996 348.572 54.940000000000005 348.836 56.856 C 348.74 56.65 348.653 56.44 348.561 56.233 z M 349.384 55.871 C 349.322 56.197 349.271 56.529 349.23400000000004 56.862 C 348.72200000000004 52.471000000000004 349.39900000000006 47.985 350.187 43.658 C 350.693 40.877 351.23400000000004 38.098 351.521 35.284 C 351.79400000000004 32.602 351.81800000000004 29.907999999999998 351.50100000000003 27.229 C 351.31000000000006 25.616999999999997 350.992 24.019 350.56300000000005 22.451 C 350.66 22.645 350.75200000000007 22.842 350.84700000000004 23.037 C 352.21200000000005 27.461 352.91700000000003 32.074 352.96400000000006 36.704 C 353.0160000000001 41.816 352.16800000000006 46.915 350.56700000000006 51.766 C 350.121 53.118 349.651 54.47 349.384 55.871 z M 350.815 52.271 C 351.622 49.868 352.289 47.433 352.73 44.935 C 353.606 39.972 353.706 34.837 352.982 29.849000000000004 C 352.809 28.656000000000002 352.58200000000005 27.475000000000005 352.32000000000005 26.302000000000003 C 353.321 28.795 354.107 31.380000000000003 354.55100000000004 34.032000000000004 C 355.004 36.73500000000001 355.13200000000006 39.494 354.807 42.218 C 354.61600000000004 43.287000000000006 354.39500000000004 44.346000000000004 354.05100000000004 45.392 C 353.51800000000003 47.010000000000005 352.83000000000004 48.573 352.12800000000004 50.124 C 351.319 51.911 350.48900000000003 53.711000000000006 349.84400000000005 55.569 C 350.091 54.449 350.45 53.356 350.815 52.271 z M 349.758 64.886 C 349.74699999999996 64.786 349.734 64.687 349.72499999999997 64.58699999999999 C 349.652 63.80099999999999 349.60999999999996 63.00999999999999 349.602 62.22099999999999 C 349.58599999999996 60.624999999999986 349.758 59.03699999999999 349.899 57.44899999999999 C 350.108 56.68199999999999 350.354 55.92499999999999 350.628 55.18099999999999 C 351.724 52.20299999999999 353.252 49.40299999999999 354.33 46.41799999999999 C 354.529 46.03699999999999 354.724 45.65299999999999 354.924 45.27299999999999 C 355.054 44.76599999999999 355.174 44.255999999999986 355.269 43.73799999999999 C 355.696 41.404999999999994 355.781 39.04399999999999 355.598 36.70099999999999 C 356.562 35.49099999999999 357.599 34.336999999999996 358.695 33.24499999999999 C 359.296 32.645999999999994 359.923 32.07299999999999 360.573 31.52599999999999 C 360.90799999999996 31.24499999999999 361.246 30.96799999999999 361.59099999999995 30.69999999999999 C 361.662 30.64499999999999 361.74099999999993 30.58999999999999 361.823 30.53399999999999 C 358.561 36.83099999999999 355.88399999999996 43.42199999999999 353.83099999999996 50.210999999999984 C 352.75199999999995 53.77999999999999 351.78 57.41899999999998 351.21199999999993 61.10799999999998 C 350.7539999999999 64.08599999999998 350.56299999999993 67.13299999999998 350.86999999999995 70.13599999999998 C 350.398 68.409 350.019 66.655 349.758 64.886 z M 352.188 74.17 C 352.057 73.662 351.937 73.151 351.839 72.635 C 351.191 69.196 351.267 65.665 351.755 62.211000000000006 C 352.268 58.575 353.173 54.99900000000001 354.199 51.477000000000004 C 355.19800000000004 48.04600000000001 356.355 44.661 357.66900000000004 41.33800000000001 C 358.903 38.21800000000001 360.28000000000003 35.156000000000006 361.78000000000003 32.15500000000001 C 360.54 38.55800000000001 359.31100000000004 44.96300000000001 358.07700000000006 51.367000000000004 C 357.39500000000004 54.908 356.7130000000001 58.45 356.0350000000001 61.992000000000004 C 355.6980000000001 63.75300000000001 355.3690000000001 65.515 355.0400000000001 67.277 C 354.7540000000001 68.816 354.4620000000001 70.356 354.2630000000001 71.909 C 353.9360000000001 74.45700000000001 353.8750000000001 77.117 354.6690000000001 79.555 C 353.75 77.802 352.905 76.017 352.188 74.17 z M 355.276 79.858 C 355.253 79.896 355.23 79.934 355.207 79.97200000000001 C 354.403 77.62700000000001 354.34999999999997 75.084 354.629 72.62400000000001 C 354.995 69.39300000000001 355.78700000000003 66.209 356.41700000000003 63.02300000000001 C 357.79900000000004 56.02900000000001 359.153 49.02900000000001 360.54900000000004 42.03800000000001 C 361.06100000000004 39.47300000000001 361.56100000000004 36.90500000000001 362.062 34.33800000000001 C 362.563 40.09400000000001 362.481 45.89600000000001 361.819 51.63700000000001 C 361.452 54.82300000000001 360.901 57.98800000000001 360.178 61.11200000000001 C 359.449 64.26100000000001 358.504 67.34100000000001 357.514 70.41600000000001 C 356.524 73.49 355.577 76.632 355.276 79.858 z M 355.979 78.688 C 355.837 78.923 355.69599999999997 79.158 355.554 79.393 C 355.988 76.69 356.76399999999995 74.065 357.604 71.457 C 358.587 68.404 359.587 65.36699999999999 360.346 62.24799999999999 C 361.871 55.977999999999994 362.698 49.53499999999999 362.814 43.08399999999999 C 362.877 39.62099999999999 362.72700000000003 36.15499999999999 362.38100000000003 32.70899999999999 C 362.389 32.66799999999999 362.39700000000005 32.627999999999986 362.40500000000003 32.58799999999999 C 362.43600000000004 32.74899999999999 362.46700000000004 32.91099999999999 362.49800000000005 33.07199999999999 C 362.58500000000004 34.68199999999999 362.76000000000005 36.28899999999999 362.903 37.89399999999999 C 363.052 39.57199999999999 363.214 41.24899999999999 363.37 42.92699999999999 C 363.683 46.28499999999999 364.017 49.647999999999996 364.016 53.023999999999994 C 364.01500000000004 56.215999999999994 363.656 59.382999999999996 362.911 62.486999999999995 C 362.188 65.5 361.101 68.371 359.892 71.216 C 359.219 72.8 358.453 74.341 357.63 75.853 C 357.565 75.972 357.497 76.088 357.431 76.20599999999999 C 357.38599999999997 76.27199999999999 357.34 76.33699999999999 357.29499999999996 76.40299999999999 C 356.821 77.117 356.347 77.882 355.979 78.688 z M 381.309 50.426 C 380.23100000000005 52.948 379.55 55.648 379.161 58.354 C 378.502 62.94 378.662 67.587 379.052 72.189 C 379.478 77.225 380.149 82.24699999999999 380.218 87.30699999999999 C 380.283 92.05599999999998 379.75600000000003 96.80799999999999 378.636 101.42399999999999 C 377.52500000000003 106.00099999999999 375.822 110.39399999999999 373.68100000000004 114.585 C 373.677 114.59299999999999 373.67300000000006 114.60199999999999 373.66800000000006 114.61099999999999 C 374.59600000000006 109.79999999999998 375.40900000000005 104.966 375.99500000000006 100.10099999999998 C 376.71100000000007 94.16199999999998 377.1190000000001 88.17599999999999 377.0450000000001 82.19199999999998 C 376.97100000000006 76.18899999999998 376.33600000000007 70.16999999999997 376.88500000000005 64.17299999999997 C 377.332 59.307 378.635 54.537 381.309 50.426 z M 378.365 54.339 C 377.404 56.673 376.76800000000003 59.141 376.39 61.635 C 375.507 67.458 375.981 73.372 376.191 79.226 C 376.409 85.32 376.173 91.40899999999999 375.554 97.474 C 375.022 102.679 374.23699999999997 107.85600000000001 373.308 113.00500000000001 C 373.366 111.02100000000002 373.367 109.03500000000001 373.395 107.05100000000002 C 373.42699999999996 104.81300000000002 373.466 102.57500000000002 373.498 100.33700000000002 C 373.562 95.84000000000002 373.638 91.34300000000002 373.69599999999997 86.84500000000001 C 373.753 82.39900000000002 373.755 77.94900000000001 373.88699999999994 73.50500000000001 C 374.01499999999993 69.21300000000001 374.3589999999999 64.88700000000001 375.49699999999996 60.73100000000001 C 376.30099999999993 57.79500000000001 377.52199999999993 54.95100000000001 379.251 52.44300000000001 C 378.927 53.062 378.631 53.694 378.365 54.339 z M 371.269 86.367 C 371.73900000000003 81.446 372.515 76.566 372.821 71.629 C 373.10600000000005 67.021 373.34900000000005 62.36900000000001 375.185 58.065000000000005 C 376.098 55.925000000000004 377.329 53.923 378.809 52.127 C 378.456 52.651 378.11600000000004 53.184000000000005 377.805 53.733000000000004 C 376.868 55.39 376.117 57.154 375.524 58.962 C 374.206 62.975 373.695 67.18900000000001 373.49 71.394 C 373.272 75.864 373.308 80.34800000000001 373.26300000000003 84.822 C 373.21700000000004 89.381 373.163 93.94 373.148 98.499 C 373.134 103.036 373.089 107.573 373.05 112.11 C 373.048 112.29 373.051 112.47 373.05 112.65 C 373.015 112.438 372.979 112.226 372.945 112.013 C 372.74899999999997 110.80000000000001 372.55 109.58800000000001 372.36 108.373 C 371.985 105.96900000000001 371.652 103.558 371.40500000000003 101.137 C 370.903 96.216 370.799 91.297 371.269 86.367 z M 369.998 100.079 C 370.128 99.068 370.234 98.053 370.306 97.03699999999999 C 370.33099999999996 96.684 370.349 96.33 370.368 95.976 C 370.416 97.053 370.484 98.128 370.577 99.201 C 371.009 104.16399999999999 371.835 109.08399999999999 372.754 113.97699999999999 C 372.814 114.29899999999999 372.882 114.61599999999999 372.956 114.93199999999999 C 372.925 115.09499999999998 372.896 115.25899999999999 372.865 115.42199999999998 C 371.844 120.82199999999999 370.696 126.19999999999999 369.529 131.57099999999997 C 369.57 130.09199999999996 369.565 128.61199999999997 369.501 127.13399999999997 C 369.712 126.24699999999997 369.858 125.34199999999997 370.01399999999995 124.44399999999997 C 370.21799999999996 123.26399999999997 370.41499999999996 122.08099999999997 370.57699999999994 120.89399999999998 C 370.89799999999997 118.53799999999998 371.1259999999999 116.16699999999997 371.17599999999993 113.78899999999997 C 371.25499999999994 109.98399999999997 370.76499999999993 106.18899999999998 369.59899999999993 102.57499999999997 C 369.793 101.756 369.892 100.905 369.998 100.079 z M 367.392 75.046 C 367.69 76.021 367.963 77.004 368.211 77.994 C 368.707 79.975 369.095 81.981 369.38 84.003 C 369.951 88.055 370.128 92.17699999999999 369.883 96.262 C 369.815 97.395 369.721 98.528 369.594 99.656 C 369.517 100.345 369.405 101.036 369.313 101.72800000000001 C 369.156 101.111 368.984 100.498 368.849 99.876 C 368.637 98.897 368.466 97.909 368.327 96.91600000000001 C 368.05 94.94100000000002 367.902 92.95100000000001 367.813 90.96000000000001 C 367.631 86.90800000000002 367.682 82.84700000000001 367.412 78.799 C 367.284 76.87700000000001 367.082 74.95400000000001 366.727 73.06 C 366.72299999999996 73.021 366.72299999999996 72.98100000000001 366.71799999999996 72.941 C 366.933 73.646 367.177 74.343 367.392 75.046 z M 366.715 77.64 C 366.768 76.908 366.794 76.173 366.80199999999996 75.43900000000001 C 367.12499999999994 78.334 367.24499999999995 81.244 367.296 84.165 C 367.366 88.206 367.36199999999997 92.26 367.836 96.28 C 367.951 97.256 368.10200000000003 98.227 368.283 99.19200000000001 C 367.738 97.992 367.129 96.822 366.45300000000003 95.691 C 364.649 89.819 366.282 83.614 366.715 77.64 z M 364.319 112.838 C 363.17600000000004 111.377 361.873 110.06599999999999 360.469 108.857 C 359.07 107.654 357.605 106.522 356.289 105.226 C 354.973 103.92999999999999 353.941 102.48 353.175 100.799 C 352.45 99.20800000000001 351.82800000000003 97.518 350.629 96.20800000000001 C 349.346 94.80600000000001 347.459 94.20000000000002 346.13300000000004 92.85300000000001 C 344.92100000000005 91.623 344.29300000000006 89.94900000000001 343.896 88.30000000000001 C 343.08500000000004 84.93700000000001 343.232 81.177 341.159 78.23700000000001 C 341.151 78.22500000000001 341.14 78.21400000000001 341.131 78.20200000000001 C 341.26399999999995 78.29700000000001 341.39899999999994 78.38900000000001 341.53299999999996 78.48300000000002 C 342.203 79.27100000000002 342.79699999999997 80.12100000000002 343.304 81.02500000000002 C 344.03299999999996 82.32300000000002 344.616 83.69700000000002 345.212 85.05900000000003 C 345.799 86.40100000000002 346.39799999999997 87.74400000000003 347.139 89.01000000000002 C 347.945 90.38900000000002 348.952 91.61800000000002 350.142 92.68400000000003 C 351.463 93.86700000000003 352.911 94.89900000000003 354.231 96.08300000000003 C 355.515 97.23500000000003 356.69 98.50400000000003 357.76 99.85700000000003 C 359.91499999999996 102.58000000000003 361.658 105.60800000000003 363.12 108.75100000000003 C 363.98900000000003 110.61900000000003 364.763 112.53000000000003 365.48900000000003 114.45800000000003 C 365.116 113.901 364.727 113.359 364.319 112.838 z M 367.232 117.499 C 366.34200000000004 114.871 365.333 112.274 364.21900000000005 109.744 C 362.79800000000006 106.517 361.12500000000006 103.381 359.02500000000003 100.541 C 357.992 99.143 356.857 97.817 355.617 96.59899999999999 C 354.36 95.36399999999999 352.964 94.30599999999998 351.595 93.20199999999998 C 350.27500000000003 92.13799999999998 349.01700000000005 91.00199999999998 348.047 89.60099999999998 C 347.199 88.37699999999998 346.54100000000005 87.03799999999998 345.92400000000004 85.68599999999998 C 344.939 83.52599999999998 344.02200000000005 81.10699999999999 342.535 79.18499999999997 C 342.70700000000005 79.30499999999998 342.88000000000005 79.42399999999998 343.05100000000004 79.54599999999998 C 343.96000000000004 80.19899999999998 344.85 80.87599999999998 345.72100000000006 81.57799999999997 C 347.46400000000006 82.98099999999998 349.13200000000006 84.47899999999997 350.7180000000001 86.05699999999997 C 353.88700000000006 89.20899999999997 356.7150000000001 92.70599999999997 359.13900000000007 96.46199999999997 C 361.64400000000006 100.34199999999997 363.7030000000001 104.49899999999998 365.25700000000006 108.84899999999998 C 366.45700000000005 112.20599999999997 367.35900000000004 115.66899999999998 367.9700000000001 119.18099999999998 C 367.746 118.612 367.499 118.051 367.232 117.499 z M 366.466 110.447 C 364.987 105.95700000000001 362.986 101.638 360.524 97.60300000000001 C 358.171 93.74700000000001 355.395 90.15400000000001 352.269 86.894 C 349.134 83.625 345.63800000000003 80.712 341.859 78.215 C 341.697 78.108 341.53299999999996 78.009 341.368 77.912 C 341.28499999999997 77.83500000000001 341.199 77.76100000000001 341.112 77.68700000000001 C 342.752 78.269 344.40500000000003 78.80300000000001 346.014 79.47800000000001 C 347.951 80.29100000000001 349.844 81.20800000000001 351.665 82.25600000000001 C 355.255 84.32300000000001 358.571 86.89100000000002 361.38300000000004 89.94000000000001 C 364.06700000000006 92.85100000000001 366.29800000000006 96.20700000000001 367.86500000000007 99.84700000000001 C 369.54100000000005 103.73800000000001 370.36600000000004 107.87700000000001 370.4390000000001 112.108 C 370.5110000000001 116.241 369.9630000000001 120.343 369.32200000000006 124.418 C 368.908 119.671 367.956 114.972 366.466 110.447 z M 367.544 163.809 C 367.50399999999996 163.85999999999999 367.46299999999997 163.91 367.423 163.96099999999998 C 366.67 159.77399999999997 367.036 155.421 368.216 151.34199999999998 C 369.526 146.814 371.777 142.60199999999998 374.358 138.67899999999997 C 376.817 134.93999999999997 379.55400000000003 131.378 382.494 128.00599999999997 C 385.39000000000004 124.68399999999997 388.50500000000005 121.54399999999997 391.82700000000006 118.64699999999998 C 393.65100000000007 117.05599999999998 395.54400000000004 115.54499999999997 397.48300000000006 114.09699999999998 C 393.71600000000007 117.83999999999997 390.09100000000007 121.73799999999999 386.65100000000007 125.76099999999998 C 381.55300000000005 131.72199999999998 376.9050000000001 138.14 373.43300000000005 145.195 C 371.66 148.798 370.21400000000006 152.55599999999998 369.14700000000005 156.428 C 368.478 158.856 367.964 161.324 367.544 163.809 z M 395.61 117.316 C 395.609 117.316 395.609 117.316 395.61 117.316 C 393.02500000000003 120.55 390.757 124.036 388.79400000000004 127.68 C 386.69500000000005 131.576 385.129 135.698 383.451 139.784 C 382.589 141.885 381.672 143.962 380.62800000000004 145.97899999999998 C 379.57800000000003 148.01 378.34600000000006 149.94099999999997 377.01400000000007 151.79799999999997 C 374.42300000000006 155.41099999999997 371.5540000000001 158.82799999999997 368.7610000000001 162.28699999999998 C 369.6940000000001 157.44899999999998 371.0330000000001 152.70399999999998 373.04100000000005 148.14899999999997 C 376.20500000000004 140.96899999999997 380.64000000000004 134.43199999999996 385.60600000000005 128.38399999999996 C 388.766 124.535 392.147 120.888 395.61 117.316 z M 399.664 114.425 C 398.385 116.422 397.142 118.442 395.973 120.505 C 394.796 122.582 393.689 124.702 392.699 126.875 C 391.796 128.857 391.002 130.885 390.233 132.921 C 388.705 136.971 387.26 141.07899999999998 385.169 144.88299999999998 C 384.143 146.749 382.96 148.528 381.573 150.147 C 380.23199999999997 151.712 378.731 153.129 377.198 154.503 C 374.197 157.19199999999998 370.941 159.76899999999998 368.62899999999996 163.113 C 368.61499999999995 163.134 368.602 163.156 368.58799999999997 163.177 C 368.609 163.06099999999998 368.63399999999996 162.945 368.655 162.82899999999998 C 369.755 161.48699999999997 370.847 160.13699999999997 371.94199999999995 158.79099999999997 C 373.38199999999995 157.02099999999996 374.82899999999995 155.25499999999997 376.20899999999995 153.43699999999995 C 377.57499999999993 151.63799999999995 378.87999999999994 149.78799999999995 380.0369999999999 147.84699999999995 C 381.1919999999999 145.90799999999996 382.1689999999999 143.88099999999994 383.05999999999995 141.80999999999995 C 384.81999999999994 137.71999999999994 386.3059999999999 133.51499999999996 388.30999999999995 129.53199999999995 C 390.179 125.81699999999995 392.41999999999996 122.31199999999995 394.96299999999997 119.02299999999995 C 396.88599999999997 116.53599999999996 398.986 114.19599999999996 401.239 112.00799999999995 C 400.711 112.812 400.183 113.615 399.664 114.425 z M 400.429 111.233 C 397.734 113.14500000000001 395.14399999999995 115.20700000000001 392.64399999999995 117.367 C 389.28 120.274 386.0919999999999 123.381 383.11599999999993 126.684 C 380.10299999999995 130.027 377.2869999999999 133.572 374.77699999999993 137.309 C 372.15099999999995 141.219 369.8709999999999 145.377 368.42999999999995 149.877 C 366.98999999999995 154.37300000000002 366.393 159.227 367.23599999999993 163.9 C 367.24999999999994 163.979 367.2679999999999 164.05700000000002 367.28399999999993 164.136 C 367.2579999999999 164.16899999999998 367.2319999999999 164.201 367.20699999999994 164.233 C 366.89099999999996 162.13400000000001 366.56499999999994 160.037 366.3639999999999 157.921 C 366.1219999999999 155.37 366.0279999999999 152.793 366.2199999999999 150.236 C 366.4109999999999 147.68699999999998 366.8839999999999 145.148 367.7469999999999 142.738 C 368.5279999999999 140.557 369.5999999999999 138.487 370.8539999999999 136.543 C 373.39199999999994 132.61 376.67499999999995 129.16 380.0419999999999 125.93100000000001 C 383.4819999999999 122.632 387.1599999999999 119.58100000000002 391.0309999999999 116.80000000000001 C 394.3699999999999 114.40100000000001 397.8629999999999 112.21700000000001 401.4699999999999 110.24200000000002 C 401.121 110.57 400.776 110.902 400.429 111.233 z" stroke-linecap="round" />
</g>
		<g transform="matrix(1 0 0 1 -14.37 -43.17)"  >
<polygon style="stroke: none; stroke-width: 1; stroke-dasharray: none; stroke-linecap: butt; stroke-dashoffset: 0; stroke-linejoin: miter; stroke-miterlimit: 4; fill: rgb(77,76,81); fill-rule: nonzero; opacity: 1;" vector-effect="non-scaling-stroke"  points="0,0 0,0 0,0 0,0 " />
</g>
		<g transform="matrix(1 0 0 1 -14.38 -43.16)"  >
<polygon style="stroke: none; stroke-width: 1; stroke-dasharray: none; stroke-linecap: butt; stroke-dashoffset: 0; stroke-linejoin: miter; stroke-miterlimit: 4; fill: rgb(77,76,81); fill-rule: nonzero; opacity: 1;" vector-effect="non-scaling-stroke"  points="0,0 0,0 0,0 0,0 " />
</g>
		<g transform="matrix(1 0 0 1 -14.23 -43.23)"  >
<path style="stroke: none; stroke-width: 1; stroke-dasharray: none; stroke-linecap: butt; stroke-dashoffset: 0; stroke-linejoin: miter; stroke-miterlimit: 4; fill: rgb(77,76,81); fill-rule: nonzero; opacity: 1;" vector-effect="non-scaling-stroke"  transform=" translate(-358.18, -80.59)" d="M 359.676 80.404 C 359.57599999999996 79.828 359.21299999999997 79.28699999999999 358.654 79.069 C 358.30899999999997 78.934 357.944 78.907 357.587 79.012 C 357.26599999999996 79.106 357.006 79.335 356.834 79.617 C 356.696 79.84400000000001 356.653 80.119 356.724 80.372 C 356.68399999999997 80.523 356.65999999999997 80.68 356.66499999999996 80.841 C 356.68199999999996 81.377 357.01099999999997 81.913 357.51899999999995 82.113 C 358.03799999999995 82.317 358.65799999999996 82.237 359.09999999999997 81.891 C 359.548 81.54 359.775 80.968 359.676 80.404 z" stroke-linecap="round" />
</g>
		<g transform="matrix(1 0 0 1 -14.38 -43.17)"  >
<polygon style="stroke: none; stroke-width: 1; stroke-dasharray: none; stroke-linecap: butt; stroke-dashoffset: 0; stroke-linejoin: miter; stroke-miterlimit: 4; fill: rgb(77,76,81); fill-rule: nonzero; opacity: 1;" vector-effect="non-scaling-stroke"  points="0,0 0,0 0,0 " />
</g>
		<g transform="matrix(1 0 0 1 -14.3 -43.17)"  >
<polygon style="stroke: none; stroke-width: 1; stroke-dasharray: none; stroke-linecap: butt; stroke-dashoffset: 0; stroke-linejoin: miter; stroke-miterlimit: 4; fill: rgb(77,76,81); fill-rule: nonzero; opacity: 1;" vector-effect="non-scaling-stroke"  points="0,0 0,0 0,0.01 0,0.01 0,0 0,0 0,0 0,0 0,0 0,0 0,0 0,-0.01 0,-0.01 0,0 " />
</g>
		<g transform="matrix(1 0 0 1 -14.38 -43.17)"  >
<polygon style="stroke: none; stroke-width: 1; stroke-dasharray: none; stroke-linecap: butt; stroke-dashoffset: 0; stroke-linejoin: miter; stroke-miterlimit: 4; fill: rgb(77,76,81); fill-rule: nonzero; opacity: 1;" vector-effect="non-scaling-stroke"  points="0,0 0,0 0,0 0,0 " />
</g>
		<g transform="matrix(1 0 0 1 -13.61 -40.78)"  >
<path style="stroke: none; stroke-width: 1; stroke-dasharray: none; stroke-linecap: butt; stroke-dashoffset: 0; stroke-linejoin: miter; stroke-miterlimit: 4; fill: rgb(77,76,81); fill-rule: nonzero; opacity: 1;" vector-effect="non-scaling-stroke"  transform=" translate(-358.8, -83.04)" d="M 359.268 82.986 C 359.26899999999995 82.96300000000001 359.268 82.941 359.263 82.915 C 359.256 82.885 359.25 82.855 359.243 82.82600000000001 C 359.228 82.78200000000001 359.204 82.74400000000001 359.171 82.712 C 359.153 82.687 359.13 82.667 359.102 82.654 C 359.06399999999996 82.625 359.022 82.607 358.97299999999996 82.6 C 358.96799999999996 82.598 358.96299999999997 82.597 358.95799999999997 82.595 C 358.95099999999996 82.593 358.943 82.595 358.93499999999995 82.593 C 358.91799999999995 82.58800000000001 358.90199999999993 82.58200000000001 358.88499999999993 82.577 C 358.82199999999995 82.563 358.75999999999993 82.566 358.69899999999996 82.585 C 358.638 82.59299999999999 358.58299999999997 82.616 358.532 82.654 C 358.479 82.688 358.438 82.732 358.409 82.786 C 358.37 82.836 358.346 82.893 358.337 82.958 C 358.323 83.02199999999999 358.32599999999996 83.083 358.34499999999997 83.144 C 358.35299999999995 83.20500000000001 358.376 83.26 358.414 83.31 C 358.441 83.34 358.46799999999996 83.37 358.495 83.399 C 358.56 83.45400000000001 358.634 83.489 358.718 83.504 C 358.76 83.506 358.802 83.50800000000001 358.844 83.51 C 358.926 83.50200000000001 359.002 83.474 359.07 83.427 C 359.09999999999997 83.4 359.13 83.373 359.159 83.346 C 359.202 83.299 359.231 83.244 359.245 83.183 C 359.27 83.12400000000001 359.278 83.06200000000001 359.27 82.99600000000001 C 359.272 82.994 359.269 82.991 359.268 82.986 z" stroke-linecap="round" />
</g>
		<g transform="matrix(1 0 0 1 -11.95 -40.28)"  >
<path style="stroke: none; stroke-width: 1; stroke-dasharray: none; stroke-linecap: butt; stroke-dashoffset: 0; stroke-linejoin: miter; stroke-miterlimit: 4; fill: rgb(77,76,81); fill-rule: nonzero; opacity: 1;" vector-effect="non-scaling-stroke"  transform=" translate(-360.47, -83.54)" d="M 360.796 83.465 C 360.793 83.436 360.784 83.41 360.767 83.387 C 360.757 83.36 360.741 83.338 360.71999999999997 83.319 C 360.703 83.296 360.68199999999996 83.277 360.65599999999995 83.265 C 360.6329999999999 83.246 360.60799999999995 83.234 360.57899999999995 83.229 C 360.55199999999996 83.216 360.52299999999997 83.211 360.49299999999994 83.214 C 360.46399999999994 83.209 360.43499999999995 83.211 360.40799999999996 83.221 C 360.366 83.227 360.32699999999994 83.24300000000001 360.292 83.269 C 360.28 83.27600000000001 360.267 83.283 360.255 83.29 C 360.212 83.32000000000001 360.179 83.35900000000001 360.156 83.406 C 360.137 83.44300000000001 360.128 83.48100000000001 360.13 83.522 C 360.125 83.561 360.13 83.60000000000001 360.145 83.637 C 360.16299999999995 83.686 360.192 83.727 360.231 83.761 C 360.243 83.76899999999999 360.254 83.77799999999999 360.266 83.786 C 360.29 83.801 360.31300000000005 83.81700000000001 360.33700000000005 83.83200000000001 C 360.36500000000007 83.84100000000001 360.39300000000003 83.85000000000001 360.42100000000005 83.85900000000001 C 360.45000000000005 83.86000000000001 360.47900000000004 83.86200000000001 360.50900000000007 83.86300000000001 C 360.5370000000001 83.85700000000001 360.5640000000001 83.85100000000001 360.5920000000001 83.84400000000001 C 360.6170000000001 83.831 360.6410000000001 83.81800000000001 360.6660000000001 83.805 C 360.6870000000001 83.786 360.7070000000001 83.768 360.7280000000001 83.74900000000001 C 360.7430000000001 83.72500000000001 360.7590000000001 83.70200000000001 360.7740000000001 83.67800000000001 C 360.79500000000013 83.638 360.8050000000001 83.59500000000001 360.8030000000001 83.55100000000002 C 360.809 83.521 360.806 83.492 360.796 83.465 z" stroke-linecap="round" />
</g>
		<g transform="matrix(1 0 0 1 -15.29 -95.13)"  >
<path style="stroke: none; stroke-width: 1; stroke-dasharray: none; stroke-linecap: butt; stroke-dashoffset: 0; stroke-linejoin: miter; stroke-miterlimit: 4; fill: rgb(77,76,81); fill-rule: nonzero; opacity: 1;" vector-effect="non-scaling-stroke"  transform=" translate(-357.12, -28.68)" d="M 358.586 28.424 C 358.53000000000003 28.108999999999998 358.39300000000003 27.841 358.166 27.615 C 358.05899999999997 27.508 357.927 27.419999999999998 357.785 27.352999999999998 C 357.76500000000004 27.342999999999996 357.744 27.337 357.723 27.328 C 357.68 27.31 357.637 27.291 357.593 27.278 C 357.302 27.183999999999997 356.981 27.177 356.67400000000004 27.256999999999998 C 356.115 27.403 355.70200000000006 27.93 355.64300000000003 28.496999999999996 C 355.579 29.107999999999997 355.846 29.675999999999995 356.38700000000006 29.977999999999998 C 356.87300000000005 30.249 357.53600000000006 30.229 357.98800000000006 29.897 C 358.435 29.57 358.683 28.971 358.586 28.424 z" stroke-linecap="round" />
</g>
		<g transform="matrix(1 0 0 1 -16.01 -92.53)"  >
<path style="stroke: none; stroke-width: 1; stroke-dasharray: none; stroke-linecap: butt; stroke-dashoffset: 0; stroke-linejoin: miter; stroke-miterlimit: 4; fill: rgb(77,76,81); fill-rule: nonzero; opacity: 1;" vector-effect="non-scaling-stroke"  transform=" translate(-356.4, -31.29)" d="M 356.874 31.243 C 356.86600000000004 31.16 356.838 31.084999999999997 356.791 31.016 C 356.764 30.985999999999997 356.737 30.956 356.71 30.927 C 356.645 30.872 356.57099999999997 30.837 356.48699999999997 30.822 C 356.42299999999994 30.808 356.361 30.811 356.301 30.83 C 356.24 30.837999999999997 356.18399999999997 30.862 356.134 30.898999999999997 C 356.081 30.932999999999996 356.04 30.976999999999997 356.011 31.031 C 355.97200000000004 31.081 355.94800000000004 31.139 355.939 31.203 C 355.937 31.245 355.935 31.287 355.934 31.33 C 355.942 31.412999999999997 355.97 31.488 356.01700000000005 31.555999999999997 C 356.04400000000004 31.586 356.071 31.615999999999996 356.09800000000007 31.645999999999997 C 356.16300000000007 31.700999999999997 356.2370000000001 31.735999999999997 356.3210000000001 31.750999999999998 C 356.3850000000001 31.764999999999997 356.44700000000006 31.761999999999997 356.50700000000006 31.743 C 356.56800000000004 31.735 356.6240000000001 31.711 356.67400000000004 31.674 C 356.72700000000003 31.64 356.76800000000003 31.596 356.797 31.541999999999998 C 356.836 31.491999999999997 356.86 31.433999999999997 356.869 31.369999999999997 C 356.871 31.327 356.872 31.285 356.874 31.243 z" stroke-linecap="round" />
</g>
		<g transform="matrix(1 0 0 1 -17.47 -98.13)"  >
<path style="stroke: none; stroke-width: 1; stroke-dasharray: none; stroke-linecap: butt; stroke-dashoffset: 0; stroke-linejoin: miter; stroke-miterlimit: 4; fill: rgb(77,76,81); fill-rule: nonzero; opacity: 1;" vector-effect="non-scaling-stroke"  transform=" translate(-354.94, -25.68)" d="M 355.289 25.571 C 355.274 25.525000000000002 355.24899999999997 25.486 355.215 25.454 C 355.186 25.416 355.149 25.387 355.104 25.368000000000002 C 355.05899999999997 25.344 355.012 25.334000000000003 354.962 25.336000000000002 C 354.953 25.335 354.945 25.340000000000003 354.936 25.339000000000002 C 354.924 25.334000000000003 354.91499999999996 25.324 354.902 25.321 C 354.87 25.308 354.837 25.303 354.80199999999996 25.308 C 354.78099999999995 25.313 354.75899999999996 25.318 354.73799999999994 25.323 C 354.70599999999996 25.333000000000002 354.6789999999999 25.351 354.65599999999995 25.375 C 354.638 25.388 354.62399999999997 25.404 354.614 25.424 C 354.59299999999996 25.451 354.58 25.482 354.575 25.516 C 354.574 25.538999999999998 354.573 25.561 354.572 25.584 C 354.574 25.599999999999998 354.584 25.614 354.589 25.629 L 354.588 25.632 C 354.577 25.697000000000003 354.58200000000005 25.76 354.605 25.822000000000003 C 354.619 25.85 354.634 25.877000000000002 354.648 25.905 C 354.685 25.958000000000002 354.732 25.998 354.79 26.026 L 354.88300000000004 26.056 C 354.94800000000004 26.067 355.011 26.062 355.07300000000004 26.039 C 355.119 26.024 355.158 25.999000000000002 355.19000000000005 25.965 C 355.22800000000007 25.936 355.25700000000006 25.899 355.27600000000007 25.854 C 355.2990000000001 25.808999999999997 355.31000000000006 25.761 355.30800000000005 25.712 C 355.314 25.664 355.307 25.617 355.289 25.571 z" stroke-linecap="round" />
</g>
		<g transform="matrix(1 0 0 1 9.58 -4.98)"  >
<path style="stroke: none; stroke-width: 1; stroke-dasharray: none; stroke-linecap: butt; stroke-dashoffset: 0; stroke-linejoin: miter; stroke-miterlimit: 4; fill: rgb(77,76,81); fill-rule: nonzero; opacity: 1;" vector-effect="non-scaling-stroke"  transform=" translate(-382, -118.84)" d="M 382.921 117.667 C 382.40999999999997 117.244 381.653 117.277 381.139 117.681 C 380.866 117.896 380.678 118.173 380.586 118.509 C 380.504 118.808 380.54200000000003 119.162 380.66700000000003 119.444 C 380.80800000000005 119.761 381.045 120.039 381.36600000000004 120.186 C 381.68100000000004 120.33000000000001 382.02900000000005 120.34 382.36000000000007 120.24900000000001 C 382.64900000000006 120.17000000000002 382.87800000000004 119.989 383.0370000000001 119.76 C 383.1670000000001 119.646 383.2750000000001 119.509 383.3450000000001 119.342 C 383.586 118.767 383.4 118.063 382.921 117.667 z" stroke-linecap="round" />
</g>
		<g transform="matrix(1 0 0 1 11.87 -5.3)"  >
<path style="stroke: none; stroke-width: 1; stroke-dasharray: none; stroke-linecap: butt; stroke-dashoffset: 0; stroke-linejoin: miter; stroke-miterlimit: 4; fill: rgb(77,76,81); fill-rule: nonzero; opacity: 1;" vector-effect="non-scaling-stroke"  transform=" translate(-384.28, -118.51)" d="M 384.743 118.467 C 384.735 118.386 384.70799999999997 118.312 384.662 118.245 C 384.63599999999997 118.21600000000001 384.609 118.187 384.58299999999997 118.15700000000001 C 384.51899999999995 118.10300000000001 384.44599999999997 118.06900000000002 384.364 118.05400000000002 C 384.30199999999996 118.04000000000002 384.241 118.04300000000002 384.18199999999996 118.06200000000001 C 384.12199999999996 118.07000000000001 384.068 118.09300000000002 384.01899999999995 118.13000000000001 C 383.9669999999999 118.16300000000001 383.92699999999996 118.206 383.89899999999994 118.26 C 383.86099999999993 118.30900000000001 383.83699999999993 118.36500000000001 383.82899999999995 118.42800000000001 L 383.82399999999996 118.552 C 383.83199999999994 118.63300000000001 383.859 118.70700000000001 383.905 118.774 C 383.931 118.803 383.95799999999997 118.83200000000001 383.984 118.862 C 384.048 118.916 384.121 118.94999999999999 384.203 118.96499999999999 C 384.265 118.97899999999998 384.32599999999996 118.97599999999998 384.385 118.957 C 384.445 118.949 384.49899999999997 118.92599999999999 384.548 118.889 C 384.6 118.856 384.64 118.813 384.668 118.759 C 384.706 118.71 384.73 118.654 384.738 118.591 L 384.743 118.467 z" stroke-linecap="round" />
</g>
		<g transform="matrix(1 0 0 1 11.94 -7.13)"  >
<path style="stroke: none; stroke-width: 1; stroke-dasharray: none; stroke-linecap: butt; stroke-dashoffset: 0; stroke-linejoin: miter; stroke-miterlimit: 4; fill: rgb(77,76,81); fill-rule: nonzero; opacity: 1;" vector-effect="non-scaling-stroke"  transform=" translate(-384.36, -116.69)" d="M 384.658 116.518 C 384.647 116.497 384.636 116.475 384.625 116.45400000000001 C 384.605 116.42200000000001 384.578 116.39800000000001 384.546 116.38100000000001 C 384.527 116.36500000000001 384.504 116.35400000000001 384.479 116.35000000000001 C 384.44399999999996 116.33500000000001 384.406 116.33000000000001 384.368 116.33500000000001 C 384.344 116.34 384.32099999999997 116.346 384.29699999999997 116.35100000000001 C 384.251 116.36800000000001 384.212 116.39600000000002 384.17999999999995 116.433 C 384.1689999999999 116.44600000000001 384.15799999999996 116.45800000000001 384.14699999999993 116.471 C 384.12799999999993 116.49300000000001 384.11499999999995 116.51 384.09899999999993 116.542 C 384.08699999999993 116.56700000000001 384.08099999999996 116.596 384.0729999999999 116.623 C 384.0709999999999 116.631 384.0679999999999 116.638 384.0659999999999 116.646 C 384.0609999999999 116.661 384.0569999999999 116.676 384.0519999999999 116.69 C 384.0499999999999 116.697 384.0469999999999 116.704 384.0449999999999 116.711 C 384.0419999999999 116.719 384.0429999999999 116.728 384.0419999999999 116.736 C 384.04099999999994 116.759 384.0399999999999 116.78200000000001 384.03899999999993 116.806 C 384.0439999999999 116.828 384.0489999999999 116.85 384.0539999999999 116.872 C 384.0639999999999 116.892 384.07499999999993 116.911 384.0849999999999 116.931 C 384.1039999999999 116.96 384.12799999999993 116.983 384.1579999999999 116.999 C 384.1759999999999 117.014 384.1959999999999 117.024 384.2189999999999 117.02799999999999 C 384.2409999999999 117.038 384.26299999999986 117.04199999999999 384.28699999999986 117.03999999999999 C 384.3099999999999 117.044 384.33299999999986 117.04199999999999 384.35499999999985 117.03399999999999 C 384.38799999999986 117.029 384.41899999999987 117.017 384.44699999999983 116.996 C 384.4929999999998 116.967 384.52799999999985 116.92399999999999 384.5649999999998 116.88499999999999 C 384.5919999999998 116.85499999999999 384.61999999999983 116.82499999999999 384.6329999999998 116.78599999999999 C 384.6389999999998 116.76999999999998 384.64399999999983 116.75399999999999 384.6499999999998 116.73799999999999 C 384.6679999999998 116.70299999999999 384.6759999999998 116.66699999999999 384.6749999999998 116.62799999999999 C 384.677 116.59 384.673 116.553 384.658 116.518 z" stroke-linecap="round" />
</g>
		<g transform="matrix(1 0 0 1 -7.08 0.01)"  >
<path style="stroke: none; stroke-width: 1; stroke-dasharray: none; stroke-linecap: butt; stroke-dashoffset: 0; stroke-linejoin: miter; stroke-miterlimit: 4; fill: rgb(77,76,81); fill-rule: nonzero; opacity: 1;" vector-effect="non-scaling-stroke"  transform=" translate(-365.33, -123.83)" d="M 366.715 123.584 C 366.667 123.233 366.479 122.898 366.19 122.688 C 365.876 122.46000000000001 365.451 122.34700000000001 365.081 122.506 C 365.065 122.513 365.05 122.522 365.034 122.53 C 364.76 122.58200000000001 364.49899999999997 122.709 364.292 122.904 C 363.81899999999996 123.34899999999999 363.85299999999995 124.104 364.203 124.61 C 364.56199999999995 125.129 365.25899999999996 125.392 365.84799999999996 125.103 C 366.403 124.831 366.802 124.215 366.715 123.584 z" stroke-linecap="round" />
</g>
		<g transform="matrix(1 0 0 1 -6.07 2.98)"  >
<path style="stroke: none; stroke-width: 1; stroke-dasharray: none; stroke-linecap: butt; stroke-dashoffset: 0; stroke-linejoin: miter; stroke-miterlimit: 4; fill: rgb(77,76,81); fill-rule: nonzero; opacity: 1;" vector-effect="non-scaling-stroke"  transform=" translate(-366.34, -126.79)" d="M 366.429 126.317 C 366.16799999999995 126.303 365.917 126.42899999999999 365.868 126.70899999999999 C 365.826 126.942 365.997 127.25599999999999 366.259 127.27099999999999 C 366.52000000000004 127.28499999999998 366.771 127.15899999999999 366.821 126.87899999999999 C 366.862 126.646 366.691 126.332 366.429 126.317 z" stroke-linecap="round" />
</g>
		<g transform="matrix(1 0 0 1 -8.59 2.71)"  >
<path style="stroke: none; stroke-width: 1; stroke-dasharray: none; stroke-linecap: butt; stroke-dashoffset: 0; stroke-linejoin: miter; stroke-miterlimit: 4; fill: rgb(77,76,81); fill-rule: nonzero; opacity: 1;" vector-effect="non-scaling-stroke"  transform=" translate(-363.82, -126.52)" d="M 364.211 126.465 C 364.204 126.435 364.19800000000004 126.406 364.19100000000003 126.376 C 364.177 126.33200000000001 364.153 126.29400000000001 364.119 126.263 C 364.10100000000006 126.238 364.079 126.218 364.05100000000004 126.205 C 364.02700000000004 126.184 363.999 126.17099999999999 363.968 126.166 C 363.939 126.152 363.908 126.14699999999999 363.87600000000003 126.14999999999999 C 363.845 126.14399999999999 363.814 126.14699999999999 363.785 126.15799999999999 C 363.754 126.16099999999999 363.726 126.17099999999999 363.701 126.189 C 363.672 126.19999999999999 363.648 126.217 363.62800000000004 126.24 C 363.60300000000007 126.258 363.583 126.28099999999999 363.57000000000005 126.30799999999999 C 363.547 126.338 363.53600000000006 126.374 363.52700000000004 126.41 L 363.53100000000006 126.399 C 363.52600000000007 126.413 363.51700000000005 126.426 363.51000000000005 126.438 C 363.50300000000004 126.45 363.49600000000004 126.462 363.49000000000007 126.474 C 363.4840000000001 126.486 363.4800000000001 126.5 363.47600000000006 126.513 C 363.47100000000006 126.527 363.46600000000007 126.54100000000001 363.46100000000007 126.555 L 363.4410000000001 126.617 C 363.4400000000001 126.63900000000001 363.4390000000001 126.661 363.4380000000001 126.682 C 363.4430000000001 126.703 363.4470000000001 126.723 363.4520000000001 126.744 C 363.4620000000001 126.775 363.4790000000001 126.801 363.5020000000001 126.822 C 363.5140000000001 126.84 363.53000000000014 126.85300000000001 363.5500000000001 126.86200000000001 C 363.5670000000001 126.876 363.5860000000001 126.885 363.6080000000001 126.88900000000001 C 363.6280000000001 126.89900000000002 363.6500000000001 126.90200000000002 363.67200000000014 126.9 C 363.7040000000001 126.90400000000001 363.73600000000016 126.9 363.76600000000013 126.887 C 363.78000000000014 126.884 363.7930000000001 126.881 363.80700000000013 126.877 C 363.82100000000014 126.874 363.8360000000001 126.871 363.8490000000001 126.86699999999999 C 363.8620000000001 126.86299999999999 363.8750000000001 126.856 363.8870000000001 126.85099999999998 L 363.9090000000001 126.84199999999998 C 363.9340000000001 126.83599999999998 363.9600000000001 126.82999999999998 363.9850000000001 126.82499999999999 C 364.0120000000001 126.81099999999999 364.0380000000001 126.79699999999998 364.0650000000001 126.78299999999999 C 364.0870000000001 126.76299999999999 364.1090000000001 126.74299999999998 364.1310000000001 126.72299999999998 C 364.1480000000001 126.69799999999998 364.1640000000001 126.67199999999998 364.1810000000001 126.64699999999999 C 364.1910000000001 126.61699999999999 364.2000000000001 126.58699999999999 364.2100000000001 126.55699999999999 C 364.209 126.528 364.21 126.497 364.211 126.465 z" stroke-linecap="round" />
</g>
		<g transform="matrix(1 0 0 1 -3.01 -51.19)"  >
<path style="stroke: none; stroke-width: 1; stroke-dasharray: none; stroke-linecap: butt; stroke-dashoffset: 0; stroke-linejoin: miter; stroke-miterlimit: 4; fill: rgb(77,76,81); fill-rule: nonzero; opacity: 1;" vector-effect="non-scaling-stroke"  transform=" translate(-369.4, -72.63)" d="M 370.414 72.321 C 370.315 72.05499999999999 370.127 71.842 369.888 71.695 C 369.64099999999996 71.54199999999999 369.349 71.52199999999999 369.07399999999996 71.592 C 368.794 71.664 368.54699999999997 71.872 368.41599999999994 72.127 C 368.28999999999996 72.374 368.29299999999995 72.65599999999999 368.41299999999995 72.89099999999999 C 368.43399999999997 73.03299999999999 368.484 73.17099999999999 368.57699999999994 73.29299999999999 C 368.86599999999993 73.67399999999999 369.41099999999994 73.79799999999999 369.85099999999994 73.62299999999999 C 370.08299999999997 73.52999999999999 370.2819999999999 73.36099999999999 370.39099999999996 73.133 C 370.51 72.88 370.511 72.581 370.414 72.321 z" stroke-linecap="round" />
</g>
		<g transform="matrix(1 0 0 1 -1.69 -52.91)"  >
<path style="stroke: none; stroke-width: 1; stroke-dasharray: none; stroke-linecap: butt; stroke-dashoffset: 0; stroke-linejoin: miter; stroke-miterlimit: 4; fill: rgb(77,76,81); fill-rule: nonzero; opacity: 1;" vector-effect="non-scaling-stroke"  transform=" translate(-370.73, -70.9)" d="M 371.204 70.856 C 371.196 70.77199999999999 371.168 70.696 371.12 70.627 L 371.038 70.536 C 370.97200000000004 70.48 370.897 70.44500000000001 370.812 70.429 C 370.748 70.415 370.685 70.418 370.624 70.437 C 370.562 70.446 370.50600000000003 70.469 370.45500000000004 70.50699999999999 C 370.40200000000004 70.541 370.36 70.58599999999998 370.331 70.64099999999999 C 370.29200000000003 70.692 370.267 70.74999999999999 370.25800000000004 70.815 C 370.25600000000003 70.858 370.254 70.89999999999999 370.25300000000004 70.943 C 370.261 71.027 370.28900000000004 71.103 370.33700000000005 71.172 L 370.41900000000004 71.26299999999999 C 370.485 71.31899999999999 370.56000000000006 71.35399999999998 370.64500000000004 71.36999999999999 C 370.70900000000006 71.38399999999999 370.77200000000005 71.38099999999999 370.833 71.362 C 370.89500000000004 71.354 370.951 71.33 371.002 71.292 C 371.055 71.258 371.09700000000004 71.21300000000001 371.12600000000003 71.158 C 371.16600000000005 71.107 371.19000000000005 71.049 371.199 70.984 C 371.2 70.941 371.202 70.898 371.204 70.856 z" stroke-linecap="round" />
</g>
		<g transform="matrix(1 0 0 1 -3.17 -53.39)"  >
<path style="stroke: none; stroke-width: 1; stroke-dasharray: none; stroke-linecap: butt; stroke-dashoffset: 0; stroke-linejoin: miter; stroke-miterlimit: 4; fill: rgb(77,76,81); fill-rule: nonzero; opacity: 1;" vector-effect="non-scaling-stroke"  transform=" translate(-369.25, -70.42)" d="M 369.286 70.199 C 368.997 70.18299999999999 368.913 70.632 369.206 70.648 C 369.495 70.663 369.579 70.215 369.286 70.199 z" stroke-linecap="round" />
</g>
		<g transform="matrix(1 0 0 1 -25.51 -25.37)"  >
<path style="stroke: none; stroke-width: 1; stroke-dasharray: none; stroke-linecap: butt; stroke-dashoffset: 0; stroke-linejoin: miter; stroke-miterlimit: 4; fill: rgb(77,76,81); fill-rule: nonzero; opacity: 1;" vector-effect="non-scaling-stroke"  transform=" translate(-346.91, -98.44)" d="M 347.863 97.163 C 347.306 96.705 346.482 96.697 345.916 97.152 C 345.635 97.378 345.42199999999997 97.686 345.361 98.047 C 345.32 98.289 345.354 98.53 345.435 98.756 C 345.492 99.387 345.973 99.896 346.608 100.038 C 347.315 100.196 348.035 99.76599999999999 348.329 99.124 C 348.637 98.45 348.432 97.631 347.863 97.163 z" stroke-linecap="round" />
</g>
		<g transform="matrix(1 0 0 1 -23.67 -23.64)"  >
<path style="stroke: none; stroke-width: 1; stroke-dasharray: none; stroke-linecap: butt; stroke-dashoffset: 0; stroke-linejoin: miter; stroke-miterlimit: 4; fill: rgb(77,76,81); fill-rule: nonzero; opacity: 1;" vector-effect="non-scaling-stroke"  transform=" translate(-348.74, -100.18)" d="M 349.178 100.165 C 349.178 100.153 349.179 100.141 349.177 100.129 C 349.175 100.117 349.17400000000004 100.105 349.17400000000004 100.093 C 349.17400000000004 100.081 349.175 100.069 349.17300000000006 100.057 C 349.1720000000001 100.052 349.17100000000005 100.046 349.1700000000001 100.041 C 349.1700000000001 100.038 349.1690000000001 100.035 349.1690000000001 100.033 C 349.1690000000001 100.031 349.1680000000001 100.029 349.1680000000001 100.027 C 349.16500000000013 99.981 349.1520000000001 99.93900000000001 349.1280000000001 99.901 C 349.1170000000001 99.87899999999999 349.1140000000001 99.86999999999999 349.1020000000001 99.85499999999999 C 349.0600000000001 99.80399999999999 349.0370000000001 99.77699999999999 348.9760000000001 99.74799999999999 C 348.93400000000014 99.728 348.9210000000001 99.72699999999999 348.8920000000001 99.72099999999999 C 348.89100000000013 99.72099999999999 348.8900000000001 99.72099999999999 348.8890000000001 99.71999999999998 C 348.81900000000013 99.70799999999998 348.80700000000013 99.71299999999998 348.75100000000015 99.72599999999998 C 348.7280000000001 99.73099999999998 348.71300000000014 99.73399999999998 348.69300000000015 99.74099999999999 C 348.64100000000013 99.76099999999998 348.59200000000016 99.79199999999999 348.5430000000002 99.81899999999999 C 348.57300000000015 99.80299999999998 348.60400000000016 99.78699999999999 348.6340000000002 99.77099999999999 C 348.5840000000002 99.79199999999999 348.5370000000002 99.81799999999998 348.4900000000002 99.84499999999998 C 348.4270000000002 99.88899999999998 348.3790000000002 99.94599999999998 348.3450000000002 100.01599999999999 C 348.3110000000002 100.08899999999998 348.2970000000002 100.16499999999999 348.3040000000002 100.24499999999999 C 348.3180000000002 100.39699999999999 348.4140000000002 100.53399999999999 348.5520000000002 100.6 C 348.6930000000002 100.66699999999999 348.86300000000017 100.65299999999999 348.9920000000002 100.564 C 349.0550000000002 100.52 349.1040000000002 100.463 349.13700000000017 100.39299999999999 C 349.171 100.322 349.185 100.245 349.178 100.165 z" stroke-linecap="round" />
</g>
		<g transform="matrix(1 0 0 1 -22.93 -24.59)"  >
<path style="stroke: none; stroke-width: 1; stroke-dasharray: none; stroke-linecap: butt; stroke-dashoffset: 0; stroke-linejoin: miter; stroke-miterlimit: 4; fill: rgb(77,76,81); fill-rule: nonzero; opacity: 1;" vector-effect="non-scaling-stroke"  transform=" translate(-349.48, -99.23)" d="M 349.729 99.126 C 349.719 99.095 349.702 99.068 349.678 99.046 C 349.658 99.02000000000001 349.633 99.001 349.603 98.98700000000001 C 349.562 98.968 349.51800000000003 98.96000000000001 349.473 98.96400000000001 C 349.43 98.96800000000002 349.39 98.98300000000002 349.354 99.00800000000001 C 349.318 99.03300000000002 349.291 99.06500000000001 349.272 99.10400000000001 L 349.243 99.15500000000002 C 349.219 99.19700000000002 349.213 99.24400000000001 349.216 99.29100000000001 C 349.216 99.29700000000001 349.217 99.30400000000002 349.217 99.31000000000002 C 349.221 99.32600000000002 349.224 99.34200000000001 349.228 99.35800000000002 C 349.236 99.38200000000002 349.249 99.40200000000002 349.267 99.41900000000003 C 349.277 99.43300000000002 349.289 99.44300000000003 349.304 99.45000000000003 C 349.32399999999996 99.46600000000004 349.347 99.47500000000004 349.373 99.47900000000003 C 349.38 99.48000000000003 349.38599999999997 99.48100000000002 349.392 99.48300000000003 C 349.439 99.49100000000003 349.485 99.48800000000003 349.529 99.46900000000004 C 349.54699999999997 99.46100000000004 349.565 99.45300000000003 349.58299999999997 99.44500000000004 C 349.62399999999997 99.43000000000004 349.65799999999996 99.40600000000003 349.686 99.37300000000003 C 349.715 99.33900000000003 349.733 99.30000000000004 349.741 99.25600000000003 C 349.748 99.211 349.744 99.168 349.729 99.126 z" stroke-linecap="round" />
</g>
</g>
</g>
</svg>