<?xml version="1.0" encoding="UTF-8" standalone="no" ?>
<!DOCTYPE svg PUBLIC "-//W3C//DTD SVG 1.1//EN" "http://www.w3.org/Graphics/SVG/1.1/DTD/svg11.dtd">
<svg xmlns="http://www.w3.org/2000/svg" xmlns:xlink="http://www.w3.org/1999/xlink" version="1.1" width="80" height="80" viewBox="0 0 80 80" xml:space="preserve">
<desc>Created with Fabric.js 5.2.4</desc>
<defs>
</defs>
<g transform="matrix(1 0 0 1 40 40)" id="fc811ae7-94a6-4813-a672-5562730f3949"  >
<rect style="stroke: none; stroke-width: 1; stroke-dasharray: none; stroke-linecap: butt; stroke-dashoffset: 0; stroke-linejoin: miter; stroke-miterlimit: 4; fill: rgb(255,255,255); fill-rule: nonzero; opacity: 1; visibility: hidden;" vector-effect="non-scaling-stroke"  x="-40" y="-40" rx="0" ry="0" width="80" height="80" />
</g>
<g transform="matrix(Infinity NaN NaN Infinity 0 0)" id="dbb4e705-56be-4df9-91b2-46cd2014175f"  >
</g>
<g transform="matrix(1.31 0 0 1.31 40 40)" id="e1750f9c-4654-4e2b-b808-162c294221ad"  >
<path style="stroke: rgb(0,0,0); stroke-width: 0; stroke-dasharray: none; stroke-linecap: butt; stroke-dashoffset: 0; stroke-linejoin: miter; stroke-miterlimit: 4; fill: rgb(77,76,81); fill-rule: nonzero; opacity: 1;" vector-effect="non-scaling-stroke"  transform=" translate(-54.31, -278.55)" d="M 84.101 266.059 C 80.753 265.25 77.089 265.86600000000004 74.136 267.619 C 73.50999999999999 267.99100000000004 72.904 268.41200000000003 72.34899999999999 268.887 C 72.514 268.224 72.68099999999998 267.561 72.84599999999999 266.897 C 73.853 262.837 74.74099999999999 258.632 74.26199999999999 254.429 C 74.23099999999998 254.156 74.19299999999998 253.885 74.14899999999999 253.614 C 74.24099999999999 253.506 74.19299999999998 253.388 74.09799999999998 253.326 C 74.07099999999998 253.174 74.04699999999998 253.022 74.01599999999999 252.87 C 73.97999999999999 252.691 73.8 252.579 73.624 252.65200000000002 C 71.241 253.64000000000001 69.12299999999999 255.241 67.48899999999999 257.236 C 66.62799999999999 256.22499999999997 65.66399999999999 255.17999999999998 64.338 254.838 C 62.83899999999999 254.45 61.309 255.11599999999999 60.16799999999999 256.066 C 59.55199999999999 256.57899999999995 59.01899999999999 257.176 58.50999999999999 257.792 C 57.61199999999999 256.272 56.71499999999999 254.75099999999998 55.81299999999999 253.23299999999998 C 55.23399999999999 252.25799999999998 54.69399999999999 251.23999999999998 54.03299999999999 250.31799999999998 C 53.454999999999984 249.51 52.69099999999999 248.785 51.713999999999984 248.50699999999998 C 51.511999999999986 248.44899999999998 51.307999999999986 248.41299999999998 51.10199999999998 248.39799999999997 C 50.966999999999985 248.36899999999997 50.82199999999998 248.36699999999996 50.69099999999998 248.37499999999997 C 50.57299999999998 248.38199999999998 50.45599999999998 248.40899999999996 50.341999999999985 248.44299999999998 C 50.33999999999998 248.44299999999998 50.338999999999984 248.44299999999998 50.33699999999998 248.444 C 50.33499999999998 248.445 50.33399999999998 248.446 50.33199999999998 248.44699999999997 C 50.27499999999998 248.46399999999997 50.21799999999998 248.47999999999996 50.16299999999998 248.50199999999998 C 50.03899999999998 248.55299999999997 49.91599999999998 248.62699999999998 49.801999999999985 248.712 C 49.73299999999998 248.696 49.655999999999985 248.72 49.62699999999999 248.797 C 49.61099999999999 248.838 49.59699999999999 248.88 49.58199999999999 248.921 C 49.530999999999985 248.98399999999998 49.49199999999998 249.052 49.45899999999999 249.125 C 49.43799999999999 249.146 49.41499999999999 249.167 49.39599999999999 249.187 C 48.929999999999986 249.679 48.56499999999998 250.292 48.22799999999999 250.876 C 47.47999999999999 252.168 46.710999999999984 253.461 46.11099999999999 254.829 C 45.18899999999999 254.098 44.21599999999999 253.442 43.18599999999999 252.872 C 42.093999999999994 252.26700000000002 40.92399999999999 251.67200000000003 39.71999999999999 251.32600000000002 C 38.62599999999999 251.01200000000003 37.44399999999999 251.06400000000002 36.72899999999999 252.06500000000003 C 36.401999999999994 252.52300000000002 36.21199999999999 253.05700000000002 36.00899999999999 253.57700000000003 C 35.769999999999996 254.19000000000003 35.528999999999996 254.80200000000002 35.288999999999994 255.41500000000002 C 35.260999999999996 255.42000000000002 35.233999999999995 255.43300000000002 35.224999999999994 255.46300000000002 C 35.19499999999999 255.55500000000004 35.178999999999995 255.65500000000003 35.157999999999994 255.752 C 34.88799999999999 256.442 34.617999999999995 257.132 34.346999999999994 257.822 C 34.20199999999999 258.193 34.062 258.565 33.92099999999999 258.938 C 33.79899999999999 259.259 33.663999999999994 259.57599999999996 33.57999999999999 259.909 C 32.88299999999999 258.476 31.868999999999993 257.145 30.39299999999999 256.491 C 29.36599999999999 256.036 28.06199999999999 255.94699999999997 27.11399999999999 256.64 C 26.35699999999999 257.193 26.01199999999999 258.274 26.44499999999999 259.114 C 26.344999999999988 263.481 26.44699999999999 267.856 26.49099999999999 272.22299999999996 C 26.53199999999999 276.32599999999996 26.42999999999999 280.542 27.51699999999999 284.53599999999994 C 28.032999999999987 286.42999999999995 28.82499999999999 288.2339999999999 29.969999999999988 289.83399999999995 C 31.053999999999988 291.34999999999997 32.41099999999999 292.6569999999999 33.87699999999999 293.80199999999996 C 35.374999999999986 294.972 36.99299999999999 295.979 38.636999999999986 296.929 C 40.50099999999998 298.006 42.389999999999986 299.039 44.27099999999999 300.085 C 44.99199999999998 300.486 45.71599999999999 300.88399999999996 46.43699999999998 301.28499999999997 C 46.17899999999998 301.229 45.91899999999998 301.16999999999996 45.664999999999985 301.121 C 43.89199999999998 300.777 42.08499999999999 300.60699999999997 40.27899999999998 300.606 C 36.746999999999986 300.603 33.21199999999998 301.231 29.91199999999998 302.495 C 28.05099999999998 303.208 26.20199999999998 304.105 24.630999999999982 305.343 C 24.58099999999998 305.361 24.529999999999983 305.37600000000003 24.479999999999983 305.39500000000004 C 24.284999999999982 305.468 24.319999999999983 305.684 24.448999999999984 305.78400000000005 C 24.395999999999983 305.85200000000003 24.433999999999983 305.97200000000004 24.536999999999985 305.95200000000006 C 25.603999999999985 305.73800000000006 26.650999999999986 305.44200000000006 27.727999999999984 305.2710000000001 C 28.804999999999986 305.10100000000006 29.895999999999983 305.00500000000005 30.984999999999985 304.9700000000001 C 33.203999999999986 304.8980000000001 35.426999999999985 305.09100000000007 37.621999999999986 305.4100000000001 C 42.124999999999986 306.0640000000001 46.52299999999998 307.2770000000001 51.02299999999998 307.94900000000007 C 53.58799999999998 308.3330000000001 56.17599999999998 308.5320000000001 58.768999999999984 308.39900000000006 C 58.771999999999984 308.39900000000006 58.77399999999999 308.39700000000005 58.777999999999984 308.39700000000005 C 58.780999999999985 308.40000000000003 58.78199999999998 308.40600000000006 58.78499999999998 308.40900000000005 C 58.777999999999984 308.422 58.76399999999998 308.42900000000003 58.75899999999998 308.44500000000005 C 58.73499999999998 308.53600000000006 58.78199999999998 308.61500000000007 58.86299999999998 308.65700000000004 C 59.11199999999998 308.785 59.421999999999976 308.747 59.66199999999998 308.61400000000003 C 59.793999999999976 308.54100000000005 59.906999999999975 308.45300000000003 60.00599999999998 308.33900000000006 C 60.052999999999976 308.28400000000005 60.09899999999998 308.22 60.12899999999998 308.15400000000005 C 60.14999999999998 308.10800000000006 60.16199999999998 308.06200000000007 60.16999999999997 308.01400000000007 C 60.72299999999997 307.8470000000001 61.25699999999998 307.6310000000001 61.77199999999997 307.3760000000001 C 62.36399999999997 307.1380000000001 62.93399999999997 306.8460000000001 63.46099999999997 306.5330000000001 C 64.70599999999997 305.7920000000001 65.81799999999997 304.84100000000007 66.77799999999996 303.7580000000001 C 68.93799999999996 301.3210000000001 70.25199999999997 298.2480000000001 71.17199999999997 295.1560000000001 C 72.19799999999996 291.7070000000001 72.75099999999996 288.1390000000001 73.70699999999997 284.67200000000014 C 74.56499999999997 281.55600000000015 75.78999999999996 278.56900000000013 77.36599999999997 275.7470000000001 C 78.13699999999997 274.36600000000016 78.99799999999998 273.03300000000013 79.93399999999997 271.75800000000015 C 80.87499999999997 270.47600000000017 81.91799999999996 269.27800000000013 82.93399999999997 268.05700000000013 C 83.03699999999996 267.9330000000001 83.14599999999997 267.8150000000001 83.25099999999996 267.69300000000015 C 83.29499999999996 267.68200000000013 83.33899999999996 267.6680000000002 83.38299999999997 267.65700000000015 C 83.43699999999997 267.6440000000002 83.47199999999997 267.61200000000014 83.49799999999996 267.57600000000014 C 83.96099999999996 267.32800000000015 84.27899999999997 266.83500000000015 84.27999999999996 266.2910000000001 C 84.28 266.167 84.221 266.088 84.101 266.059 z M 66.338 256.59 C 66.651 256.902 66.943 257.236 67.222 257.565 C 67.187 257.609 67.14999999999999 257.651 67.116 257.69599999999997 C 66.366 258.686 65.749 259.768 65.26 260.904 C 65.265 260.873 65.27000000000001 260.841 65.27600000000001 260.81 C 65.36600000000001 260.305 65.47000000000001 259.803 65.58600000000001 259.303 C 65.70700000000001 258.783 65.84300000000002 258.266 65.99200000000002 257.753 C 66.06900000000002 257.49 66.14600000000002 257.228 66.22700000000002 256.966 C 66.267 256.84 66.31 256.717 66.338 256.59 z M 63.087 255.15 C 64.324 255.02100000000002 65.31 255.616 66.152 256.409 C 66.051 256.57599999999996 66 256.774 65.93900000000001 256.959 C 65.85300000000001 257.218 65.772 257.479 65.69600000000001 257.742 C 65.55400000000002 258.231 65.42500000000001 258.723 65.308 259.218 C 65.186 259.73400000000004 65.078 260.25300000000004 64.983 260.774 C 64.934 261.043 64.89 261.313 64.848 261.583 C 64.824 261.74100000000004 64.823 261.879 64.829 262.019 C 64.39899999999999 263.271 64.119 264.576 64.01599999999999 265.901 C 63.99099999999999 266.22200000000004 63.97899999999999 266.543 63.97399999999999 266.865 C 63.94699999999999 266.712 63.91899999999999 266.559 63.89499999999999 266.406 C 63.749999999999986 265.499 63.62399999999999 264.59000000000003 63.51799999999999 263.678 C 63.30399999999999 261.837 63.16599999999999 259.987 63.10499999999999 258.134 C 63.07199999999999 257.14300000000003 63.09999999999999 256.146 63.03999999999999 255.157 C 63.056 255.155 63.071 255.152 63.087 255.15 z M 62.769 255.197 C 62.701 256.047 62.73 256.911 62.751 257.761 C 62.774 258.697 62.817 259.632 62.879 260.565 C 63.004 262.432 63.207 264.295 63.485 266.145 C 63.54 266.51 63.595 266.878 63.653999999999996 267.246 C 63.596999999999994 267.115 63.535 266.98499999999996 63.476 266.854 C 63.316 266.382 63.158 265.90999999999997 63.009 265.43399999999997 C 62.687 264.414 62.384 263.388 62.1 262.35699999999997 C 61.822 261.349 61.562000000000005 260.337 61.32 259.32 C 61.078 258.304 60.918 257.24399999999997 60.587 256.254 C 60.584 256.247 60.579 256.245 60.575 256.24100000000004 C 61.228 255.741 61.944 255.348 62.769 255.197 z M 60.495 256.301 C 60.574 257.358 60.878 258.425 61.122 259.455 C 61.362 260.472 61.62 261.48499999999996 61.896 262.49199999999996 C 62.141 263.38699999999994 62.402 264.27799999999996 62.674 265.16499999999996 C 61.694 263.21 60.586 261.31399999999996 59.481 259.43499999999995 C 59.21 258.97299999999996 58.935 258.5129999999999 58.663000000000004 258.05199999999996 C 59.237 257.451 59.833 256.821 60.495 256.301 z M 49.465 250.402 C 49.469 250.38799999999998 49.473000000000006 250.374 49.478 250.35999999999999 C 49.688 250.022 49.895 249.683 50.099000000000004 249.34199999999998 C 50.138000000000005 249.373 50.176 249.40499999999997 50.215 249.43599999999998 C 50.756 253.09399999999997 51.42100000000001 256.736 52.009 260.38599999999997 C 52.629 264.22599999999994 53.193 268.075 53.763 271.92199999999997 C 54.909 279.65599999999995 55.995999999999995 287.39899999999994 57.03 295.14899999999994 C 57.541000000000004 298.9789999999999 58.027 302.81199999999995 58.496 306.64699999999993 C 56.498000000000005 304.38999999999993 55.236000000000004 301.53599999999994 54.440000000000005 298.64599999999996 C 53.358000000000004 294.71599999999995 53.081 290.63399999999996 52.45 286.62199999999996 C 52.126000000000005 284.561 51.683 282.532 51.086000000000006 280.53299999999996 C 50.50000000000001 278.56999999999994 49.807 276.64199999999994 49.17100000000001 274.69499999999994 C 48.534000000000006 272.74199999999996 47.953 270.76399999999995 47.601000000000006 268.7369999999999 C 47.25000000000001 266.7179999999999 47.129000000000005 264.6619999999999 47.2 262.6149999999999 C 47.343 258.461 48.238 254.362 49.465 250.402 z M 48.606 251.772 C 47.682 254.78 47.049 257.896 46.788000000000004 261.015 C 46.61600000000001 263.06399999999996 46.617000000000004 265.132 46.837 267.178 C 47.059000000000005 269.241 47.537000000000006 271.258 48.128 273.245 C 48.723 275.243 49.423 277.208 50.058 279.193 C 50.705 281.21999999999997 51.249 283.267 51.618 285.364 C 52.346000000000004 289.5 52.579 293.727 53.592 297.81199999999995 C 54.359 300.90599999999995 55.576 303.98999999999995 57.602 306.48099999999994 C 55.427 304.52599999999995 54.053999999999995 301.72999999999996 53.137 298.98699999999997 C 52.435 296.89 51.941 294.73299999999995 51.348 292.604 C 50.754 290.473 50.01 288.401 49.158 286.361 C 47.46 282.299 45.452 278.351 44.216 274.111 C 43.602000000000004 272.00399999999996 43.19 269.823 43.126 267.626 C 43.065 265.542 43.373 263.455 43.958 261.457 C 44.971 257.996 46.731 254.835 48.606 251.772 z M 45.872 255.344 C 45.495 256.039 45.136 256.74399999999997 44.801 257.46 C 44.562000000000005 256.741 44.313 256.025 44.047000000000004 255.31599999999997 C 43.829 254.73499999999999 43.614000000000004 254.14199999999997 43.352000000000004 253.57499999999996 C 44.23 254.107 45.073 254.7 45.872 255.344 z M 42.652 253.162 C 42.748 253.215 42.84 253.273 42.935 253.328 C 43.167 254.046 43.463 254.747 43.722 255.455 C 44.021 256.273 44.300000000000004 257.098 44.563 257.92900000000003 C 44.566 257.94000000000005 44.573 257.946 44.578 257.95500000000004 C 44.298 258.57800000000003 44.033 259.20700000000005 43.797000000000004 259.848 C 43.377 260.992 43.038000000000004 262.166 42.800000000000004 263.361 C 42.404 261.632 42.05800000000001 259.89099999999996 41.739000000000004 258.147 C 41.548 257.101 41.36900000000001 256.053 41.199000000000005 255.004 C 41.114000000000004 254.47899999999998 41.03300000000001 253.95399999999998 40.95400000000001 253.428 C 40.894000000000005 253.027 40.84600000000001 252.62199999999999 40.76800000000001 252.224 C 41.418 252.501 42.05 252.827 42.652 253.162 z M 37.742 251.788 C 38.271 251.53 38.896 251.60000000000002 39.446 251.74800000000002 C 39.803999999999995 251.84400000000002 40.158 251.973 40.509 252.11400000000003 C 40.551 253.09200000000004 40.755 254.08400000000003 40.904 255.04700000000003 C 41.066 256.098 41.242000000000004 257.146 41.43000000000001 258.192 C 41.793000000000006 260.214 42.215 262.223 42.64500000000001 264.231 C 42.55800000000001 264.793 42.49300000000001 265.358 42.45700000000001 265.926 C 42.31700000000001 268.145 42.56600000000001 270.371 43.062000000000005 272.534 C 43.148 272.911 43.25000000000001 273.283 43.351000000000006 273.655 C 43.160000000000004 273.23299999999995 42.953 272.816 42.76800000000001 272.39599999999996 C 42.45900000000001 271.69899999999996 42.16400000000001 270.99699999999996 41.88100000000001 270.28899999999993 C 41.31600000000001 268.8739999999999 40.803000000000004 267.43699999999995 40.34400000000001 265.9839999999999 C 39.41000000000001 263.0279999999999 38.70300000000001 260.0019999999999 38.21900000000001 256.93999999999994 C 38.08500000000001 256.08899999999994 37.96800000000001 255.23499999999993 37.86900000000001 254.37999999999994 C 37.77400000000001 253.55399999999995 37.75300000000001 252.69799999999995 37.60300000000001 251.87899999999993 C 37.649 251.85 37.691 251.813 37.742 251.788 z M 35.336 256.583 C 35.339999999999996 256.51700000000005 35.345 256.451 35.351 256.386 C 35.8 255.24600000000004 36.205999999999996 254.07300000000004 36.731 252.967 C 36.885000000000005 252.64100000000002 37.082 252.322 37.344 252.07500000000002 C 37.343 252.727 37.435 253.39000000000001 37.503 254.03400000000002 C 37.586 254.82500000000002 37.685 255.61400000000003 37.799 256.401 C 38.022 257.942 38.306 259.475 38.646 260.994 C 39.33 264.048 40.243 267.05100000000004 41.377 269.96700000000004 C 41.689 270.77000000000004 42.018 271.56600000000003 42.364000000000004 272.355 C 42.470000000000006 272.598 42.57600000000001 272.844 42.68300000000001 273.091 C 42.39000000000001 272.794 42.07900000000001 272.509 41.763000000000005 272.229 C 41.477000000000004 271.897 41.193000000000005 271.562 40.919000000000004 271.21999999999997 C 40.077000000000005 270.16999999999996 39.287000000000006 269.077 38.577000000000005 267.933 C 37.105000000000004 265.55899999999997 36.00300000000001 262.907 35.543000000000006 260.144 C 35.415000000000006 259.373 35.339000000000006 258.594 35.318000000000005 257.813 C 35.308 257.403 35.313 256.993 35.336 256.583 z M 33.758 260.197 C 34.112 259.648 34.313 258.982 34.558 258.379 C 34.721 257.97900000000004 34.878 257.577 35.037 257.17600000000004 C 35.037 257.29300000000006 35.037 257.41200000000003 35.037 257.52500000000003 C 35.036 258.22100000000006 35.082 258.91700000000003 35.17 259.607 C 35.349000000000004 261.01500000000004 35.701 262.40000000000003 36.184000000000005 263.73400000000004 C 37.135000000000005 266.36300000000006 38.647000000000006 268.78900000000004 40.352000000000004 270.99100000000004 C 40.387 271.03700000000003 40.42400000000001 271.081 40.46 271.12600000000003 C 39.006 269.934 37.526 268.757 36.483000000000004 267.23100000000005 C 35.175000000000004 265.31700000000006 34.82000000000001 262.975 33.995000000000005 260.85 C 33.913000000000004 260.639 33.824000000000005 260.428 33.729000000000006 260.218 C 33.738 260.211 33.751 260.209 33.758 260.197 z M 30.541 257.167 C 32.177 258.08099999999996 33.098 259.904 33.69 261.60699999999997 C 34.382999999999996 263.601 34.806999999999995 265.715 35.997 267.496 C 37.146 269.216 38.824 270.481 40.399 271.78299999999996 C 41.775 272.91999999999996 43.144 274.18499999999995 43.978 275.77299999999997 C 45.048 279.00199999999995 46.503 282.099 47.851 285.222 C 48.743 287.28799999999995 49.585 289.37699999999995 50.242 291.531 C 50.901999999999994 293.695 51.397 295.906 52.046 298.074 C 52.735 300.375 53.663 302.712 55.045 304.708 C 54.898 304.61800000000005 54.755 304.523 54.609 304.432 C 52.489000000000004 302.14500000000004 50.419000000000004 299.81100000000004 48.461 297.38300000000004 C 46.128 294.49100000000004 43.949 291.47200000000004 42.003 288.30400000000003 C 40.064 285.14700000000005 38.395 281.822 37.091 278.35200000000003 C 36.42 276.564 35.86 274.742 35.405 272.88700000000006 C 34.899 270.82900000000006 34.484 268.7490000000001 33.936 266.7010000000001 C 33.007 263.2320000000001 31.597 259.72800000000007 28.992 257.16600000000005 C 28.819000000000003 256.99600000000004 28.636 256.83600000000007 28.448 256.6820000000001 C 29.167 256.607 29.921 256.821 30.541 257.167 z M 28.872 257.693 C 28.793 257.546 28.708 257.405 28.62 257.264 C 30.935000000000002 259.594 32.315 262.618 33.224000000000004 265.766 C 33.81700000000001 267.81800000000004 34.243 269.911 34.724000000000004 271.99100000000004 C 35.159000000000006 273.872 35.663000000000004 275.73400000000004 36.287000000000006 277.56100000000004 C 37.47200000000001 281.033 39.05200000000001 284.35900000000004 40.88400000000001 287.535 C 42.73700000000001 290.74800000000005 44.85900000000001 293.795 47.14300000000001 296.71500000000003 C 48.85000000000001 298.89900000000006 50.647000000000006 301.011 52.501000000000005 303.07200000000006 C 50.72200000000001 301.88200000000006 48.996 300.6170000000001 47.34700000000001 299.23500000000007 C 44.464000000000006 296.82000000000005 41.82000000000001 294.1330000000001 39.43200000000001 291.22800000000007 C 36.98100000000001 288.24700000000007 34.73300000000001 285.02000000000004 33.02600000000001 281.5520000000001 C 32.14300000000001 279.75700000000006 31.41500000000001 277.87700000000007 30.97300000000001 275.92300000000006 C 30.49100000000001 273.7920000000001 30.43000000000001 271.61800000000005 30.46700000000001 269.44100000000003 C 30.533 265.51 30.803 261.28 28.872 257.693 z M 40.274 297.134 C 38.634 296.225 37.008 295.28000000000003 35.469 294.207 C 33.956 293.152 32.521 291.966 31.314 290.565 C 30.06 289.11 29.108 287.447 28.47 285.636 C 27.127 281.824 27.113999999999997 277.689 27.07 273.696 C 27.019000000000002 269.06300000000005 26.985 264.43100000000004 26.844 259.8 C 26.826 259.226 26.807000000000002 258.652 26.778000000000002 258.07800000000003 C 26.776000000000003 258.03000000000003 26.750000000000004 257.99600000000004 26.715000000000003 257.975 C 26.837000000000003 257.615 27.074000000000005 257.291 27.385000000000005 257.062 C 27.226000000000006 259.048 27.139000000000006 261.045 27.080000000000005 263.03700000000003 C 27.021000000000004 265.04100000000005 27.001000000000005 267.04800000000006 27.104000000000006 269.05100000000004 C 27.300000000000008 272.89400000000006 27.938000000000006 276.69000000000005 29.245000000000005 280.31700000000006 C 30.448000000000004 283.65600000000006 32.172000000000004 286.80100000000004 34.27 289.6600000000001 C 36.389 292.5470000000001 38.901 295.12700000000007 41.67400000000001 297.3900000000001 C 42.465 298.0350000000001 43.27700000000001 298.6500000000001 44.10600000000001 299.2430000000001 C 42.828 298.542 41.549 297.841 40.274 297.134 z M 43.049 297.822 C 40.227 295.656 37.644 293.171 35.424 290.39 C 33.242 287.656 31.417 284.63599999999997 30.076999999999998 281.40299999999996 C 28.628999999999998 277.91099999999994 27.858999999999998 274.203 27.557 270.44199999999995 C 27.237 266.465 27.391 262.4789999999999 27.593 258.501 C 27.618 258.017 27.641 257.53299999999996 27.657 257.048 C 27.659 256.996 27.635 256.958 27.602 256.933 C 27.645 256.90999999999997 27.683 256.88 27.728 256.86 C 27.785 256.83500000000004 27.845000000000002 256.819 27.904 256.79900000000004 C 30.176 260.26200000000006 30.119 264.44500000000005 30.012 268.43100000000004 C 29.953 270.62800000000004 29.91 272.84100000000007 30.277 275.016 C 30.61 276.98600000000005 31.23 278.901 32.032000000000004 280.728 C 33.597 284.295 35.789 287.611 38.17100000000001 290.682 C 40.48100000000001 293.661 43.087 296.413 45.916000000000004 298.903 C 47.412000000000006 300.22 48.976000000000006 301.458 50.596000000000004 302.617 C 49.547000000000004 302.05400000000003 48.502 301.487 47.48500000000001 300.86400000000003 C 45.956 299.928 44.472 298.915 43.049 297.822 z M 29.292 303.336 C 30.945 302.668 32.652 302.14500000000004 34.4 301.79200000000003 C 37.787 301.107 41.289 301.02400000000006 44.7 301.579 C 46.073 301.803 47.393 302.192 48.724000000000004 302.55 C 50.334 303.442 51.944 304.334 53.554 305.226 C 46.495000000000005 303.206 39.063 302.353 31.785000000000004 303.492 C 29.914000000000005 303.785 28.070000000000004 304.21200000000005 26.266000000000005 304.78000000000003 C 27.255 304.259 28.252 303.756 29.292 303.336 z M 31.587 304.421 C 30.757 304.442 29.893 304.488 29.028 304.582 C 36.228 302.977 43.736 303.454 50.91 305.268 C 52.959999999999994 305.78599999999994 54.98 306.419 56.974999999999994 307.12199999999996 C 57.148999999999994 307.21799999999996 57.32299999999999 307.31499999999994 57.49699999999999 307.41099999999994 C 57.56499999999999 307.4669999999999 57.63799999999999 307.51899999999995 57.706999999999994 307.57399999999996 C 48.888 307.787 40.428 304.196 31.587 304.421 z M 59.612 306.457 C 59.483000000000004 306.771 59.339 307.078 59.195 307.385 C 59.179 307.36899999999997 59.162 307.355 59.146 307.339 C 58.234 299.852 57.266 292.372 56.21 284.905 C 55.114000000000004 277.16099999999994 53.875 269.44399999999996 52.627 261.724 C 52.276 259.55199999999996 51.919000000000004 257.381 51.556000000000004 255.21099999999998 C 51.216 253.17899999999997 50.888000000000005 251.142 50.492000000000004 249.11899999999997 C 50.605000000000004 249.09799999999998 50.713 249.08899999999997 50.82000000000001 249.08399999999997 C 52.043000000000006 250.17 52.90500000000001 251.60599999999997 53.61600000000001 253.06799999999998 C 54.50800000000001 254.904 55.276 256.80199999999996 55.95100000000001 258.728 C 57.31600000000001 262.622 58.27100000000001 266.644 59.013000000000005 270.699 C 59.75300000000001 274.75 60.266000000000005 278.838 60.718 282.93 C 61.159000000000006 286.918 61.605000000000004 290.922 61.596000000000004 294.94 C 61.585 298.852 61.108 302.814 59.612 306.457 z M 60.24 307.219 C 60.093 307.342 59.939 307.456 59.783 307.568 C 59.775 307.57099999999997 59.767 307.572 59.759 307.575 C 61.382 304.104 62.049 300.281 62.185 296.469 C 62.329 292.43399999999997 61.914 288.406 61.477000000000004 284.401 C 61.021 280.219 60.524 276.039 59.807 271.89300000000003 C 59.099000000000004 267.80100000000004 58.164 263.74 56.85 259.797 C 56.187000000000005 257.80800000000005 55.427 255.85100000000003 54.554 253.94500000000002 C 53.787 252.27300000000002 52.949000000000005 250.57000000000002 51.624 249.26300000000003 C 51.583000000000006 249.22300000000004 51.536 249.19000000000003 51.494 249.15200000000004 C 53.035 249.54900000000004 53.999 251.53000000000003 54.738 252.77600000000004 C 55.927 254.78300000000004 57.116 256.79 58.299 258.8 C 60.45 262.458 62.674 266.134 64.036 270.176 C 64.717 272.19599999999997 65.133 274.294 65.209 276.426 C 65.292 278.724 65.019 281.019 64.73 283.294 C 64.44200000000001 285.56 64.13600000000001 287.828 64.08800000000001 290.115 C 64.04 292.437 64.197 294.759 64.12200000000001 297.08 C 64.003 300.713 63.172 304.767 60.24 307.219 z M 61.571 306.735 C 63.393 304.707 64.303 301.86400000000003 64.596 299.19300000000004 C 64.85900000000001 296.80600000000004 64.729 294.40200000000004 64.708 292.00700000000006 C 64.68599999999999 289.60600000000005 64.898 287.24000000000007 65.205 284.86100000000005 C 65.506 282.53000000000003 65.849 280.19700000000006 65.90299999999999 277.8430000000001 C 65.954 275.6040000000001 65.701 273.3950000000001 65.1 271.23600000000005 C 65.03899999999999 271.016 64.973 270.79900000000004 64.907 270.5810000000001 C 64.338 267.7530000000001 64.411 264.86500000000007 65.371 262.1190000000001 C 66.27199999999999 259.5420000000001 67.886 257.2490000000001 69.98599999999999 255.5070000000001 C 71.05999999999999 254.6160000000001 72.252 253.8890000000001 73.52499999999999 253.32100000000008 C 73.54299999999999 253.4190000000001 73.556 253.51700000000008 73.57199999999999 253.6150000000001 C 71.26699999999998 256.18700000000007 69.61899999999999 259.2820000000001 68.52599999999998 262.5480000000001 C 67.37099999999998 266.0000000000001 66.79599999999998 269.6260000000001 66.58199999999998 273.2530000000001 C 66.32499999999997 277.5980000000001 66.53199999999998 281.9510000000001 66.70399999999998 286.2950000000001 C 66.79199999999997 288.5160000000001 66.86899999999999 290.73800000000006 66.84699999999998 292.96100000000007 C 66.82699999999998 294.9820000000001 66.74999999999999 297.0160000000001 66.35999999999999 299.0040000000001 C 65.766 302.018 64.224 305.082 61.571 306.735 z M 62.853 306.277 C 62.686 306.376 62.518 306.471 62.346000000000004 306.562 C 64.093 305.264 65.36800000000001 303.253 66.056 301.25100000000003 C 66.71 299.345 66.97 297.32700000000006 67.083 295.32300000000004 C 67.203 293.194 67.18599999999999 291.057 67.152 288.92600000000004 C 67.08 284.487 66.799 280.05000000000007 66.911 275.61000000000007 C 67.007 271.79100000000005 67.411 267.96100000000007 68.449 264.2750000000001 C 69.428 260.7990000000001 70.965 257.4590000000001 73.255 254.64800000000008 C 73.38499999999999 254.4890000000001 73.52499999999999 254.33900000000008 73.65899999999999 254.18300000000008 C 74.154 257.8900000000001 73.53699999999999 261.65400000000005 72.704 265.27900000000005 C 72.238 267.30500000000006 71.711 269.31600000000003 71.26599999999999 271.34700000000004 C 71.01299999999999 272.50000000000006 70.80399999999999 273.65600000000006 70.636 274.82000000000005 C 70.569 275.01200000000006 70.511 275.208 70.475 275.40700000000004 C 70.43599999999999 275.62500000000006 70.443 275.82900000000006 70.47399999999999 276.03600000000006 C 70.41699999999999 276.53200000000004 70.368 277.02900000000005 70.32999999999998 277.5280000000001 C 70.01099999999998 281.7050000000001 70.28699999999998 285.8980000000001 70.06099999999998 290.0780000000001 C 69.85499999999998 293.8860000000001 69.23599999999998 297.7920000000001 67.38899999999998 301.18000000000006 C 66.282 303.209 64.736 304.974 62.853 306.277 z M 80.315 270.39 C 79.349 271.615 78.458 272.89799999999997 77.646 274.22999999999996 C 76.019 276.90099999999995 74.725 279.77099999999996 73.799 282.75899999999996 C 72.73700000000001 286.18299999999994 72.19800000000001 289.741 71.334 293.215 C 70.533 296.436 69.44200000000001 299.659 67.485 302.376 C 66.806 303.318 66.009 304.18699999999995 65.122 304.95 C 65.864 304.275 66.535 303.52299999999997 67.121 302.734 C 69.076 300.106 70.149 296.96999999999997 70.82 293.793 C 71.556 290.305 71.82799999999999 286.742 72.42099999999999 283.23 C 72.987 279.87600000000003 73.854 276.47700000000003 75.687 273.571 C 77.243 271.10400000000004 79.526 268.96000000000004 82.307 267.97400000000005 C 82.4 267.94100000000003 82.494 267.91300000000007 82.587 267.88300000000004 C 81.78 268.672 81.02 269.496 80.315 270.39 z M 76.333 272.096 C 74.368 274.716 73.244 277.782 72.55 280.961 C 71.791 284.439 71.515 287.995 70.944 291.504 C 70.426 294.687 69.646 297.906 68.057 300.737 C 69.38 298.05400000000003 70.022 295.057 70.31400000000001 292.086 C 70.72600000000001 287.891 70.459 283.671 70.63300000000001 279.466 C 70.69400000000002 278.003 70.83300000000001 276.555 71.043 275.113 C 71.244 274.472 71.56 273.878 71.991 273.323 C 72.65 272.47299999999996 73.466 271.734 74.306 271.065 C 75.988 269.725 77.91 268.695 79.953 268.026 C 80.525 267.838 81.10600000000001 267.682 81.694 267.553 C 82.181 267.44599999999997 82.674 267.381 83.164 267.296 C 80.393 267.986 78.027 269.836 76.333 272.096 z M 83.623 266.963 C 83.59 266.92100000000005 83.54100000000001 266.89000000000004 83.473 266.892 C 82.904 266.904 82.323 267.025 81.767 267.137 C 81.22999999999999 267.245 80.7 267.384 80.176 267.542 C 79.089 267.86899999999997 78.033 268.299 77.026 268.82099999999997 C 75.06099999999999 269.84 73.19 271.217 71.76299999999999 272.921 C 71.60199999999999 273.113 71.451 273.315 71.309 273.522 C 71.337 273.372 71.359 273.222 71.38799999999999 273.073 C 71.61999999999999 271.902 71.89299999999999 270.741 72.178 269.582 C 73.396 268.502 74.75 267.632 76.273 267.038 C 77.851 266.423 79.554 266.103 81.249 266.124 C 82.128 266.13500000000005 82.999 266.24300000000005 83.85799999999999 266.428 C 83.825 266.627 83.744 266.81 83.623 266.963 z" stroke-linecap="round" />
</g>
</svg>