<?xml version="1.0" encoding="UTF-8" standalone="no" ?>
<!DOCTYPE svg PUBLIC "-//W3C//DTD SVG 1.1//EN" "http://www.w3.org/Graphics/SVG/1.1/DTD/svg11.dtd">
<svg xmlns="http://www.w3.org/2000/svg" xmlns:xlink="http://www.w3.org/1999/xlink" version="1.1" width="80" height="80" viewBox="0 0 80 80" xml:space="preserve">
<desc>Created with Fabric.js 5.2.4</desc>
<defs>
</defs>
<rect x="0" y="0" width="100%" height="100%" fill="transparent"></rect>
<g transform="matrix(1 0 0 1 40 40)" id="fc811ae7-94a6-4813-a672-5562730f3949"  >
<rect style="stroke: none; stroke-width: 1; stroke-dasharray: none; stroke-linecap: butt; stroke-dashoffset: 0; stroke-linejoin: miter; stroke-miterlimit: 4; fill: rgb(255,255,255); fill-rule: nonzero; opacity: 1; visibility: hidden;" vector-effect="non-scaling-stroke"  x="-40" y="-40" rx="0" ry="0" width="80" height="80" />
</g>
<g transform="matrix(Infinity NaN NaN Infinity 0 0)" id="dbb4e705-56be-4df9-91b2-46cd2014175f"  >
</g>
<g transform="matrix(1 0 0 1 40 40)"  >
<g style="" vector-effect="non-scaling-stroke"   >
		<g transform="matrix(1 0 0 1 0 0)"  >
<path style="stroke: none; stroke-width: 1; stroke-dasharray: none; stroke-linecap: butt; stroke-dashoffset: 0; stroke-linejoin: miter; stroke-miterlimit: 4; fill: rgb(77,76,81); fill-rule: nonzero; opacity: 1;" vector-effect="non-scaling-stroke"  transform=" translate(-124.69, -283.19)" d="M 164.358 307.936 C 163.99 307.33299999999997 163.41 306.90799999999996 162.803 306.568 C 162.143 306.198 161.438 305.9 160.734 305.626 C 157.781 304.477 154.601 303.909 151.43300000000002 303.955 C 149.89800000000002 303.977 148.36900000000003 304.154 146.866 304.465 C 148.58800000000002 302.76099999999997 150.16400000000002 300.90799999999996 151.55800000000002 298.928 C 154.15000000000003 295.247 156.14600000000002 291.136 157.36300000000003 286.8 C 157.66800000000003 285.714 157.92700000000002 284.615 158.13500000000002 283.507 C 158.33200000000002 282.456 158.586 281.307 158.32200000000003 280.246 C 158.19700000000003 279.74199999999996 157.95100000000002 279.274 157.53700000000003 278.948 C 157.35400000000004 278.804 157.15000000000003 278.7 156.93600000000004 278.63 C 157.30600000000004 276.878 157.48600000000005 275.066 157.57400000000004 273.283 C 157.66700000000003 271.387 157.62400000000005 269.483 157.44200000000004 267.593 C 157.35100000000003 266.64300000000003 157.23000000000005 265.694 157.06200000000004 264.754 C 156.96500000000003 264.21200000000005 156.82300000000004 263.63800000000003 156.53100000000003 263.16 C 156.53900000000004 263.076 156.47900000000004 262.992 156.39700000000005 262.964 C 156.37100000000004 262.93 156.34800000000004 262.895 156.32000000000005 262.862 C 155.77500000000006 262.21900000000005 155.01200000000006 262.16 154.22100000000006 262.201 C 153.22000000000006 262.252 152.21900000000005 262.30600000000004 151.21800000000007 262.358 C 150.23800000000008 262.409 149.24900000000008 262.433 148.27800000000008 262.588 C 147.52600000000007 262.709 146.74300000000008 262.923 146.09700000000007 263.345 C 145.78100000000006 262.326 145.44000000000005 261.314 145.14000000000007 260.29 C 144.77100000000007 259.03200000000004 144.53000000000006 257.764 144.45100000000008 256.45500000000004 C 144.39100000000008 255.47300000000004 144.35700000000008 254.42200000000005 143.91500000000008 253.52100000000004 C 143.43600000000006 252.54400000000004 142.50000000000009 251.99800000000005 141.42200000000008 251.96000000000004 C 140.2150000000001 251.91800000000003 138.9960000000001 252.30700000000004 137.85100000000008 252.64500000000004 C 136.65800000000007 252.99700000000004 135.48500000000007 253.41900000000004 134.3420000000001 253.90900000000005 C 131.9240000000001 254.94600000000005 129.63700000000009 256.28400000000005 127.5420000000001 257.87500000000006 C 127.7200000000001 255.28600000000006 127.7170000000001 252.68500000000006 127.5170000000001 250.09800000000007 C 127.4700000000001 249.49100000000007 127.41200000000009 248.88400000000007 127.3450000000001 248.27900000000008 C 127.3210000000001 248.06300000000007 127.0690000000001 247.9290000000001 126.8750000000001 248.01700000000008 C 126.8350000000001 248.03500000000008 126.7960000000001 248.05300000000008 126.7560000000001 248.07100000000008 C 126.7000000000001 248.07700000000008 126.6490000000001 248.10000000000008 126.6060000000001 248.1390000000001 C 121.3920000000001 250.4890000000001 116.1480000000001 252.8790000000001 111.44800000000009 256.1720000000001 C 107.2160000000001 259.13700000000006 103.4490000000001 262.9030000000001 101.02800000000009 267.50700000000006 C 99.80400000000009 269.83400000000006 98.98000000000009 272.35300000000007 98.6240000000001 274.96000000000004 C 98.2430000000001 277.75300000000004 98.3780000000001 280.593 98.7470000000001 283.38000000000005 C 99.1370000000001 286.32800000000003 99.7820000000001 289.23400000000004 100.3860000000001 292.1460000000001 C 100.05800000000009 291.3280000000001 99.7040000000001 290.5200000000001 99.3070000000001 289.73300000000006 C 98.3140000000001 287.76500000000004 97.1150000000001 285.90000000000003 95.7360000000001 284.18100000000004 C 94.3570000000001 282.463 92.79700000000011 280.88800000000003 91.0890000000001 279.49600000000004 C 90.2330000000001 278.79800000000006 89.3400000000001 278.146 88.4130000000001 277.547 C 87.9160000000001 277.225 87.38200000000009 276.865 86.7760000000001 276.80400000000003 C 86.25100000000009 276.75100000000003 85.7590000000001 276.949 85.3890000000001 277.319 C 85.3840000000001 277.324 85.37900000000009 277.33000000000004 85.3740000000001 277.33500000000004 C 85.31600000000009 277.29400000000004 85.2080000000001 277.33700000000005 85.2260000000001 277.422 C 85.2310000000001 277.442 85.2360000000001 277.463 85.2400000000001 277.483 C 84.52200000000009 278.358 84.6490000000001 279.573 84.80400000000009 280.634 C 84.9690000000001 281.761 85.17200000000008 282.88100000000003 85.41300000000008 283.994 C 85.88900000000008 286.189 86.51000000000008 288.35400000000004 87.26700000000008 290.46900000000005 C 88.77600000000008 294.68000000000006 90.82800000000009 298.69500000000005 93.34700000000008 302.3910000000001 C 95.87000000000008 306.0950000000001 98.86800000000008 309.53400000000005 102.30400000000009 312.4200000000001 C 102.51300000000009 312.59600000000006 102.72900000000008 312.76200000000006 102.94400000000009 312.93000000000006 C 103.13500000000009 313.1530000000001 103.32600000000009 313.37500000000006 103.52400000000009 313.59200000000004 C 103.54100000000008 313.61100000000005 103.56000000000009 313.622 103.58000000000008 313.63000000000005 C 104.10000000000008 314.32500000000005 104.74700000000009 314.9200000000001 105.53600000000009 315.34700000000004 C 105.93300000000009 315.562 106.35800000000009 315.71200000000005 106.79800000000009 315.80800000000005 C 106.86100000000009 316.14900000000006 107.00700000000009 316.48300000000006 107.17700000000009 316.77500000000003 C 107.43300000000009 317.216 107.79800000000009 317.60100000000006 108.2310000000001 317.87100000000004 C 108.7070000000001 318.16900000000004 109.2560000000001 318.348 109.81700000000009 318.38100000000003 C 110.1060000000001 318.398 110.39900000000009 318.382 110.6840000000001 318.32500000000005 C 110.9640000000001 318.26800000000003 111.2920000000001 318.20200000000006 111.4810000000001 317.97200000000004 C 111.4870000000001 317.96400000000006 111.4900000000001 317.956 111.49500000000009 317.94800000000004 C 112.22000000000008 317.814 112.9310000000001 317.58000000000004 113.6240000000001 317.307 C 113.91200000000009 317.271 114.20000000000009 317.228 114.4880000000001 317.19100000000003 C 114.9090000000001 317.177 115.3300000000001 317.16200000000003 115.7510000000001 317.15500000000003 C 116.7030000000001 317.13800000000003 117.6560000000001 317.14300000000003 118.6080000000001 317.16200000000003 C 120.4710000000001 317.201 122.3310000000001 317.30600000000004 124.1900000000001 317.43300000000005 C 127.8860000000001 317.68600000000004 131.5750000000001 318.04200000000003 135.2750000000001 318.23800000000006 C 138.9140000000001 318.43100000000004 142.5730000000001 318.46500000000003 146.20200000000008 318.09000000000003 C 149.3940000000001 317.76000000000005 152.57600000000008 317.09700000000004 155.5780000000001 315.949 C 158.4600000000001 314.84700000000004 161.2350000000001 313.31 163.54700000000008 311.253 C 163.82600000000008 311.005 164.08100000000007 310.747 164.3280000000001 310.467 C 164.38000000000008 310.40799999999996 164.37900000000008 310.339 164.35000000000008 310.28299999999996 C 164.827 309.635 164.775 308.62 164.358 307.936 z M 163.464 307.61 C 163.529 307.66900000000004 163.593 307.72700000000003 163.652 307.79 C 162.66199999999998 310.54400000000004 159.962 312.08000000000004 157.302 312.90000000000003 C 155.754 313.377 154.15099999999998 313.69100000000003 152.558 313.97400000000005 C 150.93699999999998 314.261 149.305 314.48500000000007 147.668 314.66200000000003 C 144.371 315.01700000000005 141.056 315.18100000000004 137.74200000000002 315.28700000000003 C 134.41600000000003 315.39300000000003 131.08800000000002 315.437 127.76300000000002 315.56000000000006 C 126.50100000000002 315.6070000000001 125.23800000000001 315.66200000000003 123.97600000000001 315.73800000000006 C 124.77800000000002 315.5880000000001 125.57800000000002 315.4270000000001 126.37500000000001 315.25200000000007 C 127.20100000000001 315.2390000000001 128.02800000000002 315.1940000000001 128.85100000000003 315.1460000000001 C 130.12400000000002 315.07200000000006 131.39600000000002 314.9770000000001 132.66600000000003 314.86000000000007 C 135.22000000000003 314.62500000000006 137.76700000000002 314.3040000000001 140.3 313.89700000000005 C 145.322 313.09000000000003 150.28400000000002 311.94000000000005 155.15800000000002 310.48600000000005 C 157.92100000000002 309.66200000000003 160.638 308.71000000000004 163.346 307.72100000000006 C 163.409 307.699 163.445 307.658 163.464 307.61 z M 159.257 305.632 C 159.261 305.633 159.26500000000001 305.634 159.27 305.636 C 159.966 305.863 160.65 306.12300000000005 161.323 306.41 C 161.936 306.672 162.561 306.94100000000003 163.11 307.327 C 158.41500000000002 309.24399999999997 153.519 310.73 148.591 311.911 C 143.645 313.096 138.621 313.95 133.562 314.466 C 132.15900000000002 314.609 130.75400000000002 314.726 129.347 314.81600000000003 C 128.872 314.84700000000004 128.39600000000002 314.87 127.91900000000001 314.89300000000003 C 128.246 314.812 128.572 314.73100000000005 128.89700000000002 314.64500000000004 C 130.11800000000002 314.32000000000005 131.32600000000002 313.951 132.51700000000002 313.53000000000003 C 133.56400000000002 313.25500000000005 134.60000000000002 312.93300000000005 135.62300000000002 312.595 C 137.50500000000002 311.975 139.36 311.281 141.20600000000002 310.56300000000005 C 144.92900000000003 309.11500000000007 148.651 307.63000000000005 152.53300000000002 306.65600000000006 C 154.687 306.11500000000007 156.941 305.6790000000001 159.17000000000002 305.65400000000005 C 159.203 305.653 159.232 305.645 159.257 305.632 z M 154.935 304.66 C 156.108 304.81300000000005 157.268 305.055 158.405 305.377 C 156.675 305.524 154.97 305.757 153.27100000000002 306.151 C 151.341 306.598 149.449 307.188 147.58300000000003 307.851 C 143.85000000000002 309.179 140.21700000000004 310.779 136.47500000000002 312.082 C 135.94200000000004 312.268 135.407 312.444 134.87000000000003 312.61199999999997 C 135.33300000000003 312.414 135.79400000000004 312.21 136.24800000000002 311.99199999999996 C 138.27900000000002 311.02099999999996 140.22000000000003 309.86199999999997 142.049 308.549 C 143.519 307.493 144.912 306.332 146.227 305.087 C 149.075 304.422 152.035 304.28 154.935 304.66 z M 156.523 268.206 C 156.548 266.99 156.545 265.772 156.501 264.55600000000004 C 156.513 264.61500000000007 156.52700000000002 264.67500000000007 156.537 264.73300000000006 C 156.703 265.6120000000001 156.814 266.5040000000001 156.905 267.3930000000001 C 157.091 269.2060000000001 157.148 271.03100000000006 157.074 272.8510000000001 C 156.996 274.76600000000013 156.733 276.64100000000013 156.41500000000002 278.5250000000001 C 156.25400000000002 278.5110000000001 156.092 278.5110000000001 155.93 278.52600000000007 C 154.65900000000002 278.64700000000005 153.704 279.50300000000004 152.656 280.13200000000006 C 152.37 280.3040000000001 152.065 280.4560000000001 151.747 280.5590000000001 C 152.406 280.0420000000001 152.983 279.38700000000006 153.47500000000002 278.7360000000001 C 154.15600000000003 277.8360000000001 154.70400000000004 276.8360000000001 155.13400000000001 275.7940000000001 C 156.126 273.391 156.469 270.789 156.523 268.206 z M 155.763 279.13 C 155.49 282.849 154.559 286.497 153.09 289.921 C 151.601 293.393 149.57500000000002 296.626 147.154 299.52299999999997 C 144.678 302.486 141.785 305.06899999999996 138.60399999999998 307.253 C 135.28799999999998 309.52799999999996 131.683 311.365 127.92999999999998 312.80199999999996 C 124.28899999999997 314.19599999999997 120.52199999999998 315.205 116.69499999999998 315.93399999999997 C 117.22599999999998 315.67699999999996 117.75299999999999 315.41299999999995 118.27499999999998 315.14 C 120.45899999999997 313.998 122.59399999999998 312.758 124.73099999999998 311.532 C 126.82499999999997 310.33 128.90499999999997 309.102 130.92499999999998 307.77799999999996 C 134.72199999999998 305.28799999999995 138.25599999999997 302.43699999999995 141.26 299.02 C 144.064 295.83 146.40599999999998 292.23499999999996 148.213 288.393 C 149.295 286.092 150.18 283.69699999999995 150.85999999999999 281.246 C 152.12499999999997 281.287 153.13899999999998 280.50399999999996 154.146 279.84299999999996 C 154.588 279.552 155.176 279.244 155.763 279.13 z M 156.198 267.656 C 156.199 269.024 156.12 270.40000000000003 155.924 271.754 C 155.595 274.02500000000003 154.875 276.25300000000004 153.573 278.159 C 153.226 278.667 152.84 279.15 152.413 279.593 C 152.03300000000002 279.98900000000003 151.61200000000002 280.329 151.192 280.677 C 151.136 280.683 151.079 280.68800000000005 151.023 280.689 C 151.028 280.65200000000004 151.034 280.61600000000004 151.04 280.579 C 151.176 280.058 151.301 279.533 151.41799999999998 279.007 C 151.94899999999998 277.342 152.81999999999996 275.783 153.57299999999998 274.214 C 154.07299999999998 273.172 154.52999999999997 272.105 154.81199999999998 270.981 C 154.95499999999998 270.411 155.04799999999997 269.83 155.07899999999998 269.243 C 155.11899999999997 268.488 155.069 267.733 155.07399999999998 266.977 C 155.082 265.81899999999996 155.26899999999998 264.534 156.06799999999998 263.65799999999996 C 156.107 264.99 156.197 266.322 156.198 267.656 z M 154.644 262.691 C 154.678 262.691 154.71200000000002 262.69 154.746 262.69 C 155.121 262.699 155.482 262.774 155.77100000000002 263.025 C 155.841 263.08599999999996 155.90300000000002 263.15299999999996 155.96 263.22499999999997 C 155.204 263.93899999999996 154.85500000000002 264.98999999999995 154.75300000000001 266.01199999999994 C 154.61200000000002 267.43799999999993 154.85100000000003 268.86999999999995 154.604 270.28999999999996 C 154.18900000000002 272.674 152.87 274.76399999999995 151.91500000000002 276.95 C 151.86400000000003 277.067 151.81500000000003 277.185 151.76500000000001 277.303 C 151.82600000000002 276.966 151.88400000000001 276.629 151.937 276.291 C 152.089 275.32099999999997 152.252 274.334 152.19400000000002 273.35 C 152.186 273.218 152.17100000000002 273.08500000000004 152.15200000000002 272.952 C 152.157 272.937 152.161 272.922 152.16600000000003 272.907 C 152.16100000000003 272.89 152.15700000000004 272.87199999999996 152.15200000000002 272.85499999999996 C 152.092 272.66499999999996 152.01600000000002 272.48099999999994 151.93200000000002 272.29999999999995 C 151.88700000000003 272.20399999999995 151.83300000000003 272.10799999999995 151.8 272.00699999999995 C 151.76700000000002 271.9069999999999 151.747 271.80199999999996 151.714 271.70199999999994 C 151.706 271.67799999999994 151.705 271.6569999999999 151.708 271.63599999999997 C 151.568 271.40999999999997 151.394 271.205 151.176 271.034 C 150.65699999999998 270.626 150.041 270.521 149.41899999999998 270.563 C 149.289 270.585 149.16 270.609 149.03099999999998 270.632 C 148.87399999999997 270.661 148.71599999999998 270.688 148.557 270.705 C 148.411 270.74 148.266 270.776 148.12599999999998 270.82 C 147.57799999999997 270.991 147.03599999999997 271.192 146.49899999999997 271.403 C 146.56499999999997 271.24800000000005 146.62299999999996 271.09000000000003 146.67599999999996 270.932 C 146.93799999999996 270.45300000000003 147.19199999999995 269.968 147.48299999999995 269.505 C 147.92499999999995 268.803 148.40899999999993 268.128 148.93399999999994 267.485 C 149.99199999999993 266.189 151.21299999999994 265.028 152.56199999999995 264.03700000000003 C 152.92699999999996 263.76900000000006 153.30099999999996 263.514 153.68299999999996 263.27200000000005 C 153.99 263.077 154.31 262.859 154.644 262.691 z M 146.022 271.591 C 145.78699999999998 271.68600000000004 145.552 271.782 145.319 271.877 C 144.32999999999998 272.282 143.35299999999998 272.717 142.38799999999998 273.175 C 143.91199999999998 271.855 145.10899999999998 270.11400000000003 145.82399999999998 268.286 C 146.035 267.747 146.20999999999998 267.193 146.35399999999998 266.63100000000003 C 146.612 268.23900000000003 146.59699999999998 269.867 146.02399999999997 271.45000000000005 C 146.004 271.504 146.008 271.55 146.022 271.591 z M 148.153 263.098 C 148.93699999999998 262.969 149.736 262.937 150.528 262.896 C 151.46599999999998 262.848 152.403 262.8 153.34099999999998 262.752 C 153.58599999999998 262.73900000000003 153.83299999999997 262.721 154.07999999999998 262.707 C 153.951 262.779 153.82199999999997 262.851 153.69699999999997 262.928 C 153.33399999999997 263.153 152.97799999999998 263.39 152.62999999999997 263.639 C 151.94499999999996 264.129 151.29099999999997 264.66200000000003 150.67299999999997 265.235 C 149.43899999999996 266.379 148.34099999999998 267.675 147.43299999999996 269.09200000000004 C 147.26199999999997 269.35800000000006 147.09199999999996 269.63300000000004 146.92699999999996 269.91200000000003 C 147.26099999999997 267.99800000000005 146.85899999999995 265.946 146.32799999999997 264.117 C 146.28799999999998 263.97900000000004 146.24499999999998 263.843 146.20399999999998 263.706 C 146.828 263.415 147.466 263.211 148.153 263.098 z M 145.477 263.233 C 145.772 264.124 146.03900000000002 265.037 146.23 265.961 C 145.822 268.88 144.096 271.567 141.802 273.377 C 141.69899999999998 273.458 141.59199999999998 273.533 141.487 273.611 C 139.54399999999998 274.573 137.652 275.638 135.822 276.8 C 136.64000000000001 276.081 137.42600000000002 275.325 138.175 274.534 C 140.26000000000002 272.33299999999997 142.06 269.866 143.52300000000002 267.21 C 143.93000000000004 266.472 144.30900000000003 265.719 144.66100000000003 264.953 C 144.94000000000003 264.34599999999995 145.16900000000004 263.71299999999997 145.43200000000002 263.099 C 145.447 263.143 145.462 263.188 145.477 263.233 z M 144.339 259.597 C 144.606 260.64 144.951 261.659 145.293 262.679 C 145.096 263.313 144.806 263.933 144.538 264.53499999999997 C 144.23600000000002 265.21299999999997 143.911 265.88 143.567 266.537 C 142.865 267.87399999999997 142.076 269.16499999999996 141.208 270.4 C 139.47899999999998 272.861 137.44 275.10499999999996 135.147 277.05199999999996 C 134.682 277.44699999999995 134.203 277.82599999999996 133.718 278.19599999999997 C 133.14 278.597 132.569 279.00899999999996 132.005 279.429 C 131.697 279.635 131.38 279.83099999999996 131.095 280.066 C 131.072 280.085 131.068 280.111 131.071 280.13599999999997 C 129.661 281.227 128.299 282.38 126.986 283.587 C 127.062 283.50399999999996 127.138 283.42199999999997 127.214 283.339 C 127.98 282.505 128.732 281.657 129.468 280.796 C 130.94 279.074 132.35 277.298 133.694 275.47499999999997 C 136.37599999999998 271.83899999999994 138.802 268.02599999999995 140.939 264.04499999999996 C 141.54 262.92499999999995 142.119 261.79299999999995 142.674 260.65 C 143.133 259.705 143.552 258.74199999999996 143.99800000000002 257.792 C 144.077 258.395 144.185 258.995 144.339 259.597 z M 143.151 253.401 C 143.72 254.16500000000002 143.77700000000002 255.21900000000002 143.83700000000002 256.135 C 143.86200000000002 256.514 143.89600000000002 256.888 143.93500000000003 257.26099999999997 C 143.54100000000003 258.251 143.06700000000004 259.215 142.60600000000002 260.174 C 142.115 261.195 141.60600000000002 262.207 141.07900000000004 263.21 C 140.03000000000003 265.205 138.90900000000005 267.162 137.72000000000003 269.077 C 135.34900000000002 272.893 132.72800000000004 276.544 129.84200000000004 279.989 C 129.03500000000005 280.953 128.20900000000003 281.9 127.36300000000004 282.83099999999996 C 126.50900000000004 283.77099999999996 125.61200000000004 284.67199999999997 124.76100000000004 285.614 C 124.72800000000004 285.65099999999995 124.74000000000004 285.697 124.76800000000004 285.72799999999995 C 122.22900000000004 288.30199999999996 119.90600000000005 291.08699999999993 117.84600000000005 294.05799999999994 C 115.77100000000004 297.04999999999995 113.96100000000004 300.2289999999999 112.45400000000005 303.5439999999999 C 112.63600000000005 303.0109999999999 112.82600000000005 302.48099999999994 113.03300000000004 301.9549999999999 C 113.75500000000004 300.1209999999999 114.61000000000004 298.34099999999995 115.55400000000004 296.6119999999999 C 117.49800000000005 293.0539999999999 119.82500000000005 289.7259999999999 122.25100000000005 286.4839999999999 C 124.78100000000005 283.10299999999995 127.41600000000005 279.80099999999993 129.87200000000004 276.3649999999999 C 132.31300000000005 272.9509999999999 134.49900000000005 269.3789999999999 136.45100000000005 265.6639999999999 C 138.41100000000006 261.9349999999999 140.16000000000005 258.09999999999985 141.85600000000005 254.24499999999986 C 142.06300000000005 253.77499999999986 142.26800000000006 253.30499999999986 142.47200000000007 252.83399999999986 C 142.727 252.964 142.96 253.144 143.151 253.401 z M 139.575 252.789 C 139.837 252.73 140.1 252.676 140.363 252.63299999999998 C 140.959 252.53499999999997 141.597 252.51699999999997 142.156 252.7 C 142.156 252.701 142.155 252.701 142.155 252.701 C 140.458 256.575 138.749 260.444 136.831 264.216 C 134.904 268.005 132.762 271.67400000000004 130.331 275.163 C 127.91599999999998 278.628 125.29099999999998 281.938 122.752 285.31 C 120.309 288.555 117.939 291.866 115.91499999999999 295.392 C 114.017 298.698 112.43199999999999 302.19599999999997 111.452 305.887 C 111.402 306.014 111.351 306.14 111.301 306.267 C 111.31400000000001 306.123 111.327 305.98 111.34100000000001 305.836 C 111.513 305.10200000000003 111.676 304.367 111.828 303.639 C 112.072 302.47200000000004 112.304 301.302 112.55 300.135 C 113.2 298.31 114.05799999999999 296.563 115.032 294.89 C 117.127 291.294 119.78 288.06399999999996 122.14099999999999 284.645 C 123.317 282.943 124.425 281.188 125.368 279.346 C 126.333 277.461 127.124 275.494 127.84899999999999 273.50600000000003 C 129.259 269.64500000000004 130.426 265.67900000000003 132.224 261.97200000000004 C 133.81699999999998 258.687 135.933 255.53600000000003 138.863 253.30000000000004 C 139.094 253.123 139.333 252.954 139.575 252.789 z M 127.482 258.657 C 129.37 257.178 131.42 255.915 133.593 254.89899999999997 C 134.682 254.39 135.79999999999998 253.94099999999997 136.94 253.55699999999996 C 137.425 253.39299999999997 137.918 253.23599999999996 138.416 253.09099999999995 C 135.935 255.04499999999996 134.027 257.64399999999995 132.538 260.42199999999997 C 130.619 264.005 129.38500000000002 267.88599999999997 128.04700000000003 271.71 C 127.33700000000003 273.739 126.59400000000002 275.76099999999997 125.69800000000002 277.716 C 124.80500000000002 279.665 123.73300000000002 281.517 122.55200000000002 283.305 C 120.23600000000002 286.813 117.59000000000002 290.097 115.39900000000002 293.689 C 114.49500000000002 295.172 113.64900000000002 296.72 112.95000000000002 298.327 C 113.03400000000002 297.965 113.11700000000002 297.602 113.20800000000001 297.242 C 113.77000000000001 295.01 114.54400000000001 292.846 115.48400000000001 290.74600000000004 C 117.42500000000001 286.40700000000004 119.953 282.36600000000004 122.058 278.10900000000004 C 124.19200000000001 273.79300000000006 125.75500000000001 269.223 126.67800000000001 264.49600000000004 C 127.055 262.566 127.319 260.616 127.482 258.657 z M 99.111 276.794 C 99.27600000000001 274.18199999999996 99.87400000000001 271.631 100.932 269.23499999999996 C 102.96000000000001 264.643 106.435 260.79499999999996 110.395 257.77199999999993 C 110.907 257.3809999999999 111.429 257.00399999999996 111.95599999999999 256.63699999999994 C 109.564 258.84399999999994 107.439 261.34099999999995 105.66099999999999 264.06999999999994 C 102.95299999999999 268.22799999999995 101.06899999999999 272.88499999999993 100.09299999999999 277.7489999999999 C 99.72599999999998 279.5769999999999 99.496 281.4319999999999 99.40699999999998 283.2939999999999 C 99.122 281.14 98.974 278.966 99.111 276.794 z M 86.976 277.328 C 87.519 277.47999999999996 88.001 277.842 88.465 278.15 C 88.92 278.452 89.366 278.767 89.803 279.094 C 91.517 280.37399999999997 93.09 281.838 94.497 283.449 C 97.30799999999999 286.668 99.457 290.46000000000004 100.731 294.54200000000003 C 100.832 294.865 100.93599999999999 295.184 101.04299999999999 295.502 C 101.341 297.148 101.592 298.801 101.73899999999999 300.471 C 101.86899999999999 301.945 101.89399999999999 303.415 101.85499999999999 304.894 C 101.82499999999999 306.034 101.78399999999999 307.182 101.85199999999999 308.322 L 101.814 308.234 C 101.27 306.976 100.722 305.721 100.17099999999999 304.466 C 99.062 301.942 97.967 299.413 96.86999999999999 296.884 C 95.77499999999999 294.361 94.68099999999998 291.837 93.58599999999998 289.313 C 92.67799999999998 287.221 91.74099999999999 285.131 90.61999999999999 283.142 C 90.00399999999999 282.049 89.32999999999998 280.986 88.567 279.989 C 87.847 279.049 87.05 278.13599999999997 86.127 277.38599999999997 C 86.383 277.272 86.672 277.243 86.976 277.328 z M 85.606 277.8 C 88.31599999999999 281.957 89.76599999999999 286.742 91.535 291.337 C 93.381 296.133 95.643 300.755 98.209 305.205 C 99.18900000000001 306.905 100.215 308.592 101.305 310.23199999999997 C 100.50500000000001 309.166 99.727 308.08399999999995 98.97300000000001 306.98499999999996 C 97.47100000000002 304.79599999999994 96.06300000000002 302.544 94.75100000000002 300.23599999999993 C 92.13900000000002 295.6409999999999 89.91100000000002 290.82699999999994 88.10200000000002 285.85999999999996 C 87.14300000000001 283.227 86.34800000000001 280.54599999999994 85.55100000000002 277.86199999999997 C 85.569 277.84 85.589 277.822 85.606 277.8 z M 99.031 308.722 C 97.524 307.135 96.12 305.452 94.825 303.688 C 92.247 300.174 90.11 296.34 88.47500000000001 292.299 C 87.653 290.267 86.95700000000001 288.18199999999996 86.40100000000001 286.06199999999995 C 86.12500000000001 285.00999999999993 85.882 283.94899999999996 85.67500000000001 282.881 C 85.46000000000001 281.77799999999996 85.21800000000002 280.64 85.16100000000002 279.51599999999996 C 85.13700000000001 279.04599999999994 85.18400000000001 278.55899999999997 85.39100000000002 278.135 C 85.94500000000002 280.478 86.68000000000002 282.783 87.47100000000002 285.054 C 88.35000000000002 287.575 89.33700000000002 290.05899999999997 90.42800000000001 292.49699999999996 C 92.59300000000002 297.33599999999996 95.16900000000001 301.991 98.11800000000001 306.39699999999993 C 98.94500000000001 307.63199999999995 99.80100000000002 308.84799999999996 100.686 310.04299999999995 C 100.968 310.4239999999999 101.253 310.80299999999994 101.54 311.17999999999995 C 100.68 310.387 99.839 309.573 99.031 308.722 z M 98.939 305.785 C 97.616 303.583 96.39599999999999 301.32000000000005 95.25999999999999 299.016 C 94.118 296.699 93.07199999999999 294.33500000000004 92.10999999999999 291.93800000000005 C 91.17899999999999 289.62000000000006 90.33699999999999 287.26800000000003 89.40399999999998 284.951 C 88.38899999999998 282.43100000000004 87.21799999999999 279.95500000000004 85.69499999999998 277.699 C 85.76599999999998 277.625 85.84099999999998 277.558 85.92299999999997 277.502 C 86.68099999999997 278.259 87.42199999999997 279.027 88.08299999999997 279.873 C 88.78099999999996 280.76599999999996 89.40799999999997 281.715 89.97899999999997 282.694 C 91.12299999999998 284.656 92.05099999999997 286.732 92.94799999999996 288.815 C 95.09299999999996 293.798 97.27299999999997 298.766 99.40299999999996 303.755 C 100.00399999999996 305.162 100.60499999999996 306.568 101.21299999999997 307.971 C 101.48699999999997 308.602 101.75999999999996 309.232 102.03299999999996 309.863 C 102.09999999999995 310.243 102.18999999999996 310.622 102.30099999999996 310.995 C 101.144 309.282 100.005 307.56 98.939 305.785 z M 99.668 285.052 C 99.625 284.79 99.58500000000001 284.528 99.546 284.266 C 99.745 279.86100000000005 100.622 275.504 102.22600000000001 271.387 C 103.94000000000001 266.987 106.46600000000001 262.924 109.62600000000002 259.418 C 110.93700000000001 257.963 112.35900000000002 256.609 113.87400000000002 255.369 C 117.49000000000002 253.094 121.37800000000003 251.254 125.26500000000003 249.49 C 125.62900000000003 249.32500000000002 125.99400000000003 249.161 126.35900000000002 248.996 C 126.32700000000003 249.11700000000002 126.28800000000003 249.235 126.25200000000002 249.354 C 124.53000000000003 250.10000000000002 122.89100000000002 251.08300000000003 121.35300000000002 252.144 C 119.57900000000002 253.369 117.92100000000002 254.758 116.39100000000002 256.276 C 113.33900000000001 259.306 110.79900000000002 262.82 108.76200000000001 266.603 C 106.62300000000002 270.576 105.06100000000002 274.82800000000003 104.03500000000001 279.219 C 102.805 284.484 102.305 289.89799999999997 102.28600000000002 295.298 C 102.28000000000002 297.076 102.32900000000002 298.852 102.41600000000001 300.627 C 101.989 295.365 100.522 290.25 99.668 285.052 z M 103.428 312.14 C 103.42699999999999 312.133 103.428 312.127 103.425 312.11899999999997 C 103.27 311.60999999999996 103.066 311.11999999999995 102.855 310.633 C 102.848 310.60699999999997 102.839 310.58099999999996 102.833 310.555 C 102.175 307.88 102.578 305.068 102.513 302.334 C 102.711 305.419 103.025 308.497 103.421 311.562 C 103.45400000000001 311.82 103.491 312.07800000000003 103.525 312.336 C 103.491 312.271 103.46 312.205 103.428 312.14 z M 104.128 313.27 C 103.4 308.015 102.871 302.72499999999997 102.77 297.418 C 102.66799999999999 292.057 103.014 286.672 104.045 281.404 C 104.927 276.902 106.322 272.499 108.333 268.371 C 110.215 264.508 112.615 260.885 115.525 257.71799999999996 C 118.40100000000001 254.58799999999997 121.79700000000001 251.91599999999997 125.59100000000001 249.98599999999996 C 125.775 249.89299999999997 125.96000000000001 249.80099999999996 126.14500000000001 249.70899999999997 C 124.96600000000001 253.26899999999998 122.19900000000001 256.11699999999996 119.88400000000001 258.991 C 117.07300000000001 262.481 114.71900000000001 266.32599999999996 112.79200000000002 270.368 C 110.85500000000002 274.429 109.35700000000001 278.685 108.22400000000002 283.037 C 106.97600000000001 287.82899999999995 106.17500000000001 292.72999999999996 105.69000000000001 297.65599999999995 C 105.19500000000001 302.67599999999993 105.02900000000001 307.72299999999996 105.049 312.76499999999993 C 105.051 313.26699999999994 105.063 313.7659999999999 105.087 314.2659999999999 C 104.729 313.98 104.412 313.64 104.128 313.27 z M 105.283 314.422 C 105.33500000000001 313.221 105.319 312.01700000000005 105.33800000000001 310.814 C 105.358 309.55400000000003 105.38900000000001 308.29400000000004 105.435 307.03400000000005 C 105.527 304.494 105.681 301.95700000000005 105.91 299.42500000000007 C 106.36 294.45200000000006 107.112 289.49800000000005 108.30199999999999 284.6460000000001 C 109.38 280.25000000000006 110.827 275.93300000000005 112.69 271.8060000000001 C 114.539 267.7080000000001 116.815 263.80000000000007 119.55799999999999 260.2340000000001 C 122.10499999999999 256.9240000000001 125.345 253.86200000000008 126.66 249.79100000000008 C 126.699 249.67000000000007 126.731 249.54600000000008 126.76599999999999 249.4240000000001 C 126.823 250.05300000000008 126.86599999999999 250.68300000000008 126.901 251.31400000000008 C 126.592 255.0900000000001 125.692 258.7870000000001 124.41499999999999 262.3640000000001 C 122.85999999999999 266.7210000000001 120.79199999999999 270.8670000000001 118.60399999999998 274.9360000000001 C 116.39099999999999 279.0510000000001 114.05699999999999 283.1040000000001 111.99599999999998 287.30000000000007 C 109.96599999999998 291.43300000000005 108.20999999999998 295.7130000000001 107.13199999999998 300.20000000000005 C 106.07599999999998 304.58900000000006 105.65499999999997 309.20300000000003 106.38199999999998 313.68000000000006 C 106.45999999999998 314.1580000000001 106.55399999999997 314.63300000000004 106.65799999999997 315.10600000000005 C 106.157 314.959 105.698 314.724 105.283 314.422 z M 107.11 315.215 C 107.095 315.212 107.081 315.20799999999997 107.067 315.205 C 107.02699999999999 315.171 106.973 315.15999999999997 106.92099999999999 315.169 C 106.01799999999999 310.717 106.17699999999999 306.156 107.08699999999999 301.717 C 108.01899999999999 297.17199999999997 109.69299999999998 292.823 111.68199999999999 288.643 C 113.69099999999999 284.42299999999994 116.00699999999999 280.359 118.23899999999999 276.256 C 120.44099999999999 272.207 122.56599999999999 268.102 124.22399999999999 263.794 C 125.457 260.59 126.451 257.246 126.978 253.83899999999997 C 127.00099999999999 256.815 126.78099999999999 259.792 126.30199999999999 262.73299999999995 C 125.53099999999999 267.46999999999997 124.11599999999999 272.09599999999995 122.101 276.45199999999994 C 120.13 280.71199999999993 117.641 284.70699999999994 115.602 288.93299999999994 C 114.59400000000001 291.02099999999996 113.70100000000001 293.1669999999999 113.049 295.3949999999999 C 112.44500000000001 297.45899999999995 112.021 299.5689999999999 111.616 301.6789999999999 C 110.812 305.86299999999994 110.066 310.2459999999999 107.865 313.9669999999999 C 107.616 314.385 107.375 314.806 107.11 315.215 z M 107.508 315.166 C 107.508 315.162 107.506 315.159 107.506 315.155 C 107.81700000000001 314.738 108.098 314.303 108.366 313.85999999999996 C 108.894 313.52699999999993 109.257 312.90399999999994 109.573 312.38699999999994 C 109.934 311.79799999999994 110.25 311.1809999999999 110.511 310.54099999999994 C 110.77199999999999 309.90099999999995 110.972 309.23699999999997 111.121 308.56199999999995 C 111.19399999999999 308.23299999999995 111.25699999999999 307.89199999999994 111.294 307.549 C 111.37899999999999 307.53499999999997 111.456 307.48199999999997 111.497 307.376 C 112.864 303.75 114.589 300.262 116.635 296.972 C 118.682 293.68 121.042 290.584 123.665 287.729 C 126.28 284.88399999999996 129.162 282.28299999999996 132.257 279.969 C 135.35 277.656 138.659 275.633 142.136 273.949 C 143.874 273.107 145.654 272.345 147.468 271.68100000000004 C 147.60999999999999 271.629 147.76 271.57500000000005 147.911 271.521 C 144.703 273.796 141.504 276.087 138.4 278.50300000000004 C 135.196 280.99700000000007 132.109 283.66300000000007 129.256 286.55500000000006 C 126.451 289.3980000000001 123.931 292.50300000000004 121.685 295.80500000000006 C 119.473 299.0570000000001 117.387 302.39200000000005 115.203 305.66300000000007 C 113.029 308.91900000000004 110.72800000000001 312.0880000000001 108.083 314.9800000000001 C 107.904 315.17500000000007 107.72 315.36500000000007 107.539 315.5570000000001 C 107.516 315.43 107.502 315.3 107.508 315.166 z M 107.601 315.806 C 110.19 313.138 112.428 310.15299999999996 114.521 307.087 C 116.738 303.84 118.799 300.489 121.011 297.239 C 123.246 293.955 125.648 290.78299999999996 128.376 287.89099999999996 C 131.19 284.90899999999993 134.284 282.23499999999996 137.49200000000002 279.68699999999995 C 140.62300000000002 277.20099999999996 143.86800000000002 274.86599999999993 147.132 272.55899999999997 C 145.12800000000001 275.025 143.123 277.48999999999995 141.102 279.941 C 138.558 283.02599999999995 136 286.09999999999997 133.40200000000002 289.14 C 130.806 292.178 128.174 295.185 125.49400000000001 298.149 C 122.81700000000001 301.109 120.09100000000001 304.026 117.30900000000001 306.887 C 114.51500000000001 309.761 111.63900000000001 312.556 108.70600000000002 315.287 C 108.38600000000002 315.585 108.07900000000002 315.892 107.77600000000001 316.20799999999997 C 107.703 316.081 107.646 315.945 107.601 315.806 z M 107.859 316.343 C 108.637 315.733 109.35499999999999 315.052 110.082 314.382 C 110.81299999999999 313.708 111.53699999999999 313.027 112.255 312.34000000000003 C 113.70299999999999 310.956 115.12899999999999 309.55100000000004 116.545 308.13500000000005 C 119.358 305.32300000000004 122.1 302.44200000000006 124.785 299.50700000000006 C 127.48299999999999 296.5590000000001 130.126 293.56300000000005 132.733 290.5350000000001 C 135.352 287.4930000000001 137.94 284.4240000000001 140.504 281.33600000000007 C 143.058 278.26000000000005 145.596 275.1690000000001 148.136 272.0810000000001 C 148.298 271.88400000000007 148.46 271.6860000000001 148.623 271.4890000000001 C 148.629 271.4810000000001 148.63799999999998 271.4740000000001 148.642 271.4650000000001 C 148.702 271.3920000000001 148.762 271.3190000000001 148.822 271.24700000000007 C 148.887 271.2320000000001 148.952 271.21400000000006 149.018 271.20200000000006 C 147.102 274.6530000000001 145.04 278.0230000000001 142.836 281.29800000000006 C 140.572 284.66100000000006 138.162 287.92400000000004 135.616 291.07800000000003 C 133.07000000000002 294.232 130.38600000000002 297.27500000000003 127.58000000000001 300.20000000000005 C 124.769 303.129 121.83700000000002 305.946 118.78400000000002 308.62200000000007 C 115.73600000000002 311.2940000000001 112.57100000000003 313.8330000000001 109.32100000000003 316.2540000000001 C 109.01700000000002 316.4800000000001 108.72300000000003 316.71900000000005 108.42800000000003 316.95700000000005 C 108.208 316.782 108.013 316.574 107.859 316.343 z M 110.914 317.363 C 110.73 317.437 110.547 317.515 110.363 317.592 C 109.877 317.591 109.396 317.506 108.949 317.288 C 108.836 317.233 108.726 317.16700000000003 108.619 317.096 C 110.22 316.069 111.737 314.897 113.238 313.733 C 114.84 312.491 116.413 311.214 117.956 309.899 C 121.056 307.257 124.047 304.486 126.904 301.583 C 129.757 298.684 132.481 295.66 135.069 292.52200000000005 C 137.665 289.37500000000006 140.125 286.11400000000003 142.43699999999998 282.75200000000007 C 144.73799999999997 279.40600000000006 146.892 275.9580000000001 148.89299999999997 272.4240000000001 C 149.13299999999998 272.0000000000001 149.37099999999998 271.57400000000007 149.60599999999997 271.1480000000001 C 149.89999999999998 271.1480000000001 150.18899999999996 271.19200000000006 150.46299999999997 271.3160000000001 C 151.26199999999997 271.6760000000001 151.51599999999996 272.57200000000006 151.57399999999996 273.3760000000001 C 151.57799999999995 273.4290000000001 151.57799999999995 273.4830000000001 151.58099999999996 273.5360000000001 C 150.43499999999997 277.19600000000014 148.98899999999995 280.7570000000001 147.25099999999995 284.17700000000013 C 145.34099999999995 287.93600000000015 143.09299999999996 291.52300000000014 140.53799999999995 294.8770000000001 C 137.99999999999994 298.21000000000015 135.16099999999994 301.31100000000015 132.05899999999997 304.1270000000001 C 128.96899999999997 306.9330000000001 125.62599999999998 309.46000000000015 122.08999999999997 311.6750000000001 C 118.544 313.896 114.793 315.796 110.914 317.363 z M 113.166 316.927 C 112.964 316.959 112.762 316.995 112.56099999999999 317.028 C 113.52999999999999 316.624 114.48599999999999 316.19 115.42999999999999 315.73900000000003 C 117.33099999999999 314.831 119.19099999999999 313.83700000000005 121.00299999999999 312.761 C 124.59499999999998 310.629 127.99399999999999 308.178 131.147 305.43800000000005 C 134.32999999999998 302.672 137.261 299.617 139.88899999999998 296.3190000000001 C 142.51099999999997 293.0280000000001 144.83399999999997 289.4990000000001 146.82399999999998 285.79100000000005 C 148.684 282.32500000000005 150.24999999999997 278.69900000000007 151.505 274.97 C 151.454 275.37600000000003 151.388 275.77900000000005 151.326 276.177 C 151.165 277.213 150.96599999999998 278.243 150.73 279.26500000000004 C 150.26999999999998 281.25600000000003 149.666 283.21400000000006 148.934 285.12200000000007 C 147.458 288.9670000000001 145.454 292.6040000000001 142.989 295.90400000000005 C 140.422 299.33900000000006 137.364 302.34600000000006 133.936 304.91900000000004 C 130.17000000000002 307.74500000000006 126.07000000000001 310.083 121.988 312.413 C 119.9 313.605 117.80799999999999 314.802 115.635 315.836 C 114.826 316.22 114.005 316.601 113.166 316.927 z M 115.237 316.614 C 115.422 316.532 115.603 316.44199999999995 115.78699999999999 316.358 C 117.49 316.14300000000003 119.187 315.754 120.84799999999998 315.353 C 122.82399999999998 314.875 124.77499999999999 314.294 126.69199999999998 313.615 C 130.50699999999998 312.265 134.183 310.498 137.58499999999998 308.30400000000003 C 140.86899999999997 306.18600000000004 143.88899999999998 303.658 146.498 300.745 C 149.028 297.92 151.17399999999998 294.744 152.804 291.319 C 154.429 287.90500000000003 155.535 284.233 155.968 280.473 C 156.021 280.01300000000003 156.063 279.553 156.09599999999998 279.091 C 156.16799999999998 279.087 156.23999999999998 279.087 156.31099999999998 279.09000000000003 C 156.379 279.04800000000006 156.468 279.02700000000004 156.53699999999998 279.02400000000006 C 156.652 279.01900000000006 156.772 279.05000000000007 156.87699999999998 279.09600000000006 C 156.98299999999998 279.1430000000001 157.08299999999997 279.21200000000005 157.15699999999998 279.3020000000001 C 157.19299999999998 279.3450000000001 157.22899999999998 279.3960000000001 157.24499999999998 279.4500000000001 C 157.24699999999999 279.4570000000001 157.24799999999996 279.4640000000001 157.24999999999997 279.4700000000001 C 157.26699999999997 279.4860000000001 157.28599999999997 279.4960000000001 157.30299999999997 279.51200000000006 C 158.04199999999997 280.23900000000003 157.87999999999997 281.50900000000007 157.73399999999998 282.43000000000006 C 157.55999999999997 283.5300000000001 157.33499999999998 284.62300000000005 157.06099999999998 285.7030000000001 C 155.97899999999998 289.9680000000001 154.12599999999998 294.0410000000001 151.68499999999997 297.6980000000001 C 149.23599999999996 301.3660000000001 146.19499999999996 304.6350000000001 142.69699999999997 307.3220000000001 C 139.00199999999998 310.16000000000014 134.83499999999998 312.2690000000001 130.38299999999998 313.6370000000001 C 125.457 315.15 120.327 315.865 115.237 316.614 z M 163.561 310.469 C 163.467 310.519 163.449 310.615 163.48000000000002 310.689 C 162.49200000000002 311.49800000000005 161.513 312.303 160.43 312.997 C 159.132 313.82800000000003 157.756 314.535 156.336 315.13300000000004 C 153.42800000000003 316.35800000000006 150.35600000000002 317.13200000000006 147.233 317.55400000000003 C 143.63400000000001 318.04 139.993 318.074 136.37 317.92400000000004 C 132.707 317.77200000000005 129.055 317.43500000000006 125.399 317.17800000000005 C 122.584 316.9800000000001 119.746 316.82300000000004 116.917 316.86300000000006 C 118.09 316.69700000000006 119.262 316.52400000000006 120.433 316.34400000000005 C 120.46100000000001 316.34000000000003 120.489 316.33500000000004 120.51700000000001 316.33000000000004 C 122.58100000000002 316.16600000000005 124.64900000000002 316.05100000000004 126.71600000000001 315.97400000000005 C 130.089 315.84800000000007 133.465 315.81200000000007 136.839 315.72800000000007 C 140.202 315.64500000000004 143.567 315.51900000000006 146.917 315.20400000000006 C 150.209 314.89400000000006 153.537 314.4460000000001 156.735 313.58400000000006 C 159.54600000000002 312.8260000000001 162.29000000000002 311.48500000000007 163.77200000000002 308.85900000000004 C 163.87000000000003 308.68600000000004 163.95700000000002 308.51000000000005 164.038 308.331 C 164.13600000000002 308.522 164.20600000000002 308.72700000000003 164.23100000000002 308.951 C 164.296 309.522 164.095 310.181 163.561 310.469 z" stroke-linecap="round" />
</g>
		<g transform="matrix(1 0 0 1 -9.5 34.05)"  >
<path style="stroke: none; stroke-width: 1; stroke-dasharray: none; stroke-linecap: butt; stroke-dashoffset: 0; stroke-linejoin: miter; stroke-miterlimit: 4; fill: rgb(77,76,81); fill-rule: nonzero; opacity: 1;" vector-effect="non-scaling-stroke"  transform=" translate(-115.18, -317.24)" d="M 115.182 317.252 C 115.19500000000001 317.252 115.19800000000001 317.231 115.185 317.231 C 115.171 317.232 115.168 317.252 115.182 317.252 z" stroke-linecap="round" />
</g>
</g>
</g>
</svg>