<?xml version="1.0" encoding="UTF-8" standalone="no" ?>
<!DOCTYPE svg PUBLIC "-//W3C//DTD SVG 1.1//EN" "http://www.w3.org/Graphics/SVG/1.1/DTD/svg11.dtd">
<svg xmlns="http://www.w3.org/2000/svg" xmlns:xlink="http://www.w3.org/1999/xlink" version="1.1" width="80" height="80" viewBox="0 0 80 80" xml:space="preserve">
<desc>Created with Fabric.js 5.2.4</desc>
<defs>
</defs>
<rect x="0" y="0" width="100%" height="100%" fill="transparent"></rect>
<g transform="matrix(1 0 0 1 40 40)" id="fc811ae7-94a6-4813-a672-5562730f3949"  >
<rect style="stroke: none; stroke-width: 1; stroke-dasharray: none; stroke-linecap: butt; stroke-dashoffset: 0; stroke-linejoin: miter; stroke-miterlimit: 4; fill: rgb(255,255,255); fill-rule: nonzero; opacity: 1; visibility: hidden;" vector-effect="non-scaling-stroke"  x="-40" y="-40" rx="0" ry="0" width="80" height="80" />
</g>
<g transform="matrix(Infinity NaN NaN Infinity 0 0)" id="dbb4e705-56be-4df9-91b2-46cd2014175f"  >
</g>
<g transform="matrix(1 0 0 1 40 40)"  >
<g style="" vector-effect="non-scaling-stroke"   >
		<g transform="matrix(1 0 0 1 0 0)"  >
<path style="stroke: none; stroke-width: 1; stroke-dasharray: none; stroke-linecap: butt; stroke-dashoffset: 0; stroke-linejoin: miter; stroke-miterlimit: 4; fill: rgb(77,76,81); fill-rule: nonzero; opacity: 1;" vector-effect="non-scaling-stroke"  transform=" translate(-221.79, -264.38)" d="M 270.326 247.551 C 269.584 247.45 268.83700000000005 247.599 268.122 247.78799999999998 C 267.34000000000003 247.99399999999997 266.56600000000003 248.23499999999999 265.80400000000003 248.505 C 264.281 249.04399999999998 262.802 249.706 261.37100000000004 250.45499999999998 C 255.56400000000005 253.49499999999998 250.61200000000002 257.93 245.89100000000005 262.416 C 245.74100000000004 262.558 245.59300000000005 262.702 245.44300000000004 262.844 C 246.95700000000005 259.67 248.13600000000005 256.346 248.54900000000004 252.839 C 248.87100000000004 250.10399999999998 248.66100000000003 247.345 247.96300000000002 244.683 C 247.96000000000004 244.673 247.95700000000002 244.664 247.955 244.654 C 247.92800000000003 244.42499999999998 247.89700000000002 244.197 247.859 243.97 C 247.845 243.885 247.786 243.84 247.721 243.828 C 247.636 243.546 247.546 243.26500000000001 247.452 242.986 C 247.454 242.96699999999998 247.457 242.947 247.458 242.928 C 247.465 242.847 247.428 242.79 247.376 242.754 C 246.71800000000002 240.84699999999998 245.856 239.01399999999998 244.873 237.25 C 243.518 234.819 241.951 232.515 240.32 230.263 C 239.531 229.174 238.749 228.073 237.909 227.022 C 237.172 226.1 236.337 225.20499999999998 235.307 224.60899999999998 C 235.268 224.52399999999997 235.19199999999998 224.49599999999998 235.119 224.50499999999997 C 235.077 224.48299999999998 235.037 224.45699999999997 234.995 224.43599999999998 C 233.851 223.86799999999997 232.55 223.84699999999998 231.376 224.34099999999998 C 230.143 224.85899999999998 229.14600000000002 225.795 228.23000000000002 226.74399999999997 C 226.026 229.02599999999998 224.234 231.66699999999997 222.70900000000003 234.44099999999997 C 222.25100000000003 235.27599999999998 221.81900000000005 236.12399999999997 221.40500000000003 236.98099999999997 C 220.62200000000004 236.20699999999997 219.78000000000003 235.49699999999996 218.89500000000004 234.84499999999997 C 218.87400000000005 234.74599999999998 218.79900000000004 234.70899999999997 218.72500000000005 234.71699999999998 C 217.04100000000005 233.50099999999998 215.19300000000004 232.516 213.23100000000005 231.81699999999998 C 211.88900000000004 231.33799999999997 210.40500000000006 230.94799999999998 208.99800000000005 231.384 C 207.48500000000004 231.85199999999998 206.47900000000004 233.19899999999998 205.76500000000004 234.53799999999998 C 205.02300000000005 235.92999999999998 204.45500000000004 237.433 203.94200000000004 238.92299999999997 C 203.43600000000004 240.39099999999996 203.01100000000002 241.88599999999997 202.65300000000005 243.396 C 201.92200000000005 246.47899999999998 201.47800000000004 249.624 201.20900000000006 252.778 C 200.93900000000005 255.938 200.82200000000006 259.12 200.85200000000006 262.291 C 200.85300000000007 262.431 200.85700000000006 262.57 200.85900000000007 262.71 C 200.13900000000007 261.9 199.36600000000007 261.137 198.53200000000007 260.44399999999996 C 197.00500000000008 259.17499999999995 195.27300000000008 258.188 193.40100000000007 257.527 C 189.94000000000005 256.30699999999996 186.23600000000008 256.142 182.59900000000007 256.133 C 181.40300000000008 255.86299999999997 180.17500000000007 255.748 178.95200000000008 255.88199999999998 C 177.31300000000007 256.06199999999995 175.66000000000008 256.729 174.44900000000007 257.86899999999997 C 174.43600000000006 257.86899999999997 174.42300000000006 257.86899999999997 174.41000000000008 257.86899999999997 C 174.24100000000007 257.87199999999996 174.1740000000001 257.99999999999994 174.18800000000007 258.13 C 174.03500000000008 258.292 173.88800000000006 258.462 173.75300000000007 258.641 C 173.69900000000007 258.713 173.65000000000006 258.786 173.60100000000008 258.85900000000004 C 173.31500000000008 259.05100000000004 173.12500000000009 259.48800000000006 173.0020000000001 259.77500000000003 C 172.8380000000001 260.15900000000005 172.7370000000001 260.564 172.6860000000001 260.97700000000003 C 172.6330000000001 261.40400000000005 172.57100000000008 261.829 172.51700000000008 262.25600000000003 C 172.49100000000007 262.459 172.46700000000007 262.663 172.44600000000008 262.867 C 172.0080000000001 264.344 171.65800000000007 265.84900000000005 171.41400000000007 267.35200000000003 C 170.97400000000007 270.064 170.94300000000007 272.85400000000004 171.58700000000007 275.538 C 172.2090000000001 278.135 173.44000000000008 280.563 175.36000000000007 282.44100000000003 C 177.42900000000006 284.46500000000003 180.09900000000007 285.74300000000005 182.82000000000008 286.644 C 188.21600000000007 288.431 194.23400000000007 288.762 199.15600000000006 291.813 C 201.60100000000006 293.329 203.49100000000007 295.51 205.36800000000005 297.652 C 207.18600000000006 299.727 209.06200000000004 301.872 211.48400000000004 303.26 C 213.78400000000005 304.578 216.40900000000005 305.007 219.02400000000003 304.63 C 221.86100000000002 304.221 224.48100000000002 302.931 226.81100000000004 301.301 C 227.41400000000004 300.87899999999996 227.99900000000002 300.43199999999996 228.57200000000003 299.96999999999997 C 228.64300000000003 299.91299999999995 228.67400000000004 299.844 228.68400000000003 299.77299999999997 C 231.19700000000003 299.073 233.54800000000003 297.77599999999995 235.63300000000004 296.23499999999996 C 238.26900000000003 294.28599999999994 240.54800000000003 291.895 242.56500000000003 289.31999999999994 C 244.81000000000003 286.45399999999995 246.75400000000002 283.3709999999999 248.72100000000003 280.3109999999999 C 250.70400000000004 277.2249999999999 252.76600000000002 274.2049999999999 255.01100000000002 271.3019999999999 C 259.538 265.4469999999999 264.562 260.0069999999999 269.317 254.3409999999999 C 269.91 253.6349999999999 270.498 252.9249999999999 271.081 252.2109999999999 C 271.56800000000004 251.6149999999999 272.17900000000003 250.9969999999999 272.411 250.2439999999999 C 272.829 248.87 271.607 247.727 270.326 247.551 z M 262.241 250.781 C 262.306 250.741 262.334 250.686 262.33799999999997 250.63 C 264.09399999999994 249.765 265.917 249.039 267.79999999999995 248.494 C 268.29099999999994 248.352 268.90199999999993 248.191 269.506 248.139 C 265.83 249.71800000000002 262.428 251.821 259.279 254.29500000000002 C 255.834 257.00100000000003 252.72899999999998 260.136 249.936 263.50600000000003 C 246.981 267.072 244.395 270.918 242.00900000000001 274.882 C 239.615 278.86 237.43300000000002 282.963 235.30300000000003 287.087 C 233.73000000000002 290.134 232.26600000000002 293.30199999999996 230.425 296.214 C 230.43200000000002 296.197 230.43900000000002 296.18 230.44500000000002 296.163 C 230.48000000000002 296.072 230.47100000000003 295.99 230.437 295.922 C 230.89100000000002 295.014 231.27900000000002 294.067 231.627 293.09900000000005 C 231.638 293.07200000000006 231.65 293.04600000000005 231.661 293.01900000000006 C 232.418 291.25500000000005 233.185 289.49500000000006 233.973 287.7440000000001 C 235.53900000000002 284.2630000000001 237.20000000000002 280.8230000000001 239.01000000000002 277.4620000000001 C 240.83400000000003 274.0740000000001 242.82100000000003 270.7700000000001 245.032 267.6190000000001 C 247.21300000000002 264.5100000000001 249.62 261.5610000000001 252.27100000000002 258.8400000000001 C 254.941 256.0990000000001 257.862 253.6340000000001 261.06 251.5320000000001 C 261.45 251.277 261.844 251.027 262.241 250.781 z M 258.803 252.606 C 256.774 254.12699999999998 254.849 255.79399999999998 253.046 257.564 C 250.326 260.23400000000004 247.87199999999999 263.16400000000004 245.63299999999998 266.247 C 243.38899999999998 269.337 241.379 272.589 239.53699999999998 275.934 C 237.67799999999997 279.30800000000005 236.003 282.77700000000004 234.40499999999997 286.28200000000004 C 233.69699999999997 287.83400000000006 233.00999999999996 289.396 232.33099999999996 290.961 C 232.92199999999997 289.00800000000004 233.41799999999995 287.021 233.99499999999995 285.13100000000003 C 234.88599999999994 282.21400000000006 236.10699999999994 279.439 237.55399999999995 276.75600000000003 C 239.06299999999993 273.959 240.76299999999995 271.271 242.37199999999996 268.53200000000004 C 243.18799999999996 267.14400000000006 243.98599999999996 265.72700000000003 244.72799999999995 264.28100000000006 C 249.125 260.059 253.611 255.84 258.803 252.606 z M 247.99 249.569 C 248.18900000000002 255.07999999999998 246.055 260.373 243.489 265.143 C 240.612 270.491 237.02 275.467 234.702 281.10799999999995 C 233.896 283.06899999999996 233.305 285.09899999999993 232.74099999999999 287.1379999999999 C 232.69 287.1149999999999 232.634 287.1089999999999 232.58399999999997 287.12499999999994 C 232.59499999999997 287.07199999999995 232.60599999999997 287.01899999999995 232.61699999999996 286.96599999999995 C 233.00299999999996 285.10299999999995 233.40299999999996 283.24099999999993 233.93999999999997 281.41499999999996 C 234.49599999999998 279.527 235.21599999999998 277.691 236.04299999999998 275.905 C 237.73999999999998 272.239 239.85899999999998 268.794 241.84999999999997 265.28599999999994 C 243.63499999999996 262.14099999999996 245.30999999999997 258.9239999999999 246.48299999999998 255.49399999999994 C 247.20199999999997 253.39399999999995 247.73 251.21699999999996 247.95199999999997 249.01099999999994 C 247.964 249.197 247.983 249.382 247.99 249.569 z M 247.68 246.732 C 247.686 247.562 247.65 248.393 247.559 249.226 C 247.369 250.967 246.989 252.684 246.477 254.357 C 245.431 257.774 243.849 260.998 242.127 264.12 C 240.20100000000002 267.612 238.102 271.013 236.347 274.597 C 235.481 276.366 234.70100000000002 278.18 234.084 280.05199999999996 C 233.498 281.83 233.066 283.655 232.677 285.48499999999996 C 232.33599999999998 287.09399999999994 232.019 288.70899999999995 231.665 290.31399999999996 C 231.524 290.787 231.374 291.258 231.209 291.72299999999996 C 230.859 292.70799999999997 230.454 293.67499999999995 230.006 294.621 C 230.498 292.26599999999996 230.741 289.84799999999996 231.078 287.477 C 231.352 285.549 231.704 283.637 232.22 281.758 C 232.738 279.87199999999996 233.389 278.025 234.124 276.21299999999997 C 235.603 272.56199999999995 237.423 269.068 239.238 265.575 C 241.006 262.17199999999997 242.773 258.762 244.235 255.214 C 245.61800000000002 251.858 246.733 248.346 247.246 244.744 C 247.421 245.399 247.562 246.063 247.68 246.732 z M 242.621 234.852 C 244.40200000000002 237.635 245.98700000000002 240.62 246.967 243.779 C 246.567 247.258 245.62400000000002 250.643 244.36800000000002 253.91 C 243.002 257.464 241.30900000000003 260.879 239.57600000000002 264.265 C 237.79000000000002 267.753 235.97400000000002 271.233 234.43200000000002 274.839 C 232.912 278.395 231.711 282.072 231.08100000000002 285.894 C 230.55400000000003 289.09000000000003 230.30700000000002 292.346 229.573 295.504 C 229.493 295.66 229.417 295.81800000000004 229.335 295.973 C 229.124 296.37100000000004 228.90300000000002 296.76300000000003 228.673 297.15000000000003 C 228.538 297.377 228.40200000000002 297.60100000000006 228.276 297.83200000000005 C 228.132 297.9200000000001 227.983 297.99800000000005 227.827 298.0570000000001 C 227.942 296.1820000000001 228.137 294.31200000000007 228.45499999999998 292.45900000000006 C 228.89 289.92800000000005 229.51799999999997 287.4340000000001 230.266 284.97800000000007 C 231.78 280.0040000000001 233.778 275.20000000000005 235.71699999999998 270.3810000000001 C 237.706 265.4400000000001 239.64 260.4560000000001 240.921 255.2760000000001 C 242.08499999999998 250.5700000000001 242.65 245.7180000000001 242.218 240.87500000000009 C 241.873 237.00900000000007 240.87699999999998 233.1690000000001 239.065 229.73200000000008 C 240.296 231.407 241.501 233.101 242.621 234.852 z M 227.969 228.065 C 228.251 227.74699999999999 228.53799999999998 227.434 228.834 227.129 C 228.873 227.089 228.91400000000002 227.04899999999998 228.953 227.00799999999998 C 229.622 231.77899999999997 228.118 236.503 226.463 240.92499999999998 C 224.59699999999998 245.91099999999997 222.558 250.831 220.844 255.873 C 219.137 260.894 217.727 266.049 217.112 271.327 C 216.56 276.063 216.704 280.914 217.75 285.574 C 218.551 289.14500000000004 219.918 292.647 221.926 295.724 C 221.771 295.55 221.61499999999998 295.376 221.464 295.199 C 220.972 294.62100000000004 220.506 294.023 220.06 293.41 C 219.631 292.58000000000004 219.228 291.737 218.865 290.87600000000003 C 217.96800000000002 288.74600000000004 217.276 286.521 216.75900000000001 284.26800000000003 C 215.71900000000002 279.733 215.45100000000002 275.02000000000004 215.782 270.38500000000005 C 216.115 265.71400000000006 217.06 261.09800000000007 218.44400000000002 256.62800000000004 C 219.847 252.09400000000005 221.67000000000002 247.70800000000006 223.38000000000002 243.28500000000005 C 225.07700000000003 238.89600000000004 226.69800000000004 234.46100000000004 227.65000000000003 229.84200000000004 C 227.76700000000002 229.27500000000003 227.87500000000003 228.70600000000005 227.97200000000004 228.13400000000004 C 227.976 228.11 227.973 228.087 227.969 228.065 z M 225.872 230.701 C 226.381 229.988 226.92000000000002 229.297 227.485 228.628 C 226.685 233.14399999999998 225.227 237.515 223.61700000000002 241.79999999999998 C 221.93300000000002 246.284 220.05800000000002 250.69599999999997 218.567 255.25099999999998 C 217.11 259.703 216.06 264.291 215.612 268.959 C 215.165 273.617 215.333 278.30400000000003 216.243 282.898 C 216.882 286.129 217.896 289.317 219.296 292.315 C 218.45399999999998 291.049 217.701 289.725 217.043 288.353 C 214.644 283.349 213.433 277.81100000000004 213.261 272.276 C 213.083 266.557 213.966 260.833 215.426 255.31400000000002 C 216.15599999999998 252.55200000000002 217.03099999999998 249.82800000000003 217.998 247.14000000000001 C 219.017 244.30800000000002 220.114 241.495 221.356 238.75300000000001 C 222.628 235.946 224.079 233.212 225.872 230.701 z M 220.396 236.65 C 220.67 236.9 220.93499999999997 237.159 221.195 237.422 C 220.313 239.285 219.517 241.191 218.763 243.109 C 218.626 243.45700000000002 218.49800000000002 243.809 218.364 244.15800000000002 C 218.391 244.05300000000003 218.423 243.95000000000002 218.45000000000002 243.84500000000003 C 218.925 241.95800000000003 219.233 240.01800000000003 219.233 238.06800000000004 C 219.233 237.19400000000005 219.133 236.34500000000003 219.002 235.49100000000004 C 219.481 235.861 219.949 236.243 220.396 236.65 z M 216.443 233.78 C 217.204 234.212 217.937 234.694 218.64100000000002 235.214 C 218.829 236.041 218.89200000000002 236.913 218.92100000000002 237.753 C 218.954 238.69099999999997 218.90800000000002 239.63 218.79500000000002 240.56099999999998 C 218.55300000000003 242.56699999999998 218.03300000000002 244.52599999999998 217.41700000000003 246.44599999999997 C 217.19100000000003 247.14999999999998 216.94400000000002 247.84799999999996 216.71200000000002 248.55099999999996 C 216.776 248.13399999999996 216.83800000000002 247.71699999999996 216.888 247.29899999999995 C 217.27 244.11099999999996 217.27 240.85399999999996 216.609 237.70299999999995 C 216.28 236.13599999999994 215.79500000000002 234.59299999999993 215.173 233.11599999999996 C 215.605 233.326 216.03 233.546 216.443 233.78 z M 209.896 231.647 C 210.60399999999998 231.582 211.325 231.702 212.00699999999998 231.89 C 212.926 232.14299999999997 213.82599999999996 232.492 214.70099999999996 232.89399999999998 C 216.05299999999997 235.682 216.64699999999996 238.753 216.80899999999997 241.83299999999997 C 216.96499999999997 244.81099999999998 216.63699999999997 247.78799999999998 216.04799999999997 250.70599999999996 C 215.97199999999998 250.94499999999996 215.89099999999996 251.18299999999996 215.81699999999998 251.42299999999997 C 214.08399999999997 257.008 212.84099999999998 262.78099999999995 212.58999999999997 268.63599999999997 C 212.34499999999997 274.37399999999997 213.09299999999996 280.155 215.09799999999998 285.553 C 215.14 285.665 215.18499999999997 285.775 215.22699999999998 285.886 C 215.18099999999998 285.781 215.13199999999998 285.678 215.087 285.572 C 213.391 281.595 212.26299999999998 277.387 211.554 273.127 C 210.808 268.64300000000003 210.52700000000002 264.092 210.448 259.551 C 210.368 254.95999999999998 210.497 250.369 210.578 245.778 C 210.65200000000002 241.599 210.883 237.22199999999998 209.483 233.213 C 209.324 232.757 209.14000000000001 232.31199999999998 208.937 231.874 C 209.244 231.759 209.563 231.678 209.896 231.647 z M 204.967 238.258 C 204.99900000000002 238.078 205.026 237.89700000000002 205.05900000000003 237.717 C 205.06900000000002 237.66000000000003 205.05600000000004 237.615 205.03300000000002 237.578 C 205.048 237.434 205.06 237.28900000000002 205.07500000000002 237.145 C 205.07600000000002 237.13400000000001 205.073 237.126 205.07200000000003 237.116 C 205.17500000000004 236.86 205.27800000000002 236.603 205.38700000000003 236.34900000000002 C 205.98500000000004 234.95200000000003 206.66400000000002 233.45100000000002 207.87800000000004 232.47600000000003 C 208.08000000000004 232.31400000000002 208.29900000000004 232.18100000000004 208.52400000000003 232.06300000000002 C 210.31900000000002 235.93900000000002 210.22400000000002 240.33300000000003 210.16400000000002 244.51200000000003 C 210.098 249.09000000000003 209.95800000000003 253.66700000000003 209.99900000000002 258.24600000000004 C 210.04000000000002 262.81500000000005 210.26200000000003 267.39300000000003 210.92400000000004 271.91800000000006 C 211.54800000000003 276.18300000000005 212.58000000000004 280.4030000000001 214.16200000000003 284.4170000000001 C 215.43300000000002 287.6410000000001 217.10100000000003 290.7220000000001 219.16200000000003 293.5130000000001 C 219.00600000000003 293.3540000000001 218.84600000000003 293.19900000000007 218.69500000000002 293.0360000000001 C 217.22600000000003 291.4550000000001 215.93600000000004 289.7150000000001 214.77800000000002 287.89600000000013 C 213.93500000000003 286.57100000000014 213.16700000000003 285.2040000000001 212.443 283.81400000000014 C 210.966 280.27300000000014 209.96300000000002 276.56300000000016 209.00900000000001 272.8510000000001 C 208.04600000000002 269.1040000000001 207.168 265.3340000000001 206.461 261.5300000000001 C 205.758 257.7530000000001 205.205 253.94600000000008 204.91500000000002 250.1140000000001 C 204.62400000000002 246.2680000000001 204.60600000000002 242.4050000000001 204.93800000000002 238.5610000000001 C 204.947 238.459 204.958 238.359 204.967 238.258 z M 210.994 280.899 C 210.859 280.617 210.728 280.332 210.595 280.049 C 210.256 279.169 209.905 278.294 209.564 277.416 C 208.99699999999999 275.956 208.43 274.496 207.863 273.036 C 206.774 270.232 205.59 267.448 204.691 264.576 C 203.833 261.83500000000004 203.437 259.02200000000005 203.372 256.154 C 203.30700000000002 253.271 203.484 250.375 203.74 247.504 C 203.905 245.654 204.122 243.807 204.38 241.96599999999998 C 204.315 244.20899999999997 204.34799999999998 246.456 204.47899999999998 248.69599999999997 C 204.707 252.58799999999997 205.21099999999998 256.462 205.897 260.29799999999994 C 206.584 264.13599999999997 207.45999999999998 267.94199999999995 208.415 271.72099999999995 C 209.192 274.796 209.968 277.893 210.994 280.899 z M 201.163 263.06 C 201.251 260.119 201.299 257.179 201.506 254.243 C 201.723 251.173 202.087 248.10999999999999 202.704 245.093 C 203.139 242.97 203.709 240.873 204.429 238.82899999999998 C 204.012 241.35599999999997 203.677 243.89399999999998 203.447 246.445 C 203.186 249.334 203.011 252.244 203.029 255.14499999999998 C 203.046 257.96999999999997 203.323 260.779 204.087 263.506 C 204.89499999999998 266.39 206.083 269.16299999999995 207.173 271.948 C 207.796 273.541 208.419 275.133 209.044 276.72499999999997 C 208.99200000000002 276.614 208.941 276.503 208.89000000000001 276.39199999999994 C 207.08700000000002 272.51099999999997 205.251 268.59799999999996 202.758 265.1019999999999 C 202.257 264.399 201.726 263.716 201.163 263.06 z M 186.547 256.629 C 188.413 256.784 190.287 257.05100000000004 192.088 257.574 C 193.976 258.123 195.754 258.964 197.344 260.125 C 198.65699999999998 261.084 199.822 262.224 200.87199999999999 263.463 C 200.87599999999998 263.519 200.91299999999998 263.555 200.95999999999998 263.57000000000005 C 201.24299999999997 263.9080000000001 201.51999999999998 264.25100000000003 201.78599999999997 264.60200000000003 C 204.37499999999997 268.007 206.26999999999998 271.90400000000005 208.04899999999998 275.776 C 209.801 279.588 211.48399999999998 283.443 213.634 287.053 C 214.45499999999998 288.55 215.40499999999997 289.976 216.499 291.279 C 217.301 292.30899999999997 218.156 293.295 219.081 294.212 C 216.91199999999998 292.34 214.951 290.221 213.15699999999998 287.984 C 210.105 284.181 207.48899999999998 280.061 204.784 276.01099999999997 C 202.16899999999998 272.09799999999996 199.433 268.22999999999996 196.173 264.82099999999997 C 193.022 261.52599999999995 189.323 258.59799999999996 185.055 256.9 C 184.683 256.75199999999995 184.304 256.61899999999997 183.92100000000002 256.496 C 184.798 256.524 185.673 256.556 186.547 256.629 z M 178.106 256.67 C 180.14 256.218 182.25 256.569 184.18699999999998 257.26300000000003 C 188.40099999999998 258.77200000000005 192.11299999999997 261.605 195.225 264.77000000000004 C 198.477 268.07800000000003 201.208 271.855 203.795 275.69200000000006 C 206.44699999999997 279.62500000000006 208.974 283.6460000000001 211.887 287.3960000000001 C 214.774 291.11300000000006 218.052 294.60300000000007 222.008 297.19500000000005 C 222.321 297.40000000000003 222.639 297.59700000000004 222.959 297.7900000000001 C 223.335 298.1530000000001 223.724 298.5010000000001 224.129 298.8230000000001 C 220.581 297.8370000000001 217.206 296.3660000000001 214.13799999999998 294.2810000000001 C 210.19199999999998 291.60000000000014 207.03399999999996 288.04500000000013 204.27299999999997 284.1850000000001 C 201.41999999999996 280.1950000000001 198.96399999999997 275.9400000000001 196.13199999999998 271.9360000000001 C 193.50399999999996 268.2200000000001 190.50599999999997 264.6720000000001 186.765 262.0300000000001 C 183.55599999999998 259.76400000000007 179.783 258.1370000000001 175.82799999999997 257.8960000000001 C 175.68099999999998 257.88700000000006 175.53399999999996 257.88400000000007 175.38699999999997 257.8790000000001 C 176.193 257.305 177.114 256.89 178.106 256.67 z M 174.115 259.21 C 174.13400000000001 259.147 174.119 259.092 174.089 259.04999999999995 C 174.291 258.81899999999996 174.511 258.60499999999996 174.738 258.40199999999993 C 178.659 258.4189999999999 182.444 259.8309999999999 185.71 261.9479999999999 C 189.525 264.4199999999999 192.572 267.8409999999999 195.235 271.4889999999999 C 198.127 275.44999999999993 200.59300000000002 279.6989999999999 203.41600000000003 283.7059999999999 C 206.116 287.5379999999999 209.18500000000003 291.1329999999999 213.00600000000003 293.8909999999999 C 216.46900000000002 296.38999999999993 220.42900000000003 298.2459999999999 224.58600000000004 299.2349999999999 C 224.60300000000004 299.2389999999999 224.62100000000004 299.2419999999999 224.63800000000003 299.2459999999999 C 224.65100000000004 299.25499999999994 224.66400000000004 299.2639999999999 224.67700000000002 299.27399999999994 C 221.41500000000002 299.22299999999996 218.19600000000003 298.40399999999994 215.217 297.06899999999996 C 211.459 295.38399999999996 208.119 292.917 205.145 290.08799999999997 C 201.609 286.72299999999996 198.57600000000002 282.87499999999994 195.567 279.04499999999996 C 192.65 275.33199999999994 189.735 271.597 186.39000000000001 268.253 C 184.746 266.609 183.00400000000002 265.06 181.12900000000002 263.683 C 179.24300000000002 262.299 177.21300000000002 261.12399999999997 175.12400000000002 260.07599999999996 C 174.75600000000003 259.89099999999996 174.383 259.71899999999994 174.008 259.551 C 174.043 259.438 174.08 259.325 174.115 259.21 z M 173.469 261.226 C 173.612 260.784 173.756 260.342 173.897 259.9 C 175.78699999999998 260.984 177.73499999999999 261.953 179.551 263.16999999999996 C 181.517 264.48699999999997 183.345 266.001 185.059 267.62999999999994 C 188.522 270.9219999999999 191.508 274.6719999999999 194.454 278.42299999999994 C 197.473 282.26499999999993 200.481 286.13599999999997 203.96 289.57899999999995 C 206.93800000000002 292.52599999999995 210.256 295.11599999999993 214.02100000000002 296.97999999999996 C 216.866 298.38899999999995 219.953 299.34799999999996 223.116 299.62899999999996 C 220.35600000000002 299.78799999999995 217.556 299.14199999999994 215.01600000000002 298.068 C 211.03300000000002 296.38399999999996 207.52100000000002 293.705 204.163 291.025 C 200.702 288.263 197.4 285.31199999999995 194.12400000000002 282.335 C 190.848 279.359 187.58500000000004 276.36899999999997 184.217 273.496 C 180.864 270.635 177.39600000000002 267.89599999999996 173.702 265.486 C 173.297 265.222 172.887 264.967 172.474 264.717 C 172.758 263.536 173.098 262.368 173.469 261.226 z M 220.606 303.646 C 218.144 304.321 215.471 304.326 213.09199999999998 303.34000000000003 C 210.563 302.29200000000003 208.593 300.305 206.79799999999997 298.29900000000004 C 204.96099999999998 296.24600000000004 203.22099999999998 294.06500000000005 201.04499999999996 292.35200000000003 C 196.60199999999995 288.85600000000005 190.84899999999996 288.19500000000005 185.54299999999995 286.838 C 182.77999999999994 286.13100000000003 179.99799999999996 285.189 177.62399999999994 283.572 C 175.35699999999994 282.028 173.66599999999994 279.883 172.69599999999994 277.318 C 171.98899999999995 275.45 171.67699999999994 273.52299999999997 171.63699999999994 271.584 C 172.73199999999994 275.421 175.86799999999994 278.384 179.27399999999994 280.308 C 183.49499999999995 282.693 188.25499999999994 283.811 192.70599999999993 285.65999999999997 C 194.99899999999994 286.61299999999994 197.16999999999993 287.78099999999995 199.13299999999992 289.30899999999997 C 201.13099999999991 290.864 202.91099999999992 292.66999999999996 204.69499999999994 294.46 C 207.88199999999995 297.657 211.27399999999994 300.97499999999997 215.63699999999994 302.472 C 217.93999999999994 303.262 220.59099999999995 303.436 222.97499999999994 302.77599999999995 C 222.212 303.125 221.423 303.422 220.606 303.646 z M 216.708 302.396 C 212.341 301.224 208.864 298.06600000000003 205.738 294.954 C 204.028 293.253 202.356 291.508 200.521 289.939 C 198.695 288.377 196.707 287.071 194.535 286.04200000000003 C 190.277 284.02400000000006 185.641 282.96400000000006 181.37199999999999 280.971 C 177.43499999999997 279.132 173.666 276.287 172.09199999999998 272.084 C 171.90599999999998 271.587 171.75799999999998 271.075 171.642 270.557 C 171.695 268.67600000000004 171.99099999999999 266.79 172.424 264.94 C 174.19400000000002 266.10699999999997 175.946 267.294 177.64700000000002 268.562 C 179.44600000000003 269.904 181.198 271.308 182.91700000000003 272.75 C 186.35300000000004 275.634 189.64400000000003 278.683 192.96000000000004 281.703 C 196.26200000000003 284.71099999999996 199.57800000000003 287.70899999999995 203.04300000000003 290.53 C 206.39500000000004 293.25899999999996 209.88600000000002 295.98699999999997 213.79900000000004 297.86899999999997 C 217.19000000000003 299.49899999999997 220.99000000000004 300.393 224.74800000000005 299.78999999999996 C 224.86800000000005 299.77099999999996 224.98700000000005 299.74699999999996 225.10600000000005 299.72599999999994 C 225.11100000000005 299.72599999999994 225.11700000000005 299.72599999999994 225.12200000000004 299.72599999999994 C 225.16000000000005 299.72599999999994 225.19800000000004 299.7219999999999 225.23500000000004 299.72099999999995 C 225.50000000000003 299.90999999999997 225.79800000000003 300.05999999999995 226.11000000000004 300.14799999999997 C 226.29400000000004 300.2 226.48100000000005 300.23499999999996 226.67100000000005 300.25399999999996 C 224.123 302.744 220.078 303.301 216.708 302.396 z M 225.502 298.086 C 224.51600000000002 297.791 223.643 297.189 222.797 296.592 C 222.102 295.599 221.462 294.567 220.898 293.49199999999996 C 219.813 291.42199999999997 219.008 289.23799999999994 218.404 286.98199999999997 C 217.165 282.35499999999996 216.87 277.48499999999996 217.286 272.72299999999996 C 217.745 267.467 219.06 262.31399999999996 220.698 257.31199999999995 C 222.364 252.22499999999997 224.376 247.26299999999995 226.312 242.27599999999995 C 228.02300000000002 237.86999999999995 229.711 233.22699999999995 229.458 228.42399999999995 C 229.427 227.84199999999996 229.365 227.26299999999995 229.275 226.68799999999996 C 230.058 225.92499999999995 230.934 225.21799999999996 231.975 224.86899999999997 C 232.186 224.79799999999997 232.393 224.75099999999998 232.596 224.72099999999998 C 234.568 229.224 234.095 234.38799999999998 232.734 238.99499999999998 C 231.95100000000002 241.646 230.888 244.20299999999997 229.829 246.753 C 228.791 249.25199999999998 227.776 251.762 226.841 254.302 C 224.977 259.366 223.382 264.548 222.431 269.866 C 221.56 274.736 221.25 279.71799999999996 221.76000000000002 284.647 C 222.24200000000002 289.31 223.45800000000003 293.913 225.57700000000003 298.104 C 225.551 298.098 225.526 298.093 225.502 298.086 z M 225.851 298.173 C 225.058 296.564 224.364 294.913 223.815 293.198 C 223.077 290.893 222.561 288.517 222.244 286.118 C 221.595 281.207 221.772 276.215 222.547 271.329 C 223.393 265.993 224.92 260.78700000000003 226.765 255.716 C 227.69299999999998 253.16500000000002 228.695 250.642 229.736 248.13500000000002 C 230.789 245.60100000000003 231.87599999999998 243.07600000000002 232.743 240.47000000000003 C 234.274 235.86500000000004 235.109 230.82500000000002 233.62199999999999 226.09700000000004 C 235.14399999999998 229.89400000000003 235.45899999999997 234.12300000000005 235.069 238.16900000000004 C 234.57799999999997 243.26200000000003 232.956 248.15900000000005 231.214 252.94200000000004 C 229.419 257.869 227.55 262.76900000000006 226.117 267.81800000000004 C 224.754 272.619 223.744 277.56800000000004 223.57899999999998 282.569 C 223.42799999999997 287.156 223.84099999999998 291.875 225.34699999999998 296.235 C 225.539 296.791 225.75099999999998 297.332 225.99499999999998 297.867 C 226.01599999999996 297.91200000000003 226.081 297.884 226.06599999999997 297.838 C 225.33999999999997 295.581 224.68499999999997 293.32500000000005 224.30399999999997 290.98 C 223.92199999999997 288.635 223.75799999999998 286.27700000000004 223.78799999999998 283.901 C 223.85 278.919 224.73499999999999 273.97 226.02999999999997 269.171 C 227.396 264.105 229.24099999999999 259.197 231.06499999999997 254.283 C 232.84899999999996 249.475 234.58099999999996 244.58399999999997 235.25899999999996 239.476 C 235.85099999999997 235.018 235.64599999999996 230.348 234.02399999999994 226.115 C 233.84099999999995 225.638 233.63899999999995 225.169 233.42499999999995 224.705 C 234.07099999999994 224.774 234.66999999999996 225.032 235.22399999999996 225.399 C 236.91099999999997 229.657 237.51099999999997 234.263 237.37299999999996 238.828 C 237.22199999999995 243.808 236.23699999999997 248.73 234.87899999999996 253.512 C 233.35199999999998 258.889 231.37099999999995 264.122 229.63599999999997 269.433 C 228.04999999999995 274.28499999999997 226.66899999999995 279.227 226.00499999999997 284.299 C 225.39799999999997 288.93699999999995 225.41499999999996 293.683 226.48299999999998 298.25199999999995 C 226.271 298.241 226.059 298.217 225.851 298.173 z M 226.702 298.263 C 226.324 296.524 226.058 294.767 225.95 292.98199999999997 C 225.802 290.539 225.878 288.092 226.134 285.659 C 226.66299999999998 280.623 227.94799999999998 275.718 229.48499999999999 270.905 C 231.18499999999997 265.582 233.17399999999998 260.354 234.783 255.00099999999998 C 236.236 250.16799999999998 237.378 245.23799999999997 237.676 240.18699999999998 C 237.95299999999997 235.493 237.51299999999998 230.719 235.951 226.26399999999998 C 235.898 226.11299999999997 235.84099999999998 225.96399999999997 235.785 225.814 C 236.077 226.057 236.357 226.32299999999998 236.621 226.606 C 236.613 226.65699999999998 236.62300000000002 226.712 236.663 226.76399999999998 C 239.46 230.475 241.02800000000002 234.94599999999997 241.621 239.529 C 242.235 244.276 241.828 249.088 240.803 253.74699999999999 C 239.658 258.95 237.784 263.95599999999996 235.815 268.895 C 233.895 273.709 231.87 278.48699999999997 230.275 283.423 C 228.74 288.175 227.50400000000002 293.165 227.407 298.182 C 227.175 298.232 226.939 298.261 226.702 298.263 z M 271.277 251.032 C 270.735 251.726 270.167 252.40300000000002 269.60499999999996 253.08100000000002 C 265.027 258.608 260.16999999999996 263.904 255.70699999999997 269.526 C 253.50399999999996 272.301 251.42599999999996 275.164 249.48799999999997 278.13100000000003 C 247.54499999999996 281.10600000000005 245.69099999999997 284.14200000000005 243.61799999999997 287.02900000000005 C 239.92999999999998 292.16400000000004 235.28999999999996 297.03100000000006 229.18799999999996 299.17600000000004 C 231.95199999999997 296.75800000000004 234.35299999999995 293.94700000000006 236.52199999999996 290.98 C 239.17499999999995 287.351 241.48499999999996 283.48900000000003 243.77699999999996 279.627 C 246.06599999999995 275.769 248.35199999999995 271.902 250.94399999999996 268.236 C 253.50299999999996 264.618 256.39 261.255 259.70599999999996 258.30899999999997 C 262.98599999999993 255.39499999999998 266.616 252.90899999999996 270.48299999999995 250.84099999999998 C 270.92799999999994 250.60299999999998 271.37399999999997 250.367 271.81699999999995 250.12499999999997 C 271.704 250.451 271.492 250.756 271.277 251.032 z M 271.775 249.138 C 271.85299999999995 249.296 271.887 249.453 271.895 249.606 C 271.853 249.597 271.80699999999996 249.597 271.75399999999996 249.62 C 269.76199999999994 250.47 267.86199999999997 251.596 266.044 252.767 C 264.2 253.954 262.429 255.254 260.743 256.656 C 257.355 259.472 254.344 262.702 251.706 266.22700000000003 C 249.017 269.821 246.695 273.66700000000003 244.40699999999998 277.523 C 242.105 281.401 239.83899999999997 285.30600000000004 237.279 289.02200000000005 C 234.814 292.6 232.073 296.01900000000006 228.863 298.96100000000007 C 231.23 296.02900000000005 232.86 292.4960000000001 234.558 289.1690000000001 C 236.68699999999998 284.9960000000001 238.843 280.8350000000001 241.20399999999998 276.7880000000001 C 243.54399999999998 272.7770000000001 246.093 268.8770000000001 248.96599999999998 265.2240000000001 C 251.695 261.7540000000001 254.73399999999998 258.5250000000001 258.12399999999997 255.6930000000001 C 261.46599999999995 252.9010000000001 265.18399999999997 250.5150000000001 269.169 248.75000000000009 C 269.615 248.55200000000008 270.066 248.3660000000001 270.519 248.18400000000008 C 271.045 248.297 271.5 248.577 271.775 249.138 z" stroke-linecap="round" />
</g>
		<g transform="matrix(1 0 0 1 -49.41 -0.79)"  >
<path style="stroke: rgb(77,76,81); stroke-width: 0; stroke-dasharray: none; stroke-linecap: round; stroke-dashoffset: 0; stroke-linejoin: round; stroke-miterlimit: 4; fill: none; fill-rule: nonzero; opacity: 1;" vector-effect="non-scaling-stroke"  transform=" translate(-172.38, -263.58)" d="M 172.379 263.582 C 172.38299999999998 263.578 172.38799999999998 263.585 172.384 263.589" stroke-linecap="round" />
</g>
</g>
</g>
</svg>