<?xml version="1.0" encoding="UTF-8" standalone="no" ?>
<!DOCTYPE svg PUBLIC "-//W3C//DTD SVG 1.1//EN" "http://www.w3.org/Graphics/SVG/1.1/DTD/svg11.dtd">
<svg xmlns="http://www.w3.org/2000/svg" xmlns:xlink="http://www.w3.org/1999/xlink" version="1.1" width="80" height="150" viewBox="0 25.71 80 150" xml:space="preserve">
<desc>Created with Fabric.js 5.2.4</desc>
<defs>
</defs>
<rect x="0" y="0" width="100%" height="100%" fill="transparent"></rect>
<g transform="matrix(1 0 0 1 40 75)" id="fc811ae7-94a6-4813-a672-5562730f3949"  >
<rect style="stroke: none; stroke-width: 1; stroke-dasharray: none; stroke-linecap: butt; stroke-dashoffset: 0; stroke-linejoin: miter; stroke-miterlimit: 4; fill: rgb(255,255,255); fill-rule: nonzero; opacity: 1; visibility: hidden;" vector-effect="non-scaling-stroke"  x="-40" y="-75" rx="0" ry="0" width="80" height="150" />
</g>
<g transform="matrix(Infinity NaN NaN Infinity 0 0)" id="dbb4e705-56be-4df9-91b2-46cd2014175f"  >
</g>
<g transform="matrix(0.99 0 0 1.45 40 101.36)" id="131a6604-3b25-4c06-9852-6ed27625ff2b"  >
<path style="stroke: rgb(0,0,0); stroke-width: 0; stroke-dasharray: none; stroke-linecap: butt; stroke-dashoffset: 0; stroke-linejoin: miter; stroke-miterlimit: 4; fill: rgb(77,76,81); fill-rule: nonzero; opacity: 1;" vector-effect="non-scaling-stroke"  transform=" translate(-103.05, -386.22)" d="M 127.924 374.586 C 127.83600000000001 374.452 127.655 374.392 127.516 374.5 C 127.40400000000001 374.419 127.24900000000001 374.399 127.083 374.502 C 126.366 374.946 125.693 375.483 125.039 376.035 C 125.017 376.03900000000004 124.995 376.04600000000005 124.97500000000001 376.05800000000005 C 124.61800000000001 376.27600000000007 124.32600000000001 376.57900000000006 124.04400000000001 376.88800000000003 C 123.09100000000001 377.713 122.171 378.57200000000006 121.29500000000002 379.478 C 119.54500000000002 381.288 117.96600000000002 383.265 116.63300000000001 385.402 C 114.093 389.472 112.57000000000001 394.151 112.48500000000001 398.964 C 112.46200000000002 400.265 112.54400000000001 401.566 112.74900000000001 402.851 C 112.90200000000002 403.808 113.099 404.79 113.41400000000002 405.719 C 113.06100000000002 407.459 112.78100000000002 409.214 112.60100000000001 410.985 C 112.59100000000001 411.08000000000004 112.58500000000001 411.176 112.57600000000001 411.271 C 112.34400000000001 410.978 112.12800000000001 410.671 111.921 410.369 C 111.53500000000001 409.807 111.16900000000001 409.23400000000004 110.82100000000001 408.648 C 110.13000000000001 407.482 109.50600000000001 406.26800000000003 108.90400000000001 405.05400000000003 C 108.88000000000001 405.00600000000003 108.80100000000002 405.04600000000005 108.81900000000002 405.096 C 109.29200000000002 406.392 109.88600000000001 407.619 110.56200000000001 408.822 C 110.89600000000002 409.416 111.24600000000001 410.002 111.61100000000002 410.577 C 111.91000000000003 411.049 112.23200000000001 411.517 112.51100000000002 412.004 C 112.39800000000002 413.43100000000004 112.34800000000003 414.862 112.37100000000002 416.293 C 112.38800000000002 417.343 112.42200000000003 418.411 112.52700000000003 419.468 C 112.47800000000002 419.392 112.43100000000003 419.315 112.38100000000003 419.238 C 112.37000000000003 419.206 112.35300000000002 419.175 112.32500000000003 419.146 C 112.32300000000004 419.144 112.32200000000003 419.142 112.32000000000004 419.141 C 111.84800000000004 418.40700000000004 111.38800000000003 417.665 110.96300000000004 416.90500000000003 C 108.73000000000003 412.918 107.10600000000004 408.607 105.92000000000003 404.19300000000004 C 105.93600000000004 404.117 105.92000000000003 404.04100000000005 105.86300000000003 403.97 C 105.71800000000003 403.42400000000004 105.57700000000003 402.877 105.44500000000002 402.329 C 105.19800000000002 400.505 104.90600000000002 398.68600000000004 104.57000000000002 396.877 C 104.86100000000002 396.252 105.14200000000002 395.62 105.43800000000002 394.998 C 105.84400000000002 394.147 106.25600000000001 393.29699999999997 106.67300000000002 392.45099999999996 C 107.51700000000001 390.741 108.39300000000001 389.04699999999997 109.32500000000002 387.38399999999996 C 109.41500000000002 387.22299999999996 109.16100000000002 387.09799999999996 109.06900000000002 387.256 C 108.14300000000001 388.86899999999997 107.23900000000002 390.493 106.37800000000001 392.142 C 106.37900000000002 392.065 106.37900000000002 391.988 106.38300000000001 391.913 C 106.40200000000002 391.50100000000003 106.42200000000001 391.09000000000003 106.43700000000001 390.678 C 106.46800000000002 389.84 106.49400000000001 389.006 106.49300000000001 388.168 C 106.49300000000001 388.09000000000003 106.36500000000001 388.079 106.35600000000001 388.158 C 106.257 388.98900000000003 106.18400000000001 389.82 106.117 390.654 C 106.08500000000001 391.052 106.057 391.45 106.028 391.848 C 106.013 392.059 105.998 392.271 105.98100000000001 392.482 C 105.96700000000001 392.65400000000005 105.944 392.831 105.944 393.00500000000005 C 105.64 393.60300000000007 105.33500000000001 394.19900000000007 105.047 394.80400000000003 C 104.842 395.23400000000004 104.628 395.665 104.423 396.098 C 104.311 395.519 104.19500000000001 394.94100000000003 104.072 394.36400000000003 C 103.97 393.886 103.86200000000001 393.41 103.751 392.934 C 103.47 390.752 103.25200000000001 388.562 103.06700000000001 386.369 C 104.05300000000001 385.274 105.055 384.19300000000004 106.058 383.11300000000006 C 106.525 382.91400000000004 106.98200000000001 382.6890000000001 107.411 382.41600000000005 C 107.63 382.27700000000004 107.84100000000001 382.12100000000004 108.048 381.96500000000003 C 108.237 381.82300000000004 108.479 381.67 108.598 381.461 C 108.639 381.389 108.56 381.31800000000004 108.49 381.337 C 108.26599999999999 381.395 108.05999999999999 381.574 107.868 381.697 C 107.648 381.838 107.423 381.968 107.199 382.101 C 107.05499999999999 382.187 106.908 382.267 106.764 382.352 C 107.74199999999999 381.299 108.72 380.246 109.68599999999999 379.18199999999996 C 109.79299999999999 379.06399999999996 109.61099999999999 378.90599999999995 109.50099999999999 379.02 C 107.34499999999998 381.248 105.24099999999999 383.52599999999995 103.08299999999998 385.752 C 103.05499999999998 385.671 103.02099999999999 385.592 102.99199999999999 385.511 C 102.96499999999999 385.17400000000004 102.94099999999999 384.83700000000005 102.916 384.5 C 103.246 384.081 103.52499999999999 383.626 103.813 383.173 C 104.174 382.607 104.509 382.024 104.84100000000001 381.441 C 105.51800000000001 380.25 106.15100000000001 379.03099999999995 106.68400000000001 377.768 C 107.74300000000001 375.25899999999996 108.34900000000002 372.618 108.29500000000002 369.88599999999997 C 108.24000000000001 367.07399999999996 107.58500000000002 364.30699999999996 106.78300000000002 361.62399999999997 C 105.89700000000002 358.66099999999994 104.88600000000001 355.73299999999995 103.92200000000001 352.794 C 102.77900000000001 349.31 101.63600000000001 345.825 100.49700000000001 342.34 C 100.45200000000001 342.202 100.36000000000001 342.123 100.25500000000001 342.087 C 100.11800000000001 341.822 99.71000000000001 341.71999999999997 99.54700000000001 342.07099999999997 C 99.34300000000002 342.51199999999994 99.153 342.96 98.96800000000002 343.41099999999994 C 98.92400000000002 343.44999999999993 98.88800000000002 343.49999999999994 98.87300000000002 343.57499999999993 C 98.86500000000002 343.6169999999999 98.85800000000002 343.6599999999999 98.85000000000002 343.7029999999999 C 98.52700000000003 344.5089999999999 98.22600000000003 345.3239999999999 97.93400000000003 346.1389999999999 C 97.45500000000003 347.47899999999987 97.01500000000003 348.8339999999999 96.63100000000003 350.20499999999987 C 95.86000000000003 352.96299999999985 95.31400000000004 355.7909999999999 95.11700000000003 358.6509999999999 C 94.91200000000003 361.6219999999999 95.11300000000003 364.5909999999999 95.67800000000004 367.5139999999999 C 96.26700000000004 370.5599999999999 97.22500000000004 373.5229999999999 98.36400000000003 376.4049999999999 C 99.00300000000003 378.0209999999999 99.69400000000003 379.6189999999999 100.42700000000004 381.19499999999994 C 100.80200000000004 382.00199999999995 101.18400000000004 382.8039999999999 101.57100000000004 383.60599999999994 C 101.70300000000005 383.87899999999996 101.83700000000005 384.15399999999994 101.97300000000004 384.42799999999994 C 102.05400000000004 385.46799999999996 102.14400000000005 386.5079999999999 102.24100000000004 387.54699999999997 C 101.93400000000004 386.628 101.60500000000005 385.717 101.24300000000004 384.818 C 98.97300000000004 379.179 95.45100000000004 373.85499999999996 90.46400000000004 370.272 C 87.80000000000004 368.35699999999997 84.67500000000004 366.936 82.69100000000005 364.216 C 82.67400000000005 364.192 82.65200000000004 364.18 82.63100000000004 364.169 C 82.61700000000005 364.113 82.60700000000004 364.05699999999996 82.59300000000005 364.001 C 82.55300000000004 363.839 82.29500000000004 363.892 82.30700000000004 364.05499999999995 C 82.31200000000004 364.131 82.32200000000005 364.20599999999996 82.32800000000005 364.2819999999999 C 82.27700000000004 364.3109999999999 82.24200000000005 364.3639999999999 82.26800000000004 364.42799999999994 C 82.29800000000004 364.49999999999994 82.33100000000005 364.5709999999999 82.36100000000005 364.6429999999999 C 82.49300000000005 366.0739999999999 82.72400000000005 367.4919999999999 82.96100000000004 368.9099999999999 C 83.23000000000005 370.51699999999994 83.52900000000004 372.11799999999994 83.87000000000005 373.7109999999999 C 84.54200000000004 376.8569999999999 85.38200000000005 379.9739999999999 86.55500000000005 382.9729999999999 C 87.70700000000005 385.9169999999999 89.18000000000005 388.7409999999999 91.05400000000004 391.2909999999999 C 92.86800000000005 393.75799999999987 95.01200000000004 395.9639999999999 97.29800000000004 397.9949999999999 C 99.72000000000004 400.1469999999999 102.30200000000005 402.1069999999999 104.89100000000005 404.0529999999999 C 104.91400000000004 404.0809999999999 104.93900000000005 404.1059999999999 104.96600000000005 404.1229999999999 C 104.97600000000006 404.1879999999999 104.98600000000005 404.2529999999999 104.99600000000005 404.31799999999987 C 105.01300000000005 404.43199999999985 105.07300000000005 404.51299999999986 105.15000000000005 404.56599999999986 C 106.20900000000005 408.36899999999986 107.59500000000004 412.07099999999986 109.43500000000004 415.58299999999986 C 109.64400000000005 415.98199999999986 109.86200000000005 416.3799999999999 110.08400000000005 416.77599999999984 C 110.06200000000004 416.75099999999986 110.04000000000005 416.72499999999985 110.01800000000004 416.6999999999998 C 109.11600000000004 415.4219999999998 108.27700000000004 414.10299999999984 107.45200000000004 412.7749999999998 C 105.85800000000005 410.2099999999998 104.30600000000004 407.6069999999998 102.40900000000003 405.2489999999998 C 100.62800000000003 403.0339999999998 98.54700000000004 401.0259999999998 96.04200000000003 399.6489999999998 C 93.59900000000003 398.3049999999998 90.84800000000003 397.5949999999998 88.08900000000003 397.2949999999998 C 86.37500000000003 397.1089999999998 84.64800000000002 397.06999999999977 82.92600000000003 397.1099999999998 C 81.22100000000003 397.1499999999998 79.48700000000002 397.2109999999998 77.79900000000004 397.4699999999998 C 77.78600000000003 397.4569999999998 77.77300000000004 397.4429999999998 77.75900000000003 397.4299999999998 C 77.61500000000002 397.2879999999998 77.36400000000003 397.4889999999998 77.45700000000002 397.6529999999998 C 77.45300000000002 397.7259999999998 77.49800000000002 397.7979999999998 77.59000000000002 397.81499999999977 C 77.60000000000002 397.82699999999977 77.61100000000002 397.8379999999998 77.62100000000002 397.8499999999998 C 77.62900000000002 397.8859999999998 77.64900000000003 397.9179999999998 77.68900000000002 397.9359999999998 C 77.69300000000003 397.9379999999998 77.69700000000002 397.9389999999998 77.70100000000002 397.9409999999998 C 79.45900000000002 399.9719999999998 81.31000000000002 401.9259999999998 83.25200000000002 403.7829999999998 C 85.24200000000002 405.6869999999998 87.34700000000002 407.4759999999998 89.63800000000002 409.0079999999998 C 92.02500000000002 410.6039999999998 94.59400000000002 411.8039999999998 97.28500000000003 412.7889999999998 C 99.99000000000002 413.7789999999998 102.76300000000002 414.60099999999983 105.39600000000003 415.78099999999984 C 106.57100000000003 416.30699999999985 107.71900000000002 416.9039999999998 108.80300000000003 417.60099999999983 C 108.88600000000002 417.6759999999998 108.97000000000003 417.74999999999983 109.05300000000003 417.8249999999998 C 108.69100000000003 417.6539999999998 108.32400000000003 417.4909999999998 107.95000000000003 417.34099999999984 C 107.73500000000003 417.25399999999985 107.57200000000003 417.56399999999985 107.78700000000003 417.66799999999984 C 108.67800000000004 418.0989999999998 109.53000000000003 418.6299999999998 110.33800000000004 419.20299999999986 C 110.72900000000004 419.47999999999985 111.10300000000004 419.7769999999999 111.47500000000004 420.07899999999984 C 111.47800000000004 420.0819999999998 111.48200000000004 420.0849999999998 111.48500000000004 420.08799999999985 C 112.00900000000004 420.71599999999984 112.52800000000005 421.34799999999984 113.04300000000005 421.98299999999983 C 113.12300000000005 422.08099999999985 113.20300000000005 422.17999999999984 113.28300000000004 422.2789999999998 C 113.03400000000005 422.25399999999985 112.77900000000004 422.2439999999998 112.54500000000004 422.2139999999998 C 112.13500000000005 422.1619999999998 111.72500000000005 422.1059999999998 111.31600000000005 422.0439999999998 C 110.48000000000005 421.9159999999998 109.65000000000005 421.75199999999984 108.82500000000005 421.5639999999998 C 107.18100000000004 421.1889999999998 105.55500000000005 420.7219999999998 103.94500000000005 420.2219999999998 C 103.86800000000005 420.1979999999998 103.82400000000005 420.3239999999998 103.89800000000005 420.3559999999998 C 105.46500000000005 421.03299999999984 107.08600000000006 421.5459999999998 108.74600000000005 421.94199999999984 C 109.58700000000005 422.1419999999998 110.43400000000005 422.31399999999985 111.28500000000005 422.46599999999984 C 111.69200000000005 422.5389999999998 112.09900000000005 422.60699999999986 112.50800000000005 422.66499999999985 C 112.89000000000006 422.7189999999998 113.32500000000005 422.82599999999985 113.71600000000005 422.80399999999986 C 113.97900000000006 423.11499999999984 114.25100000000005 423.41699999999986 114.54700000000005 423.69599999999986 C 114.72300000000006 423.9449999999999 114.94900000000005 424.17499999999984 115.14100000000005 424.38099999999986 C 115.47900000000004 424.74199999999985 115.83000000000004 425.09299999999985 116.18500000000004 425.4379999999999 C 116.90800000000004 426.14099999999985 117.67100000000005 426.8029999999999 118.45500000000004 427.4369999999999 C 118.79400000000004 427.7109999999999 119.14000000000004 427.9769999999999 119.48800000000004 428.2389999999999 C 119.54400000000004 428.2819999999999 119.59600000000005 428.3299999999999 119.65300000000005 428.3719999999999 C 120.21100000000006 428.7969999999999 120.78100000000005 429.2069999999999 121.35800000000005 429.6049999999999 C 121.39300000000004 429.6289999999999 121.42900000000004 429.6349999999999 121.46300000000005 429.6339999999999 C 122.07000000000005 430.0419999999999 122.71300000000005 430.4309999999999 123.41000000000005 430.5929999999999 C 123.59800000000006 430.6369999999999 123.67800000000005 430.4059999999999 123.56400000000005 430.2839999999999 C 122.91600000000005 429.5889999999999 122.00400000000005 429.12599999999986 121.22600000000006 428.58999999999986 C 120.42700000000005 428.03999999999985 119.64500000000005 427.46299999999985 118.88700000000006 426.85699999999986 C 118.30800000000006 426.39399999999983 117.74800000000006 425.90799999999984 117.19500000000006 425.4139999999999 C 115.93500000000006 424.08799999999985 114.77100000000006 422.66999999999985 113.69800000000006 421.1869999999999 C 113.68500000000006 420.8439999999999 113.62900000000006 420.4989999999999 113.59500000000007 420.1609999999999 C 113.54700000000007 419.6709999999999 113.50500000000007 419.18099999999987 113.47100000000007 418.6899999999999 C 113.42200000000007 417.99599999999987 113.39600000000007 417.3009999999999 113.37800000000007 416.6059999999999 C 113.81300000000007 416.1339999999999 114.23100000000007 415.6489999999999 114.62200000000007 415.13799999999986 C 114.85400000000007 414.83499999999987 115.07900000000006 414.5239999999999 115.29300000000008 414.20799999999986 C 115.50000000000007 413.90299999999985 115.72600000000008 413.57899999999984 115.84700000000008 413.22999999999985 C 115.87600000000008 413.14599999999984 115.76000000000008 413.11499999999984 115.71000000000008 413.16099999999983 C 115.43600000000008 413.41499999999985 115.22000000000008 413.7509999999998 115.00100000000008 414.0529999999998 C 114.77600000000008 414.36199999999985 114.54700000000008 414.66799999999984 114.31700000000008 414.97299999999984 C 114.01100000000008 415.3779999999998 113.68800000000007 415.7719999999998 113.36900000000009 416.16899999999987 C 113.36600000000008 415.9879999999999 113.35900000000008 415.8079999999999 113.35800000000009 415.6269999999999 C 113.34500000000008 413.5999999999999 113.44700000000009 411.5879999999999 113.67400000000009 409.5739999999999 C 113.76600000000009 408.7589999999999 113.88700000000009 407.9479999999999 114.00400000000009 407.1369999999999 C 114.32600000000009 406.83499999999987 114.6360000000001 406.5209999999999 114.95500000000008 406.2159999999999 C 115.13200000000009 406.0469999999999 115.31600000000009 405.8839999999999 115.49500000000009 405.71699999999987 C 115.67100000000009 405.55199999999985 115.87600000000009 405.39499999999987 115.99400000000009 405.18199999999985 C 116.04600000000009 405.0889999999998 115.94400000000009 404.9859999999998 115.85000000000008 405.01599999999985 C 115.60900000000008 405.09099999999984 115.40700000000008 405.27999999999986 115.21500000000007 405.43899999999985 C 115.02700000000007 405.59499999999986 114.84900000000007 405.7649999999999 114.67400000000008 405.93499999999983 C 114.50200000000008 406.10099999999983 114.33700000000007 406.2719999999998 114.17800000000008 406.44899999999984 C 114.17700000000008 406.4449999999998 114.17600000000009 406.44199999999984 114.17500000000008 406.4379999999998 C 116.29400000000008 402.2339999999998 120.09500000000008 399.2679999999998 123.28500000000008 395.90799999999984 C 124.91400000000009 394.19199999999984 126.44000000000008 392.3129999999998 127.44900000000008 390.15699999999987 C 128.48200000000008 387.95099999999985 128.77200000000008 385.60199999999986 128.6380000000001 383.1879999999999 C 128.4850000000001 380.4259999999999 127.98200000000008 377.7119999999999 128.1570000000001 374.93599999999986 C 128.169 374.755 128.063 374.639 127.924 374.586 z M 105.631 360.562 C 106.473 363.19100000000003 107.236 365.875 107.482 368.634 C 107.724 371.35200000000003 107.361 374.02500000000003 106.413 376.583 C 105.889 377.997 105.22999999999999 379.36 104.512 380.685 C 104.158 381.337 103.786 381.978 103.413 382.619 C 103.345 382.735 103.27799999999999 382.853 103.21 382.96900000000005 C 103.473 382.1410000000001 103.66099999999999 381.27600000000007 103.848 380.44500000000005 C 104.122 379.22400000000005 104.342 377.9920000000001 104.514 376.75300000000004 C 104.856 374.29100000000005 105.00999999999999 371.797 105.014 369.31200000000007 C 105.023 363.93800000000005 104.232 358.59600000000006 102.988 353.3760000000001 C 102.65 351.9570000000001 102.275 350.5460000000001 101.876 349.1430000000001 C 103.146 352.944 104.41 356.746 105.631 360.562 z M 102.807 383.069 C 102.807 383.06800000000004 102.807 383.067 102.807 383.067 C 102.36500000000001 376.857 102.045 370.63800000000003 101.679 364.424 C 101.34 358.688 101.002 352.953 100.663 347.217 C 100.792 347.62199999999996 100.92 348.02799999999996 101.041 348.435 C 101.434 349.767 101.806 351.106 102.149 352.452 C 102.82900000000001 355.116 103.394 357.809 103.813 360.526 C 104.589 365.55400000000003 104.85600000000001 370.696 104.264 375.75800000000004 C 104.104 377.12700000000007 103.886 378.48900000000003 103.604 379.838 C 103.46 380.53000000000003 103.3 381.219 103.125 381.904 C 103.025 382.294 102.914 382.681 102.807 383.069 z M 99.313 344.831 C 99.391 344.636 99.467 344.44 99.545 344.24600000000004 C 99.57900000000001 345.463 99.682 346.67900000000003 99.754 347.89300000000003 L 100.037 352.668 C 100.22800000000001 355.88 100.418 359.092 100.60900000000001 362.30400000000003 C 100.97500000000001 368.47400000000005 101.31500000000001 374.64700000000005 101.71700000000001 380.81500000000005 C 101.29500000000002 379.38900000000007 100.89200000000001 377.958 100.54400000000001 376.5110000000001 C 99.91300000000001 373.8950000000001 99.39900000000002 371.2440000000001 99.06000000000002 368.57400000000007 C 98.38900000000001 363.2850000000001 98.15700000000001 357.9560000000001 98.46800000000002 352.6310000000001 C 98.55500000000002 351.1480000000001 98.68300000000002 349.6670000000001 98.85100000000001 348.1910000000001 C 98.979 347.066 99.15 345.949 99.313 344.831 z M 101.232 381.532 C 100.598 380.123 99.974 378.709 99.392 377.27799999999996 C 98.25099999999999 374.474 97.259 371.59999999999997 96.595 368.643 C 95.943 365.734 95.648 362.753 95.791 359.77299999999997 C 95.926 356.96099999999996 96.40599999999999 354.16999999999996 97.11699999999999 351.448 C 97.463 350.121 97.87299999999999 348.811 98.31799999999998 347.515 C 98.31399999999998 347.55199999999996 98.30999999999999 347.589 98.30499999999998 347.626 C 98.16099999999997 348.933 98.04799999999997 350.24399999999997 97.96499999999997 351.55699999999996 C 97.79599999999998 354.241 97.75899999999997 356.93399999999997 97.85399999999997 359.62199999999996 C 98.04299999999996 364.98199999999997 98.77399999999997 370.31399999999996 99.96499999999997 375.54299999999995 C 100.48199999999997 377.81399999999996 101.07099999999997 380.08399999999995 101.81599999999997 382.29599999999994 C 101.82999999999997 382.4869999999999 101.84199999999997 382.6789999999999 101.85599999999998 382.86999999999995 C 101.644 382.423 101.433 381.978 101.232 381.532 z M 103.63 398.179 C 103.758 398.85999999999996 103.854 399.54299999999995 103.94 400.226 C 102.55199999999999 396.437 100.89699999999999 392.749 98.979 389.197 C 96.67999999999999 384.938 94.003 380.888 91.011 377.085 C 89.566 375.248 88.04299999999999 373.46999999999997 86.429 371.779 C 86.263 371.46 86.095 371.142 85.93 370.822 C 86.69500000000001 371.666 87.536 372.443 88.349 373.165 C 90.45700000000001 375.03900000000004 92.57600000000001 376.863 94.422 379.00600000000003 C 98.071 383.242 100.818 388.23100000000005 102.478 393.56800000000004 C 102.949 395.081 103.338 396.621 103.63 398.179 z M 88.91 369.947 C 91.41799999999999 371.654 93.627 373.737 95.479 376.141 C 99.048 380.77200000000005 101.263 386.249 102.707 391.879 C 102.803 392.651 102.90799999999999 393.421 103.02 394.19 C 102.29599999999999 391.677 101.332 389.234 100.148 386.902 C 98.87599999999999 384.397 97.35199999999999 382.018 95.601 379.82 C 93.859 377.633 91.879 375.705 89.781 373.864 C 88.59 372.81899999999996 87.403 371.765 86.34 370.587 C 85.24900000000001 369.378 84.426 368.051 83.796 366.55199999999996 C 83.766 366.479 83.71000000000001 366.443 83.65100000000001 366.42999999999995 C 83.436 366.025 83.22200000000001 365.61899999999997 83.001 365.21599999999995 C 84.551 367.221 86.835 368.534 88.91 369.947 z M 92.317 391.825 C 88.342 386.80899999999997 86.142 380.767 84.704 374.592 C 84.50099999999999 373.722 84.315 372.84799999999996 84.137 371.97299999999996 C 84.379 372.73999999999995 84.633 373.50199999999995 84.894 374.25499999999994 C 85.80600000000001 376.8829999999999 86.884 379.4459999999999 88.089 381.95199999999994 C 90.49 386.9459999999999 93.5 391.64799999999997 97.03399999999999 395.91599999999994 C 98.166 397.28299999999996 99.35399999999998 398.60599999999994 100.589 399.8829999999999 C 97.583 397.456 94.72 394.857 92.317 391.825 z M 93.09 389.772 C 90.02600000000001 385.198 87.495 380.27299999999997 85.60300000000001 375.102 C 85.08000000000001 373.67199999999997 84.60000000000001 372.22499999999997 84.16900000000001 370.765 C 83.86600000000001 369.738 83.60100000000001 368.70099999999996 83.32700000000001 367.666 C 83.24600000000001 367.21 83.16600000000001 366.753 83.08100000000002 366.298 C 84.02400000000002 368.377 85.07600000000002 370.41 86.11600000000001 372.438 C 87.46900000000001 375.077 88.86100000000002 377.697 90.28800000000001 380.29699999999997 C 93.15200000000002 385.515 96.18200000000002 390.63699999999994 99.35900000000001 395.671 C 100.69600000000001 397.789 102.063 399.892 103.46600000000001 401.96999999999997 C 99.567 398.292 96.075 394.228 93.09 389.772 z M 95.917 388.635 C 92.871 383.55 89.933 378.402 87.152 373.167 C 87.07000000000001 373.012 86.99 372.85499999999996 86.909 372.7 C 89.623 375.787 92.173 379.008 94.44000000000001 382.44399999999996 C 97.08400000000002 386.45099999999996 99.40700000000001 390.66599999999994 101.36300000000001 395.04999999999995 C 102.24800000000002 397.03399999999993 103.05200000000002 399.054 103.78200000000001 401.10099999999994 C 101.093 396.987 98.443 392.852 95.917 388.635 z M 98.975 412.645 C 96.238 411.705 93.556 410.65299999999996 91.07199999999999 409.15 C 88.68699999999998 407.707 86.50199999999998 405.95399999999995 84.448 404.07399999999996 C 82.44699999999999 402.24299999999994 80.586 400.27299999999997 78.678 398.34899999999993 C 78.732 398.37199999999996 78.786 398.3929999999999 78.84 398.4149999999999 C 79.598 399.1909999999999 80.443 399.8909999999999 81.291 400.5609999999999 C 82.23899999999999 401.30999999999995 83.22 402.01499999999993 84.225 402.68499999999995 C 86.294 404.06399999999996 88.457 405.29599999999994 90.643 406.47599999999994 C 94.997 408.82599999999996 99.477 410.9789999999999 103.63 413.6809999999999 C 104.371 414.16299999999995 105.094 414.67299999999994 105.807 415.19499999999994 C 103.594 414.191 101.272 413.434 98.975 412.645 z M 107.824 416.028 C 106.867 415.242 105.861 414.514 104.835 413.821 C 102.80199999999999 412.446 100.67399999999999 411.21900000000005 98.514 410.05600000000004 C 94.12299999999999 407.69000000000005 89.578 405.61 85.341 402.96400000000006 C 84.16199999999999 402.22700000000003 83.00699999999999 401.45000000000005 81.893 400.61600000000004 C 81.087 400.01300000000003 80.324 399.36300000000006 79.56 398.71200000000005 C 81.664 399.57700000000006 83.793 400.386 85.894 401.25900000000007 C 88.599 402.3830000000001 91.268 403.6000000000001 93.848 404.98800000000006 C 96.448 406.3860000000001 98.952 407.96600000000007 101.275 409.79200000000003 C 103.691 411.692 105.91300000000001 413.83500000000004 107.99900000000001 416.09000000000003 C 108.09200000000001 416.19100000000003 108.183 416.29400000000004 108.27400000000002 416.396 C 108.122 416.273 107.972 416.15 107.824 416.028 z M 78.831 398.013 C 79.283 398.116 79.738 398.21099999999996 80.191 398.308 C 80.93 398.466 81.669 398.625 82.41 398.776 C 83.848 399.069 85.285 399.36 86.72399999999999 399.648 C 89.28899999999999 400.16200000000003 91.88 400.70300000000003 94.29599999999999 401.735 C 96.732 402.776 98.839 404.35200000000003 100.689 406.23400000000004 C 102.56599999999999 408.14300000000003 104.18199999999999 410.29100000000005 105.79599999999999 412.42100000000005 C 106.16 412.90100000000007 106.52499999999999 413.386 106.89399999999999 413.87100000000004 C 105.523 412.475 104.09499999999998 411.13700000000006 102.57799999999999 409.90000000000003 C 97.96 406.13200000000006 92.62899999999999 403.39500000000004 87.148 401.117 C 84.421 399.982 81.646 398.919 78.831 398.013 z M 101.594 406.364 C 99.779 404.48999999999995 97.72 402.822 95.353 401.69899999999996 C 92.979 400.573 90.404 399.95199999999994 87.841 399.429 C 86.267 399.10799999999995 84.689 398.808 83.11099999999999 398.506 C 82.26499999999999 398.344 81.419 398.18499999999995 80.57199999999999 398.03099999999995 C 80.16199999999999 397.95699999999994 79.75299999999999 397.87399999999997 79.34199999999998 397.7989999999999 C 80.32999999999998 397.76699999999994 81.31899999999999 397.7029999999999 82.30599999999998 397.6769999999999 C 83.87899999999998 397.6359999999999 85.45699999999998 397.6459999999999 87.02599999999998 397.77699999999993 C 89.75599999999999 398.00499999999994 92.49999999999999 398.5849999999999 94.97799999999998 399.7819999999999 C 100.13099999999999 402.2699999999999 103.31299999999999 407.23999999999995 106.22799999999998 411.9579999999999 C 104.757 410.03 103.282 408.107 101.594 406.364 z M 113.375 403.217 C 113.181 402.084 113.082 400.935 113.071 399.786 C 113.04899999999999 397.499 113.39399999999999 395.208 114.026 393.012 C 115.13 389.171 117.14 385.664 119.65899999999999 382.58 C 118.883 383.80199999999996 118.169 385.063 117.53099999999999 386.363 C 115.65799999999999 390.18 114.386 394.306 113.803 398.518 C 113.57 400.203 113.454 401.90099999999995 113.451 403.59999999999997 C 113.425 403.472 113.397 403.345 113.375 403.217 z M 115.3 393.149 C 116.487 389.089 118.35 385.209 120.77499999999999 381.743 C 121.327 380.954 121.916 380.192 122.526 379.447 C 123.089 378.896 123.66199999999999 378.356 124.253 377.836 C 124.911 377.257 125.605 376.723 126.292 376.182 C 125.709 377.06600000000003 125.164 377.978 124.624 378.884 C 123.75399999999999 380.344 122.90899999999999 381.817 122.092 383.307 C 120.461 386.28200000000004 118.938 389.31800000000004 117.615 392.442 C 115.99499999999999 396.266 114.658 400.224 113.732 404.274 C 113.716 400.514 114.244 396.76 115.3 393.149 z M 127.764 382.195 C 127.982 384.605 127.932 387.001 126.999 389.269 C 125.289 393.425 121.74 396.369 118.649 399.507 C 119.868 397.94 121.08500000000001 396.37 122.231 394.748 C 124.452 391.604 126.359 388.187 127.258 384.416 C 127.47999999999999 383.487 127.625 382.542 127.69999999999999 381.589 C 127.721 381.791 127.745 381.993 127.764 382.195 z M 127.347 381.09 C 127.31299999999999 382.02099999999996 127.195 382.947 127.012 383.85999999999996 C 126.646 385.68199999999996 126.009 387.44199999999995 125.217 389.11999999999995 C 123.444 392.87299999999993 120.864 396.14799999999997 118.334 399.40899999999993 C 117.555 400.41299999999995 116.778 401.4189999999999 116.03 402.44499999999994 C 115.883 402.6329999999999 115.736 402.81999999999994 115.595 403.01199999999994 C 115.644 402.9119999999999 115.691 402.80999999999995 115.741 402.7099999999999 C 116.239 401.7109999999999 116.762 400.7249999999999 117.297 399.7459999999999 C 118.369 397.7849999999999 119.496 395.8549999999999 120.606 393.9149999999999 C 122.707 390.2419999999999 124.78999999999999 386.5179999999999 126.23599999999999 382.5279999999999 C 126.64599999999999 381.3959999999999 126.98799999999999 380.24099999999993 127.28099999999999 379.0739999999999 C 127.322 379.745 127.371 380.412 127.347 381.09 z M 127.282 376.52 C 126.649 380.328 125.271 383.974 123.596 387.441 C 121.699 391.36899999999997 119.406 395.08099999999996 117.297 398.89399999999995 C 116.7 399.97299999999996 116.11999999999999 401.06199999999995 115.567 402.16499999999996 C 115.28599999999999 402.72499999999997 115.01299999999999 403.28799999999995 114.749 403.85599999999994 C 114.69099999999999 403.98099999999994 114.63199999999999 404.10599999999994 114.574 404.23299999999995 C 114.67399999999999 403.8059999999999 114.77199999999999 403.37899999999996 114.883 402.95399999999995 C 116.554 396.58299999999997 119.256 390.52699999999993 122.371 384.73999999999995 C 123.268 383.07399999999996 124.20299999999999 381.42999999999995 125.157 379.79599999999994 C 125.86099999999999 378.59099999999995 126.61 377.40299999999996 127.279 376.17499999999995 C 127.279 376.29 127.282 376.405 127.282 376.52 z" stroke-linecap="round" />
</g>
</svg>